<?xml version="1.0" encoding="UTF-8"?>
<svg id="_圖層_2" data-name="圖層 2" xmlns="http://www.w3.org/2000/svg" xmlns:xlink="http://www.w3.org/1999/xlink" viewBox="0 0 529.73 83.39">
  <defs>
    <style>
      .cls-1 {
        fill: #fff;
      }

      .cls-2 {
        fill: #dbdcdc;
      }

      .cls-3 {
        filter: url(#drop-shadow-1);
      }

      .cls-4 {
        fill: #c20d23;
      }

      .cls-5 {
        fill: #151615;
      }

      .cls-6 {
        fill: #f7cd1c;
      }
    </style>
    <filter id="drop-shadow-1" filterUnits="userSpaceOnUse">
      <feOffset dx="0" dy="0"/>
      <feGaussianBlur result="blur" stdDeviation="5.16"/>
      <feFlood flood-color="#162059" flood-opacity=".49"/>
      <feComposite in2="blur" operator="in"/>
      <feComposite in="SourceGraphic"/>
    </filter>
  </defs>
  <g id="_圖層_2-2" data-name="圖層 2">
    <g>
      <rect class="cls-4" x="228.23" y="12.2" width="145.6" height="10.8"/>
      <g>
        <path class="cls-2" d="M374.46,51.21c-.46-.79-.83-1.69-1.09-2.69-.26-1-.4-1.96-.4-2.88s.13-1.91,.4-2.9c.26-.99,.63-1.88,1.09-2.67h.69c-.48,.82-.85,1.72-1.11,2.71-.26,.99-.39,1.94-.39,2.86s.13,1.84,.4,2.83c.26,.99,.63,1.9,1.1,2.74h-.69Z"/>
        <path class="cls-2" d="M384.19,41.58c-.27,.52-.56,1.01-.85,1.47v8.17h-.66v-7.23c-1.25,1.68-2.78,3.22-4.61,4.6l-.42-.57c1.27-.92,2.4-1.93,3.4-3.04,.99-1.11,1.8-2.25,2.41-3.4h-5.5v-.63h10.16v.63h-3.94Zm.21,2.74c.58,.5,1.27,1.12,2.07,1.84,.8,.72,1.43,1.31,1.89,1.76l-.46,.53c-.46-.48-1.08-1.08-1.85-1.79s-1.45-1.33-2.04-1.84l.38-.5Z"/>
        <path class="cls-2" d="M391.9,51.11v-10.45h3.17v.56l-1.05,3.02c.32,.48,.58,.97,.76,1.48s.28,.97,.28,1.38-.05,.76-.16,1c-.1,.24-.27,.41-.5,.51-.23,.1-.55,.15-.96,.15h-.59l-.11-.57h.57c.32,0,.56-.03,.73-.1,.16-.07,.28-.18,.35-.35,.07-.17,.1-.42,.1-.75,0-.35-.09-.77-.27-1.24-.18-.47-.45-.94-.79-1.42l1.04-3.12h-1.97v9.89h-.59Zm8.79-1.65c.44,.31,.97,.59,1.6,.87l-.36,.53c-.81-.39-1.47-.8-1.99-1.24s-.94-.95-1.29-1.54-.64-1.32-.9-2.19h-1.24v4.44l2.07-1.1,.11,.59-2.8,1.4-.29-.53c.14-.09,.23-.16,.27-.21,.04-.05,.06-.12,.06-.2v-9.53h5.26v5.14h-2.88c.29,.88,.6,1.58,.93,2.08,.73-.46,1.45-1,2.18-1.61l.35,.43c-.73,.59-1.46,1.13-2.2,1.62,.31,.39,.69,.73,1.13,1.04Zm-.07-6.36v-1.79h-4.1v1.79h4.1Zm0,.54h-4.1v1.7h4.1v-1.7Z"/>
        <path class="cls-2" d="M415.65,41.23v.54h-9.12v3.22c0,1.08-.03,1.96-.09,2.62-.06,.67-.16,1.26-.3,1.79-.14,.52-.34,1.12-.62,1.79l-.52-.29c.28-.67,.49-1.25,.62-1.75,.14-.5,.23-1.05,.28-1.67s.08-1.45,.08-2.49v-3.78h4.9l-.51-1.18,.64-.09,.54,1.26h4.08Zm-7.24,3.13c-.43-.58-.84-1.09-1.23-1.55l.36-.3c.16,.17,.36,.4,.61,.72,.25,.31,.46,.59,.64,.83l-.38,.3Zm1.4-2.22v2.69h1.91v5.12c0,.42-.09,.7-.26,.85-.17,.14-.47,.22-.9,.22h-.78l-.09-.5h.74c.31,0,.51-.05,.62-.14s.16-.27,.16-.53v-4.53h-3.34v5.69h-.51v-6.19h1.93v-2.69h.52Zm-1.21,4.28h1.88v2.96h-1.88v-2.96Zm.41,2.49h1.07v-2.01h-1.07v2.01Zm1.25-4.78c.59-.69,1.01-1.23,1.27-1.61l.4,.27c-.15,.21-.36,.5-.64,.84s-.5,.61-.66,.79l-.37-.3Zm5.48,6.58l-.35,.46c-.62-.59-1.13-1.25-1.54-1.98-.38,.62-.94,1.29-1.67,2.01l-.32-.47c.74-.7,1.31-1.4,1.71-2.09-.45-.94-.74-1.99-.89-3.16-.21,.36-.38,.66-.53,.88l-.31-.48c.31-.47,.62-1.07,.9-1.81,.29-.73,.49-1.41,.61-2.02l.52,.09c-.12,.59-.28,1.13-.46,1.62h2.31v.53h-.51c-.07,.96-.19,1.78-.36,2.47-.17,.69-.4,1.32-.71,1.9,.41,.76,.94,1.44,1.58,2.05Zm-1.87-2.65c.24-.5,.42-1.06,.56-1.67s.23-1.31,.3-2.11h-1.51l-.16,.4c.12,1.28,.4,2.41,.82,3.38Z"/>
        <path class="cls-2" d="M419.93,45.73v.58h2.05v4.91h-.52v-4.32h-1.55c-.02,1.01-.1,1.82-.22,2.43-.12,.62-.32,1.26-.6,1.95l-.53-.27c.22-.56,.39-1.06,.5-1.49,.11-.43,.19-.94,.24-1.54,.05-.6,.07-1.41,.07-2.43v-4.94h.56v3.29h1.44v-3.57h.52v3.57h.87v.59h-2.82v1.23Zm9.51,2.71v.57h-2.72v2.28h-.59v-2.28h-3.68v-.57h1.16l-.25-.36c.43-.27,.79-.53,1.07-.78,.29-.25,.52-.51,.7-.79h-1.86v-5.1h1.86c.26-.61,.45-1.09,.56-1.44l.59,.15c-.07,.26-.24,.69-.5,1.29h2.92v5.1h-2.98c-.19,.36-.44,.7-.75,1.01s-.7,.62-1.17,.92h2.31v-1.47h.59v1.47h2.72Zm-3.7-4.83v-1.65h-1.92v1.71h1.92v-.06Zm-1.92,2.33h1.6c.17-.42,.27-1,.31-1.72h-1.91v1.72Zm4.34,0v-1.72h-1.91c-.04,.68-.14,1.25-.29,1.72h2.19Zm-1.89-2.27h1.89v-1.71h-1.89v1.71Z"/>
        <path class="cls-2" d="M435.13,40.28c-.26,.94-.55,1.83-.89,2.67v8.36h-.58v-7.03c-.4,.8-.81,1.52-1.24,2.15l-.26-.68c.41-.6,.83-1.41,1.26-2.42,.43-1.01,.8-2.08,1.13-3.21l.58,.16Zm7.79,10.82c-1.91-.27-3.41-.72-4.51-1.35-.32,.31-.74,.59-1.27,.84s-1.19,.51-1.99,.75l-.27-.58c1.39-.4,2.39-.86,2.98-1.36-.69-.48-1.26-1.09-1.72-1.84l.43-.36c.44,.73,1,1.32,1.68,1.77,.21-.27,.36-.59,.44-.94,.08-.35,.12-.78,.12-1.29h0s-2.97-.01-2.97-.01v-2.97h2.97c0-.32,.01-.8,.01-1.42h-3.48v-.58h3.48v-1.65h.58v1.65h3.54v.58h-3.54v1.42h2.98v2.97h-2.98c0,.56-.05,1.05-.15,1.47s-.26,.78-.47,1.1c1.05,.57,2.48,.97,4.28,1.19l-.16,.62Zm-6.49-6.8v1.86h2.39v-1.86h-2.39Zm5.38,1.86v-1.86h-2.4v1.86h2.4Z"/>
        <path class="cls-2" d="M447.19,40.87h8.71v8.88c0,.35-.04,.61-.13,.8-.09,.19-.23,.32-.44,.4-.21,.08-.5,.12-.88,.12h-1.29l-.1-.63h1.23c.29,0,.5-.03,.64-.07,.14-.05,.23-.13,.27-.25,.04-.12,.07-.3,.07-.54v-2.02h-3.44v3.49h-.62v-3.49h-3.43c-.06,.77-.17,1.42-.35,1.95-.17,.53-.46,1.12-.85,1.78l-.57-.31c.35-.55,.6-1.04,.76-1.46,.16-.42,.27-.9,.33-1.44s.09-1.29,.09-2.25v-4.96Zm4.02,6.07v-2.36h-3.39v1.46c0,.41,0,.71-.01,.9h3.4Zm0-2.98v-2.46h-3.39v2.46h3.39Zm.62,0h3.44v-2.46h-3.44v2.46Zm0,.62v2.36h3.44v-2.36h-3.44Z"/>
        <path class="cls-2" d="M463.28,47.39c-.24-.25-.68-.68-1.31-1.3v5.17h-.56v-5.58c-.41,1.2-.93,2.29-1.55,3.27l-.36-.51c.4-.63,.76-1.32,1.08-2.04,.33-.73,.59-1.44,.8-2.15h-1.71v-.62h1.73v-2.02c-.56,.13-1.11,.24-1.66,.32l-.05-.58c1.6-.29,2.87-.58,3.8-.87l.15,.58c-.4,.12-.96,.26-1.68,.43v2.13h1.67v.62h-1.67v1.11c.77,.7,1.32,1.23,1.67,1.6l-.36,.43Zm3.96,.9v1.78h3.21v.58h-7.17v-.58h3.35v-1.78h-2.53v-.56h2.53v-1.77h-2.75v-.56h6.15v.56h-2.8v1.77h2.46v.56h-2.46Zm-2.95-7.45h5.29v3.18h-5.29v-3.18Zm.59,2.64h4.11v-2.09h-4.11v2.09Z"/>
        <path class="cls-2" d="M475.01,44.03v1.3c0,.97-.04,1.79-.12,2.46-.08,.67-.21,1.26-.38,1.78-.17,.52-.41,1.08-.72,1.7l-.54-.32c.31-.6,.55-1.16,.71-1.66,.16-.5,.28-1.07,.35-1.7,.07-.63,.11-1.44,.11-2.42v-3.76h4.68c-.12-.41-.26-.86-.43-1.34l.67-.11,.5,1.45h4.16v.56h-2.2v1.52h2.14v.54h-2.14v1.89h-4.59v-1.89h-2.17Zm8.85,7.12c-.94-.14-1.77-.31-2.5-.5-.73-.19-1.39-.43-1.98-.71-1.12,.51-2.55,.94-4.28,1.3l-.22-.58c1.58-.29,2.86-.64,3.86-1.05-.86-.5-1.71-1.22-2.56-2.14v-.52h6.45v.53c-.67,.85-1.53,1.56-2.59,2.14,1.05,.41,2.38,.72,4.01,.93l-.19,.61Zm-6.68-7.66v-1.52h-2.17v1.52h2.17Zm-.19,3.97c.74,.8,1.54,1.42,2.39,1.84,.99-.49,1.81-1.1,2.45-1.84h-4.84Zm.77-3.97h3.4v-1.52h-3.4v1.52Zm0,1.91h3.4v-1.36h-3.4v1.36Z"/>
        <path class="cls-2" d="M491.72,43.4l.07,.56-4.04,1.15-.19-.56c.12-.05,.21-.1,.25-.15,.04-.05,.07-.13,.07-.23v-4.06h.59v1.56h3.29v.56h-3.29v2.08l3.23-.9Zm.32,1.29c-.07,.21-.24,.65-.52,1.34h4.53v5.22h-.62v-.63h-6.51v.64h-.61v-5.24h2.54c.26-.58,.44-1.06,.54-1.45l.64,.11Zm-3.12,3.38h6.51v-1.49h-6.51v1.49Zm0,.53v1.49h6.51v-1.49h-6.51Zm8.47-6.33c0,.08-.03,.51-.06,1.29-.03,.45-.16,.77-.37,.94-.21,.17-.58,.26-1.1,.26h-2.07c-.42,0-.72-.09-.91-.28s-.28-.52-.28-.98v-3.47h.61v2.07c.56-.19,1.18-.42,1.86-.7s1.22-.51,1.62-.71l.22,.52c-.38,.2-.93,.44-1.67,.72-.73,.29-1.41,.53-2.04,.75v.66c0,.35,.06,.59,.18,.7,.12,.11,.34,.17,.65,.17h1.75c.27,0,.48-.02,.62-.07,.14-.04,.24-.13,.3-.25,.06-.12,.09-.31,.1-.54l.03-1.2,.57,.14Z"/>
        <path class="cls-2" d="M511.4,40.92v.61h-1.63v7.87c0,.44-.05,.77-.15,.99-.1,.22-.27,.38-.52,.46-.25,.09-.62,.13-1.11,.13h-1.55l-.11-.63h1.54c.37,0,.64-.03,.82-.08,.17-.05,.29-.16,.35-.31,.06-.15,.09-.39,.09-.71v-7.72h-8.49v-.61h10.77Zm-9.38,2.74h4.73v4.69h-4.73v-4.69Zm.61,4.1h3.5v-3.5h-3.5v3.5Z"/>
        <path class="cls-2" d="M517.82,45.73l-1.35,.52v3.69c0,.3-.03,.52-.09,.67-.06,.15-.17,.26-.33,.32s-.41,.09-.74,.09h-.84l-.12-.58h.83c.22,0,.39-.02,.49-.06,.1-.04,.17-.11,.2-.21,.03-.09,.05-.24,.05-.44v-3.27c-.53,.21-1.03,.39-1.51,.56l-.17-.62c.64-.22,1.2-.42,1.68-.59v-2.62h-1.56v-.57h1.56v-2.36h.56v2.36h1.12v.57h-1.12v2.41l1.19-.47,.09,.31,.07,.3Zm3.96,2.24c.52,1.25,1.6,2.13,3.25,2.66l-.23,.57c-1.76-.65-2.9-1.6-3.44-2.85-.48,1.3-1.75,2.27-3.82,2.91l-.27-.54c1.03-.32,1.85-.71,2.45-1.16s1-.98,1.2-1.58h-3.18v-.57h3.3c.02-.17,.03-.3,.03-.4v-1.03h.54v1.42s3.43,0,3.43,0v.57h-3.24Zm-3.32-4.64l-.48,.48-.29-.53c.59-.55,1.08-1.09,1.48-1.62,.4-.52,.74-1.11,1.02-1.75l.58,.12c-.18,.42-.38,.8-.58,1.14h3.29v.51l-1.04,1.45h1.83v3.6h-.53v-3.08h-4.75v3.01h-.53v-3.33Zm4.31-1.61h-2.93c-.31,.43-.7,.9-1.18,1.41h3.08l1.03-1.41Zm-3.38,4.28c.13-.17,.34-.46,.62-.89,.28-.43,.48-.75,.61-.96l.46,.26c-.12,.21-.32,.53-.61,.97s-.5,.75-.64,.93l-.43-.31Zm3.48,.29c-.28-.46-.68-1.06-1.19-1.81l.41-.31c.22,.3,.63,.89,1.23,1.78l-.45,.33Z"/>
        <path class="cls-2" d="M527.55,51.21c.47-.83,.84-1.74,1.1-2.73,.26-1,.4-1.94,.4-2.84s-.13-1.87-.39-2.86-.63-1.89-1.11-2.71h.69c.46,.78,.83,1.67,1.09,2.67,.26,.99,.4,1.96,.4,2.9s-.13,1.9-.4,2.89c-.26,1-.63,1.89-1.09,2.68h-.69Z"/>
      </g>
      <g>
        <path class="cls-2" d="M307.56,82.55c-.46-.79-.83-1.69-1.09-2.68-.26-.99-.4-1.96-.4-2.89s.13-1.91,.4-2.9c.26-.99,.63-1.88,1.09-2.67h.69c-.48,.82-.85,1.72-1.11,2.71s-.39,1.94-.39,2.86,.13,1.85,.4,2.84c.26,.99,.63,1.9,1.1,2.73h-.69Z"/>
        <path class="cls-2" d="M318.19,77.14v4.01h4.56v.64h-10.71v-.64h1.93v-6.24h.62v6.24h2.96v-8.07h-4.87v-.66h9.64v.66h-4.13v3.4h3.8v.66h-3.8Z"/>
        <path class="cls-2" d="M331.37,71.32v2.22h4.58v2.23h-.59v-1.66h-8.57v1.65h-.61v-2.22h4.59v-2.22h.59Zm0,6.24v1.13h3.92v2.02c0,.29-.04,.51-.12,.67-.08,.16-.21,.27-.4,.33-.19,.06-.45,.09-.8,.09h-1.28l-.09-.57h1.2c.27,0,.47-.02,.59-.06,.12-.04,.2-.1,.24-.19s.06-.24,.06-.45v-1.29h-3.33v3.37h-.59v-3.37h-3.32v2.56h-.61v-3.12h3.92v-1.13h-3.06v-2.34h6.71v2.34h-3.06Zm-2.48-4.11c-.64-.59-1.21-1.08-1.71-1.47l.41-.4c.29,.21,.86,.7,1.71,1.45l-.41,.42Zm4.96,2.28h-5.57v1.34h5.57v-1.34Zm1.05-3.78c-.78,.74-1.35,1.24-1.71,1.5l-.41-.38c.25-.2,.54-.45,.88-.74,.34-.3,.62-.54,.82-.74l.41,.37Z"/>
        <path class="cls-2" d="M348.78,78.01h.94l-.07,.96c-.1,1.33-.15,2.03-.16,2.09-.03,.34-.1,.59-.2,.77-.1,.17-.25,.29-.45,.37s-.49,.11-.87,.11h-1.3l-.09-.56h1.2c.3,0,.52-.03,.67-.07,.15-.05,.26-.14,.33-.26,.07-.12,.13-.31,.16-.56,.03-.3,.07-.68,.1-1.14s.06-.85,.07-1.15h-7.7c-.52,.65-1.12,1.29-1.79,1.91l-.29-.57c.92-.84,1.68-1.72,2.3-2.63,.61-.91,1.14-1.91,1.57-3h-3.39v-.56h3.61c.26-.72,.51-1.54,.76-2.45l.59,.14c-.25,.88-.49,1.65-.73,2.31h4.48l-.4,2.14h1l-.35,2.15Zm-7.97,3.76c.39-.74,.68-1.54,.89-2.38l.51,.14c-.08,.4-.2,.82-.36,1.26-.16,.43-.33,.83-.52,1.19l-.52-.21Zm1.37-8.39c-.25-.31-.69-.82-1.31-1.51l.4-.37,1.34,1.49-.42,.4Zm.66,3.03c-.3,.54-.63,1.08-1,1.6h6.38l.27-1.6h-5.64Zm4.99-2.14h-4c-.21,.52-.44,1.05-.69,1.58h4.39l.3-1.58Zm-4.01,5.21c.07,.35,.18,1.12,.33,2.31l-.51,.04c-.04-.35-.09-.74-.16-1.18-.06-.44-.12-.81-.18-1.11l.51-.06Zm1.81-.15c.16,.45,.36,1.12,.62,2.02l-.52,.14c-.26-.92-.45-1.58-.58-1.99l.48-.16Zm1.73-.26c.09,.19,.21,.48,.37,.86,.15,.38,.28,.72,.39,1l-.5,.21c-.1-.29-.23-.63-.38-1.02-.15-.39-.27-.68-.37-.86l.48-.19Z"/>
        <path class="cls-2" d="M355.34,81.78h-.73v-8.5l-1.86,1.02v-.77l2.04-1.1h.54v9.36Z"/>
        <path class="cls-2" d="M369.62,78.97v.62h-4.42v2.98h-.64v-2.98h-5.57v-.62h1.81v-3.34h3.76v-2.4h-3.08c-.62,.99-1.31,1.89-2.08,2.71l-.4-.53c.59-.61,1.14-1.29,1.63-2.02,.5-.74,.9-1.47,1.2-2.21l.62,.19c-.18,.42-.39,.84-.63,1.26h7.45v.61h-4.07v2.4h3.76v.59h-3.76v2.75h4.42Zm-8.22-2.75v2.75h3.16v-2.75h-3.16Z"/>
        <path class="cls-2" d="M375.6,71.68c-.26,.85-.58,1.74-.98,2.67v8.22h-.59v-6.96c-.45,.87-.88,1.59-1.31,2.18l-.3-.62c.45-.67,.92-1.54,1.41-2.6s.88-2.08,1.15-3.06l.62,.16Zm4.35,6.29c.4,.68,.88,1.28,1.45,1.8s1.25,1.01,2.03,1.45l-.32,.56c-.76-.45-1.41-.94-1.96-1.47-.54-.52-1.02-1.12-1.42-1.8v4.04h-.62v-3.97c-.44,.68-.93,1.27-1.49,1.79-.56,.52-1.25,1.01-2.07,1.49l-.33-.54c.87-.48,1.59-.97,2.15-1.49s1.06-1.13,1.52-1.86h-3.26v-.57h3.49v-1.58h-2.59v-3.66h5.83v3.66h-2.62v1.58h3.54v.57h-3.32Zm1.78-5.24h-4.59v2.5h4.59v-2.5Z"/>
        <path class="cls-2" d="M386.87,82.63v-10.52h9.46v10.52h-.62v-.67h-8.23v.67h-.61Zm.61-9.94v8.71h8.23v-8.71h-8.23Zm7.43,1.93v.57h-3.02v1.62h2.03v3.17h-4.63v-3.17h2.02v-1.62h-3.02v-.57h3.02v-1.49h.58v1.49h3.02Zm-5.06,4.84h3.52v-2.1h-3.52v2.1Z"/>
        <path class="cls-2" d="M400.76,82.55c.47-.83,.84-1.74,1.1-2.73,.26-1,.4-1.94,.4-2.84s-.13-1.87-.39-2.86c-.26-.99-.63-1.89-1.11-2.71h.69c.46,.78,.83,1.67,1.09,2.67,.26,.99,.4,1.96,.4,2.9s-.13,1.9-.4,2.89c-.26,1-.63,1.89-1.09,2.68h-.69Z"/>
      </g>
      <g class="cls-3">
        <path class="cls-1" d="M87.29,17.91l-.52,2.91h-10.15c-1.45,0-2.61-.18-3.47-.54-.87-.36-1.67-.98-2.4-1.86l-2.51,2.83-1.28-3.56,2.02-1.84v-5.42h-1.79v-3.14h4.82V15.78c.43,.78,1.01,1.33,1.73,1.65s1.74,.48,3.07,.48h10.49Zm-17.37-11.54c-.34-.72-.79-1.57-1.32-2.57-.54-.99-.96-1.75-1.28-2.28l2.78-1.46c.34,.57,.78,1.32,1.3,2.26,.52,.94,.97,1.77,1.35,2.49l-2.82,1.55Zm3.59-1.41h4.89v-.99h-5.4V1.57h5.4V.34h3.03V1.57h5.45V3.97h-5.45v.99h4.91v7.98h-4.91v1.05h5.72v2.44h-5.72v1.1h-3.03v-1.1h-5.67v-2.44h5.67v-1.05h-4.89V4.96Zm4.89,3.07v-1.12h-2.04v1.12h2.04Zm-2.04,1.84v1.1h2.04v-1.1h-2.04Zm7.08-1.84v-1.12h-2.02v1.12h2.02Zm-2.02,1.84v1.1h2.02v-1.1h-2.02Z"/>
        <path class="cls-1" d="M89.91,20.6c.18-.88,.34-1.85,.49-2.91,.15-1.06,.25-1.95,.31-2.67l1.95,.09c-.13,2.27-.37,4.19-.7,5.76l-2.06-.27Zm.92-12.02l-.74-2.11c1.15-2.03,2.2-4.15,3.14-6.34l2.31,.81c-.85,1.88-1.78,3.64-2.78,5.27l1.3-.16,.34-.61c.52-.97,.83-1.55,.92-1.73l2.04,1.19c-1.29,2.32-2.73,4.6-4.33,6.86l1.91-.4-.34-1.48,1.75-.52c.3,1.03,.64,2.44,1.03,4.21l.13,.56-1.91,.49c-.12-.57-.19-.9-.22-1.01l-4.44,.72-.72-2.31c.67-.93,1.48-2.13,2.42-3.61l-1.82,.16Zm3.79,6.43c.16,1.08,.34,2.82,.52,5.22l-1.93,.18c-.03-1.96-.12-3.69-.27-5.2l1.68-.2Zm11.97,3.21c1.81,.42,3.15,.75,4.04,1.01l-.76,1.95c-.7-.24-1.62-.52-2.76-.83-1.14-.31-2.04-.54-2.71-.67l.63-1.46h-2.91l.81,1.35c-2.35,.79-4.21,1.33-5.6,1.61l-.63-1.5-.72,.18c-.15-.99-.28-1.77-.39-2.35-.11-.58-.29-1.37-.53-2.35l1.5-.34c.3,.99,.52,1.73,.65,2.24s.27,1.14,.4,1.91c1.23-.28,2.18-.53,2.87-.74h-2.78V10.2h11.63v8.03h-2.74Zm-8.83-14.46h4.26v-.61h-5V1.37h5V.16h2.94V1.37h5.16v1.79h-5.16v.61h4.33v1.66h-11.52v-1.66Zm12.06,5.85h-12.62v-3.63h12.62v3.63Zm-8.94-2.26h-1.44v.87h1.44v-.87Zm5.69,5.18v-.7h-6.1v.7h6.1Zm-6.1,2h6.1v-.63h-6.1v.63Zm6.1,1.32h-6.1v.72h6.1v-.72Zm-3.77-8.5v.87h1.41v-.87h-1.41Zm3.36,.87h1.37v-.87h-1.37v.87Z"/>
        <path class="cls-1" d="M132.08,17.49h1.26v3.05h-13.27v-3.05h1.88v-4.66l-1.48,2.24c-.31-.3-.84-.75-1.59-1.35v7.38h-3v-6.66c-.61,1.18-1.29,2.27-2.02,3.27l-.87-3.59c.45-.6,.9-1.32,1.34-2.17,.45-.85,.85-1.76,1.21-2.71h-2.24v-2.94h2.58v-1.55l-2.22,.38-.29-2.89c1.18-.16,2.47-.39,3.87-.67,1.4-.28,2.6-.58,3.62-.87l.49,2.8c-.7,.22-1.52,.44-2.47,.65v2.15h2.44v2.94h-2.44v1.03c1.02,.7,2.04,1.49,3.07,2.35V1.19h10.13V17.49Zm-3.16-10.81v-2.58h-3.88v2.58h3.88Zm-3.88,5.43h3.88v-2.56h-3.88v2.56Zm3.88,2.87h-3.88v2.51h3.88v-2.51Z"/>
        <path class="cls-1" d="M137.86,6.1c.37,.28,.93,.75,1.68,1.4s1.35,1.2,1.82,1.65l-2.22,2.49c-.39-.43-.93-.99-1.64-1.67-.7-.68-1.24-1.18-1.61-1.49l1.97-2.38Zm-1.77,14.17l1.91-8.16,2.85,.69-1.59,8.23-3.16-.76Zm17.6-12.62h-3.74v1.1h5.65v9.91c0,.91-.24,1.54-.71,1.89-.47,.35-1.26,.53-2.37,.53h-1.46l-.52-2.56h1.21c.43,0,.72-.06,.87-.17s.22-.34,.22-.68v-.27l-.99,.27c-.06-.27-.21-.82-.45-1.66-.25,.72-.54,1.4-.85,2.04l-.81-.56v3.23h-2.62v-3.09l-.9,.27c-.08-.33-.25-.93-.52-1.82-.25,.72-.57,1.43-.94,2.13l-.76-.49v3.36h-2.65V8.74h5.58v-1.1h-3.68v-3.32h-2.04l-1.32,1.57c-.55-.55-1.18-1.14-1.89-1.75-.71-.61-1.3-1.09-1.78-1.43l1.95-2.4c1.02,.76,2.03,1.58,3.05,2.47V1.73h2.04V.54h2.94V1.73h4.55V.52h2.91V1.73h2.53v2.6h-2.53v3.32Zm-7.76,3.79l1.21,3.99v-4.28h-3.12v4.8c.42-.97,.72-1.77,.92-2.4-.07-.24-.25-.77-.52-1.59l1.5-.52Zm4.84-7.11h-4.55v1.1h4.55v-1.1Zm2.08,6.81h-3.09v4.62c.34-.7,.63-1.5,.87-2.4l-.47-1.43,1.46-.45c.52,1.57,.93,2.91,1.23,4.01v-4.35Z"/>
        <path class="cls-1" d="M166.85,19.88h-3.92V6.23l-3.95,2.04V4.19l4.57-2.35h3.29V19.88Z"/>
        <path class="cls-1" d="M174.24,19.54c-1.01-.44-1.79-1.06-2.35-1.85s-.84-1.69-.84-2.69c0-1.11,.32-2.07,.95-2.88,.63-.81,1.41-1.41,2.32-1.78v-.07c-.72-.31-1.34-.83-1.86-1.55-.52-.72-.78-1.54-.78-2.47s.25-1.7,.76-2.42c.51-.72,1.22-1.28,2.14-1.69,.92-.41,1.98-.62,3.17-.62s2.25,.21,3.16,.62c.91,.41,1.62,.97,2.13,1.69,.51,.72,.76,1.52,.76,2.42,0,.97-.26,1.8-.79,2.5-.52,.69-1.16,1.2-1.91,1.51v.07c.93,.37,1.71,.97,2.35,1.78,.64,.81,.96,1.77,.96,2.88,0,1-.28,1.9-.83,2.69s-1.33,1.41-2.34,1.85c-1.01,.44-2.18,.66-3.51,.66s-2.5-.22-3.51-.66Zm5.41-3.52c.48-.41,.72-.96,.72-1.65s-.24-1.26-.72-1.67-1.11-.62-1.91-.62-1.45,.21-1.93,.62c-.48,.41-.72,.97-.72,1.67s.24,1.24,.72,1.65c.48,.41,1.12,.62,1.93,.62s1.43-.21,1.91-.62Zm-.43-7.89c.37-.32,.56-.74,.56-1.27,0-.55-.18-.99-.55-1.3-.37-.31-.86-.47-1.49-.47s-1.13,.16-1.5,.47c-.37,.31-.56,.75-.56,1.3,0,.52,.19,.95,.56,1.27,.37,.32,.87,.48,1.5,.48s1.11-.16,1.48-.48Z"/>
        <path class="cls-1" d="M206.57,1.26V21.19h-2.82v-.81h-8.21v.81h-2.76V2.04c-.39,1.36-.79,2.61-1.19,3.74v15.49h-2.78V11.5c-.52,.87-.91,1.48-1.17,1.84l-.79-4.19c1.33-2.33,2.34-5.18,3.03-8.54l3.12,.61-.02,.04h13.58Zm-11.03,2.89v13.38h8.21V4.15h-8.21Zm7.69,1.64v2.58h-2.26v1.5h2v6.7h-6.59v-6.7h2.02v-1.5h-2.31v-2.58h2.31v-1.21h2.58v1.21h2.26Zm-4.46,8.23h1.77v-1.61h-1.77v1.61Z"/>
        <path class="cls-1" d="M228.19,1.14V17.53c0,.9-.11,1.58-.33,2.06-.22,.48-.58,.82-1.1,1.02-.52,.2-1.27,.3-2.25,.3h-3.85l-.61-3.29h3.61c.42,0,.72-.02,.9-.07,.18-.04,.3-.14,.36-.28s.09-.37,.09-.68v-1.57h-8.99c-.22,1.17-.58,2.22-1.06,3.17-.49,.95-1.19,1.98-2.12,3.08l-2.87-1.86c.97-1.02,1.67-1.91,2.11-2.67,.43-.76,.72-1.65,.86-2.68,.14-1.02,.21-2.52,.21-4.49V1.14h15.04Zm-3.18,10.78v-2.17h-8.65v.16c0,.93-.01,1.6-.04,2.02h8.7Zm0-5.27v-2.33h-8.65v2.33h8.65Z"/>
        <path class="cls-1" d="M240.34,16.14h-1.55c.37,.51,.8,1.1,1.27,1.78,.47,.68,.85,1.25,1.13,1.71l-2.13,1.43c-.15-.28-.4-.71-.75-1.28-.35-.57-.61-.99-.77-1.28l-.54-.85c-.57,1.11-1.26,2.28-2.08,3.52l-2.11-1.37c.91-1.22,1.68-2.45,2.31-3.68l1.93,1.17,1.66-1.17h-5.16V1.05h6.79v15.09Zm-2.33-10.85v-1.52h-2.11v1.52h2.11Zm-2.11,4.06h2.11v-1.52h-2.11v1.52Zm0,2.58v1.52h2.11v-1.52h-2.11Zm16.9-9.73V10.72h-11.66V2.2h2.2c-.34-.78-.58-1.28-.72-1.5l2.51-.49c.4,.87,.7,1.53,.9,2h2c.31-.76,.58-1.46,.79-2.08l2.47,.58c-.08,.21-.28,.71-.61,1.5h2.13Zm-8.29,18.92h-2.71V11.59h10.29v9.53h-2.69v-.85h-4.89v.85Zm1.39-16.61h-2.49v1.03l1.28-.72c.6,1.06,1,1.81,1.21,2.24v-2.56Zm-2.49,3.9h2.49v-1.05l-1.57,.83c-.17-.39-.47-1.01-.92-1.86v2.08Zm5.99,6.55v-1.08h-4.89v1.08h4.89Zm-4.89,1.97v1.05h4.89v-1.05h-4.89Zm5.99-11.39v-1.03h-2.51v2.47c.49-.75,.91-1.46,1.26-2.13l1.25,.7Zm-2.51,1.77v1.1h2.51v-2l-1.03,1.77-1.48-.87Z"/>
        <path class="cls-1" d="M273.63,17.87h2.51l-.58,3.07h-9.28c-1.72,0-3.08-.17-4.08-.52-1-.34-1.85-.91-2.56-1.7l-2.38,2.53-1.19-3.74,2.06-1.93v-4.93h-2.06v-3.14h5.18V15.96c.48,.78,1.38,1.33,2.69,1.66l-1.64-2.44c1.36-.61,2.37-1.19,3.03-1.73,.66-.54,1.11-1.15,1.35-1.84h-4.8v-2.78h5.13v-2.08h-4.28V3.88h2.42l-.25-.4c-.21-.31-.43-.66-.67-1.03-.24-.37-.47-.71-.7-1.01l2.62-1.44c.3,.46,.66,1.01,1.09,1.64s.8,1.16,1.11,1.59l-1.23,.65h2c.46-.61,.95-1.29,1.45-2.03,.5-.74,.88-1.36,1.15-1.85l2.51,1.61-1.68,2.26h2.78v2.87h-5.09v2.08h5.56v2.78h-5.58c.91,.67,1.92,1.43,3.03,2.28,1.11,.84,1.85,1.42,2.22,1.74l-1.84,2.24Zm-14.08-11.34c-.34-.49-.85-1.18-1.52-2.05s-1.22-1.56-1.64-2.05l2.42-1.91c1.27,1.57,2.33,2.93,3.18,4.08l-2.44,1.93Zm6.93,11.34h6.79c-.69-.61-1.79-1.55-3.32-2.8-.45-.39-.78-.67-1.01-.85-.45,.61-1.04,1.2-1.78,1.76-.74,.56-1.68,1.13-2.84,1.72,.67,.12,1.39,.18,2.15,.18Z"/>
        <path class="cls-1" d="M297.73,18.18h1.48l-.56,2.62h-10.13c-1.51,0-2.75-.18-3.72-.54-.97-.36-1.77-.97-2.4-1.84l-2.38,2.69-1.21-3.34,1.95-1.95v-5.42h-1.7v-3.09h4.57V15.89c.43,.72,.95,1.26,1.55,1.61l-.58-1.39c1.48-.36,2.86-.76,4.15-1.21h-4.42v-2.13h2.89v-1.12h-2.38v-2.13h2.38v-.63h2.82v.63h2.89v-.63h2.85v.63h2.38v2.13h-2.38v1.12h2.96v2.13h-4.28c2.06,.64,3.44,1.1,4.12,1.37l-.85,1.91Zm-16.03-12.02c-.81-1.61-1.6-3.15-2.38-4.62l2.53-1.28c1.09,1.91,1.9,3.39,2.42,4.44l-2.58,1.46Zm5.13,2.38c-.73,0-1.25-.15-1.57-.46-.31-.31-.47-.84-.47-1.6V.88h6.3V5.49h-1.37l1.7,.56c0,.15-.03,.37-.09,.67-.1,.49-.23,.86-.37,1.11-.14,.25-.35,.43-.62,.54-.27,.11-.65,.17-1.14,.17h-2.38Zm1.86,9.64h8.72c-.7-.28-1.55-.6-2.54-.94-.99-.34-1.82-.61-2.48-.81l.67-1.52h-3.18l.81,1.52c-.57,.27-1.26,.53-2.06,.8-.81,.26-1.61,.49-2.42,.68,.67,.18,1.5,.27,2.49,.27Zm.11-14.46v-.99h-1.68v.99h1.68Zm.52,1.77h-2.2v.38c0,.28,.04,.47,.11,.56,.07,.09,.22,.13,.43,.13h.96c.28,0,.46-.04,.53-.12,.07-.08,.12-.28,.15-.59,.02-.06,.02-.18,.02-.36Zm3.61,6.16h-2.89v1.12h2.89v-1.12Zm.45-3.09c-.58,0-1-.16-1.24-.47-.25-.31-.37-.84-.37-1.59V.88h6.37V5.49h-1.08l1.57,.54-.11,.69c-.12,.7-.33,1.18-.62,1.45s-.8,.39-1.54,.39h-2.98Zm2.47-4.84v-.99h-1.77v.99h1.77Zm.67,1.77h-2.44v.4c0,.3,.03,.49,.09,.57s.19,.12,.4,.12h1.28c.24,0,.39-.04,.46-.12s.12-.29,.17-.62l.04-.36Z"/>
        <path class="cls-1" d="M307.68,16.32c.25,.43,.64,1.05,1.17,1.86l1.1,1.75-2.06,1.26c-.24-.51-.57-1.12-.99-1.85-.42-.72-.76-1.3-1.03-1.71-.46,.99-1.14,2.25-2.02,3.79l-2.08-1.39c.67-.97,1.35-2.2,2.02-3.68l2.2,.99-.02,.04,1.73-1.05Zm-5.2-15.2h6.57v14.89h-6.57V1.12Zm4.28,4.21v-1.55h-1.95v1.55h1.95Zm0,3.97v-1.52h-1.95v1.52h1.95Zm-1.95,2.44v1.57h1.95v-1.57h-1.95Zm17.4-2.65h-5.16v.9h4.33v5.58h.81v2.2h-.81v.83c0,.87-.22,1.49-.65,1.88-.43,.39-1.14,.58-2.11,.58h-2.35l-.43-2.4,1.95,.02c.4,0,.67-.05,.81-.15,.13-.1,.2-.29,.2-.57v-.2h-6.12v3.3h-2.56v-3.3h-.76v-2.2h.76v-5.58h4.3v-.9h-4.91v-2.11h2.38v-.83h-1.79v-1.84h1.79v-.83h-2.24V1.35h2.24V.34h2.67V1.35h2.33V.34h2.71V1.35h2.15V3.5h-2.15v.83h1.7v1.84h-1.7v.83h2.6v2.11Zm-7.78,3.9v-.94h-1.75v.94h1.75Zm0,1.7h-1.75v.88h1.75v-.88Zm2.47-11.21h-2.33v.83h2.33v-.83Zm0,2.67h-2.33v.83h2.33v-.83Zm1.91,6.84v-.94h-1.75v.94h1.75Zm-1.75,1.7v.88h1.75v-.88h-1.75Z"/>
        <path class="cls-1" d="M327.63,3.81h-2.67V1.37h10.74V3.81h-2.33v1.68h2.13v14.57h-7.51v1.17h-2.51V5.49h2.15v-1.68Zm-.02,4.15v3.68c.33-.4,.56-.87,.71-1.41,.14-.54,.21-1.29,.21-2.26h-.92Zm5.16,5.11c-.67,0-1.15-.15-1.45-.45-.29-.3-.44-.8-.44-1.5v-3.16h-.65l-.02,.31c-.06,1-.13,1.77-.2,2.31-.08,.54-.2,1.04-.38,1.5-.18,.46-.46,.93-.83,1.41l-.81-.79v1.19h4.98v-.83h-.2Zm-4.77,3.23v1.39h4.98v-1.39h-4.98Zm2.15-10.8h.74v-1.68h-.74v1.68Zm3.23,2.47h-.94v2.31c0,.25,.05,.42,.15,.5,.1,.08,.28,.12,.55,.12h.25v-2.94Zm8.86,5.92l2.98,.56-.2,3.14c-.06,.9-.18,1.57-.35,2.03-.17,.46-.46,.77-.86,.95-.4,.18-1,.27-1.79,.27h-2.78c-.76,0-1.34-.09-1.73-.28-.39-.19-.66-.51-.81-.96-.15-.46-.22-1.12-.22-2.01V8.14h4.98v-3.77h-5.22V1.37h8.14V11.21h-5v5.72c0,.28,.01,.48,.03,.58s.09,.18,.19,.22c.1,.04,.28,.07,.54,.07h.99c.46,0,.76-.07,.9-.22s.2-.48,.2-.99l.02-2.71Z"/>
        <path class="cls-1" d="M368.14,8.21h-9.08c-.09,.19-.24,.49-.45,.88h8.79v8.88c0,1.17-.2,1.97-.59,2.42-.4,.45-1.06,.67-1.98,.67h-1.61l-.52-2.51h.96c.42,0,.68-.06,.8-.18,.11-.12,.17-.32,.17-.61h-2.26v2.51h-2.76v-2.51h-2.24v3.32h-2.71v-6.95c-.33,.31-.69,.63-1.08,.94l-.85-2v8.09h-2.8V11.3c-.49,.82-.97,1.53-1.43,2.13l-.79-4.04c.6-.9,1.22-2.19,1.87-3.88,.65-1.69,1.18-3.39,1.58-5.09l2.98,.67c-.43,1.51-.91,2.94-1.41,4.3v6.52c.57-.49,1.14-1.08,1.7-1.75,.57-.67,1.02-1.33,1.34-1.97h-2.29v-2.62h2.91v-1.08h-2.24V1.88h2.24V.56h2.96V1.88h2.96V.56h2.92V1.88h2.33v2.62h-2.33v1.08h2.91v2.62Zm-10.78,3.34v.87h2.24v-.87h-2.24Zm0,3.03v.87h2.24v-.87h-2.24Zm4.95-10.07h-2.96v1.08h2.96v-1.08Zm.04,7.91h2.26v-.87h-2.26v.87Zm2.26,2.15h-2.26v.87h2.26v-.87Z"/>
        <path class="cls-1" d="M372.87,23.7c1.03-.48,1.75-.98,2.14-1.51,.4-.53,.59-1.3,.59-2.3h-2.35v-4.26h4.24v4.26c0,1.24-.28,2.31-.83,3.21s-1.49,1.65-2.82,2.26l-.96-1.66Z"/>
        <path class="cls-1" d="M87.27,44.23v2.98h-5.45v5.02h-3.14v-5.02h-5.47v-2.98h5.47v-2.11h-4.78v-2.89h4.78v-1.75l-2.62,1.21c-.57-1.08-1.35-2.5-2.33-4.26-.48,1.17-.93,2.17-1.34,3.03v14.73h-3.03v-9.66c-.66,.94-1.21,1.7-1.66,2.29l-.79-4.26c1.84-2.35,3.32-5.28,4.44-8.79l3.03,.83c-.09,.28-.24,.7-.45,1.23l2.13-1.03c.67,1.03,1.55,2.58,2.62,4.64v-5.43h3.14v5.43c.43-.7,.9-1.51,1.4-2.42,.5-.91,.9-1.67,1.2-2.29l2.62,1.23c-.28,.57-.7,1.35-1.24,2.35s-1.01,1.82-1.38,2.44l-2.6-1.23v1.7h4.95v2.89h-4.95v2.11h5.45Z"/>
        <path class="cls-1" d="M93.48,50.53h-2.76v-17.44h6.43v16.23h-3.68v1.21Zm1.1-4.33v-9.98h-1.1v9.98h1.1Zm3.27,5.96v-10.13h11.86v10.11h-2.87v-.7h-6.28v.72h-2.71Zm.43-20.11h10.89v9.04h-10.89v-9.04Zm8.56,13.59v-1.1h-6.28v1.1h6.28Zm-6.28,2.22v1.12h6.28v-1.12h-6.28Zm5.74-12.2v-1.08h-5.18v1.08h5.18Zm-5.18,2v1.08h5.18v-1.08h-5.18Z"/>
        <path class="cls-1" d="M132.28,46.02l-.72,.78,1.77,.67c-.06,.64-.17,1.28-.31,1.91-.27,1.02-.61,1.75-1.01,2.2-.4,.45-.91,.67-1.5,.67-1.38,0-2.5-.66-3.36-1.97-1.03,.63-2.29,1.26-3.77,1.91l-1.35-2.24c.54-.21,1.17-.49,1.91-.85-.22-.18-.81-.53-1.77-1.05-.45,1.45-1.25,2.94-2.4,4.46l-2.17-2c.88-1,1.51-1.91,1.88-2.71,.37-.81,.59-1.77,.65-2.89h-1.28v-2.53h1.3v-1.03h2.58v1.03h2.13l-.13-1.43-.96,.45c-.09-.25-.18-.46-.27-.61l-3.99,.47-.74-2.08c.79-.67,1.49-1.4,2.08-2.17l-1.57,.18-.56-1.66v2.49h-1.21v1.48c.67,.58,1.27,1.17,1.79,1.77l-1.1,2.6s-.25-.28-.7-.76v9.08h-2.6v-7.6c-.43,1.09-.89,2.07-1.37,2.94l-.65-4.15c.3-.49,.63-1.23,.99-2.21,.36-.98,.7-2.03,1.01-3.15h-1.59v-2.94h1.61v-3.59h2.6v3.59h1.21v.36c.57-.72,1.03-1.36,1.39-1.93,.36-.57,.7-1.23,1.01-2l1.95,.67c-.43,.75-1.08,1.76-1.93,3.05l.94-.02c.43-.7,.7-1.14,.79-1.3l1.57,.78c-.01-.7-.02-1.82-.02-3.34h2.67l-.02,1.91,.02,1.77c.4-.46,.81-1.05,1.22-1.76s.71-1.36,.91-1.96l1.97,.74c-.21,.48-.49,1-.85,1.57-.36,.57-.69,1.04-.99,1.41l1.05-.02c.25-.39,.52-.86,.78-1.41l1.82,.88c-.4,.69-.96,1.48-1.67,2.36-.71,.89-1.33,1.6-1.85,2.12l1.48-.16c-.03-.07-.17-.4-.4-.99l1.52-.72c.22,.49,.48,1.11,.77,1.86,.29,.75,.5,1.34,.62,1.77l-1.64,.61-.27-.81-3.79,.38-.58-1.61c.06,1.11,.15,2.14,.27,3.09h1.48c-.13-.48-.25-.84-.34-1.1l2.29-.43,.52,1.52h1.84v2.53h-2.42l1.46,1.12Zm-9.57-6.99l-.47-.99c-.27,.3-.63,.67-1.08,1.12l1.55-.13Zm.99-1.82c.07,.15,.23,.49,.47,1.01,.18,.42,.32,.73,.43,.94-.08-1.2-.12-2.49-.13-3.88-.6,.84-1.29,1.7-2.08,2.6l1.32-.67Zm1.52,9.77l-1.14,2.04c.85-.4,1.51-.75,1.97-1.03-.3-.82-.57-1.85-.81-3.09h-2.56c0,.19,0,.36-.02,.49s-.03,.25-.04,.36c1.23,.57,2.09,.98,2.6,1.23Zm2.4-10.02l-.54-1.55c0,.9,.03,2.02,.09,3.36,.67-.63,1.3-1.29,1.88-1.97l-1.43,.16Zm.27,7.94c.15,.66,.29,1.2,.43,1.64,.72-.54,1.35-1.08,1.91-1.64h-2.33Zm2.85,4.23c.13-.16,.24-.43,.31-.82,.08-.24,.15-.64,.22-1.21-.61,.61-1.29,1.2-2.02,1.77,.13,.21,.28,.35,.45,.42s.38,.09,.65,.08c.12,0,.25-.08,.38-.24Z"/>
        <path class="cls-1" d="M151.61,35.26h-2.89l.2,.54h6.5v1.64h-6.3v.69h5.6v1.59h-5.6v.7h5.63v1.57h-5.63v.74h6.55v1.66h-17.4v-3.99c-.63,.48-1.11,.83-1.44,1.05l-.87-2.76c.73-.43,1.45-.99,2.15-1.67,.7-.68,1.29-1.4,1.77-2.16l1.68,.16v-.61h-5.31v-2.2h5.31v-1.03h2.96v1.03h4.12v-1.03h2.96v1.03h4.64v2.2h-4.64v.85Zm-4.62,11.66v-1.73h7.96v7.04h-3v-.7h-10.99v.72h-3.05v-6.91c2.85-.07,5.45-.27,7.78-.58l.76,1.75c-1.48,.22-3.31,.42-5.49,.58v.52h5.11v1.48h-5.11v.69h10.99v-.69h-4.91v-1.48h4.91v-.7h-4.96Zm-1.03-8.79v-.69h-4.62l-.31,.36h.27v.34h4.66Zm-4.66,2.29h4.66v-.7h-4.66v.7Zm0,2.31h4.66v-.74h-4.66v.74Zm4.55-6.93c-.11-.31-.21-.58-.31-.78l3-.27c.03,.06,.05,.12,.07,.17,.01,.05,.03,.1,.04,.15v-.65h-4.12v.74h-1.57l-.4,.65h3.3Z"/>
        <path class="cls-1" d="M174.5,46.78c1.03,1.45,2.59,2.47,4.69,3.07l-1.14,2.71c-2.75-1.05-4.69-2.44-5.83-4.17-1.23,1.9-3.38,3.32-6.46,4.26l-1.32-2.65c2.72-.84,4.54-1.91,5.47-3.23h-4.26v-2.76h5.13v-1.64l-.72,1.01-1.28-.87v1.05h-2.6v-5l-.87-1.66v1.34h-1.01v2.06l.9-.36,.34,1.52,.34,1.5-1.57,.58v6.21c0,.7-.08,1.23-.25,1.57-.17,.34-.45,.58-.84,.7-.4,.12-.99,.18-1.78,.18h-1.5l-.65-2.74h1.39c.37,0,.62-.06,.73-.19s.17-.36,.17-.68v-4.01l-1.82,.69-.81-3.07c.82-.28,1.7-.59,2.62-.92v-3.05h-2.02v-2.8h2.02v-3.32h2.74v3.32h1.01v1.19c.88-.82,1.63-1.65,2.25-2.48,.62-.83,1.18-1.77,1.69-2.84l2.78,.61c-.12,.3-.27,.63-.45,.99h5.51v2.56l-.9,.99h2.04v7.15h-2.6v-1.23l-1.37,1.03c-.7-1.15-1.4-2.23-2.08-3.23-.4,.69-.87,1.41-1.39,2.15h2.62v1.68h5.47v2.76h-4.39Zm-5.72-7.8v1.95c.21-.31,.63-.96,1.25-1.95h-1.25Zm4.89-3.41h-3.72l-.72,.9h3.45l.99-.9Zm-2.89,3.41l1.57,.94-.13,.22,1.52-1.17h-2.96Zm3.61,0c.33,.43,.75,1.02,1.25,1.77v-1.77h-1.25Z"/>
        <path class="cls-1" d="M192.56,44.85h-3.45v4.87c0,.63-.08,1.11-.25,1.46-.16,.34-.44,.59-.84,.73-.4,.14-.97,.21-1.72,.21h-1.55l-.43-2.17-.36,.67-2.15-1.3c.34-.6,.65-1.21,.91-1.85,.26-.63,.57-1.45,.93-2.45l2.38,.92c-.6,1.52-1.06,2.65-1.39,3.36h.83c.4,0,.65-.03,.73-.1s.12-.2,.11-.4c0-.2-.01-.35-.01-.44v-3.5h-3.81v-2.71h3.81v-1.3h-4.24v-2.67h2.38l-.2-.63-.63-1.75h-1.03v-2.65h3.5c-.17-.42-.34-.88-.52-1.39l3.16-.54,.52,1.34,.2,.58h3.05v2.65h-.9c-.12,.43-.35,1.23-.7,2.38h1.93v2.67h-3.72v1.3h3.45v2.71Zm-6.23-9.06c.42,1.14,.7,1.93,.83,2.38h.94c.24-.63,.49-1.42,.76-2.38h-2.53Zm16.01,2.76v2.94h-1.77v10.31h-2.89v-10.31h-1.34c-.02,1.76-.09,3.24-.22,4.42s-.36,2.26-.68,3.23-.77,2.02-1.36,3.16l-3.03-1.41c.66-1.03,1.15-2.02,1.48-2.96l-1.52,1.17c-.4-.7-1.02-1.64-1.86-2.83l1.93-1.39c.36,.46,.8,1.06,1.32,1.79l.36,.52c.21-.79,.35-1.69,.44-2.7s.12-2.32,.12-3.93v-7.26c1.4-.13,2.8-.34,4.19-.62,1.39-.28,2.58-.6,3.56-.98l.94,2.89c-.78,.3-1.67,.58-2.68,.84-1.01,.26-2.01,.46-2.99,.59v2.53h6.01Z"/>
        <path class="cls-6" d="M225.47,46.78l-.13,2.69c-.03,.63-.12,1.11-.26,1.43-.14,.33-.38,.56-.73,.7-.34,.13-.86,.2-1.55,.2h-2.13c-.81,0-1.39-.17-1.74-.5-.35-.34-.53-.92-.53-1.74v-3.86h-1.23v.04c-.09,1.54-.5,2.8-1.24,3.78-.74,.98-1.78,1.87-3.11,2.68l-2.33-2.26c1.09-.52,1.88-1,2.38-1.43-.96,.19-2.23,.46-3.82,.78-1.59,.33-2.84,.59-3.73,.79l-.38-3.07c.3-.04,1.14-.21,2.53-.49v-4.51h-1.97v-3.03h1.97v-3.63h-2.08v-2.98h6.95v2.98h-1.93v3.63h1.91v3.03h-1.91v3.86c1.03-.21,1.76-.37,2.17-.49l.16,1.55,.16,1.57c.39-.34,.7-.74,.93-1.18s.4-.96,.5-1.56v-.04h-1.43v-13.76h11.07v13.76h-2.62v2.51c0,.27,.04,.45,.12,.55,.08,.1,.23,.15,.44,.15h.65c.22,0,.37-.04,.45-.12,.08-.08,.12-.27,.13-.57,.01-.31,.02-.99,.02-2.04l2.31,.61Zm-4.37-10.94v-1.21h-5.29v1.21h5.29Zm-5.29,2.4v1.26h5.29v-1.26h-5.29Zm5.29,3.65h-5.29v1.19h5.29v-1.19Z"/>
        <path class="cls-6" d="M235.94,42.99c-.24,.08-.39,.13-.45,.16l-1.88,.63v5.63c0,.69-.09,1.22-.27,1.59-.18,.37-.48,.63-.9,.78-.42,.15-1.01,.22-1.77,.22h-1.93l-.58-3.03h1.55c.34,0,.58-.05,.7-.15,.12-.1,.18-.29,.18-.59v-3.43l-2.15,.79-.65-3.27c.96-.28,1.89-.59,2.8-.92v-3.5h-2.33v-2.98h2.33v-3.18h3.03v3.18h2.06v2.98h-2.06v2.42l1.82-.7,.25,1.5,.27,1.86Zm12.33-4.24v3.03h-2.83v10.07h-3.12v-10.07h-2.78c-.01,1.78-.09,3.21-.22,4.29-.13,1.08-.37,2.08-.72,2.98-.34,.9-.87,1.9-1.59,2.99l-2.89-1.68c.76-1.05,1.3-1.96,1.62-2.75,.32-.78,.52-1.66,.61-2.63s.12-2.5,.12-4.57v-7.24c3.15-.21,6.55-.69,10.2-1.46l.83,3.05c-1.21,.28-2.53,.53-3.95,.75s-2.76,.38-4.01,.5v2.73h8.72Z"/>
        <path class="cls-6" d="M262.23,48.88c-.84,.92-1.98,1.53-3.4,1.83l.11,2.26h-3.79l.13-2.24c-1.15-.25-2.16-.74-3.01-1.46-.86-.72-1.52-1.6-1.98-2.64l3.21-1.57c.3,.78,.75,1.37,1.36,1.77s1.3,.61,2.1,.61,1.44-.16,1.91-.47,.7-.74,.7-1.28c0-.34-.1-.63-.29-.87-.2-.24-.52-.46-.96-.66-.45-.2-1.1-.42-1.95-.66-1.15-.33-2.1-.66-2.84-.99-.74-.33-1.39-.84-1.96-1.55-.57-.7-.85-1.63-.85-2.78,0-1.29,.42-2.39,1.27-3.31,.84-.92,1.95-1.53,3.33-1.83l-.13-2.29h3.79l-.13,2.31c2.02,.43,3.54,1.73,4.55,3.9l-3.16,1.57c-.36-.78-.8-1.34-1.31-1.69-.52-.35-1.13-.53-1.85-.53s-1.28,.16-1.73,.47-.67,.71-.67,1.19c0,.39,.08,.7,.25,.94s.46,.46,.87,.65c.42,.19,1.05,.41,1.91,.65,1.17,.31,2.13,.63,2.9,.95s1.45,.83,2.04,1.52c.59,.7,.89,1.62,.89,2.79,0,1.34-.42,2.48-1.27,3.4Z"/>
        <path class="cls-6" d="M273.13,39.74c.87-.01,1.67,.21,2.42,.67,.75,.46,1.34,1.11,1.78,1.94,.44,.83,.66,1.77,.66,2.83,0,1.17-.27,2.21-.8,3.12-.53,.91-1.27,1.62-2.23,2.13-.96,.51-2.04,.76-3.25,.76-1.55,0-2.87-.4-3.95-1.19s-1.88-1.87-2.4-3.23l3.61-1.25c.45,1.39,1.35,2.08,2.71,2.08,.72,0,1.3-.22,1.74-.66,.44-.44,.66-1.03,.66-1.76s-.22-1.34-.67-1.78c-.45-.44-1.05-.66-1.82-.66-.27,0-.52,.04-.75,.12s-.5,.22-.82,.41l-2.15-2.76,4.08-4.01h-5.72v-3.68h10.92v3.27l-4.08,3.52,.04,.11Z"/>
        <path class="cls-6" d="M280.67,54.7c1.03-.48,1.74-.98,2.14-1.51,.4-.53,.59-1.3,.59-2.3h-2.35v-4.26h4.24v4.26c0,1.24-.28,2.31-.83,3.21s-1.49,1.65-2.82,2.26l-.96-1.66Z"/>
        <path class="cls-6" d="M291.21,50.4c-.99-.53-1.77-1.27-2.33-2.22s-.84-2.02-.84-3.22c0-1.09,.17-2.14,.5-3.14,.34-1,.92-2.21,1.74-3.63l3.14-5.36h4.66l-3.88,6.25,.07,.07c.48-.19,.98-.29,1.5-.29,.97,0,1.87,.25,2.7,.74s1.49,1.19,2,2.1,.75,1.94,.75,3.1c0,1.26-.28,2.37-.85,3.34-.57,.97-1.35,1.72-2.35,2.25-1,.53-2.15,.8-3.43,.8s-2.38-.27-3.37-.8Zm5.28-3.52c.48-.5,.72-1.14,.72-1.92s-.23-1.36-.69-1.84c-.46-.48-1.05-.72-1.77-.72-.78,0-1.42,.24-1.93,.73-.51,.49-.76,1.09-.76,1.83,0,.78,.25,1.42,.74,1.92s1.11,.75,1.86,.75,1.36-.25,1.84-.75Z"/>
        <path class="cls-6" d="M305.39,48.79c-1.15-1.61-1.73-3.91-1.73-6.92s.58-5.31,1.73-6.93c1.15-1.61,2.79-2.42,4.91-2.42s3.78,.81,4.92,2.42c1.14,1.61,1.71,3.92,1.71,6.93s-.57,5.31-1.71,6.92c-1.14,1.61-2.78,2.41-4.92,2.41s-3.76-.8-4.91-2.41Zm6.85-2.74c.46-.98,.68-2.37,.68-4.18s-.23-3.22-.68-4.2c-.46-.98-1.1-1.47-1.94-1.47s-1.48,.49-1.94,1.48-.68,2.38-.68,4.19,.23,3.2,.68,4.18c.46,.98,1.1,1.47,1.94,1.47s1.48-.49,1.94-1.47Z"/>
        <path class="cls-6" d="M321.2,48.79c-1.15-1.61-1.73-3.91-1.73-6.92s.58-5.31,1.73-6.93c1.15-1.61,2.79-2.42,4.91-2.42s3.78,.81,4.92,2.42c1.14,1.61,1.71,3.92,1.71,6.93s-.57,5.31-1.71,6.92c-1.14,1.61-2.78,2.41-4.92,2.41s-3.76-.8-4.91-2.41Zm6.85-2.74c.46-.98,.68-2.37,.68-4.18s-.23-3.22-.68-4.2c-.46-.98-1.1-1.47-1.94-1.47s-1.48,.49-1.94,1.48-.68,2.38-.68,4.19,.23,3.2,.68,4.18c.46,.98,1.1,1.47,1.94,1.47s1.48-.49,1.94-1.47Z"/>
        <path class="cls-6" d="M355.43,45.42c0,.36-.01,.92-.03,1.67-.02,.75-.05,1.3-.08,1.65-.06,.76-.21,1.36-.46,1.78-.25,.43-.63,.74-1.14,.93s-1.22,.29-2.12,.29h-2.06c-1.2,0-2.06-.27-2.59-.8-.53-.53-.8-1.43-.8-2.7v-6.81h-2.58l-.02,1.43c-.03,1.43-.23,2.68-.59,3.73s-.97,2.04-1.83,2.95c-.85,.91-2.03,1.85-3.54,2.82l-2.2-3.03c1.24-.66,2.2-1.28,2.89-1.87,.69-.59,1.19-1.24,1.5-1.96,.31-.72,.49-1.6,.52-2.65l.02-1.43h-4.57v-3.12h19.35v3.12h-5.69v6.08c0,.45,.07,.74,.21,.89,.14,.14,.43,.21,.86,.21h.92c.24,0,.42-.03,.53-.08,.11-.05,.19-.16,.24-.32,.04-.17,.07-.44,.09-.83l.07-2.67,3.12,.72Zm-17.96-13.09h16.1v3.16h-16.1v-3.16Z"/>
        <path class="cls-1" d="M360.34,54.7c1.03-.48,1.75-.98,2.14-1.51,.4-.53,.59-1.3,.59-2.3h-2.35v-4.26h4.24v4.26c0,1.24-.28,2.31-.83,3.21s-1.49,1.65-2.82,2.26l-.96-1.66Z"/>
        <path class="cls-1" d="M86.12,79.49h1.26v3.05h-13.27v-3.05h1.88v-4.66l-1.48,2.24c-.31-.3-.84-.75-1.59-1.35v7.38h-3v-6.66c-.61,1.18-1.29,2.27-2.02,3.27l-.88-3.59c.45-.6,.9-1.32,1.35-2.17s.85-1.76,1.21-2.71h-2.24v-2.94h2.58v-1.55l-2.22,.38-.29-2.89c1.18-.16,2.47-.39,3.87-.67,1.4-.28,2.61-.58,3.62-.87l.49,2.8c-.7,.22-1.53,.44-2.47,.65v2.15h2.44v2.94h-2.44v1.03c1.02,.7,2.04,1.49,3.07,2.35v-11.43h10.13v16.3Zm-3.16-10.81v-2.58h-3.88v2.58h3.88Zm-3.88,5.43h3.88v-2.56h-3.88v2.56Zm3.88,2.87h-3.88v2.51h3.88v-2.51Z"/>
        <path class="cls-1" d="M92.36,68.21c-.6,.46-1.11,.83-1.55,1.1l-.74-3.18c.54-.33,1.25-.95,2.13-1.86,.88-.91,1.52-1.7,1.93-2.35l2.94,.96c-.03,.06-.06,.1-.09,.13,4.92-.09,8.79-.22,11.61-.4l.67,2.24c-1.52,.13-3.09,.22-4.69,.27v.76h5.34v1.91h-5.34v.78h4.73v1.97h-12.6v-1.97h4.8v-.78h-5.27v-1.91h5.27v-.67c-1.34,.03-2.32,.04-2.94,.04l-1.46,.02-.16-2.22c-.4,.69-.94,1.44-1.61,2.26v5.42h-2.98v-2.53Zm15.78,11.61h-10.04l.85,1.95c-.99,.27-2.21,.55-3.67,.85-1.46,.3-2.79,.55-4,.76l-.85-2.35c3.42-.46,5.94-.87,7.55-1.21h-5.63v-8.56h15.78v8.56Zm-3.12-6.17v-.74h-9.53v.74h9.53Zm-9.53,2.22h9.53v-.7h-9.53v.7Zm9.53,1.52h-9.53v.74h9.53v-.74Zm-2.71,2.51c3.69,.42,6.24,.75,7.64,.99l-.47,2.44c-1-.21-2.28-.45-3.82-.73s-2.88-.5-4-.66l.65-2.04Z"/>
        <path class="cls-1" d="M121.59,77.94c.64,.57,1.17,1.07,1.59,1.5l-1.91,2.08-.43-.43c-.76-.81-1.44-1.48-2.04-2.02l1.12-1.14h-3.23l1.86,1.26c-1.29,1.69-2.49,3.02-3.61,3.99l-2.11-2.15c.58-.43,1.12-.92,1.63-1.45,.5-.53,.91-1.08,1.22-1.65h-2.65v-2.71h1.3v-8.32h-1.01v-2.78h1.01v-1.46h2.89v1.46h2.82v-1.46h2.91v1.46h1.01v2.78h-1.01v8.32h.88v2.71h-2.26Zm-1.52-9.82v-1.21h-2.82v1.21h2.82Zm0,2.44h-2.82v1.12h2.82v-1.12Zm0,3.52h-2.82v1.14h2.82v-1.14Zm4.42-10.99h8.21v16.84c0,.81-.09,1.43-.28,1.86-.19,.43-.5,.74-.94,.93s-1.07,.28-1.89,.28h-1.91l-.61-2.89h1.64c.43,0,.71-.06,.84-.17,.13-.11,.19-.36,.19-.73v-2.53h-2.47c-.12,1.35-.36,2.5-.71,3.46-.35,.96-.92,2.04-1.69,3.24l-2.94-1.82c.82-1.09,1.41-2.04,1.75-2.84s.56-1.74,.66-2.83c.1-1.08,.15-2.76,.15-5.03v-7.78Zm5.25,5.45v-2.42h-2.31v2.42h2.31Zm-2.31,5.29h2.31v-2.49h-2.31v2.49Z"/>
        <path class="cls-1" d="M155.13,66.71v13.2c0,.85-.1,1.5-.29,1.93-.19,.43-.53,.74-1,.91s-1.17,.26-2.1,.26h-2.89l-.58-2.94h2.58c.42,0,.71-.02,.88-.07s.28-.13,.34-.27c.05-.13,.08-.37,.08-.69v-2.26l-1.57,1.68c-1.12-1.17-1.98-2.14-2.57-2.93-.59-.78-1.08-1.66-1.47-2.63-.48,.96-1.06,1.85-1.75,2.69-.69,.84-1.64,1.82-2.87,2.96l-1.64-1.84v6.34h-2.98v-16.34h7.62c-.09-.42-.18-.71-.27-.87s-.2-.26-.33-.28-.38-.03-.75-.03h-2.78v-2.83h2.78c.96,0,1.71,.13,2.26,.39,.55,.26,.97,.68,1.27,1.24,.29,.57,.53,1.36,.73,2.38h7.29Zm-14.84,9.12c1.12-.94,2.03-1.89,2.73-2.86s1.29-2.06,1.75-3.28h-4.48v6.14Zm8.16-6.14c.31,1.17,.74,2.16,1.27,2.99s1.34,1.78,2.43,2.86v-5.85h-3.7Z"/>
        <path class="cls-1" d="M168.38,67.47l.29,2.69-8,1.91-.85-2.56c.27-.13,.43-.28,.49-.43,.06-.15,.09-.41,.09-.78v-5.51h3.18v1.43h4.98v2.65h-4.98v1.66l4.8-1.05Zm1.17,3.95c-.13,.46-.29,.91-.47,1.34h8.23v10.47h-3.18v-.9h-9.91v.9h-3.18v-10.47h4.73c.24-.66,.43-1.25,.56-1.77l3.23,.43Zm-5.33,5h9.91v-1.1h-9.91v1.1Zm0,2.26v1.14h9.91v-1.14h-9.91Zm14.84-11.77l-.16,2.24c-.08,.88-.36,1.5-.86,1.85-.5,.35-1.32,.53-2.46,.53h-3.79c-.85,0-1.48-.2-1.88-.61-.4-.4-.6-1.07-.6-2v-6.23h3.23v2.22c2.08-.73,3.79-1.41,5.13-2.04l.99,2.56c-.43,.21-1.11,.49-2.04,.85l2.44,.63Zm-3.81,1.91c.45,0,.74-.06,.87-.17s.2-.37,.2-.77c0-.28,0-.51,.02-.67l.02-.83c-1.08,.4-2.35,.85-3.83,1.34v.18c0,.3,.03,.51,.09,.64s.15,.21,.27,.24c.12,.03,.32,.04,.6,.04h1.75Z"/>
        <path class="cls-1" d="M202.18,76.89v2.53h-7.87v1.19c0,.67-.1,1.19-.29,1.55-.19,.36-.55,.62-1.05,.77-.51,.16-1.25,.24-2.22,.24h-3.16l-.54-2.6h2.71c.37,0,.65-.02,.82-.06,.17-.04,.29-.12,.36-.24,.07-.12,.1-.31,.1-.56v-.29h-8.92v-2.53h8.92v-.07l3.25-1.01h-10.25v-2.35h16.14v2.35l-3.14,1.08h5.13Zm-.07-12.98v2.31h-19.95v-2.31h8.63c-.21-.63-.37-1.12-.47-1.48l3.27-.36,.56,1.84h7.96Zm-2.35,3.34v5.11h-15.2v-5.11h15.2Zm-2.91,2.08h-9.44v.99h9.44v-.99Z"/>
        <path class="cls-1" d="M225.11,79.67l-.52,2.96h-8.34c-3.09,0-5.54-.7-7.35-2.11-.67,.88-1.52,1.81-2.56,2.78l-1.5-2.85c.81-.67,1.49-1.38,2.06-2.11-.82-1.18-1.46-2.66-1.93-4.44l2.44-.96c.31,1.12,.67,2.03,1.05,2.73,.34-.84,.67-1.92,.99-3.25h-3.99v-2.62l3.12-3.77h-3.12v-2.89h6.99v2.89l-3.36,3.68h3.16v2.62c-.24,1.21-.5,2.27-.79,3.17-.28,.9-.62,1.75-1.01,2.52,.81,.6,1.77,1.02,2.88,1.27,1.11,.25,2.44,.37,3.98,.37h7.78Zm-7.15-13.25c-1.96,.22-3.51,.37-4.66,.43l-.29-2.85c1.64-.06,3.54-.21,5.68-.45,2.14-.24,3.99-.52,5.55-.83l.52,2.85c-1.72,.25-3,.43-3.85,.52v2.92h3.52v2.85h-3.52v3.54h3.79v2.85h-11.45v-9.86h2.94v7.02h1.79v-8.97Z"/>
        <path class="cls-1" d="M246.93,83.01c-1.93-.42-3.61-.93-5.05-1.54-1.44-.61-2.71-1.34-3.8-2.21l.02,1.73-7.02,2.4-1.35-2.67c.28-.12,.46-.25,.52-.4,.06-.15,.09-.41,.09-.78v-4.01h-2.22v-2.65h2.6v-10.04h16.03v2.62h-12.71v.94h11.88v2.29h-11.88v.94h11.9v2.31h-11.9v.94h14.1v2.65h-3.12l.99,1.3c-1.33,.73-2.39,1.31-3.18,1.73,1.39,.49,3.21,.9,5.45,1.23l-1.35,3.23Zm-13.29-3.79l3.27-.99c-.79-.79-1.51-1.7-2.15-2.71h-1.12v3.7Zm4.53-3.7c.57,.63,1.17,1.17,1.79,1.61,.99-.52,1.95-1.06,2.89-1.61h-4.69Z"/>
        <path class="cls-1" d="M266.7,75.52c.57,.73,1.23,1.4,2,2.01,.76,.61,1.7,1.23,2.8,1.87l-1.66,2.85c-1.12-.96-2.02-1.76-2.69-2.42-.67-.66-1.26-1.32-1.77-2v5.36h-3.09v-5.47c-1.32,1.67-2.95,3.18-4.91,4.53l-1.37-2.13v2.91h-2.85v-9.59c-.46,.73-.98,1.52-1.55,2.35l-1.19-3.65c.66-.97,1.38-2.39,2.16-4.26,.79-1.87,1.37-3.59,1.76-5.16l3.05,.78c-.42,1.61-.88,3.07-1.39,4.37v11.75c1.06-.66,1.97-1.3,2.74-1.94,.76-.63,1.46-1.36,2.08-2.16h-4.15v-2.78h5.6v-1.41h-4.57v-8.25h12.22v8.25h-4.55v1.41h5.6v2.78h-4.28Zm.2-9.53h-6.16v2.44h6.16v-2.44Z"/>
        <path class="cls-1" d="M274.68,83.19v-20.18h18.74v20.18h-3.14v-.94h-12.46v.94h-3.14Zm3.14-17.35v13.67h12.46v-13.67h-12.46Zm11.84,1.86v2.53h-4.17v1.32h3.47v6.72h-9.75v-6.72h3.39v-1.32h-4.17v-2.53h4.17v-1.41h2.89v1.41h4.17Zm-7.62,8.16h4.1v-1.86h-4.1v1.86Z"/>
      </g>
      <g>
        <circle class="cls-6" cx="24.66" cy="39.58" r="24.66"/>
        <g>
          <g>
            <path class="cls-5" d="M15.47,32.66l-.06,1.07v.19s3.84,0,3.84,0c-.02,.4-.06,1.02-.12,1.84-.05,.83-.09,1.31-.11,1.44-.04,.37-.11,.66-.23,.86-.11,.2-.29,.34-.52,.42-.23,.08-.55,.12-.96,.12h-1.43l-.2-1h1.27c.28,0,.5-.02,.64-.07s.25-.12,.31-.24,.1-.28,.12-.5c.01-.23,.03-.55,.06-.95,.03-.4,.05-.71,.07-.95h-2.87c-.12,.82-.35,1.54-.69,2.14-.34,.61-.87,1.22-1.58,1.85l-.76-.81c.52-.45,.93-.88,1.21-1.28,.28-.4,.49-.85,.63-1.34,.13-.49,.23-1.11,.28-1.87,.02-.4,.04-.71,.04-.95h-2.02v-.98h3.46l-.31-.99,1.14-.19c.06,.16,.19,.55,.4,1.18h3.07v.98h-4.68Z"/>
            <path class="cls-5" d="M20.03,48.15c-.75-.24-1.38-.47-1.89-.7-.51-.23-.97-.49-1.38-.77v1.65h-.96v-1.66c-.4,.29-.86,.55-1.38,.79-.52,.24-1.14,.48-1.87,.72l-.38-.9c.65-.16,1.21-.33,1.67-.5,.46-.17,.86-.37,1.21-.58h-2.67v-.77h3.43v-.62h.96v.62h3.43v.77h-2.64c.72,.43,1.67,.79,2.83,1.09l-.36,.86Zm-5.92-5.17h-1.69v-.76h2.3c.19-.26,.32-.46,.41-.59l1.04,.1-.34,.5h4.32v.76h-1.4c-.29,.37-.64,.67-1.06,.92,1.12,.28,1.84,.46,2.17,.57l-.32,.76c-.91-.29-1.87-.58-2.9-.85-.96,.34-2.26,.6-3.9,.8l-.26-.76c1.13-.1,2.08-.23,2.83-.4-.49-.13-1.07-.27-1.75-.43,.18-.19,.37-.39,.56-.61Zm-.42-1.57v.57h-.95v-1.33h3.1l-.29-.58,1.03-.19c.16,.32,.28,.58,.37,.76h2.91v1.31h-.94v-.55h-5.21Zm1.55,1.57c-.12,.14-.21,.24-.26,.3,.34,.06,.87,.18,1.6,.35,.39-.17,.71-.38,.97-.65h-2.31Z"/>
          </g>
          <path class="cls-4" d="M26.2,48.6h10.33l-.12,1.51h-12.47l.12-1.4,7.27-7.56c1.53-1.58,2.63-2.9,3.3-3.96,.67-1.06,1.05-2.08,1.13-3.04,.1-1.25-.21-2.23-.93-2.94-.72-.72-1.72-1.07-2.98-1.07-2.2,0-3.92,1.17-5.17,3.52l-1.34-.67c.71-1.4,1.64-2.47,2.78-3.22,1.14-.75,2.44-1.13,3.89-1.13,1.77,0,3.15,.49,4.15,1.48,1,.99,1.43,2.31,1.29,3.96-.09,1.1-.5,2.27-1.24,3.5-.73,1.24-1.91,2.69-3.51,4.37l-6.47,6.67Z"/>
        </g>
      </g>
    </g>
  </g>
</svg>