<?xml version="1.0" encoding="UTF-8"?>
<svg id="_圖層_2" data-name="圖層 2" xmlns="http://www.w3.org/2000/svg" xmlns:xlink="http://www.w3.org/1999/xlink" viewBox="0 0 164.05 143.43">
  <defs>
    <style>
      .cls-1 {
        fill: #dbdcdc;
      }

      .cls-2 {
        filter: url(#drop-shadow-1);
      }

      .cls-3 {
        fill: #c20d23;
      }

      .cls-4 {
        fill: #151615;
      }
    </style>
    <filter id="drop-shadow-1" filterUnits="userSpaceOnUse">
      <feOffset dx="0" dy="0"/>
      <feGaussianBlur result="blur" stdDeviation="4.43"/>
      <feFlood flood-color="#162059" flood-opacity=".49"/>
      <feComposite in2="blur" operator="in"/>
      <feComposite in="SourceGraphic"/>
    </filter>
  </defs>
  <g id="_圖層_2-2" data-name="圖層 2">
    <g>
      <g>
        <circle class="cls-1" cx="71.71" cy="71.71" r="71.71"/>
        <polygon class="cls-1" points="128.66 33.71 141.5 67.16 164.05 39.32 128.66 33.71"/>
      </g>
      <g>
        <g class="cls-2">
          <path class="cls-4" d="M35.92,45.21l3.83-1.52,.21,2.88-6.25,2.58-1.13-2.75c.2-.1,.33-.22,.38-.35,.04-.13,.07-.35,.07-.67v-13.37h2.9v4.6h3.75v2.81h-3.75v5.79Zm13.29-2.37l-.12,3.15c-.03,.99-.28,1.69-.75,2.12-.47,.42-1.28,.63-2.4,.63h-2.9c-.92,0-1.59-.21-2.01-.64-.42-.43-.62-1.16-.62-2.2v-14.08h2.87v5.6c.73-.55,1.47-1.16,2.22-1.83,.75-.67,1.36-1.24,1.82-1.71l1.81,2.19c-.8,.76-1.74,1.59-2.83,2.5-1.09,.91-2.1,1.7-3.02,2.37v4.08c0,.32,.02,.55,.06,.69,.04,.14,.12,.24,.25,.29,.13,.05,.35,.08,.65,.08h.94c.32,0,.55-.02,.69-.07,.14-.04,.24-.13,.29-.27,.05-.13,.08-.37,.1-.7l.02-.56c.06-1.29,.09-2.03,.08-2.19l2.87,.56Z"/>
          <path class="cls-4" d="M57.72,41.49l-1.73,.65v4.77c0,.77-.2,1.34-.61,1.7-.4,.37-1.02,.55-1.84,.55h-1.46l-.48-2.73h1.15c.23,0,.39-.01,.48-.04,.09-.03,.15-.08,.17-.17,.03-.09,.04-.26,.04-.5v-2.67l-1.58,.52-.37-2.85,1.94-.62v-3.23h-1.63v-2.6h1.63v-2.54h2.54v2.54h1.62v1.96c.58-.32,.99-.67,1.24-1.05,.25-.38,.38-.92,.38-1.62v-1.79h7.68v2.96c0,.26,.05,.43,.14,.52,.1,.09,.28,.13,.55,.13h1.46l-.33,2.42h-2.21c-.74,0-1.29-.15-1.64-.45-.35-.3-.52-.75-.52-1.36v-1.71h-2.65v.62c0,.64-.22,1.25-.67,1.82-.45,.57-1.14,1.15-2.08,1.74l-1.37-1.6h-1.6v2.39l1.4-.5,.33,2.73Zm10.37-.4c-.65,1.48-1.62,2.81-2.9,4,.97,.53,2.24,1.03,3.79,1.52l-1.17,2.58c-1.9-.76-3.48-1.56-4.73-2.4-1.32,.91-2.94,1.76-4.85,2.56l-1.39-2.58c1.59-.55,2.94-1.15,4.04-1.79-1.08-1.09-2.01-2.37-2.81-3.85v-2.52h10.02v2.48Zm-7.23,.04c.58,.95,1.28,1.78,2.12,2.5,1.09-.86,1.85-1.69,2.27-2.5h-4.39Z"/>
          <path class="cls-4" d="M88.86,39.82l-1.04,2.27c-1.09-.53-2.06-1.17-2.92-1.92-.67,.56-1.58,1.18-2.73,1.85l-1.23-2.08v.73h-2.1v-.87l-.77,.35c-.05-.14-.23-.58-.54-1.33l-.19-.46v2.81h-1.94v-2.73c-.32,.86-.59,1.5-.81,1.92l-.71-.35v1.6h-2.12v-7.43h1.44l-1.37-1.73,1.54-1.29c.21,.26,.46,.54,.75,.85,.14,.15,.3,.33,.47,.53,.17,.2,.36,.41,.55,.64l-1.17,1h1.19v-2.96h2.37v2.96h1.23l-1.1-.88c.64-.79,1.17-1.49,1.58-2.1l1.67,1.13c-.46,.74-.89,1.36-1.29,1.85h1.31v1.15c.4-.59,.77-1.24,1.11-1.96,.34-.72,.61-1.44,.8-2.17l2.29,.17c-.14,.46-.31,.97-.52,1.54h3.96v2.19h-.6c-.42,1.42-.95,2.57-1.58,3.44,.67,.47,1.49,.9,2.46,1.27Zm-7.52,1.33v1.19h6.02v3.75c0,.87-.21,1.46-.64,1.78s-1.14,.47-2.13,.47h-1.83l-.52-2.17h1.52c.35,0,.57-.05,.67-.16,.1-.11,.15-.3,.15-.57v-.81h-3.25v4.69h-2.79v-4.69h-3.12v3.73h-2.71v-6.02h5.83v-1.19h2.79Zm-5.94-3.67v-1.42h-1.52v2.17c.12-.28,.26-.67,.42-1.17l1.1,.42Zm2.98-.52c.12,.22,.27,.56,.46,1.02v-1.92h-1.5v1.42l1.04-.52Zm2.56,2.9c1.01-.44,1.84-.89,2.48-1.37-.37-.53-.68-1.08-.92-1.67-.24,.36-.53,.74-.85,1.13l-.71-1.52v3.42Zm4.91-4.75h-1.89c.2,.74,.51,1.39,.9,1.94,.37-.51,.7-1.16,.98-1.94Z"/>
          <path class="cls-4" d="M100.58,45.96l.02,1.25c-.45,.03-2.01,.2-4.67,.52s-4.22,.53-4.66,.63l-.33-2.77c.13,0,1.01-.08,2.65-.25l.75-.08v-3.73h-2.87v-2.56h8.29v2.56h-2.71v3.41c1.77-.21,2.94-.35,3.5-.44l.02,1.46Zm7.71-2.06c-.05,.4-.12,.88-.21,1.43-.09,.56-.18,1-.27,1.34-.26,1-.58,1.69-.97,2.07-.39,.38-.89,.57-1.51,.57s-1.17-.19-1.65-.57c-.49-.38-.99-1.04-1.5-1.99-.46-.92-.87-2.2-1.23-3.82-.36-1.62-.61-3.54-.75-5.74h-9.06v-2.6h8.95c-.01-1.03-.05-2.03-.12-3.02h2.79c0,.68,.02,1.69,.06,3.02h2.23l-1.69-1.56,1.58-1.75c.97,.83,1.81,1.57,2.52,2.21l-.94,1.1h1.64v2.6h-5.19c.15,2.27,.38,4.1,.68,5.49,.3,1.39,.71,2.46,1.22,3.2,.15,.23,.32,.35,.5,.35,.09,0,.17-.07,.23-.22,.06-.15,.13-.42,.21-.82,.19-1.13,.3-1.81,.33-2.04l2.17,.75Z"/>
        </g>
        <g>
          <path class="cls-3" d="M53.23,109.25h1.77l-.72,2.89h-11.4c-1.69,0-3.01-.17-3.96-.52s-1.78-1.03-2.49-2.04l-2.74,3.14-1.37-3.93,2.26-2.04v-6.12h-1.97v-3.43h5.1v9.48c.5,.93,1.08,1.58,1.74,1.94,.66,.37,1.63,.57,2.91,.62l-.9-1.64c.27-.25,.4-.54,.4-.87v-.3c-.78,.35-1.71,.71-2.79,1.07l-1.22-2.51c2.12-.38,3.86-.93,5.2-1.64h-3.56v-4.7h13.79v4.36l1.17,1.1-2.54,1.67,1.12,.57,1.64,.87-1.47,2.07Zm-17.87-13.49c-.46-1.08-1.27-2.75-2.41-5l2.86-1.42c.3,.5,.71,1.27,1.24,2.31,.53,1.05,.89,1.74,1.07,2.09l.25,.5-3.01,1.52Zm18.99,2.17h-16.03v-2.12h16.03v2.12Zm-15.21-7.92h14.61v5.1h-14.61v-5.1Zm4.11,1.89h-1.44v1.34h1.44v-1.34Zm-.7,17.35h10.6c-1.84-1.1-3.53-2.07-5.05-2.94l.12,1.69-5.67,1.24Zm7.29-8.74h-6.84v.9h6.84v-.9Zm-3.04,2.81c-.7,.55-1.36,1.03-1.99,1.44v1.57l2.44-.5-1.17-.62,1.37-1.74c1.03,.55,1.74,.91,2.14,1.1,.78-.45,1.44-.86,1.99-1.25h-4.78Zm.35-10.08v-1.34h-1.39v1.34h1.39Zm2.49,0h1.42v-1.34h-1.42v1.34Z"/>
          <path class="cls-3" d="M64.88,90.28c-.42,1.76-.92,3.47-1.52,5.13v17.27h-3.21v-10.48c-.51,.86-1,1.6-1.44,2.22l-1.07-4.46c1.54-2.71,2.85-6.15,3.91-10.33l3.33,.65Zm14.93,22.35c-2.09-.23-3.87-.5-5.33-.8-1.46-.3-2.78-.7-3.96-1.19-1.24,.73-3.08,1.49-5.5,2.29l-1.52-2.99c1.84-.56,3.09-.99,3.76-1.27-.76-.61-1.49-1.32-2.17-2.12l1.77-1.39h-1.69v-10.58h5.7v-1.47h-5.75v-2.74h15.23v2.74h-6.27v1.47h5.45v10.58h-5.58c-.15,1.19-.45,2.19-.9,2.99,1.84,.5,4.36,.84,7.54,1.02l-.8,3.46Zm-11.87-7.47c.75,.71,1.42,1.26,2.02,1.64,.31-.43,.55-.98,.7-1.64h-2.71Zm2.94-6.55v-1.39h-2.54v1.39h2.54Zm0,2.42h-2.54v1.39h2.54v-1.39Zm5.48-2.42v-1.39h-2.27v1.39h2.27Zm-2.27,2.42v1.39h2.27v-1.39h-2.27Z"/>
          <path class="cls-3" d="M102.68,96.88v12h3.11v3.06h-21.93v-3.06h3.11v-12h-2.81v-5.4h8.79l-.4-1.94,4.16-.22,.4,2.17h8.39v5.4h-2.81Zm-.65-.82v-1.57h-14.36v1.57h14.36Zm-11.7,4.46h9.03v-1.47h-9.03v1.47Zm9.03,2.64h-9.03v1.52h9.03v-1.52Zm0,4.23h-9.03v1.49h9.03v-1.49Z"/>
        </g>
        <g>
          <path class="cls-4" d="M57.55,82.86h-7.35l-7.97-11.01-2.01,2.11v8.9h-5.77v-26.53h5.77v10.15l8.9-10.15h8.01l-10.87,11.3,11.3,15.22Z"/>
          <path class="cls-4" d="M72.98,82.86h-5.77v-21.12h-7.25v-5.4h20.23v5.4h-7.22v21.12Z"/>
          <path class="cls-4" d="M92.02,82.86l-9.82-26.53h6.2l6.46,18.65h.2l6.49-18.65h6.2l-9.82,26.53h-5.9Z"/>
        </g>
        <path class="cls-3" d="M115.01,92.85c-.42,3.58-.97,7.14-1.62,10.68-.15,.8,.22,1.62,1.05,1.85,.73,.2,1.7-.25,1.85-1.05,.71-3.81,1.28-7.63,1.73-11.48,.09-.81-.76-1.5-1.5-1.5-.89,0-1.41,.69-1.5,1.5h0Z"/>
        <path class="cls-3" d="M113.44,111.22c2.32,0,2.33-3.61,0-3.61s-2.33,3.61,0,3.61h0Z"/>
      </g>
    </g>
  </g>
</svg>