<?xml version="1.0" encoding="UTF-8"?>
<svg id="_圖層_2" data-name="圖層 2" xmlns="http://www.w3.org/2000/svg" xmlns:xlink="http://www.w3.org/1999/xlink" viewBox="0 0 335.79 52.34">
  <defs>
    <style>
      .cls-1 {
        fill: #fff;
      }

      .cls-2 {
        filter: url(#drop-shadow-1);
      }

      .cls-3 {
        fill: #c20d23;
      }

      .cls-4 {
        fill: #151615;
      }

      .cls-5 {
        fill: #f7cd1c;
      }
    </style>
    <filter id="drop-shadow-1" filterUnits="userSpaceOnUse">
      <feOffset dx="0" dy="0"/>
      <feGaussianBlur result="blur" stdDeviation="5.16"/>
      <feFlood flood-color="#162059" flood-opacity=".49"/>
      <feComposite in2="blur" operator="in"/>
      <feComposite in="SourceGraphic"/>
    </filter>
  </defs>
  <g id="_圖層_2-2" data-name="圖層 2">
    <g>
      <rect class="cls-3" x="240.18" y="13.25" width="95.61" height="10.8"/>
      <g class="cls-2">
        <path class="cls-1" d="M87.24,17.91l-.52,2.91h-10.15c-1.45,0-2.61-.18-3.47-.54-.87-.36-1.67-.98-2.4-1.86l-2.51,2.83-1.28-3.56,2.02-1.84v-5.42h-1.79v-3.14h4.82V15.78c.43,.78,1.01,1.33,1.73,1.65s1.74,.48,3.07,.48h10.49Zm-17.37-11.54c-.34-.72-.79-1.57-1.32-2.57-.54-.99-.96-1.75-1.28-2.28l2.78-1.46c.34,.57,.78,1.32,1.3,2.26,.52,.94,.97,1.77,1.35,2.49l-2.82,1.55Zm3.59-1.41h4.89v-.99h-5.4V1.57h5.4V.34h3.03V1.57h5.45V3.97h-5.45v.99h4.91v7.98h-4.91v1.05h5.72v2.44h-5.72v1.1h-3.03v-1.1h-5.67v-2.44h5.67v-1.05h-4.89V4.96Zm4.89,3.07v-1.12h-2.04v1.12h2.04Zm-2.04,1.84v1.1h2.04v-1.1h-2.04Zm7.08-1.84v-1.12h-2.02v1.12h2.02Zm-2.02,1.84v1.1h2.02v-1.1h-2.02Z"/>
        <path class="cls-1" d="M89.87,20.6c.18-.88,.34-1.85,.49-2.91,.15-1.06,.25-1.95,.31-2.67l1.95,.09c-.13,2.27-.37,4.19-.7,5.76l-2.06-.27Zm.92-12.02l-.74-2.11c1.15-2.03,2.2-4.15,3.14-6.34l2.31,.81c-.85,1.88-1.78,3.64-2.78,5.27l1.3-.16,.34-.61c.52-.97,.83-1.55,.92-1.73l2.04,1.19c-1.29,2.32-2.73,4.6-4.33,6.86l1.91-.4-.34-1.48,1.75-.52c.3,1.03,.64,2.44,1.03,4.21l.13,.56-1.91,.49c-.12-.57-.19-.9-.22-1.01l-4.44,.72-.72-2.31c.67-.93,1.48-2.13,2.42-3.61l-1.82,.16Zm3.79,6.43c.16,1.08,.34,2.82,.52,5.22l-1.93,.18c-.03-1.96-.12-3.69-.27-5.2l1.68-.2Zm11.97,3.21c1.81,.42,3.15,.75,4.04,1.01l-.76,1.95c-.7-.24-1.62-.52-2.76-.83-1.14-.31-2.04-.54-2.71-.67l.63-1.46h-2.91l.81,1.35c-2.35,.79-4.21,1.33-5.6,1.61l-.63-1.5-.72,.18c-.15-.99-.28-1.77-.39-2.35-.11-.58-.29-1.37-.53-2.35l1.5-.34c.3,.99,.52,1.73,.65,2.24s.27,1.14,.4,1.91c1.23-.28,2.18-.53,2.87-.74h-2.78V10.2h11.63v8.03h-2.74Zm-8.83-14.46h4.26v-.61h-5V1.37h5V.16h2.94V1.37h5.16v1.79h-5.16v.61h4.33v1.66h-11.52v-1.66Zm12.06,5.85h-12.62v-3.63h12.62v3.63Zm-8.94-2.26h-1.44v.87h1.44v-.87Zm5.69,5.18v-.7h-6.1v.7h6.1Zm-6.1,2h6.1v-.63h-6.1v.63Zm6.1,1.32h-6.1v.72h6.1v-.72Zm-3.77-8.5v.87h1.41v-.87h-1.41Zm3.36,.87h1.37v-.87h-1.37v.87Z"/>
        <path class="cls-1" d="M132.04,17.49h1.26v3.05h-13.27v-3.05h1.88v-4.66l-1.48,2.24c-.31-.3-.84-.75-1.59-1.35v7.38h-3v-6.66c-.61,1.18-1.29,2.27-2.02,3.27l-.87-3.59c.45-.6,.9-1.32,1.34-2.17,.45-.85,.85-1.76,1.21-2.71h-2.24v-2.94h2.58v-1.55l-2.22,.38-.29-2.89c1.18-.16,2.47-.39,3.87-.67,1.4-.28,2.6-.58,3.62-.87l.49,2.8c-.7,.22-1.52,.44-2.47,.65v2.15h2.44v2.94h-2.44v1.03c1.02,.7,2.04,1.49,3.07,2.35V1.19h10.13V17.49Zm-3.16-10.81v-2.58h-3.88v2.58h3.88Zm-3.88,5.43h3.88v-2.56h-3.88v2.56Zm3.88,2.87h-3.88v2.51h3.88v-2.51Z"/>
        <path class="cls-1" d="M137.82,6.1c.37,.28,.93,.75,1.68,1.4s1.35,1.2,1.82,1.65l-2.22,2.49c-.39-.43-.93-.99-1.64-1.67-.7-.68-1.24-1.18-1.61-1.49l1.97-2.38Zm-1.77,14.17l1.91-8.16,2.85,.69-1.59,8.23-3.16-.76Zm17.6-12.62h-3.74v1.1h5.65v9.91c0,.91-.24,1.54-.71,1.89-.47,.35-1.26,.53-2.37,.53h-1.46l-.52-2.56h1.21c.43,0,.72-.06,.87-.17s.22-.34,.22-.68v-.27l-.99,.27c-.06-.27-.21-.82-.45-1.66-.25,.72-.54,1.4-.85,2.04l-.81-.56v3.23h-2.62v-3.09l-.9,.27c-.08-.33-.25-.93-.52-1.82-.25,.72-.57,1.43-.94,2.13l-.76-.49v3.36h-2.65V8.74h5.58v-1.1h-3.68v-3.32h-2.04l-1.32,1.57c-.55-.55-1.18-1.14-1.89-1.75-.71-.61-1.3-1.09-1.78-1.43l1.95-2.4c1.02,.76,2.03,1.58,3.05,2.47V1.73h2.04V.54h2.94V1.73h4.55V.52h2.91V1.73h2.53v2.6h-2.53v3.32Zm-7.76,3.79l1.21,3.99v-4.28h-3.12v4.8c.42-.97,.72-1.77,.92-2.4-.07-.24-.25-.77-.52-1.59l1.5-.52Zm4.84-7.11h-4.55v1.1h4.55v-1.1Zm2.08,6.81h-3.09v4.62c.34-.7,.63-1.5,.87-2.4l-.47-1.43,1.46-.45c.52,1.57,.93,2.91,1.23,4.01v-4.35Z"/>
        <path class="cls-1" d="M164.77,16.21h6.39v3.68h-12.35v-2.62l5.54-5.92c.96-1.03,1.6-1.86,1.94-2.48,.34-.62,.5-1.24,.5-1.85,0-.54-.19-.99-.56-1.35-.37-.36-.86-.54-1.46-.54-.63,0-1.19,.22-1.69,.67s-.86,1.06-1.09,1.84l-3.5-1.43c.4-1.43,1.18-2.57,2.33-3.41,1.15-.84,2.51-1.26,4.08-1.28,1.14,0,2.15,.23,3.05,.7,.9,.46,1.6,1.11,2.1,1.93,.5,.82,.75,1.76,.75,2.8s-.26,2.04-.79,3.04c-.52,.99-1.38,2.12-2.56,3.37l-2.69,2.85Z"/>
        <path class="cls-1" d="M193.95,13.99v2.96h-6.9v4.28h-3.3v-4.28h-9.73v-2.96h2.8v-5.27c-.42,.46-.87,.94-1.37,1.43l-1.7-3.18c1.08-.94,2.04-2.01,2.89-3.22s1.49-2.37,1.91-3.51l3.41,.81-.61,1.26h11.99v3h-6.3v2.67h5.6v2.89h-5.6v3.12h6.9Zm-14.39-8.68c-.63,.91-1.32,1.8-2.08,2.67h6.28v-2.67h-4.19Zm.36,5.56v3.12h3.83v-3.12h-3.83Z"/>
        <path class="cls-1" d="M215.92,15.02l-.72,.78,1.77,.67c-.06,.64-.17,1.28-.31,1.91-.27,1.02-.61,1.75-1.01,2.2-.4,.45-.91,.67-1.5,.67-1.38,0-2.5-.66-3.36-1.97-1.03,.63-2.29,1.26-3.77,1.91l-1.35-2.24c.54-.21,1.17-.49,1.91-.85-.22-.18-.81-.53-1.77-1.05-.45,1.45-1.25,2.94-2.4,4.46l-2.17-2c.88-1,1.51-1.91,1.88-2.71,.37-.81,.59-1.77,.65-2.89h-1.28v-2.53h1.3v-1.03h2.58v1.03h2.13l-.13-1.43-.96,.45c-.09-.25-.18-.46-.27-.61l-3.99,.47-.74-2.08c.79-.67,1.49-1.4,2.08-2.17l-1.57,.18-.56-1.66v2.49h-1.21v1.48c.67,.58,1.27,1.17,1.79,1.77l-1.1,2.6s-.25-.28-.7-.76v9.08h-2.6v-7.6c-.43,1.09-.89,2.07-1.37,2.94l-.65-4.15c.3-.49,.63-1.23,.99-2.21,.36-.98,.7-2.03,1.01-3.15h-1.59v-2.94h1.61V.47h2.6v3.59h1.21v.36c.57-.72,1.03-1.36,1.39-1.93,.36-.57,.7-1.23,1.01-2l1.95,.67c-.43,.75-1.08,1.76-1.93,3.05l.94-.02c.43-.7,.7-1.14,.79-1.3l1.57,.78c-.01-.7-.02-1.82-.02-3.34h2.67l-.02,1.91,.02,1.77c.4-.46,.81-1.05,1.22-1.76s.71-1.36,.91-1.96l1.97,.74c-.21,.48-.49,1-.85,1.57-.36,.57-.69,1.04-.99,1.41l1.05-.02c.25-.39,.52-.86,.78-1.41l1.82,.88c-.4,.69-.96,1.48-1.67,2.36-.71,.89-1.33,1.6-1.85,2.12l1.48-.16c-.03-.07-.17-.4-.4-.99l1.52-.72c.22,.49,.48,1.11,.77,1.86,.29,.75,.5,1.34,.62,1.77l-1.64,.61-.27-.81-3.79,.38-.58-1.61c.06,1.11,.15,2.14,.27,3.09h1.48c-.13-.48-.25-.84-.34-1.1l2.29-.43,.52,1.52h1.84v2.53h-2.42l1.46,1.12Zm-9.57-6.99l-.47-.99c-.27,.3-.63,.67-1.08,1.12l1.55-.13Zm.99-1.82c.07,.15,.23,.49,.47,1.01,.18,.42,.32,.73,.43,.94-.08-1.2-.12-2.49-.13-3.88-.6,.84-1.29,1.7-2.08,2.6l1.32-.67Zm1.52,9.77l-1.14,2.04c.85-.4,1.51-.75,1.97-1.03-.3-.82-.57-1.85-.81-3.09h-2.56c0,.19,0,.36-.02,.49s-.03,.25-.04,.36c1.23,.57,2.09,.98,2.6,1.23Zm2.4-10.02l-.54-1.55c0,.9,.03,2.02,.09,3.36,.67-.63,1.3-1.29,1.88-1.97l-1.43,.16Zm.27,7.94c.15,.66,.29,1.2,.43,1.64,.72-.54,1.35-1.08,1.91-1.64h-2.33Zm2.85,4.23c.13-.16,.24-.43,.31-.82,.08-.24,.15-.64,.22-1.21-.61,.61-1.29,1.2-2.02,1.77,.13,.21,.28,.35,.45,.42s.38,.09,.65,.08c.12,0,.25-.08,.38-.24Z"/>
        <path class="cls-1" d="M239.21,15.4l-.6-.13v5.96h-2.67v-.79h-3.03v.79h-2.69v-7h4.73c-1.99-.72-3.67-1.67-5.04-2.85-.46,.63-1.08,1.16-1.84,1.6-.76,.44-1.76,.86-3,1.24h4.24v7h-2.69v-.79h-2.91v.79h-2.67v-5.94l-.94,.2-.52-2.78c1.52-.16,2.79-.36,3.81-.59,1.02-.23,1.85-.52,2.49-.86h-5.45v-2.65h7.56c.09-.34,.16-.7,.2-1.08l3.25,.16-.25,.92h2.51l-.36-.92,3.03-.18c.16,.36,.31,.72,.45,1.1h2.35v2.65h-5.09c1.34,.6,3.33,1.08,5.96,1.46l-.83,2.69ZM220.86,1.01h8.45V7.29h-8.45V1.01Zm2.67,3.88h3.09v-1.5h-3.09v1.5Zm.18,13.11h2.91v-1.39h-2.91v1.39Zm6.55-16.99h8.47V7.29h-8.47V1.01Zm2.67,15.6v1.39h3.03v-1.39h-3.03Zm.02-11.72h3.16v-1.5h-3.16v1.5Z"/>
        <path class="cls-1" d="M262.75,15.29c-.03,.28-.06,.85-.09,1.7-.01,.22-.04,.72-.09,1.5-.03,.6-.15,1.06-.35,1.4-.2,.34-.52,.58-.96,.73-.44,.15-1.06,.22-1.85,.22h-4.1c-.75,0-1.33-.09-1.74-.26s-.71-.46-.9-.86c-.19-.4-.28-.98-.28-1.73v-1.88c-.73,1.11-1.73,2.08-2.99,2.94s-2.93,1.69-4.99,2.51l-1.66-2.89c2-.69,3.57-1.38,4.71-2.07,1.14-.69,2-1.51,2.58-2.45h-5.45v-5.85c-.18,.15-.46,.36-.85,.63l-1.32-2.74c1.5-1.09,2.76-2.12,3.81-3.09,1.05-.97,1.89-2,2.53-3.09l3.09,.67c-.17,.27-.43,.66-.79,1.17h7.85v2.6l-2.06,1.77h4.42v7.94h-6.01v2.89c0,.39,.06,.64,.18,.75,.12,.11,.39,.17,.81,.17h2.33c.4,0,.68-.02,.84-.06,.16-.04,.26-.12,.31-.26,.05-.13,.08-.36,.08-.67l.09-2.29,2.85,.61Zm-13.85-10.74c-.36,.39-.93,.94-1.7,1.66h5.83l2-1.66h-6.12Zm-1.41,6.88h3.56c.13-.64,.24-1.46,.31-2.47h-3.88v2.47Zm10.9,0v-2.47h-4.04c-.06,.87-.15,1.69-.27,2.47h4.3Z"/>
        <path class="cls-1" d="M278.38,18.02l1.03,.13c.27,.03,1.16,.15,2.67,.35,1.51,.2,2.74,.39,3.68,.57l-.69,2.29-1.23-.22c-3.14-.6-5.4-.99-6.79-1.19l.79-1.93h-3.86l.63,1.79c-.88,.28-2.04,.57-3.49,.85-1.44,.28-2.89,.53-4.34,.74l-.76-2.38c3-.31,5.32-.65,6.95-1.01h-4.98v-6.39c-.34,.09-.81,.19-1.41,.29l-.85-2.44c1.57-.1,2.77-.25,3.6-.45,.83-.19,1.43-.46,1.8-.81h-4.64l.81-4.17h4.46v-.74h-5.18V1.37h5.18V.34h2.98V1.37h2.22V.34h2.96V1.37h4.89V5.76h-4.89v.79h5.72l-.22,2.42c-.06,.54-.2,.9-.43,1.08-.22,.18-.61,.28-1.17,.31v7.67h-5.42Zm-6.64-12.26h-1.95l-.11,.79h2.06v-.79Zm-.61,6.34h9.53v-.7h-9.53v.7Zm9.53,1.43h-9.53v.67h9.53v-.67Zm0,2.11h-9.53v.72h9.53v-.72Zm-6.23-7.42c-.19,.58-.56,1.08-1.1,1.5h7.49l-.22-.99h1.19c.36,0,.58-.02,.67-.07s.13-.12,.13-.22v-.22h-2.69v1.21h-2.96v-1.21h-2.51Zm2.51-4.91h-2.22v.74h2.22v-.74Zm-2.22,3.23h2.22v-.79h-2.22v.79Zm7.22-2.49v-.74h-2.04v.74h2.04Z"/>
        <path class="cls-1" d="M295.98,16.14h-1.55c.37,.51,.8,1.1,1.27,1.78,.47,.68,.85,1.25,1.13,1.71l-2.13,1.43c-.15-.28-.4-.71-.75-1.28-.35-.57-.61-.99-.77-1.28l-.54-.85c-.57,1.11-1.26,2.28-2.08,3.52l-2.11-1.37c.91-1.22,1.68-2.45,2.31-3.68l1.93,1.17,1.66-1.17h-5.16V1.05h6.79v15.09Zm-2.33-10.85v-1.52h-2.11v1.52h2.11Zm-2.11,4.06h2.11v-1.52h-2.11v1.52Zm0,2.58v1.52h2.11v-1.52h-2.11Zm16.9-9.73V10.72h-11.66V2.2h2.2c-.34-.78-.58-1.28-.72-1.5l2.51-.49c.4,.87,.7,1.53,.9,2h2c.31-.76,.58-1.46,.79-2.08l2.47,.58c-.08,.21-.28,.71-.61,1.5h2.13Zm-8.29,18.92h-2.71V11.59h10.29v9.53h-2.69v-.85h-4.89v.85Zm1.39-16.61h-2.49v1.03l1.28-.72c.6,1.06,1,1.81,1.21,2.24v-2.56Zm-2.49,3.9h2.49v-1.05l-1.57,.83c-.17-.39-.47-1.01-.92-1.86v2.08Zm5.99,6.55v-1.08h-4.89v1.08h4.89Zm-4.89,1.97v1.05h4.89v-1.05h-4.89Zm5.99-11.39v-1.03h-2.51v2.47c.49-.75,.91-1.46,1.26-2.13l1.25,.7Zm-2.51,1.77v1.1h2.51v-2l-1.03,1.77-1.48-.87Z"/>
        <path class="cls-1" d="M329.27,17.87h2.51l-.58,3.07h-9.28c-1.72,0-3.08-.17-4.08-.52-1-.34-1.85-.91-2.56-1.7l-2.38,2.53-1.19-3.74,2.06-1.93v-4.93h-2.06v-3.14h5.18V15.96c.48,.78,1.38,1.33,2.69,1.66l-1.64-2.44c1.36-.61,2.37-1.19,3.03-1.73,.66-.54,1.11-1.15,1.35-1.84h-4.8v-2.78h5.13v-2.08h-4.28V3.88h2.42l-.25-.4c-.21-.31-.43-.66-.67-1.03-.24-.37-.47-.71-.7-1.01l2.62-1.44c.3,.46,.66,1.01,1.09,1.64s.8,1.16,1.11,1.59l-1.23,.65h2c.46-.61,.95-1.29,1.45-2.03,.5-.74,.88-1.36,1.15-1.85l2.51,1.61-1.68,2.26h2.78v2.87h-5.09v2.08h5.56v2.78h-5.58c.91,.67,1.92,1.43,3.03,2.28,1.11,.84,1.85,1.42,2.22,1.74l-1.84,2.24Zm-14.08-11.34c-.34-.49-.85-1.18-1.52-2.05-.67-.87-1.22-1.56-1.64-2.05l2.42-1.91c1.27,1.57,2.33,2.93,3.18,4.08l-2.44,1.93Zm6.93,11.34h6.79c-.69-.61-1.79-1.55-3.32-2.8-.45-.39-.78-.67-1.01-.85-.45,.61-1.04,1.2-1.78,1.76-.74,.56-1.68,1.13-2.84,1.72,.67,.12,1.39,.18,2.15,.18Z"/>
        <path class="cls-1" d="M87.15,44.79v2.85h-1.81v1.46c0,.84-.11,1.47-.33,1.91s-.57,.74-1.08,.92c-.5,.18-1.21,.27-2.14,.27h-2.62l-.56-3.03h2.27c.42,0,.72-.03,.91-.08,.19-.05,.31-.15,.37-.29,.06-.14,.09-.38,.09-.71v-.45h-10.02v4.48h-3.07v-4.48h-1.86v-2.85h1.86v-8.54h6.59v-1.23h-8.12v-2.76h19.23v2.76h-8.12v1.23h6.59v8.54h1.81Zm-11.41-4.21v-1.64h-3.52v1.64h3.52Zm0,2.58h-3.52v1.64h3.52v-1.64Zm6.5-2.58v-1.64h-3.5v1.64h3.5Zm-3.5,2.58v1.64h3.5v-1.64h-3.5Z"/>
        <path class="cls-1" d="M97.4,47.14h-1.55c.37,.51,.8,1.1,1.27,1.78,.47,.68,.85,1.25,1.13,1.71l-2.13,1.43c-.15-.28-.4-.71-.75-1.28-.35-.57-.61-.99-.77-1.28l-.54-.85c-.57,1.11-1.26,2.28-2.08,3.52l-2.11-1.37c.91-1.22,1.68-2.45,2.31-3.68l1.93,1.17,1.66-1.17h-5.16v-15.09h6.79v15.09Zm-2.33-10.85v-1.52h-2.11v1.52h2.11Zm-2.11,4.06h2.11v-1.52h-2.11v1.52Zm0,2.58v1.52h2.11v-1.52h-2.11Zm16.9-9.73v8.52h-11.66v-8.52h2.2c-.34-.78-.58-1.28-.72-1.5l2.51-.49c.4,.87,.7,1.53,.9,2h2c.31-.76,.58-1.46,.79-2.08l2.47,.58c-.08,.21-.28,.71-.61,1.5h2.13Zm-8.29,18.92h-2.71v-9.53h10.29v9.53h-2.69v-.85h-4.89v.85Zm1.39-16.61h-2.49v1.03l1.28-.72c.6,1.06,1,1.81,1.21,2.24v-2.56Zm-2.49,3.9h2.49v-1.05l-1.57,.83c-.17-.39-.47-1.01-.92-1.86v2.08Zm5.99,6.55v-1.08h-4.89v1.08h4.89Zm-4.89,1.97v1.05h4.89v-1.05h-4.89Zm5.99-11.39v-1.03h-2.51v2.47c.49-.75,.91-1.46,1.26-2.13l1.25,.7Zm-2.51,1.77v1.1h2.51v-2l-1.03,1.77-1.48-.87Z"/>
        <path class="cls-5" d="M124.17,43.91h2.17v3.68h-2.17v3.29h-3.92v-3.29h-7.73v-2.42l6.21-12.33h5.45v11.07Zm-3.92-6.46l-3.16,6.46h3.16v-6.46Z"/>
        <path class="cls-5" d="M136.72,50.88h-3.92v-14.37h-4.93v-3.68h13.76v3.68h-4.91v14.37Z"/>
        <path class="cls-5" d="M164.14,32.41v2.98h-2.22v13.18c0,.96-.12,1.68-.35,2.17-.23,.49-.63,.84-1.21,1.04s-1.42,.3-2.52,.3h-3.16l-.61-3.25h3.05c.49,0,.84-.03,1.05-.09,.21-.06,.35-.18,.43-.36,.07-.18,.11-.49,.11-.92v-12.08h-14.8v-2.98h20.22Zm-18.16,4.95h10.22v9.66h-10.22v-9.66Zm3,6.73h4.17v-3.79h-4.17v3.79Z"/>
        <path class="cls-5" d="M174.94,49.16l.04,1.32c-.33,.01-1.61,.18-3.83,.49-2.23,.31-3.5,.51-3.81,.58l-.38-2.58,3.18-.47v-5.45h-2.64v-2.51h2.64v-1.17h-1.52v-1.37c-.36,.45-.72,.87-1.08,1.28l-.58-3.12c.58-.69,1.18-1.47,1.79-2.34,.61-.87,1.08-1.65,1.41-2.32h2.04c1.88,2.08,3.12,3.51,3.7,4.3l-1.37,2.22c-.13-.21-.29-.43-.47-.65v2h-1.52v1.17h2.51v2.51h-2.51v5.07c1.12-.17,1.91-.3,2.35-.4l.04,1.44Zm-5.92-5.65l1.1,3.83-1.75,.58c-.13-.63-.3-1.3-.48-2.03-.19-.73-.37-1.32-.55-1.78l1.68-.61Zm.47-6.59h4.21c-.55-.7-1.34-1.63-2.35-2.78-.45,.82-1.07,1.75-1.86,2.78Zm3.09,10.25c.03-.12,.17-.59,.44-1.42,.26-.83,.45-1.6,.57-2.3l1.59,.49c-.24,1.05-.59,2.29-1.05,3.72l-1.55-.49Zm14.79,1.3l-1.39,2.56c-1.6-1.27-2.81-2.52-3.63-3.74v2.02c0,.73-.08,1.3-.24,1.69-.16,.4-.43,.68-.81,.85s-.92,.26-1.6,.26h-2.06l-.56-2.67h1.66c.36,0,.62-.03,.79-.08,.16-.05,.27-.15,.33-.28,.05-.13,.08-.34,.08-.63v-1.34c-1.76,1.38-2.89,2.27-3.38,2.69l-1.57-2.51c.37-.21,1.22-.77,2.53-1.68-.7-.69-1.5-1.38-2.4-2.06l1.43-1.91h-.9v-2.55h6.88l.11-.65h-6.75l1.55-7.11,2.53,.22-.25,1.17h6.32l-.99,6.37h1.82v2.55h-1.84l1.84,1.64c-.69,.72-1.56,1.55-2.62,2.51,.78,.96,1.82,1.85,3.12,2.69Zm-9.84-2.89l2.4-1.75v-2.2h-3.29c.4,.34,.81,.69,1.23,1.03l1.19,1.01-1.52,1.91Zm1.68-10.36l-.16,.79h3.95l.11-.79h-3.9Zm5.67,6.41h-2.53v.65c.16,.46,.36,.93,.58,1.39,.73-.7,1.38-1.38,1.95-2.04Z"/>
        <path class="cls-5" d="M210.3,37.61v2.74h-20.65v-2.74h4.84c-.15-.61-.31-1.16-.47-1.64h-3.27v-2.76h7.73l-.54-1.73,3.38-.47c.25,.93,.44,1.66,.56,2.2h7.31v2.76h-3.23c-.04,.15-.22,.69-.52,1.64h4.84Zm-15.06,14.57h-3.16v-10.69h15.85v10.69h-3.21v-.76h-9.48v.76Zm9.48-6.91v-1.19h-9.48v1.19h9.48Zm-9.48,2.44v1.17h9.48v-1.17h-9.48Zm2.04-11.75c.22,.79,.37,1.34,.45,1.64h4.48c.19-.61,.36-1.16,.49-1.64h-5.42Z"/>
        <path class="cls-5" d="M232.11,52.05c-1.7-.21-3.09-.42-4.17-.64-1.08-.22-2.06-.51-2.96-.89-1.08,.67-2.6,1.28-4.57,1.82l-1.28-2.49h-2.47v1.41h-2.42v-7.44c-.37,.55-.71,1.04-1.01,1.46l-.52-3.88c1.14-1.61,1.97-3.64,2.51-6.08h-1.93v-2.69h6.86v2.69h-2.13c-.34,1.32-.7,2.42-1.08,3.32h3.03v10.78c.93-.24,1.66-.47,2.2-.7-.6-.55-1.15-1.2-1.66-1.95l1.52-1.1h-1.26v-9.86h4.48v-1.12h-4.71v-2.62h12.44v2.62h-5.02v1.12h4.42v9.86h-4.55c-.15,1.05-.38,1.88-.69,2.49,1.37,.42,3.38,.73,6.01,.94l-1.05,2.94Zm-15.45-4.8h1.19v-5.99h-1.19v5.99Zm6.5-1.57c.45,.52,.91,.95,1.39,1.28,.21-.34,.37-.77,.49-1.28h-1.88Zm2.11-6.05v-1.34h-1.9v1.34h1.9Zm0,2.2h-1.9v1.37h1.9v-1.37Zm4.53-2.2v-1.34h-1.82v1.34h1.82Zm-1.82,3.56h1.82v-1.37h-1.82v1.37Z"/>
        <path class="cls-5" d="M251.97,46.51c1.36,1.14,2.76,2.03,4.19,2.67l-1.21,2.64c-1.46-.88-2.85-2.03-4.17-3.45v3.74h-2.82v-3.7c-1.43,1.54-2.83,2.67-4.19,3.41l-1.1-1.82h-3.09v1.41h-2.42v-7.42c-.33,.49-.7,1.02-1.12,1.59l-.18-4.53c.99-1.58,1.74-3.52,2.26-5.81h-1.91v-2.71h6.52v2.71h-1.86c-.28,1.2-.62,2.32-1.01,3.38h2.89v10.47c1.54-.66,2.88-1.52,4.01-2.6h-3.59v-2.56h4.78v-1.3h-3.97v-6.68h-.92v-2.51h.92v-1.21h2.64v1.21h1.17v-1.66h2.53v1.66h1.48v-1.64h2.56v1.64h1.55v2.51h-1.55v3.34h-6.57v-3.34h-1.17v4.26h8.74v2.42h-4.6v1.3h5.04v2.56h-3.86Zm-12.4,.9h.96v-6.1h-.96v6.1Zm12.24-10.07v-1.37h-1.48v1.37h1.48Z"/>
        <path class="cls-5" d="M264.97,45.15h-3.36l-.58-12.31h4.53l-.58,12.31Zm.45,5.74h-4.26v-4.26h4.26v4.26Z"/>
      </g>
      <g>
        <circle class="cls-5" cx="24.66" cy="26.17" r="24.66"/>
        <g>
          <g>
            <path class="cls-4" d="M15.47,19.25l-.06,1.07v.19s3.84,0,3.84,0c-.02,.4-.06,1.02-.12,1.84-.05,.83-.09,1.31-.11,1.44-.04,.37-.11,.66-.23,.86-.11,.2-.29,.34-.52,.42-.23,.08-.55,.12-.96,.12h-1.43l-.2-1h1.27c.28,0,.5-.02,.64-.07s.25-.12,.31-.24,.1-.28,.12-.5c.01-.23,.03-.55,.06-.95,.03-.4,.05-.71,.07-.95h-2.87c-.12,.82-.35,1.54-.69,2.14-.34,.61-.87,1.22-1.58,1.85l-.76-.81c.52-.45,.93-.88,1.21-1.28,.28-.4,.49-.85,.63-1.34,.13-.49,.23-1.11,.28-1.87,.02-.4,.04-.71,.04-.95h-2.02v-.98h3.46l-.31-.99,1.14-.19c.06,.16,.19,.55,.4,1.18h3.07v.98h-4.68Z"/>
            <path class="cls-4" d="M20.03,34.74c-.75-.24-1.38-.47-1.89-.7-.51-.23-.97-.49-1.38-.77v1.65h-.96v-1.66c-.4,.29-.86,.55-1.38,.79-.52,.24-1.14,.48-1.87,.72l-.38-.9c.65-.16,1.21-.33,1.67-.5,.46-.17,.86-.37,1.21-.58h-2.67v-.77h3.43v-.62h.96v.62h3.43v.77h-2.64c.72,.43,1.67,.79,2.83,1.09l-.36,.86Zm-5.92-5.17h-1.69v-.76h2.3c.19-.26,.32-.46,.41-.59l1.04,.1-.34,.5h4.32v.76h-1.4c-.29,.37-.64,.67-1.06,.92,1.12,.28,1.84,.46,2.17,.57l-.32,.76c-.91-.29-1.87-.58-2.9-.85-.96,.34-2.26,.6-3.9,.8l-.26-.76c1.13-.1,2.08-.23,2.83-.4-.49-.13-1.07-.27-1.75-.43,.18-.19,.37-.39,.56-.61Zm-.42-1.57v.57h-.95v-1.33h3.1l-.29-.58,1.03-.19c.16,.32,.28,.58,.37,.76h2.91v1.31h-.94v-.55h-5.21Zm1.55,1.57c-.12,.14-.21,.24-.26,.3,.34,.06,.87,.18,1.6,.35,.39-.17,.71-.38,.97-.65h-2.31Z"/>
          </g>
          <path class="cls-3" d="M29.94,24.58c.51-.15,1.09-.22,1.72-.22,1.06,0,2.04,.25,2.93,.74,.89,.49,1.58,1.21,2.07,2.16,.49,.95,.68,2.06,.57,3.35-.11,1.28-.47,2.41-1.1,3.39-.63,.98-1.46,1.73-2.5,2.27-1.04,.54-2.19,.81-3.46,.81-1.51,0-2.8-.39-3.89-1.19-1.09-.79-1.86-1.87-2.3-3.22l1.5-.59c.83,2.33,2.46,3.49,4.87,3.49,1.43,0,2.63-.46,3.59-1.38,.96-.92,1.5-2.12,1.62-3.59,.08-.99-.06-1.85-.41-2.59-.36-.74-.89-1.32-1.6-1.73-.71-.41-1.53-.61-2.46-.61-1.02,0-1.99,.26-2.91,.78l-.79-1.23,7.76-8.12h-9.4l.12-1.51h11.5l-.12,1.39-7.34,7.51,.05,.08Z"/>
        </g>
      </g>
    </g>
  </g>
</svg>