<?xml version="1.0" encoding="UTF-8"?>
<svg id="_圖層_2" data-name="圖層 2" xmlns="http://www.w3.org/2000/svg" xmlns:xlink="http://www.w3.org/1999/xlink" viewBox="0 0 464.28 49.31">
  <defs>
    <style>
      .cls-1 {
        fill: #fff;
      }

      .cls-2 {
        fill: #dbdcdc;
      }

      .cls-3 {
        filter: url(#drop-shadow-1);
      }

      .cls-4 {
        fill: #c20d23;
      }

      .cls-5 {
        fill: #151615;
      }

      .cls-6 {
        fill: #f7cd1c;
      }
    </style>
    <filter id="drop-shadow-1" filterUnits="userSpaceOnUse">
      <feOffset dx="0" dy="0"/>
      <feGaussianBlur result="blur" stdDeviation="5.16"/>
      <feFlood flood-color="#162059" flood-opacity=".49"/>
      <feComposite in2="blur" operator="in"/>
      <feComposite in="SourceGraphic"/>
    </filter>
  </defs>
  <g id="_圖層_2-2" data-name="圖層 2">
    <g>
      <g class="cls-3">
        <path class="cls-1" d="M66.91,33.24V13.42h16.43v19.79h-3.43v-1.28h-9.6v1.3h-3.41Zm13-12.13v-4.42h-9.6v4.42h9.6Zm-9.6,3.21v4.37h9.6v-4.37h-9.6Z"/>
        <path class="cls-1" d="M106.91,29.59h1.26v3.05h-13.27v-3.05h1.88v-4.66l-1.48,2.24c-.31-.3-.84-.75-1.59-1.35v7.38h-3v-6.66c-.61,1.18-1.29,2.27-2.02,3.27l-.87-3.59c.45-.6,.9-1.32,1.34-2.18,.45-.85,.85-1.76,1.21-2.71h-2.24v-2.94h2.58v-1.55l-2.22,.38-.29-2.89c1.18-.16,2.47-.39,3.87-.67s2.6-.58,3.62-.88l.49,2.8c-.7,.22-1.52,.44-2.47,.65v2.15h2.44v2.94h-2.44v1.03c1.02,.7,2.04,1.49,3.07,2.36V13.29h10.13V29.59Zm-3.16-10.8v-2.58h-3.88v2.58h3.88Zm-3.88,5.43h3.88v-2.56h-3.88v2.56Zm3.88,2.87h-3.88v2.51h3.88v-2.51Z"/>
        <path class="cls-1" d="M122.16,29.98c-.84,.92-1.98,1.53-3.4,1.83l.11,2.26h-3.79l.13-2.24c-1.15-.25-2.16-.74-3.01-1.46s-1.52-1.6-1.98-2.64l3.21-1.57c.3,.78,.75,1.37,1.36,1.77,.61,.4,1.3,.61,2.1,.61s1.44-.16,1.91-.47c.46-.31,.7-.74,.7-1.28,0-.34-.1-.63-.29-.87-.2-.24-.52-.46-.96-.66-.45-.2-1.1-.42-1.95-.66-1.15-.33-2.1-.66-2.84-.99-.74-.33-1.39-.85-1.96-1.55-.57-.7-.85-1.63-.85-2.78,0-1.29,.42-2.39,1.27-3.31,.84-.92,1.95-1.53,3.33-1.83l-.13-2.29h3.79l-.13,2.31c2.02,.43,3.54,1.73,4.55,3.9l-3.16,1.57c-.36-.78-.8-1.34-1.31-1.69-.52-.35-1.13-.53-1.85-.53s-1.28,.16-1.73,.47c-.45,.31-.67,.71-.67,1.19,0,.39,.08,.7,.25,.94,.16,.24,.46,.46,.87,.65,.42,.2,1.05,.41,1.91,.65,1.17,.31,2.13,.63,2.9,.95,.77,.32,1.45,.83,2.04,1.52,.59,.7,.89,1.62,.89,2.79,0,1.35-.42,2.48-1.27,3.4Z"/>
        <path class="cls-1" d="M133.45,31.99h-3.92v-13.65l-3.95,2.04v-4.08l4.57-2.35h3.29V31.99Z"/>
        <path class="cls-1" d="M143.49,28.31h6.39v3.68h-12.35v-2.62l5.54-5.92c.96-1.03,1.6-1.86,1.94-2.48,.34-.62,.5-1.24,.5-1.85,0-.54-.19-.99-.56-1.35-.37-.36-.86-.54-1.46-.54-.63,0-1.19,.22-1.69,.67-.5,.45-.86,1.06-1.09,1.84l-3.5-1.43c.4-1.44,1.18-2.57,2.33-3.41,1.15-.84,2.51-1.26,4.08-1.28,1.14,0,2.15,.23,3.05,.7s1.6,1.11,2.1,1.93c.5,.82,.75,1.76,.75,2.8s-.26,2.04-.79,3.04-1.38,2.12-2.56,3.37l-2.69,2.85Z"/>
        <path class="cls-1" d="M153.87,29.89c-1.15-1.61-1.73-3.91-1.73-6.92s.58-5.31,1.73-6.93c1.15-1.62,2.79-2.42,4.91-2.42s3.78,.81,4.92,2.42c1.14,1.61,1.71,3.92,1.71,6.93s-.57,5.31-1.71,6.92c-1.14,1.61-2.78,2.41-4.92,2.41s-3.76-.8-4.91-2.41Zm6.85-2.73c.46-.98,.68-2.37,.68-4.18s-.23-3.22-.68-4.2c-.46-.98-1.1-1.47-1.94-1.47s-1.48,.49-1.94,1.48-.68,2.38-.68,4.19,.23,3.2,.68,4.18,1.1,1.47,1.94,1.47,1.48-.49,1.94-1.47Z"/>
        <path class="cls-1" d="M188.1,26.52c0,.36-.01,.92-.03,1.67s-.05,1.3-.08,1.65c-.06,.76-.21,1.36-.46,1.78-.25,.43-.63,.74-1.14,.93-.52,.2-1.22,.29-2.12,.29h-2.06c-1.2,0-2.06-.27-2.59-.8-.53-.53-.8-1.43-.8-2.7v-6.81h-2.58l-.02,1.43c-.03,1.44-.23,2.68-.59,3.73-.37,1.05-.97,2.04-1.83,2.95-.85,.91-2.03,1.85-3.54,2.82l-2.2-3.03c1.24-.66,2.2-1.28,2.89-1.87s1.19-1.24,1.5-1.96c.31-.72,.49-1.6,.52-2.65l.02-1.43h-4.57v-3.12h19.35v3.12h-5.69v6.07c0,.45,.07,.74,.21,.89,.14,.14,.43,.21,.86,.21h.92c.24,0,.42-.03,.53-.08,.11-.05,.19-.16,.24-.32s.07-.44,.09-.83l.07-2.67,3.12,.72Zm-17.96-13.09h16.1v3.16h-16.1v-3.16Z"/>
        <path class="cls-1" d="M193.01,35.8c1.03-.48,1.75-.98,2.14-1.51,.4-.53,.59-1.3,.59-2.3h-2.35v-4.26h4.24v4.26c0,1.24-.28,2.31-.83,3.21s-1.49,1.65-2.82,2.26l-.96-1.66Z"/>
        <path class="cls-1" d="M217.36,31.63h-2.76V14.19h6.43V30.42h-3.68v1.21Zm1.1-4.33v-9.97h-1.1v9.97h1.1Zm3.27,5.96v-10.13h11.86v10.11h-2.87v-.7h-6.28v.72h-2.71Zm.43-20.11h10.89v9.04h-10.89V13.16Zm8.56,13.59v-1.1h-6.28v1.1h6.28Zm-6.28,2.22v1.12h6.28v-1.12h-6.28Zm5.74-12.2v-1.08h-5.18v1.08h5.18Zm-5.18,1.99v1.08h5.18v-1.08h-5.18Z"/>
        <path class="cls-1" d="M246.71,20.89c.84,.49,1.49,1.19,1.94,2.08s.67,1.94,.67,3.14c0,1.27-.26,2.37-.78,3.29-.52,.93-1.27,1.64-2.24,2.14-.97,.5-2.11,.75-3.43,.75-1.49,0-2.81-.4-3.95-1.19-1.14-.79-1.9-1.83-2.29-3.12l3.61-1.17c.21,.58,.55,1.04,1.02,1.38s1,.51,1.6,.51c.78,0,1.4-.22,1.86-.67,.46-.45,.69-1.05,.69-1.81s-.22-1.41-.67-1.85c-.45-.44-1.08-.66-1.88-.66-.54,0-1.03,.13-1.47,.38-.44,.25-.78,.62-1.02,1.1l-3.36-.7,.78-10.56h10.67v3.56h-6.99l-.29,3.23c.78-.39,1.62-.58,2.53-.58,1.15,0,2.15,.25,2.99,.74Z"/>
        <path class="cls-1" d="M272.1,17.42h-8.63l-.31,1.28h6.99v14.62h-3.23v-1.21h-9.73v1.26h-3.23v-14.66h5.85l.36-1.28h-8.14v-2.76h4.8c-.09-.18-.18-.35-.26-.5-.08-.16-.16-.31-.24-.46l-.49-.94,3.16-.67c.06,.12,.24,.44,.54,.95s.58,1.06,.85,1.62h3.39c.52-.85,.99-1.69,1.39-2.51l3.34,.58-.72,1.14-.49,.79h4.8v2.76Zm-14.91,4.98h9.73v-1.03h-9.73v1.03Zm0,3.56h9.73v-1.08h-9.73v1.08Zm0,2.55v1.05h9.73v-1.05h-9.73Z"/>
        <path class="cls-1" d="M284.99,24.95h-2.85v5.31c0,.75-.08,1.31-.25,1.7s-.43,.66-.81,.82c-.37,.16-.91,.23-1.61,.23h-1.82l-.36-1.9-.29,.72-2.44-1.32c.63-1.26,1.28-2.89,1.95-4.91l2.47,.79c-.36,1.18-.81,2.47-1.34,3.88h.74c.45,0,.73-.05,.84-.16,.11-.1,.17-.34,.17-.7v-4.46h-3.34v-6.7h8.94v6.7Zm.31-10.69v2.76h-9.75v-2.76h3.68c-.12-.45-.29-1.05-.52-1.81l3-.38,.34,1.28,.22,.92h3.03Zm-3.03,6.48h-3.54v1.71h3.54v-1.71Zm13.03,6.03c0,.55-.04,1.73-.13,3.52-.04,1-.25,1.7-.61,2.08s-.98,.58-1.86,.58h-1.21c-.78,0-1.35-.22-1.71-.66-.37-.44-.55-1.12-.55-2.03v-5.38c-.27,1.55-.66,2.96-1.18,4.2s-1.24,2.66-2.16,4.23l-2.51-1.84c.76-1.16,1.33-2.16,1.7-2.98l-1.79,.72c-.39-1.2-.72-2.19-1.01-2.98l2.35-.85c.33,.81,.61,1.54,.83,2.2,.37-.97,.66-2.03,.86-3.17,.2-1.14,.34-2.54,.42-4.18h-1.28v-2.8h1.39l.02-5.04h2.92l-.09,5.04h3.23c-.27-.33-.84-.96-1.73-1.91l-1.01-1.12,1.86-1.75c.52,.52,1.08,1.11,1.68,1.75,.27,.3,.5,.55,.71,.76,.2,.21,.37,.38,.5,.52l-1.86,1.75h1.95v2.8h-5.36c-.03,.75-.06,1.31-.09,1.68h2.38v7.78c0,.25,.04,.41,.13,.47,.09,.06,.24,.09,.45,.09h-.09c.28,0,.45-.03,.5-.08,.05-.05,.08-.21,.08-.46,.04-1.3,.07-2.44,.07-3.43l2.2,.49Z"/>
        <path class="cls-1" d="M297.91,31.94c.85-1.29,1.52-2.49,2.02-3.61l2.2,1.08c-.6,1.33-1.29,2.62-2.06,3.88l-2.15-1.35Zm.56-18.72h6.93v15.11h-6.93V13.22Zm4.64,4.24v-1.53h-2.24v1.53h2.24Zm0,4.06v-1.52h-2.24v1.52h2.24Zm-2.24,2.53v1.57h2.24v-1.57h-2.24Zm14.1,3.32c.97,1.21,2.1,2.15,3.39,2.82l-1.21,2.44c-.97-.61-1.93-1.58-2.87-2.91v3.54h-2.42v-5.9h-1.21v5.9h-2.44v-2.89c-.6,.81-1.35,1.64-2.24,2.51l-.49-.92-1.52,.85c-.93-1.78-1.52-2.9-1.79-3.36l2.04-1.12c.24,.33,.57,.85,.99,1.55,.91-.72,1.7-1.55,2.38-2.51h-1.39v-2.29h2.04v-1.28h-2.29v-2.49h2.29v-1.28h-1.97v-2.27h1.97v-1.16h-2.2v-2.47h1.86c-.33-.79-.56-1.34-.69-1.64l2.89-.34,.54,1.26,.29,.72h1.41l.25-.63c.19-.48,.37-.93,.54-1.35l2.8,.34c-.3,.67-.54,1.22-.74,1.64h2.69v2.47h-3.56v1.16h3.16v3.54h.76v2.49h-.76v3.56h-2.47Zm-3.12-10.76h-1.21v1.16h1.21v-1.16Zm0,3.43h-1.21v1.28h1.21v-1.28Zm-1.21,3.77v1.28h1.21v-1.28h-1.21Zm4.71-2.49v-1.28h-1.08v1.28h1.08Zm-1.08,3.77h1.08v-1.28h-1.08v1.28Z"/>
        <path class="cls-1" d="M321.6,33.29V13.2h18.72v20.09h-3.16v-1.23h-12.35v1.23h-3.21Zm3.21-16.88v12.55h12.35v-12.55h-12.35Zm1.75,10.89v-9.23h8.94v9.23h-8.94Zm2.8-2.82h3.43v-3.63h-3.43v3.63Z"/>
        <path class="cls-1" d="M356.89,18.56c1,1.78,2.1,3.3,3.28,4.56,1.19,1.26,2.52,2.29,4,3.08l-1.48,3.47c-3-2.38-5.37-5.04-7.08-8v5.24h3.77v2.98h-3.77v3.34h-3.23v-3.34h-3.81v-2.98h3.81v-5.42c-.79,1.43-1.75,2.82-2.88,4.15-1.13,1.33-2.57,2.77-4.32,4.3l-1.43-3.5c1.57-1.06,2.95-2.24,4.14-3.53,1.19-1.29,2.25-2.75,3.17-4.36h-6.46v-3.14h7.78v-2.58h3.23v2.58h7.78v3.14h-6.5Z"/>
        <path class="cls-1" d="M373.05,26.25h-3.36l-.58-12.31h4.53l-.58,12.31Zm.45,5.74h-4.26v-4.26h4.26v4.26Z"/>
      </g>
      <g>
        <path class="cls-2" d="M382.87,32.39c-.46-.79-.83-1.69-1.09-2.69-.26-1-.4-1.96-.4-2.88s.13-1.91,.4-2.9c.26-.99,.63-1.88,1.09-2.67h.69c-.48,.82-.85,1.72-1.11,2.71-.26,.99-.39,1.94-.39,2.86s.13,1.85,.4,2.84c.26,.99,.63,1.9,1.1,2.74h-.69Z"/>
        <path class="cls-2" d="M396.54,27.59h-4.9c-.17,.54-.31,.94-.41,1.19h4.47v2.45c0,.36-.08,.62-.23,.78-.15,.16-.44,.23-.85,.23h-.94l-.1-.54h.75c.21,0,.37-.02,.48-.05,.1-.03,.17-.09,.21-.18,.04-.09,.06-.22,.06-.4v-1.79h-2.08v2.67h-.54v-2.67h-2.07v2.67h-.56v-2.67h-2.07v3.01h-.62v-3.5h3.47c.14-.39,.27-.78,.4-1.19h-4.69v-.51h10.22v.51Zm-5.41-3.79h-4v1.72h-.57v-2.21h4.57v-.99h-4.2v-.5h8.99v.5h-4.21v.99h4.58v2.2h-.58v-1.71h-4v2.66h-.58v-2.66Zm-3.31,.84h2.51v.41h-2.51v-.41Zm2.51,1.55h-2.51v-.38h2.51v.38Zm2.17-1.55h2.51v.41h-2.51v-.41Zm2.51,1.55h-2.51v-.38h2.51v.38Z"/>
        <path class="cls-2" d="M399.84,25.36l-.15-.52c.7-1.18,1.33-2.37,1.89-3.58l.52,.2c-.6,1.24-1.21,2.36-1.81,3.37l1.46-.12c.38-.64,.72-1.23,1.03-1.77l.46,.25c-.86,1.54-1.77,3.02-2.72,4.43l2.07-.27c-.26-.64-.44-1.07-.53-1.28l.45-.15c.4,.93,.71,1.73,.95,2.39l-.45,.15-.22-.62-2.75,.33-.15-.53c.63-.93,1.14-1.73,1.55-2.4l-1.6,.12Zm-.15,6.45c.12-.41,.23-.91,.35-1.5,.12-.59,.2-1.08,.25-1.49l.46,.05c-.05,.42-.13,.92-.25,1.5-.12,.58-.24,1.1-.35,1.54l-.46-.11Zm2.1-2.95c.12,.98,.21,1.88,.28,2.7l-.46,.06c-.03-.7-.12-1.61-.25-2.71l.42-.05Zm1.42,2.31c-.26-.87-.5-1.62-.72-2.25l.36-.12c.11,.28,.24,.64,.38,1.08s.27,.83,.37,1.18l-.4,.12Zm-.15,.74c.44-.13,.93-.3,1.49-.51,.56-.21,1.03-.4,1.4-.58l.22,.46c-.39,.18-.87,.38-1.46,.61s-1.08,.4-1.48,.53l-.19-.51Zm.62-8.46h2.81v-.76h-3.18v-.46h3.18v-1.04h.59v1.04h3.3v.46h-3.3v.76h2.83v.45h-6.24v-.45Zm-.11,1.06h6.47v1.77h-6.47v-1.77Zm6.05,2.44v3.63h-5.61v-3.63h5.61Zm-4-2.04h-1.55v.99h1.55v-.99Zm3.44,3.13v-.69h-4.49v.69h4.49Zm-4.49,.38v.69h4.49v-.69h-4.49Zm0,1.06v.71h4.49v-.71h-4.49Zm2.97-3.59v-.99h-1.47v.99h1.47Zm.14,4.95c.37,.12,.85,.3,1.44,.52,.59,.22,1.05,.4,1.37,.53l-.17,.48c-.64-.27-1.57-.63-2.81-1.08l.17-.46Zm.35-4.95h1.54v-.99h-1.54v.99Z"/>
        <path class="cls-2" d="M417.34,28.52c-.54-.57-1.01-1.06-1.44-1.47v5.36h-.58v-5.62c-.47,1.24-1.06,2.36-1.78,3.36l-.29-.63c.41-.59,.79-1.23,1.14-1.94,.35-.71,.63-1.43,.85-2.15h-1.82v-.61h1.89v-1.96c-.77,.17-1.38,.3-1.84,.37l-.07-.58c.67-.12,1.4-.27,2.18-.46s1.45-.38,2-.57l.12,.58c-.36,.12-.97,.3-1.81,.52v2.09h1.89v.61h-1.89v.89c.52,.46,1.13,1.05,1.83,1.77l-.4,.45Zm5.88-6.56v9.32h.93v.61h-6.93v-.61h1.16v-9.32h4.84Zm-.59,3.11v-2.51h-3.64v2.51h3.64Zm-3.64,3.06h3.64v-2.46h-3.64v2.46Zm3.64,.59h-3.64v2.56h3.64v-2.56Z"/>
        <path class="cls-2" d="M427.8,30.95h4.58v.67h-5.53v-.62l2.95-3.36c.62-.7,1.06-1.29,1.32-1.76,.26-.47,.39-.92,.39-1.35,0-.55-.17-.99-.52-1.3-.35-.32-.8-.48-1.36-.48-.97,0-1.7,.52-2.17,1.56l-.62-.3c.26-.62,.64-1.1,1.11-1.43s1.04-.5,1.68-.5c.78,0,1.42,.22,1.89,.66s.72,1.02,.72,1.76c0,.49-.14,1.01-.42,1.55-.28,.55-.75,1.19-1.4,1.94l-2.62,2.96Z"/>
        <path class="cls-2" d="M437.9,21.45c-.26,.96-.55,1.89-.88,2.8v8.15h-.58v-6.7c-.31,.68-.61,1.28-.92,1.79l-.32-.62c.4-.73,.79-1.58,1.16-2.53s.69-1.97,.97-3.04l.57,.15Zm.58,10.97v-10.47h6.85v10.47h-.59v-.68h-5.68v.68h-.57Zm.57-9.89v8.64h5.68v-8.64h-5.68Zm5.1,1.92v.54h-1.98v1.65h1.3v3.07h-3.17v-3.07h1.34v-1.65h-1.99v-.54h1.99v-1.44h.53v1.44h1.98Zm-3.34,4.71h2.15v-1.99h-2.15v1.99Z"/>
        <path class="cls-2" d="M457.82,21.91v8.81c0,.4-.05,.7-.14,.9-.09,.2-.26,.34-.49,.42-.23,.08-.57,.12-1.02,.12h-1.45l-.12-.62h1.44c.34,0,.59-.02,.74-.07,.16-.04,.26-.13,.32-.26,.06-.13,.09-.33,.09-.6v-2.04h-5.86c-.09,.82-.26,1.51-.51,2.07-.25,.56-.66,1.18-1.22,1.87l-.54-.4c.51-.61,.89-1.15,1.13-1.62,.24-.47,.4-1.02,.49-1.64s.13-1.5,.13-2.63v-4.31h7.02Zm-.63,6.08v-2.4h-5.77v.71c0,.63-.01,1.2-.04,1.7h5.81Zm0-3v-2.47h-5.77v2.47h5.77Z"/>
        <path class="cls-2" d="M462.1,32.39c.47-.83,.84-1.74,1.1-2.73,.26-.99,.4-1.94,.4-2.84s-.13-1.87-.39-2.86c-.26-.99-.63-1.89-1.11-2.71h.69c.46,.79,.83,1.67,1.09,2.67,.26,.99,.4,1.96,.4,2.9s-.13,1.9-.4,2.89c-.26,1-.63,1.89-1.09,2.68h-.69Z"/>
      </g>
      <g>
        <circle class="cls-6" cx="24.66" cy="24.66" r="24.66"/>
        <g>
          <g>
            <path class="cls-5" d="M15.47,17.73l-.06,1.07v.19s3.84,0,3.84,0c-.02,.4-.06,1.02-.12,1.84-.05,.82-.09,1.31-.11,1.44-.04,.37-.11,.66-.23,.86-.11,.2-.29,.34-.52,.42-.23,.08-.55,.12-.96,.12h-1.43l-.2-1h1.27c.28,0,.5-.02,.64-.07s.25-.12,.31-.24c.06-.11,.1-.28,.12-.5,.01-.23,.03-.55,.06-.95,.03-.4,.05-.71,.07-.95h-2.87c-.12,.82-.35,1.54-.69,2.14-.34,.61-.87,1.22-1.58,1.85l-.76-.81c.52-.45,.93-.88,1.21-1.28,.28-.4,.49-.85,.63-1.34,.13-.49,.23-1.11,.28-1.87,.02-.39,.04-.71,.04-.95h-2.02v-.98h3.46l-.31-.99,1.14-.19c.06,.15,.19,.55,.4,1.18h3.07v.98h-4.68Z"/>
            <path class="cls-5" d="M20.03,33.22c-.75-.24-1.38-.47-1.89-.7-.51-.23-.97-.48-1.38-.77v1.65h-.96v-1.65c-.4,.29-.86,.55-1.38,.79s-1.14,.48-1.87,.72l-.38-.9c.65-.16,1.21-.33,1.67-.5s.86-.37,1.21-.58h-2.67v-.77h3.43v-.62h.96v.62h3.43v.77h-2.64c.72,.43,1.67,.79,2.83,1.09l-.36,.86Zm-5.92-5.18h-1.69v-.76h2.3c.19-.26,.32-.46,.41-.6l1.04,.1-.34,.5h4.32v.76h-1.4c-.29,.37-.64,.67-1.06,.92,1.12,.28,1.84,.46,2.17,.57l-.32,.76c-.91-.29-1.87-.58-2.9-.85-.96,.34-2.26,.6-3.9,.8l-.26-.76c1.13-.1,2.08-.23,2.83-.4-.49-.13-1.07-.27-1.75-.43,.18-.19,.37-.39,.56-.61Zm-.42-1.56v.57h-.95v-1.33h3.1l-.29-.58,1.03-.19c.16,.32,.28,.58,.37,.77h2.91v1.31h-.94v-.55h-5.21Zm1.55,1.56c-.12,.14-.21,.24-.26,.3,.34,.06,.87,.18,1.6,.35,.39-.17,.71-.38,.97-.65h-2.31Z"/>
          </g>
          <path class="cls-4" d="M33.12,35.18h-1.65l1.58-19.17-4.38,2.29,.14-1.73,4.81-2.48h1.23l-1.74,21.1Z"/>
        </g>
      </g>
    </g>
  </g>
</svg>