<?xml version="1.0" encoding="UTF-8"?>
<svg id="_圖層_2" data-name="圖層 2" xmlns="http://www.w3.org/2000/svg" xmlns:xlink="http://www.w3.org/1999/xlink" viewBox="0 0 642.92 203.73">
  <defs>
    <style>
      .cls-1 {
        fill: #fff;
      }

      .cls-2 {
        fill: none;
        stroke: #fff;
        stroke-miterlimit: 10;
      }

      .cls-3 {
        filter: url(#drop-shadow-1);
      }

      .cls-4 {
        fill: #c20d23;
      }

      .cls-5 {
        fill: #f7cd1c;
      }
    </style>
    <filter id="drop-shadow-1" filterUnits="userSpaceOnUse">
      <feOffset dx="0" dy="0"/>
      <feGaussianBlur result="blur" stdDeviation="15"/>
      <feFlood flood-color="#162059" flood-opacity=".49"/>
      <feComposite in2="blur" operator="in"/>
      <feComposite in="SourceGraphic"/>
    </filter>
  </defs>
  <g id="_圖層_2-2" data-name="圖層 2">
    <rect class="cls-4" x="127.05" y="174.08" width="348.61" height="29.65"/>
    <circle class="cls-5" cx="364.64" cy="75.83" r="34.07"/>
    <path class="cls-4" d="M379.37,90.63h5.13l-1.19,6.28h-18.97c-3.51,0-6.29-.35-8.34-1.05s-3.79-1.86-5.22-3.48l-4.86,5.18-2.43-7.65,4.22-3.94v-10.08h-4.22v-6.42h10.59v17.28c.98,1.59,2.81,2.72,5.5,3.39l-3.35-5c2.78-1.25,4.84-2.43,6.19-3.53s2.26-2.35,2.75-3.76h-9.81v-5.68h10.5v-4.26h-8.75v-5.87h4.95l-.5-.82c-.43-.64-.89-1.34-1.38-2.11-.49-.76-.96-1.45-1.42-2.06l5.36-2.93c.61,.95,1.35,2.06,2.22,3.35s1.63,2.37,2.27,3.25l-2.52,1.33h4.08c.95-1.25,1.93-2.63,2.96-4.15,1.02-1.51,1.81-2.77,2.36-3.78l5.13,3.3-3.44,4.63h5.68v5.87h-10.4v4.26h11.37v5.68h-11.41c1.86,1.37,3.93,2.93,6.19,4.65,2.26,1.73,3.77,2.91,4.54,3.55l-3.76,4.58Zm-28.78-23.19c-.7-1.01-1.74-2.41-3.12-4.19s-2.49-3.19-3.35-4.19l4.95-3.9c2.6,3.21,4.77,5.99,6.51,8.34l-5,3.94Zm14.16,23.19h13.89c-1.41-1.25-3.67-3.16-6.78-5.73-.92-.79-1.6-1.38-2.06-1.74-.92,1.25-2.13,2.45-3.64,3.6-1.51,1.15-3.45,2.31-5.8,3.51,1.37,.24,2.84,.37,4.4,.37Z"/>
    <g>
      <g class="cls-3">
        <path class="cls-5" d="M59.31,96.16v8.41H23.66v-7.63l-2.28,3.19c-1.74-2.04-3.78-4.24-6.13-6.58-1.91,4.69-4.89,9.3-8.93,13.82L.2,100c3.04-3.34,5.33-6.51,6.88-9.48,1.54-2.98,2.57-6.36,3.1-10.13H.78v-8.54H10.56l.06-9.91h-.72c-1.35,3.61-2.59,6.34-3.72,8.21l-6.19-5.67c2.69-5.39,4.78-11.38,6.26-17.99l7.89,1.56c-.22,1.09-.7,2.87-1.43,5.35h10.49v8.54h-4.69l-.06,9.91h6.13v8.54h-6.19c-.17,1.69-.33,3.02-.46,3.97,2.82,2.7,5.69,5.54,8.6,8.54l-2.35,3.26h7.56c-1.69-3.74-3.17-6.69-4.43-8.87l6-3.19h-6.78v-23.14h30.37v23.14h-8.67l7.1,2.48c-.7,1.65-2.19,4.85-4.5,9.58h8.47ZM25.03,49.16H59.18v8.41H25.03v-8.41Zm10.36,34.94c1.35,2.43,2.91,5.37,4.69,8.8l-5.48,3.26h6.84l.59-1.3c2.39-5.04,4.02-8.62,4.89-10.75h-11.54Zm12.97-15.25h-13.3v7.3h13.3v-7.3Z"/>
        <path class="cls-5" d="M122.54,96.16h3.65v8.86h-38.59v-8.86h5.48v-13.56l-4.3,6.52c-.91-.87-2.46-2.17-4.63-3.91v21.44h-8.73v-19.36c-1.78,3.43-3.74,6.61-5.87,9.52l-2.54-10.43c1.3-1.74,2.61-3.85,3.91-6.32s2.48-5.11,3.52-7.89h-6.52v-8.54h7.5v-4.5l-6.45,1.11-.85-8.41c3.43-.48,7.18-1.13,11.24-1.96,4.06-.83,7.57-1.67,10.53-2.54l1.43,8.15c-2.04,.65-4.43,1.28-7.17,1.89v6.26h7.1v8.54h-7.1v3c2.95,2.04,5.93,4.32,8.93,6.84V48.77h29.46v47.39Zm-9.19-31.42v-7.5h-11.28v7.5h11.28Zm-11.28,15.77h11.28v-7.43h-11.28v7.43Zm11.28,8.34h-11.28v7.3h11.28v-7.3Z"/>
        <path class="cls-5" d="M135.18,91.01h56.77v9.71h-56.77v-9.71Zm5.28-38.33h46.21v9.84h-46.21v-9.84Z"/>
        <path class="cls-5" d="M257.72,48.97v57.94h-8.21v-2.35h-23.86v2.35h-8.02V51.25c-1.13,3.95-2.28,7.58-3.45,10.88v45.04h-8.08v-28.42c-1.52,2.52-2.65,4.3-3.39,5.35l-2.28-12.19c3.87-6.78,6.8-15.06,8.8-24.83l9.06,1.76-.06,.13h39.5Zm-32.07,8.41v38.91h23.86V57.38h-23.86Zm22.36,4.76v7.5h-6.58v4.37h5.8v19.49h-19.16v-19.49h5.87v-4.37h-6.71v-7.5h6.71v-3.52h7.5v3.52h6.58Zm-12.97,23.92h5.15v-4.69h-5.15v4.69Z"/>
        <path class="cls-5" d="M320.55,48.64v47.65c0,2.61-.31,4.61-.95,6-.63,1.39-1.69,2.38-3.19,2.97-1.5,.59-3.68,.88-6.55,.88h-11.21l-1.76-9.58h10.49c1.22,0,2.09-.07,2.61-.2,.52-.13,.87-.4,1.04-.82,.17-.41,.26-1.08,.26-1.99v-4.56h-26.14c-.65,3.39-1.68,6.46-3.1,9.22-1.41,2.76-3.47,5.75-6.16,8.96l-8.34-5.41c2.82-2.96,4.87-5.54,6.13-7.76,1.26-2.22,2.1-4.81,2.51-7.79,.41-2.98,.62-7.33,.62-13.07v-24.51h43.73Zm-9.25,31.35v-6.32h-25.16v.46c0,2.7-.04,4.65-.13,5.87h25.29Zm0-15.32v-6.78h-25.16v6.78h25.16Z"/>
        <path class="cls-5" d="M410.37,70.15h57.81v10.17h-57.81v-10.17Z"/>
        <path class="cls-5" d="M533.43,48.97v57.94h-8.21v-2.35h-23.86v2.35h-8.02V51.25c-1.13,3.95-2.28,7.58-3.45,10.88v45.04h-8.08v-28.42c-1.52,2.52-2.65,4.3-3.39,5.35l-2.28-12.19c3.87-6.78,6.8-15.06,8.8-24.83l9.06,1.76-.07,.13h39.5Zm-32.07,8.41v38.91h23.86V57.38h-23.86Zm22.36,4.76v7.5h-6.58v4.37h5.8v19.49h-19.16v-19.49h5.87v-4.37h-6.71v-7.5h6.71v-3.52h7.5v3.52h6.58Zm-12.97,23.92h5.15v-4.69h-5.15v4.69Z"/>
        <path class="cls-5" d="M596.26,48.64v47.65c0,2.61-.32,4.61-.95,6s-1.69,2.38-3.19,2.97c-1.5,.59-3.68,.88-6.55,.88h-11.21l-1.76-9.58h10.49c1.22,0,2.09-.07,2.61-.2,.52-.13,.87-.4,1.04-.82,.17-.41,.26-1.08,.26-1.99v-4.56h-26.14c-.65,3.39-1.68,6.46-3.1,9.22-1.41,2.76-3.47,5.75-6.16,8.96l-8.34-5.41c2.82-2.96,4.87-5.54,6.13-7.76,1.26-2.22,2.1-4.81,2.51-7.79,.41-2.98,.62-7.33,.62-13.07v-24.51h43.74Zm-9.25,31.35v-6.32h-25.16v.46c0,2.7-.04,4.65-.13,5.87h25.29Zm0-15.32v-6.78h-25.16v6.78h25.16Z"/>
        <path class="cls-5" d="M193.58,180.16h3.65v8.86h-38.59v-8.86h5.48v-13.56l-4.3,6.52c-.91-.87-2.46-2.17-4.63-3.91v21.44h-8.73v-19.36c-1.78,3.43-3.74,6.61-5.87,9.52l-2.54-10.43c1.3-1.74,2.61-3.85,3.91-6.32s2.48-5.11,3.52-7.89h-6.52v-8.54h7.5v-4.5l-6.45,1.11-.85-8.41c3.43-.48,7.18-1.13,11.24-1.96,4.06-.83,7.57-1.67,10.53-2.54l1.43,8.15c-2.04,.65-4.43,1.28-7.17,1.89v6.26h7.1v8.54h-7.1v3c2.95,2.04,5.93,4.32,8.93,6.84v-33.24h29.46v47.39Zm-9.19-31.42v-7.5h-11.28v7.5h11.28Zm-11.28,15.77h11.28v-7.43h-11.28v7.43Zm11.28,8.34h-11.28v7.3h11.28v-7.3Z"/>
        <path class="cls-5" d="M219.07,177.36l12.97-5.15,.72,9.78-21.18,8.73-3.85-9.32c.69-.35,1.12-.74,1.27-1.17,.15-.43,.23-1.19,.23-2.28v-45.3h9.84v15.58h12.71v9.52h-12.71v19.62Zm45.04-8.02l-.39,10.69c-.09,3.35-.93,5.74-2.54,7.17-1.61,1.43-4.32,2.15-8.15,2.15h-9.84c-3.13,0-5.4-.73-6.81-2.18-1.41-1.46-2.12-3.94-2.12-7.46v-47.71h9.71v18.97c2.48-1.87,4.99-3.93,7.53-6.19s4.6-4.19,6.16-5.8l6.13,7.43c-2.69,2.56-5.89,5.39-9.58,8.47-3.69,3.09-7.1,5.76-10.23,8.02v13.82c0,1.09,.06,1.87,.2,2.35,.13,.48,.41,.8,.85,.98,.43,.17,1.17,.26,2.22,.26h3.19c1.09,0,1.87-.08,2.35-.23,.48-.15,.8-.46,.98-.91,.17-.46,.28-1.25,.33-2.38l.07-1.89c.22-4.39,.3-6.87,.26-7.43l9.71,1.89Z"/>
        <path class="cls-5" d="M310.38,180.03c9.73,1.74,16.36,3.13,19.88,4.17l-2.74,7.43c-3.04-.83-6.77-1.74-11.18-2.74-4.41-1-8.12-1.78-11.11-2.35l2.09-6.52h-11.99l2.93,6.52c-2.74,.83-6.43,1.74-11.08,2.74-4.65,1-8.65,1.74-11.99,2.21l-2.54-7.3c5.69-.74,12.62-2.13,20.79-4.17h-15.84v-29.53h47.97v29.53h-15.19Zm-35.26-47.97h52.86v16.1h-52.86v-16.1Zm14.93,6.19h-6.19v3.98h6.19v-3.98Zm26.53,20.99v-2.54h-29.85v2.54h29.85Zm-29.85,7.3h29.85v-2.54h-29.85v2.54Zm29.85,4.76h-29.85v2.54h29.85v-2.54Zm-11.93-29.07v-3.98h-6.06v3.98h6.06Zm8.54,0h6.13v-3.98h-6.13v3.98Z"/>
        <path class="cls-5" d="M366.05,170.64l7.5,3.13-2.09,8.67c-.78,3-1.86,5.13-3.23,6.39-1.37,1.26-3.1,1.89-5.18,1.89-1.78,0-3.4-.5-4.86-1.5-1.46-1-3.01-2.89-4.66-5.67-.78-1.3-1.48-2.71-2.09-4.24-2.65,1.96-5.45,3.82-8.41,5.61l-4.56-7.63c3.82-2.21,7.28-4.5,10.36-6.84-.91-4.08-1.67-9.25-2.28-15.51l-6.78,.85-.72-8.54,6.91-.85-.2-3.52-.52-12.58h8.67l.46,13.36,.07,1.69,16.69-2.09,.78,8.47-16.95,2.15c.26,4.04,.61,7.43,1.04,10.17,2.91-3.13,5.39-6.56,7.43-10.3l6.91,4.43c-3.74,6.21-7.82,11.41-12.25,15.58,.61,1.78,1.37,3.39,2.28,4.82,1,1.48,1.89,2.21,2.67,2.21,.39,0,.73-.2,1.01-.59,.28-.39,.55-1.22,.81-2.48,.52-2.65,.91-5.02,1.17-7.11Zm-1.76-26.53c-2.22-2.61-4.98-5.56-8.28-8.86l4.82-4.95c3.69,3.3,6.6,6.13,8.73,8.47l-5.28,5.34Zm9.65-6.84h8.21v38h-8.21v-38Zm12.77-5.74h8.47v50.64c0,2.17-.25,3.86-.75,5.05-.5,1.19-1.41,2.06-2.74,2.61-1.33,.54-3.25,.81-5.77,.81h-7.17l-1.89-9.71h6.71c.96,0,1.64-.06,2.05-.2s.69-.4,.85-.81c.15-.41,.23-1.1,.23-2.05v-46.34Z"/>
        <path class="cls-5" d="M464.34,175.6v6.91h-12.19v7.95h-9.06v-7.95h-15.58c-1.26,4-3.85,6.95-7.76,8.86l-9.39-3c3.43-1.52,5.91-3.48,7.43-5.87h-11.99v-6.91h13.62v-2.8h-7.37v-25.81l-1.96,2.02-5.02-6.32c3.69-3.21,7.04-7.5,10.04-12.84l8.54,1.11c-.44,1-1,2.09-1.7,3.26h13.56v5.34c2.09-2.78,4.02-5.93,5.8-9.45l8.34,1.17-1.56,2.93h15.84v6.45h-10.43l1.3,2.61-4.37,2.22h7.95v27.31h-6.26v2.8h12.19Zm-46.8-34.94c-.78,1.04-2.13,2.65-4.04,4.82h9.32c-.91-1.96-1.72-3.56-2.41-4.82h-2.87Zm3.45,12.84h28.48v-2.28h-28.48v2.28Zm28.48,4.43h-28.48v2.35h28.48v-2.35Zm-28.48,6.84v2.22h28.48v-2.22h-28.48Zm18.38-19.29l-6.58-2.54c1.17-1.43,1.8-2.19,1.89-2.28h-6.13c.48,.78,.98,1.67,1.5,2.67l-5.8,2.15h15.12Zm3.71,30.11v-2.8h-14.67c0,1.3-.02,2.24-.07,2.8h14.73Zm1.17-34.94c-.87,1.39-2,3-3.39,4.82h7.37c-.3-.65-1.13-2.26-2.48-4.82h-1.5Z"/>
      </g>
      <g>
        <path class="cls-1" d="M508.75,1.82l-2.28,13.57c-.1,.61-.25,1.06-.45,1.35-.2,.29-.49,.46-.86,.52-.38,.06-.91,.03-1.59-.08l-2.23-.38-.03-.99,2.21,.37c.52,.09,.91,.12,1.16,.09,.25-.03,.44-.13,.56-.32,.12-.18,.22-.48,.29-.9l.53-3.15-9.02-1.52c-.35,1.24-.79,2.25-1.33,3.05-.53,.8-1.32,1.65-2.36,2.56l-.74-.75c.95-.81,1.66-1.54,2.15-2.21,.49-.66,.88-1.46,1.18-2.4,.29-.94,.59-2.28,.88-4.02l1.12-6.63,10.81,1.82Zm-2.55,9.2l.62-3.7-8.88-1.49-.18,1.09c-.17,.98-.33,1.84-.5,2.6l8.94,1.5Zm.78-4.61l.64-3.81-8.88-1.49-.64,3.81,8.88,1.49Z"/>
        <path class="cls-1" d="M519.33,14.07c-.68-1.01-1.29-1.9-1.83-2.64l-1.39,8.25-.9-.15,1.46-8.65c-1.04,1.78-2.25,3.35-3.61,4.7l-.27-1.04c.79-.8,1.54-1.69,2.26-2.7,.72-1,1.34-2.04,1.87-3.1l-2.8-.47,.16-.93,2.92,.49,.51-3.01c-1.23,.07-2.21,.1-2.94,.09l.04-.92c1.06,0,2.22-.05,3.48-.14,1.26-.09,2.34-.21,3.23-.36l.04,.93c-.59,.1-1.56,.21-2.92,.33l-.54,3.22,2.92,.49-.16,.93-2.92-.49-.23,1.37c.68,.85,1.47,1.91,2.36,3.2l-.73,.58Zm10.75-8.58l-2.42,14.35,1.43,.24-.16,.94-10.67-1.8,.16-.93,1.79,.3,2.42-14.35,7.45,1.25Zm-2.67,10.25l-5.6-.94-.66,3.95,5.6,.94,.66-3.95Zm-5.45-1.86l5.6,.94,.64-3.79-5.6-.94-.64,3.79Zm6.4-3.77l.65-3.87-5.6-.94-.65,3.87,5.6,.94Z"/>
        <path class="cls-1" d="M540.48,21.31c-.84,.55-1.9,.78-3.19,.68l-.26,1.56-1.09-.18,.26-1.53c-.88-.2-1.67-.57-2.37-1.11-.7-.54-1.22-1.19-1.57-1.94l.94-.49c.3,.61,.73,1.14,1.29,1.58,.56,.44,1.18,.75,1.88,.91l.97-5.78c-.81-.4-1.47-.78-1.99-1.15-.52-.37-.92-.83-1.2-1.37-.28-.54-.36-1.2-.23-1.96,.17-1.03,.69-1.83,1.55-2.39,.86-.56,1.91-.79,3.14-.69l.3-1.77,1.09,.18-.3,1.77c.8,.2,1.5,.54,2.08,1.04,.58,.49,1.04,1.09,1.36,1.8l-.92,.49c-.3-.57-.67-1.05-1.13-1.43-.46-.38-.98-.66-1.57-.82l-.96,5.68c.88,.44,1.58,.85,2.11,1.25,.53,.4,.91,.85,1.15,1.37,.24,.52,.3,1.13,.18,1.84-.18,1.08-.69,1.9-1.53,2.45Zm-4.96-8.8c.43,.48,1.1,.95,2.01,1.41l.91-5.39c-.89-.06-1.65,.1-2.27,.48-.62,.38-.99,.92-1.11,1.64-.13,.76,.03,1.39,.46,1.87Zm1.94,8.45c.93,.05,1.7-.12,2.31-.5s.97-.95,1.1-1.69c.12-.71-.02-1.31-.42-1.79-.4-.48-1.09-.97-2.07-1.47l-.92,5.45Z"/>
        <path class="cls-1" d="M548.97,15.47c.36-.04,.76-.03,1.19,.04,.72,.12,1.38,.4,1.95,.85,.58,.44,1.01,1.02,1.29,1.74,.28,.71,.34,1.51,.2,2.39-.15,.88-.46,1.62-.95,2.22-.49,.6-1.1,1.03-1.84,1.29-.74,.25-1.54,.31-2.41,.16-1.03-.17-1.89-.6-2.59-1.27-.7-.67-1.16-1.51-1.38-2.5l1.06-.23c.43,1.71,1.47,2.7,3.12,2.98,.98,.17,1.82-.02,2.53-.54,.71-.53,1.15-1.29,1.32-2.3,.11-.67,.07-1.29-.13-1.84-.2-.56-.53-1.02-.99-1.38-.46-.36-1.01-.6-1.64-.71-.7-.12-1.38-.05-2.03,.21l-.47-.94,5.77-4.73-6.42-1.08,.17-1.03,7.85,1.32-.16,.95-5.46,4.35,.03,.06Z"/>
        <path class="cls-1" d="M555.91,26.91c.42-.12,.75-.31,.97-.54,.22-.24,.37-.56,.44-.98l-.86-.14,.26-1.54,1.52,.26-.26,1.54c-.17,1.04-.79,1.72-1.85,2.04l-.23-.63Z"/>
        <path class="cls-1" d="M563.69,26.13c-.63-.51-1.08-1.14-1.35-1.89-.27-.76-.33-1.58-.18-2.47,.14-.81,.39-1.57,.76-2.27,.37-.7,.96-1.54,1.77-2.52l3.69-4.55,1.28,.21-4.96,6.07,.03,.04c.37-.33,.82-.55,1.36-.66,.54-.11,1.09-.12,1.68-.02,.84,.14,1.55,.46,2.14,.96,.59,.5,1.01,1.12,1.26,1.87,.25,.75,.31,1.55,.16,2.42-.15,.89-.48,1.65-.99,2.27-.51,.63-1.15,1.07-1.91,1.34-.76,.27-1.59,.33-2.48,.18-.88-.15-1.63-.47-2.26-.98Zm4.33-.19c.56-.21,1.04-.56,1.42-1.05,.38-.49,.63-1.08,.75-1.77,.11-.67,.07-1.3-.12-1.88s-.52-1.06-.97-1.45c-.45-.38-1-.63-1.65-.74-.67-.11-1.31-.07-1.9,.13-.59,.2-1.08,.54-1.47,1.02s-.65,1.06-.77,1.76c-.12,.69-.07,1.33,.13,1.91s.54,1.08,1.02,1.46c.48,.39,1.05,.64,1.73,.75,.66,.11,1.27,.06,1.84-.15Z"/>
        <path class="cls-1" d="M575.22,26.67c-.59-1.43-.68-3.34-.28-5.73,.4-2.39,1.12-4.16,2.14-5.32,1.02-1.16,2.27-1.62,3.75-1.37,1.49,.25,2.52,1.09,3.11,2.51,.59,1.43,.68,3.34,.28,5.74s-1.12,4.18-2.14,5.33c-1.02,1.16-2.28,1.61-3.77,1.36-1.47-.25-2.51-1.09-3.09-2.52Zm6.15,.26c.8-1.01,1.38-2.55,1.73-4.62,.35-2.06,.3-3.7-.12-4.92s-1.2-1.93-2.32-2.12c-1.11-.19-2.06,.23-2.87,1.24-.8,1.01-1.38,2.55-1.73,4.61-.35,2.07-.31,3.71,.12,4.93s1.2,1.92,2.3,2.1c1.12,.19,2.08-.22,2.88-1.23Z"/>
        <path class="cls-1" d="M587.82,28.79c-.59-1.43-.68-3.34-.28-5.73,.4-2.39,1.12-4.16,2.14-5.32,1.02-1.16,2.27-1.62,3.75-1.37,1.49,.25,2.52,1.09,3.12,2.51,.59,1.43,.68,3.34,.28,5.74s-1.12,4.18-2.14,5.33c-1.03,1.16-2.28,1.61-3.77,1.36-1.47-.25-2.5-1.09-3.09-2.52Zm6.15,.26c.8-1.01,1.38-2.55,1.73-4.62,.35-2.06,.31-3.7-.12-4.92-.43-1.22-1.2-1.93-2.32-2.12-1.11-.19-2.06,.23-2.87,1.24-.8,1.01-1.38,2.55-1.73,4.61-.35,2.07-.31,3.71,.12,4.93,.43,1.22,1.2,1.92,2.3,2.1,1.12,.19,2.08-.22,2.88-1.23Z"/>
        <path class="cls-1" d="M616.94,26.46l-5.74-.97-1.11,6.61c-.11,.62-.07,1.06,.11,1.31,.18,.25,.57,.43,1.18,.53l1.37,.23c.49,.08,.87,.11,1.12,.07,.25-.04,.44-.15,.57-.35,.13-.2,.25-.52,.35-.96,.29-1.42,.46-2.24,.49-2.47l.91,.39s-.14,.72-.42,2.13l-.1,.49c-.13,.57-.31,.99-.51,1.26-.21,.27-.5,.44-.88,.51-.38,.07-.9,.04-1.56-.07l-1.77-.3c-.84-.14-1.4-.41-1.68-.81-.29-.4-.35-1.04-.2-1.93l1.14-6.8-4-.67c-.17,1-.33,1.86-.47,2.57-.22,1.09-.55,2.01-.98,2.77-.43,.76-1.06,1.44-1.89,2.03-.83,.6-1.96,1.16-3.38,1.68l-.51-.95c1.34-.44,2.4-.93,3.17-1.46,.77-.53,1.34-1.13,1.72-1.79,.38-.66,.67-1.48,.87-2.45,.04-.19,.12-.61,.23-1.25l.24-1.31-4.69-.79,.16-.95,16.41,2.76-.16,.95Zm-13.81-8.42l13.29,2.24-.16,.97-13.29-2.24,.16-.97Z"/>
      </g>
      <line class="cls-2" x1="475.91" y1=".98" x2="487.89" y2="30.44"/>
      <line class="cls-2" x1="642.67" y1="38.37" x2="612.93" y2="55.68"/>
      <g>
        <path class="cls-1" d="M496.96,180.85h1.35v1.35h-1.35v-1.35Zm10.51-4.73l.59,.59-4.82,4.82,4.82,4.82-.59,.57-4.82-4.82-4.82,4.82-.57-.57,4.82-4.82-4.82-4.82,.57-.59,4.82,4.82,4.82-4.82Zm-5.49-.29h1.35v1.35h-1.35v-1.35Zm1.35,11.38h-1.35v-1.35h1.35v1.35Zm3.67-5.02v-1.35h1.35v1.35h-1.35Z"/>
        <path class="cls-1" d="M517.98,177.3l-.15,2.53-.03,.52h7.26c-.06,.78-.13,1.76-.21,2.96-.08,1.2-.16,2.14-.21,2.83-.06,.66-.18,1.16-.37,1.51-.19,.34-.48,.58-.88,.72-.39,.14-.95,.21-1.67,.21h-2.53l-.17-.84h2.43c.62,0,1.08-.05,1.4-.15,.31-.1,.54-.28,.68-.55,.14-.26,.23-.65,.28-1.17l.3-4.67h-6.4c-.12,1.18-.34,2.21-.64,3.1s-.75,1.72-1.35,2.51c-.59,.79-1.4,1.59-2.41,2.41l-.64-.71c1.08-.86,1.91-1.7,2.49-2.51,.58-.81,1.01-1.69,1.28-2.65s.46-2.17,.56-3.63c.04-.85,.08-1.66,.1-2.42h-4.4v-.84h7.27c-.19-.51-.52-1.34-.99-2.49l.91-.24c.15,.33,.33,.77,.56,1.35,.22,.57,.4,1.03,.52,1.38h6.16v.84h-9.16Z"/>
        <path class="cls-1" d="M544.33,188.77c-1.61-.53-2.92-1.04-3.96-1.54s-1.96-1.09-2.78-1.76v3.81h-.83v-3.84c-.82,.69-1.75,1.29-2.78,1.8-1.03,.52-2.35,1.03-3.94,1.55l-.3-.81c1.54-.45,2.8-.9,3.79-1.36,.99-.46,1.87-1,2.66-1.63h-5.94v-.71h6.52v-1.52h.83v1.52h6.53v.71h-5.98c.8,.62,1.7,1.16,2.71,1.63,1.01,.47,2.27,.93,3.77,1.36l-.3,.79Zm-10.56-9.48h-3.74v-.72h4.28c.44-.63,.79-1.16,1.04-1.58l.84,.24c-.25,.39-.55,.84-.91,1.35h9.06v.72h-3.05c-.33,.44-.68,.83-1.07,1.18-.39,.35-.84,.66-1.36,.94,2.11,.55,3.69,1,4.75,1.36l-.29,.72c-1.44-.49-3.25-1.04-5.44-1.63-1.64,.65-4.05,1.16-7.22,1.53l-.22-.71c2.72-.29,4.82-.67,6.3-1.13-1.43-.37-2.78-.7-4.08-.99,.34-.35,.7-.78,1.09-1.28Zm-2.02-2.93v1.6h-.83v-2.31h6.11c-.12-.27-.28-.58-.47-.93-.19-.35-.35-.64-.49-.87l.91-.2c.13,.22,.3,.52,.49,.9,.19,.38,.37,.74,.54,1.1h5.44v2.31h-.83v-1.6h-10.88Zm3.01,2.93c-.27,.35-.53,.66-.79,.94,.89,.19,2.17,.49,3.86,.91,.54-.25,1-.52,1.38-.82,.38-.3,.72-.64,1.01-1.04h-5.46Z"/>
        <path class="cls-1" d="M547.92,188.97v-14.21h4.31v.76l-1.43,4.11c.44,.65,.78,1.32,1.04,2.01s.38,1.32,.38,1.88-.07,1.04-.21,1.36c-.14,.33-.37,.56-.67,.7-.31,.14-.74,.21-1.31,.21h-.81l-.15-.77h.78c.44,0,.77-.04,.99-.13s.38-.25,.47-.48,.13-.57,.13-1.02c0-.48-.12-1.04-.37-1.68s-.61-1.29-1.08-1.94l1.41-4.24h-2.68v13.46h-.81Zm11.96-2.24c.59,.42,1.32,.81,2.17,1.18l-.49,.72c-1.1-.53-2-1.09-2.7-1.68-.7-.59-1.29-1.29-1.75-2.09s-.87-1.79-1.22-2.98h-1.68v6.05l2.81-1.5,.15,.81-3.81,1.9-.39-.72c.19-.12,.31-.22,.36-.29,.05-.07,.08-.16,.08-.27v-12.97h7.16v6.99h-3.92c.39,1.2,.81,2.14,1.26,2.83,.99-.63,1.98-1.36,2.96-2.19l.47,.59c-.99,.8-1.99,1.53-3,2.21,.43,.53,.94,1,1.53,1.41Zm-.1-8.66v-2.44h-5.57v2.44h5.57Zm0,.74h-5.57v2.31h5.57v-2.31Z"/>
        <path class="cls-1" d="M576.42,185.35c.65,.74,1.5,1.42,2.55,2.02l-.49,.67c-1.08-.63-1.96-1.35-2.64-2.16-.69-.81-1.3-1.83-1.84-3.06l-1.2,.56c.22,.81,.34,1.79,.34,2.93,0,.65-.08,1.16-.24,1.53-.16,.37-.42,.64-.79,.8-.37,.16-.89,.25-1.55,.25h-1.73l-.13-.76h1.65c.5,0,.9-.06,1.18-.18,.28-.12,.48-.31,.61-.58,.12-.27,.19-.66,.19-1.16,0-.74-.05-1.38-.13-1.92-.85,.81-1.93,1.58-3.24,2.32-1.31,.74-2.74,1.39-4.29,1.98l-.34-.76c3.36-1.17,5.92-2.58,7.7-4.24-.15-.46-.33-.89-.54-1.28-1.63,1.31-3.79,2.47-6.5,3.47l-.27-.74c1.21-.42,2.37-.91,3.46-1.47,1.09-.57,2.08-1.17,2.96-1.81-.24-.35-.49-.68-.76-.99-1.65,.98-3.44,1.77-5.36,2.39l-.27-.72c1.3-.43,2.53-.91,3.67-1.46,1.14-.54,2.12-1.11,2.91-1.71h-4.63v-.72h10v.72h-4.18c-.4,.33-.92,.7-1.53,1.11,.71,.74,1.22,1.5,1.55,2.29,.75-.34,1.55-.74,2.4-1.2s1.61-.93,2.3-1.39l.42,.71c-.85,.55-1.85,1.12-3,1.7,.53,1.18,1.11,2.14,1.76,2.88Zm-10.53-8.74v2.16h-.79v-2.91h6.48c-.15-.45-.38-1.08-.69-1.9l.89-.2,.24,.64c.19,.49,.37,.98,.52,1.46h5.79v2.93h-.79v-2.17h-11.65Z"/>
        <path class="cls-1" d="M583.3,175.04h11.86v12.08c0,.47-.06,.84-.18,1.09-.12,.26-.32,.44-.6,.55-.28,.11-.68,.16-1.2,.16h-1.75l-.13-.86h1.67c.39,0,.68-.03,.87-.1s.31-.18,.37-.34,.09-.4,.09-.74v-2.75h-4.68v4.75h-.84v-4.75h-4.67c-.08,1.04-.24,1.93-.47,2.65-.24,.72-.62,1.53-1.16,2.42l-.77-.42c.47-.75,.82-1.41,1.04-1.98,.22-.57,.37-1.22,.45-1.95,.08-.73,.12-1.75,.12-3.06v-6.75Zm5.47,8.25v-3.22h-4.61v1.99c0,.56,0,.97-.02,1.23h4.63Zm0-4.06v-3.35h-4.61v3.35h4.61Zm.84,0h4.68v-3.35h-4.68v3.35Zm0,.84v3.22h4.68v-3.22h-4.68Z"/>
      </g>
    </g>
  </g>
</svg>