<?xml version="1.0" encoding="UTF-8"?>
<svg xmlns="http://www.w3.org/2000/svg" viewBox="0 0 493.05 86.71">
  <defs>
    <style>
      .cls-1 {
        fill: #f0f2f4;
        opacity: .35;
      }

      .cls-2 {
        fill: #e9ebef;
        opacity: .53;
      }

      .cls-3 {
        fill: #e4e7eb;
        opacity: .65;
      }

      .cls-4, .cls-5 {
        fill: #fff;
      }

      .cls-6 {
        fill: #f4f5f7;
        opacity: .26;
      }

      .cls-7 {
        fill: #fbfcfc;
        opacity: .09;
      }

      .cls-8 {
        fill: #fefefe;
        opacity: .03;
      }

      .cls-9 {
        mix-blend-mode: lighten;
      }

      .cls-10 {
        fill: #e3e6ea;
        opacity: .68;
      }

      .cls-5 {
        opacity: 0;
      }

      .cls-11 {
        fill: #d7dce2;
        opacity: .94;
      }

      .cls-12 {
        fill: #e5e8ec;
        opacity: .62;
      }

      .cls-13 {
        isolation: isolate;
      }

      .cls-14 {
        fill: #e0e4e8;
        opacity: .74;
      }

      .cls-15 {
        fill: #ebeef0;
        opacity: .47;
      }

      .cls-16 {
        fill: #eceff1;
        opacity: .44;
      }

      .cls-17 {
        fill: #f0f2f5;
      }

      .cls-18 {
        fill: #f1f3f5;
        opacity: .32;
      }

      .cls-19 {
        fill: #eaedf0;
        opacity: .5;
      }

      .cls-20 {
        fill: #d5dae0;
      }

      .cls-21 {
        fill: #c20d23;
      }

      .cls-22 {
        fill: #dfe3e7;
        opacity: .76;
      }

      .cls-23 {
        fill: #eef0f2;
        opacity: .41;
      }

      .cls-24 {
        fill: #dbdfe5;
        opacity: .85;
      }

      .cls-25 {
        fill: #e6e9ed;
        opacity: .59;
      }

      .cls-26 {
        fill: #f9fafa;
        opacity: .15;
      }

      .cls-27 {
        fill: #f6f7f9;
        opacity: .21;
      }

      .cls-28 {
        fill: #e1e5e9;
        opacity: .71;
      }

      .cls-29 {
        fill: #dadee4;
        opacity: .88;
      }

      .cls-30 {
        fill: none;
        stroke: #231815;
        stroke-miterlimit: 10;
        stroke-width: .5px;
      }

      .cls-31 {
        fill: #dee2e6;
        opacity: .79;
      }

      .cls-32 {
        fill: #fdfdfd;
        opacity: .06;
      }

      .cls-33 {
        fill: #dce1e5;
        opacity: .82;
      }

      .cls-34 {
        fill: #f5f6f8;
        opacity: .24;
      }

      .cls-35 {
        fill: #f3f4f6;
        opacity: .29;
      }

      .cls-36 {
        fill: #e8eaee;
        opacity: .56;
      }

      .cls-37 {
        fill: #f8f8fa;
        opacity: .18;
      }

      .cls-38 {
        fill: #231815;
      }

      .cls-39 {
        fill: #d6dbe1;
        opacity: .97;
      }

      .cls-40 {
        fill: #fafbfb;
        opacity: .12;
      }

      .cls-41 {
        fill: #eff1f3;
        opacity: .38;
      }

      .cls-42 {
        mix-blend-mode: multiply;
      }

      .cls-43 {
        fill: #d9dde3;
        opacity: .91;
      }
    </style>
  </defs>
  <g class="cls-13">
    <g id="_圖層_2" data-name="圖層 2">
      <g id="_圖層_2-2" data-name="圖層 2">
        <g>
          <g>
            <g>
              <g class="cls-42">
                <path class="cls-5" d="M.56,63.92c0-12.58,10.2-22.79,22.79-22.79,.02,0,37.91,0,37.93,0,12.56,.03,22.73,10.22,22.73,22.79s-10.18,22.76-22.74,22.79c-.01,0-37.9,0-37.91,0-12.58,0-22.79-10.2-22.79-22.79Z"/>
                <path class="cls-8" d="M.58,63.85c0-12.54,10.16-22.7,22.7-22.7,.02,0,37.91,0,37.93,0,12.51,.03,22.64,10.18,22.64,22.7s-10.14,22.68-22.66,22.7c-.01,0-37.9,0-37.91,0-12.54,0-22.7-10.16-22.7-22.7Z"/>
                <path class="cls-32" d="M.6,63.79c0-12.49,10.13-22.62,22.62-22.62,.02,0,37.91,0,37.93,0,12.46,.03,22.56,10.15,22.56,22.62s-10.1,22.59-22.57,22.62c-.01,0-37.9,0-37.91,0-12.49,0-22.62-10.13-22.62-22.62Z"/>
                <path class="cls-7" d="M.62,63.73c0-12.44,10.09-22.53,22.53-22.53,.02,0,37.91,0,37.93,0,12.42,.03,22.47,10.11,22.47,22.53s-10.07,22.51-22.49,22.53c-.01,0-37.9,0-37.91,0-12.44,0-22.53-10.09-22.53-22.53Z"/>
                <path class="cls-40" d="M.64,63.66c0-12.4,10.05-22.45,22.45-22.45,.02,0,37.91,0,37.93,0,12.37,.03,22.39,10.07,22.39,22.45s-10.03,22.42-22.41,22.45c-.01,0-37.9,0-37.91,0-12.4,0-22.45-10.05-22.45-22.45Z"/>
                <path class="cls-26" d="M.66,63.6c0-12.35,10.01-22.36,22.36-22.36,.02,0,37.91,0,37.93,0,12.32,.03,22.3,10.03,22.3,22.36s-9.99,22.34-22.32,22.36c-.01,0-37.9,0-37.91,0-12.35,0-22.36-10.01-22.36-22.36Z"/>
                <path class="cls-37" d="M.69,63.54c0-12.3,9.97-22.28,22.28-22.28,.02,0,37.91,0,37.93,0,12.28,.03,22.22,9.99,22.22,22.28s-9.95,22.25-22.24,22.28c-.01,0-37.9,0-37.91,0-12.3,0-22.28-9.97-22.28-22.28Z"/>
                <path class="cls-27" d="M.71,63.47c0-12.26,9.94-22.19,22.19-22.19,.02,0,37.91,0,37.93,0,12.23,.03,22.13,9.96,22.13,22.19s-9.91,22.17-22.15,22.19c-.01,0-37.9,0-37.91,0-12.26,0-22.19-9.94-22.19-22.19Z"/>
                <path class="cls-34" d="M.73,63.41c0-12.21,9.9-22.11,22.11-22.11,.02,0,37.91,0,37.93,0,12.18,.03,22.05,9.92,22.05,22.11s-9.88,22.09-22.07,22.11c-.01,0-37.9,0-37.91,0-12.21,0-22.11-9.9-22.11-22.11Z"/>
                <path class="cls-6" d="M.75,63.34c0-12.16,9.86-22.02,22.02-22.02,.02,0,37.91,0,37.93,0,12.13,.03,21.96,9.88,21.96,22.02s-9.84,22-21.98,22.02c-.01,0-37.9,0-37.91,0-12.16,0-22.02-9.86-22.02-22.02Z"/>
                <path class="cls-35" d="M.77,63.28c0-12.12,9.82-21.94,21.94-21.94,.02,0,37.91,0,37.93,0,12.09,.03,21.88,9.84,21.88,21.94s-9.8,21.92-21.9,21.94c-.01,0-37.9,0-37.91,0-12.12,0-21.94-9.82-21.94-21.94Z"/>
                <path class="cls-18" d="M.79,63.22c0-12.07,9.78-21.85,21.85-21.85,.02,0,37.91,0,37.93,0,12.04,.03,21.79,9.8,21.79,21.85s-9.76,21.83-21.81,21.85c-.01,0-37.9,0-37.91,0-12.07,0-21.85-9.78-21.85-21.85Z"/>
                <path class="cls-1" d="M.81,63.15c0-12.02,9.75-21.77,21.77-21.77,.02,0,37.91,0,37.93,0,11.99,.03,21.71,9.77,21.71,21.77s-9.72,21.75-21.73,21.77c-.01,0-37.9,0-37.91,0-12.02,0-21.77-9.75-21.77-21.77Z"/>
                <path class="cls-41" d="M.83,63.09c0-11.98,9.71-21.68,21.68-21.68,.02,0,37.91,0,37.93,0,11.95,.03,21.62,9.73,21.62,21.68s-9.69,21.66-21.64,21.68c-.01,0-37.9,0-37.91,0-11.98,0-21.68-9.71-21.68-21.68Z"/>
                <path class="cls-23" d="M.85,63.02c0-11.93,9.67-21.6,21.6-21.6,.02,0,37.91,0,37.93,0,11.9,.03,21.54,9.69,21.54,21.6s-9.65,21.58-21.56,21.6c-.01,0-37.9,0-37.91,0-11.93,0-21.6-9.67-21.6-21.6Z"/>
                <path class="cls-16" d="M.87,62.96c0-11.88,9.63-21.51,21.51-21.51,.02,0,37.91,0,37.93,0,11.85,.03,21.45,9.65,21.45,21.51s-9.61,21.49-21.47,21.51c-.01,0-37.9,0-37.91,0-11.88,0-21.51-9.63-21.51-21.51Z"/>
                <path class="cls-15" d="M.89,62.9c0-11.83,9.59-21.43,21.43-21.43,.02,0,37.91,0,37.93,0,11.81,.03,21.36,9.61,21.36,21.43s-9.57,21.41-21.39,21.43c-.01,0-37.9,0-37.91,0-11.83,0-21.43-9.59-21.43-21.43Z"/>
                <path class="cls-19" d="M.92,62.83c0-11.79,9.56-21.34,21.34-21.34,.02,0,37.91,0,37.93,0,11.76,.03,21.28,9.58,21.28,21.34s-9.53,21.32-21.3,21.34c-.01,0-37.9,0-37.91,0-11.79,0-21.34-9.56-21.34-21.34Z"/>
                <path class="cls-2" d="M.94,62.77c0-11.74,9.52-21.26,21.26-21.26,.02,0,37.91,0,37.94,0,11.71,.03,21.19,9.54,21.19,21.26s-9.5,21.24-21.22,21.26c-.01,0-37.9,0-37.91,0-11.74,0-21.26-9.52-21.26-21.26Z"/>
                <path class="cls-36" d="M.96,62.7c0-11.69,9.48-21.17,21.17-21.17,.02,0,37.91,0,37.94,0,11.66,.03,21.11,9.5,21.11,21.17s-9.46,21.15-21.13,21.17c-.01,0-37.9,0-37.91,0-11.69,0-21.17-9.48-21.17-21.17Z"/>
                <path class="cls-25" d="M.98,62.64c0-11.65,9.44-21.09,21.09-21.09,.02,0,37.91,0,37.94,0,11.62,.04,21.02,9.46,21.02,21.09s-9.42,21.07-21.05,21.09c-.01,0-37.9,0-37.91,0-11.65,0-21.09-9.44-21.09-21.09Z"/>
                <path class="cls-12" d="M1,62.58c0-11.6,9.4-21,21-21,.02,0,37.91,0,37.94,0,11.57,.04,20.94,9.43,20.94,21s-9.38,20.98-20.96,21c-.01,0-37.9,0-37.91,0-11.6,0-21-9.4-21-21Z"/>
                <path class="cls-3" d="M1.02,62.51c0-11.55,9.37-20.92,20.92-20.92,.02,0,37.92,0,37.94,0,11.52,.04,20.85,9.39,20.85,20.92s-9.34,20.9-20.88,20.92c-.01,0-37.9,0-37.91,0-11.55,0-20.92-9.37-20.92-20.92Z"/>
                <path class="cls-10" d="M1.04,62.45c0-11.51,9.33-20.83,20.83-20.83,.02,0,37.92,0,37.94,0,11.48,.04,20.77,9.35,20.77,20.83s-9.31,20.81-20.8,20.83c-.01,0-37.9,0-37.91,0-11.51,0-20.83-9.33-20.83-20.83Z"/>
                <path class="cls-28" d="M1.06,62.38c0-11.46,9.29-20.75,20.75-20.75,.02,0,37.92,0,37.94,0,11.43,.04,20.68,9.31,20.68,20.75s-9.27,20.73-20.71,20.75c-.01,0-37.9,0-37.91,0-11.46,0-20.75-9.29-20.75-20.75Z"/>
                <path class="cls-14" d="M1.08,62.32c0-11.41,9.25-20.66,20.66-20.66,.02,0,37.92,0,37.94,0,11.38,.04,20.6,9.27,20.6,20.66s-9.23,20.64-20.63,20.66c-.01,0-37.9,0-37.91,0-11.41,0-20.66-9.25-20.66-20.66Z"/>
                <path class="cls-22" d="M1.1,62.26c0-11.37,9.21-20.58,20.58-20.58,.02,0,37.92,0,37.94,0,11.33,.04,20.51,9.24,20.51,20.58s-9.19,20.56-20.54,20.58c-.01,0-37.9,0-37.91,0-11.37,0-20.58-9.21-20.58-20.58Z"/>
                <path class="cls-31" d="M1.13,62.19c0-11.32,9.18-20.49,20.49-20.49,.02,0,37.92,0,37.94,0,11.29,.04,20.43,9.2,20.43,20.49s-9.16,20.47-20.46,20.49c-.01,0-37.9,0-37.91,0-11.32,0-20.49-9.18-20.49-20.49Z"/>
                <path class="cls-33" d="M1.15,62.13c0-11.27,9.14-20.41,20.41-20.41,.02,0,37.92,0,37.94,0,11.24,.04,20.34,9.16,20.34,20.41s-9.12,20.39-20.37,20.41c-.01,0-37.9,0-37.91,0-11.27,0-20.41-9.14-20.41-20.41Z"/>
                <path class="cls-24" d="M1.17,62.06c0-11.22,9.1-20.32,20.32-20.32,.02,0,37.92,0,37.94,0,11.19,.04,20.26,9.12,20.26,20.32s-9.08,20.3-20.29,20.32c-.01,0-37.9,0-37.91,0-11.22,0-20.32-9.1-20.32-20.32Z"/>
                <path class="cls-29" d="M1.19,62c0-11.18,9.06-20.24,20.24-20.24,.02,0,37.92,0,37.94,0,11.15,.04,20.17,9.08,20.17,20.24s-9.04,20.22-20.2,20.24c-.01,0-37.9,0-37.91,0-11.18,0-20.24-9.06-20.24-20.24Z"/>
                <path class="cls-43" d="M1.21,61.94c0-11.13,9.02-20.15,20.15-20.15,.02,0,37.92,0,37.94,0,11.1,.04,20.08,9.05,20.08,20.15s-9,20.13-20.12,20.15c-.01,0-37.9,0-37.91,0-11.13,0-20.15-9.02-20.15-20.15Z"/>
                <path class="cls-11" d="M1.23,61.87c0-11.08,8.99-20.07,20.07-20.07,.02,0,37.92,0,37.94,0,11.05,.04,20,9.01,20,20.07s-8.97,20.05-20.03,20.07c-.01,0-37.9,0-37.91,0-11.08,0-20.07-8.99-20.07-20.07Z"/>
                <path class="cls-39" d="M1.25,61.81c0-11.04,8.95-19.98,19.98-19.98,.02,0,37.92,0,37.94,0,11,.04,19.91,8.97,19.91,19.98s-8.93,19.96-19.95,19.98c-.01,0-37.9,0-37.91,0-11.04,0-19.98-8.95-19.98-19.98Z"/>
                <path class="cls-20" d="M1.27,61.74c0-10.99,8.91-19.9,19.9-19.9,.02,0,37.92,0,37.94,0,10.96,.04,19.83,8.93,19.83,19.9s-8.89,19.88-19.86,19.9c-.01,0-37.9,0-37.91,0-10.99,0-19.9-8.91-19.9-19.9Z"/>
              </g>
              <path class="cls-17" d="M79.3,61.29c0,11.42-9.24,20.68-20.66,20.72-.02,0-37.91,0-37.93,0-11.44,0-20.72-9.27-20.72-20.72s9.27-20.72,20.72-20.72c.01,0,37.89,0,37.9,0,11.43,.02,20.68,9.29,20.68,20.72Z"/>
            </g>
            <g>
              <path class="cls-38" d="M33.85,68.52h-1.5l-6.6-7.7-1.16,1.14v6.56h-1.16v-15.12h1.16v7.06l7.12-7.06h1.58l-6.74,6.64,7.3,8.48Z"/>
              <path class="cls-38" d="M46.91,61.26h-1.96v6.14c0,.55-.06,.96-.19,1.25-.13,.29-.35,.49-.66,.61-.31,.12-.78,.18-1.39,.18h-1.78l-.16-.92h1.78c.44,0,.76-.03,.97-.1,.21-.07,.35-.2,.42-.39s.11-.49,.11-.89v-5.88h-7.64v-.86h10.5v.86Zm-1.96-1.54h-.92v-6.02h-7.34v-.9h9.94v.9h-1.68v6.02Zm-7.44,3.32h4.56v3.9h-4.56v-3.9Zm4.6-7.66v3.44h-4.52v-3.44h4.52Zm-3.78,10.84h2.9v-2.44h-2.9v2.44Zm2.96-10.08h-2.9v1.94h2.9v-1.94Zm12.08,13.52c-1.84-1.84-3.07-4.09-3.7-6.76-.28,1.36-.74,2.6-1.38,3.71-.64,1.11-1.49,2.19-2.54,3.23l-.62-.76c1.43-1.37,2.45-2.83,3.08-4.37,.63-1.54,.95-3.41,.98-5.61l.02-2.18h.86l-.02,2.12c0,.31,0,.53-.02,.68,.09,1.93,.47,3.65,1.12,5.14s1.6,2.83,2.84,4l-.62,.8Zm-7.44-10.78c1.2-2.05,2.17-4.49,2.92-7.32l.9,.2c-.27,1.05-.59,2.08-.96,3.08h5l-.02,.92-1.42,3.52-.86-.3,1.36-3.26h-4.38c-.6,1.49-1.21,2.75-1.84,3.78l-.7-.62Z"/>
            </g>
            <g>
              <g class="cls-9">
                <path class="cls-4" d="M206.86,61.06c0,11.18-9.04,20.25-20.21,20.3-.03,0-37.93,0-37.96,0-11.21,0-20.3-9.09-20.3-20.3s9.09-20.3,20.3-20.3c.01,0,37.9,0,37.91,0,11.19,.02,20.26,9.1,20.26,20.3Z"/>
              </g>
              <g class="cls-42">
                <path class="cls-5" d="M128.75,63.92c0-12.58,10.2-22.79,22.79-22.79,.02,0,37.91,0,37.93,0,12.56,.03,22.73,10.22,22.73,22.79s-10.18,22.76-22.74,22.79c-.01,0-37.9,0-37.91,0-12.58,0-22.79-10.2-22.79-22.79Z"/>
                <path class="cls-8" d="M128.78,63.85c0-12.54,10.16-22.7,22.7-22.7,.02,0,37.91,0,37.93,0,12.51,.03,22.64,10.18,22.64,22.7s-10.14,22.68-22.66,22.7c-.01,0-37.9,0-37.91,0-12.54,0-22.7-10.16-22.7-22.7Z"/>
                <path class="cls-32" d="M128.8,63.79c0-12.49,10.13-22.62,22.62-22.62,.02,0,37.91,0,37.93,0,12.46,.03,22.56,10.15,22.56,22.62s-10.1,22.59-22.57,22.62c-.01,0-37.9,0-37.91,0-12.49,0-22.62-10.13-22.62-22.62Z"/>
                <path class="cls-7" d="M128.82,63.73c0-12.44,10.09-22.53,22.53-22.53,.02,0,37.91,0,37.93,0,12.42,.03,22.47,10.11,22.47,22.53s-10.07,22.51-22.49,22.53c-.01,0-37.9,0-37.91,0-12.44,0-22.53-10.09-22.53-22.53Z"/>
                <path class="cls-40" d="M128.84,63.66c0-12.4,10.05-22.45,22.45-22.45,.02,0,37.91,0,37.93,0,12.37,.03,22.39,10.07,22.39,22.45s-10.03,22.42-22.41,22.45c-.01,0-37.9,0-37.91,0-12.4,0-22.45-10.05-22.45-22.45Z"/>
                <path class="cls-26" d="M128.86,63.6c0-12.35,10.01-22.36,22.36-22.36,.02,0,37.91,0,37.93,0,12.32,.03,22.3,10.03,22.3,22.36s-9.99,22.34-22.32,22.36c-.01,0-37.9,0-37.91,0-12.35,0-22.36-10.01-22.36-22.36Z"/>
                <path class="cls-37" d="M128.88,63.54c0-12.3,9.97-22.28,22.28-22.28,.02,0,37.91,0,37.93,0,12.28,.03,22.22,9.99,22.22,22.28s-9.95,22.25-22.24,22.28c-.01,0-37.9,0-37.91,0-12.3,0-22.28-9.97-22.28-22.28Z"/>
                <path class="cls-27" d="M128.9,63.47c0-12.26,9.94-22.19,22.19-22.19,.02,0,37.91,0,37.93,0,12.23,.03,22.13,9.96,22.13,22.19s-9.91,22.17-22.15,22.19c-.01,0-37.9,0-37.91,0-12.26,0-22.19-9.94-22.19-22.19Z"/>
                <path class="cls-34" d="M128.92,63.41c0-12.21,9.9-22.11,22.11-22.11,.02,0,37.91,0,37.93,0,12.18,.03,22.05,9.92,22.05,22.11s-9.88,22.09-22.07,22.11c-.01,0-37.9,0-37.91,0-12.21,0-22.11-9.9-22.11-22.11Z"/>
                <path class="cls-6" d="M128.94,63.34c0-12.16,9.86-22.02,22.02-22.02,.02,0,37.91,0,37.93,0,12.13,.03,21.96,9.88,21.96,22.02s-9.84,22-21.98,22.02c-.01,0-37.9,0-37.91,0-12.16,0-22.02-9.86-22.02-22.02Z"/>
                <path class="cls-35" d="M128.96,63.28c0-12.12,9.82-21.94,21.94-21.94,.02,0,37.91,0,37.93,0,12.09,.03,21.88,9.84,21.88,21.94s-9.8,21.92-21.9,21.94c-.01,0-37.9,0-37.91,0-12.12,0-21.94-9.82-21.94-21.94Z"/>
                <path class="cls-18" d="M128.98,63.22c0-12.07,9.78-21.85,21.85-21.85,.02,0,37.91,0,37.93,0,12.04,.03,21.79,9.8,21.79,21.85s-9.76,21.83-21.81,21.85c-.01,0-37.9,0-37.91,0-12.07,0-21.85-9.78-21.85-21.85Z"/>
                <path class="cls-1" d="M129.01,63.15c0-12.02,9.75-21.77,21.77-21.77,.02,0,37.91,0,37.93,0,11.99,.03,21.71,9.77,21.71,21.77s-9.72,21.75-21.73,21.77c-.01,0-37.9,0-37.91,0-12.02,0-21.77-9.75-21.77-21.77Z"/>
                <path class="cls-41" d="M129.03,63.09c0-11.98,9.71-21.68,21.68-21.68,.02,0,37.91,0,37.93,0,11.95,.03,21.62,9.73,21.62,21.68s-9.69,21.66-21.64,21.68c-.01,0-37.9,0-37.91,0-11.98,0-21.68-9.71-21.68-21.68Z"/>
                <path class="cls-23" d="M129.05,63.02c0-11.93,9.67-21.6,21.6-21.6,.02,0,37.91,0,37.93,0,11.9,.03,21.54,9.69,21.54,21.6s-9.65,21.58-21.56,21.6c-.01,0-37.9,0-37.91,0-11.93,0-21.6-9.67-21.6-21.6Z"/>
                <path class="cls-16" d="M129.07,62.96c0-11.88,9.63-21.51,21.51-21.51,.02,0,37.91,0,37.93,0,11.85,.03,21.45,9.65,21.45,21.51s-9.61,21.49-21.47,21.51c-.01,0-37.9,0-37.91,0-11.88,0-21.51-9.63-21.51-21.51Z"/>
                <path class="cls-15" d="M129.09,62.9c0-11.83,9.59-21.43,21.43-21.43,.02,0,37.91,0,37.93,0,11.81,.03,21.36,9.61,21.36,21.43s-9.57,21.41-21.39,21.43c-.01,0-37.9,0-37.91,0-11.83,0-21.43-9.59-21.43-21.43Z"/>
                <path class="cls-19" d="M129.11,62.83c0-11.79,9.56-21.34,21.34-21.34,.02,0,37.91,0,37.93,0,11.76,.03,21.28,9.58,21.28,21.34s-9.53,21.32-21.3,21.34c-.01,0-37.9,0-37.91,0-11.79,0-21.34-9.56-21.34-21.34Z"/>
                <path class="cls-2" d="M129.13,62.77c0-11.74,9.52-21.26,21.26-21.26,.02,0,37.91,0,37.94,0,11.71,.03,21.19,9.54,21.19,21.26s-9.5,21.24-21.22,21.26c-.01,0-37.9,0-37.91,0-11.74,0-21.26-9.52-21.26-21.26Z"/>
                <path class="cls-36" d="M129.15,62.7c0-11.69,9.48-21.17,21.17-21.17,.02,0,37.91,0,37.94,0,11.66,.03,21.11,9.5,21.11,21.17s-9.46,21.15-21.13,21.17c-.01,0-37.9,0-37.91,0-11.69,0-21.17-9.48-21.17-21.17Z"/>
                <path class="cls-25" d="M129.17,62.64c0-11.65,9.44-21.09,21.09-21.09,.02,0,37.91,0,37.94,0,11.62,.04,21.02,9.46,21.02,21.09s-9.42,21.07-21.05,21.09c-.01,0-37.9,0-37.91,0-11.65,0-21.09-9.44-21.09-21.09Z"/>
                <path class="cls-12" d="M129.19,62.58c0-11.6,9.4-21,21-21,.02,0,37.91,0,37.94,0,11.57,.04,20.94,9.43,20.94,21s-9.38,20.98-20.96,21c-.01,0-37.9,0-37.91,0-11.6,0-21-9.4-21-21Z"/>
                <path class="cls-3" d="M129.22,62.51c0-11.55,9.37-20.92,20.92-20.92,.02,0,37.92,0,37.94,0,11.52,.04,20.85,9.39,20.85,20.92s-9.34,20.9-20.88,20.92c-.01,0-37.9,0-37.91,0-11.55,0-20.92-9.37-20.92-20.92Z"/>
                <path class="cls-10" d="M129.24,62.45c0-11.51,9.33-20.83,20.83-20.83,.02,0,37.92,0,37.94,0,11.48,.04,20.77,9.35,20.77,20.83s-9.31,20.81-20.8,20.83c-.01,0-37.9,0-37.91,0-11.51,0-20.83-9.33-20.83-20.83Z"/>
                <path class="cls-28" d="M129.26,62.38c0-11.46,9.29-20.75,20.75-20.75,.02,0,37.92,0,37.94,0,11.43,.04,20.68,9.31,20.68,20.75s-9.27,20.73-20.71,20.75c-.01,0-37.9,0-37.91,0-11.46,0-20.75-9.29-20.75-20.75Z"/>
                <path class="cls-14" d="M129.28,62.32c0-11.41,9.25-20.66,20.66-20.66,.02,0,37.92,0,37.94,0,11.38,.04,20.6,9.27,20.6,20.66s-9.23,20.64-20.63,20.66c-.01,0-37.9,0-37.91,0-11.41,0-20.66-9.25-20.66-20.66Z"/>
                <path class="cls-22" d="M129.3,62.26c0-11.37,9.21-20.58,20.58-20.58,.02,0,37.92,0,37.94,0,11.33,.04,20.51,9.24,20.51,20.58s-9.19,20.56-20.54,20.58c-.01,0-37.9,0-37.91,0-11.37,0-20.58-9.21-20.58-20.58Z"/>
                <path class="cls-31" d="M129.32,62.19c0-11.32,9.18-20.49,20.49-20.49,.02,0,37.92,0,37.94,0,11.29,.04,20.43,9.2,20.43,20.49s-9.16,20.47-20.46,20.49c-.01,0-37.9,0-37.91,0-11.32,0-20.49-9.18-20.49-20.49Z"/>
                <path class="cls-33" d="M129.34,62.13c0-11.27,9.14-20.41,20.41-20.41,.02,0,37.92,0,37.94,0,11.24,.04,20.34,9.16,20.34,20.41s-9.12,20.39-20.37,20.41c-.01,0-37.9,0-37.91,0-11.27,0-20.41-9.14-20.41-20.41Z"/>
                <path class="cls-24" d="M129.36,62.06c0-11.22,9.1-20.32,20.32-20.32,.02,0,37.92,0,37.94,0,11.19,.04,20.26,9.12,20.26,20.32s-9.08,20.3-20.29,20.32c-.01,0-37.9,0-37.91,0-11.22,0-20.32-9.1-20.32-20.32Z"/>
                <path class="cls-29" d="M129.38,62c0-11.18,9.06-20.24,20.24-20.24,.02,0,37.92,0,37.94,0,11.15,.04,20.17,9.08,20.17,20.24s-9.04,20.22-20.2,20.24c-.01,0-37.9,0-37.91,0-11.18,0-20.24-9.06-20.24-20.24Z"/>
                <path class="cls-43" d="M129.4,61.94c0-11.13,9.02-20.15,20.15-20.15,.02,0,37.92,0,37.94,0,11.1,.04,20.08,9.05,20.08,20.15s-9,20.13-20.12,20.15c-.01,0-37.9,0-37.91,0-11.13,0-20.15-9.02-20.15-20.15Z"/>
                <path class="cls-11" d="M129.43,61.87c0-11.08,8.99-20.07,20.07-20.07,.02,0,37.92,0,37.94,0,11.05,.04,20,9.01,20,20.07s-8.97,20.05-20.03,20.07c-.01,0-37.9,0-37.91,0-11.08,0-20.07-8.99-20.07-20.07Z"/>
                <path class="cls-39" d="M129.45,61.81c0-11.04,8.95-19.98,19.98-19.98,.02,0,37.92,0,37.94,0,11,.04,19.91,8.97,19.91,19.98s-8.93,19.96-19.95,19.98c-.01,0-37.9,0-37.91,0-11.04,0-19.98-8.95-19.98-19.98Z"/>
                <path class="cls-20" d="M129.47,61.74c0-10.99,8.91-19.9,19.9-19.9,.02,0,37.92,0,37.94,0,10.96,.04,19.83,8.93,19.83,19.9s-8.89,19.88-19.86,19.9c-.01,0-37.9,0-37.91,0-10.99,0-19.9-8.91-19.9-19.9Z"/>
              </g>
              <path class="cls-17" d="M207.5,61.29c0,11.42-9.24,20.68-20.66,20.72-.02,0-37.91,0-37.93,0-11.44,0-20.72-9.27-20.72-20.72s9.27-20.72,20.72-20.72c.01,0,37.89,0,37.9,0,11.43,.02,20.68,9.29,20.68,20.72Z"/>
            </g>
            <g>
              <path class="cls-38" d="M165.64,68.16l-.18,.96h-8.88c-.97,0-1.78-.06-2.41-.19-.63-.13-1.2-.36-1.71-.69s-1.02-.83-1.54-1.48l-2.18,2.8-.46-1.1,2.12-2.64v-6.22h-2.04v-1h3.02v7.2c.47,.65,.94,1.15,1.41,1.48,.47,.33,1.01,.56,1.61,.69s1.37,.19,2.3,.19h8.94Zm-14.06-11.66c-.27-.44-.66-1.05-1.18-1.83-.52-.78-.98-1.45-1.38-2.01l.76-.58c.4,.55,.86,1.2,1.38,1.96,.52,.76,.92,1.36,1.2,1.8l-.78,.66Zm12.34,4.64v4.72h-9.44v-11.86h3.16c.45-1.03,.76-1.81,.92-2.34l1.08,.18c-.41,1.04-.71,1.76-.9,2.16h4.98v4.7h-8.24v2.44h8.44Zm-1.18-3.32v-2.92h-7.26v2.92h7.26Zm-7.26,7.14h7.46v-2.92h-7.46v2.92Z"/>
              <path class="cls-38" d="M171.64,55.8v4.24c0,2.32-.09,4.15-.28,5.48s-.59,2.73-1.22,4.18l-.76-.46c.59-1.4,.97-2.73,1.14-4s.26-3.01,.26-5.22v-4.98h3.7v-3.38h.92v1.42h4.32v.7h-4.32v1.26h5.16v.76l-.4,1.82-.84-.2,.36-1.62h-8.04Zm8.8,7.08c-.6,.47-1.44,1.01-2.52,1.62,1.15,1.07,2.15,2.03,3.02,2.9l-.58,.58c-.76-.76-1.83-1.78-3.2-3.06l-.08,.06c.13,.55,.2,1.3,.2,2.26,0,.85-.15,1.45-.45,1.8-.3,.35-.83,.52-1.59,.52h-1.46l-.14-.8h1.44c.53,0,.9-.1,1.09-.3,.19-.2,.29-.61,.29-1.22,0-.49-.02-.93-.06-1.3-1.28,1.23-2.91,2.27-4.9,3.14l-.38-.7c2.03-.83,3.75-1.93,5.16-3.3-.09-.39-.2-.72-.32-1-.6,.49-1.25,.95-1.95,1.37-.7,.42-1.4,.77-2.11,1.05l-.28-.72c1.36-.51,2.7-1.28,4.02-2.32-.19-.29-.34-.52-.46-.68-1.03,.63-2.01,1.07-2.94,1.34l-.22-.72c.6-.16,1.24-.41,1.91-.76,.67-.35,1.32-.74,1.93-1.18h-3.5v-.74h8.1v.74h-3.42c-.37,.29-.77,.59-1.2,.9,.48,.64,.83,1.26,1.04,1.86,1.39-.79,2.42-1.45,3.1-1.98l.46,.64Zm-4.66-3.12c-.52,0-.88-.09-1.09-.27-.21-.18-.31-.49-.31-.93v-.54l-2.22,.22-.06-.68,2.28-.22v-1.14h.9v1.04l2.74-.26,.06,.7-2.8,.26v.54c0,.25,.06,.42,.19,.49,.13,.07,.38,.11,.75,.11h1.36c.44,0,.73-.04,.88-.12,.15-.08,.23-.25,.26-.5,.03-.35,.04-.65,.04-.92l.8,.22-.06,.84c-.04,.43-.18,.73-.42,.9-.24,.17-.67,.26-1.28,.26h-2.02Zm9.18-7.78h.86v15.34c0,.79-.16,1.34-.49,1.67-.33,.33-.9,.49-1.71,.49h-1.88l-.16-.92h1.84c.6,0,1.01-.1,1.22-.31,.21-.21,.32-.59,.32-1.15v-15.12Zm-3.04,1.9h.8v11.46h-.8v-11.46Z"/>
            </g>
            <g>
              <g class="cls-9">
                <path class="cls-4" d="M379.79,61.06c0,11.18-9.04,20.25-20.21,20.3-.03,0-80.32,0-80.35,0-11.21,0-20.3-9.09-20.3-20.3s9.09-20.3,20.3-20.3c.01,0,80.28,0,80.3,0,11.19,.02,20.26,9.1,20.26,20.3Z"/>
              </g>
              <g class="cls-42">
                <path class="cls-5" d="M259.3,63.92c0-12.58,10.2-22.79,22.79-22.79,.02,0,80.3,0,80.31,0,12.56,.03,22.73,10.22,22.73,22.79s-10.18,22.76-22.74,22.79c-.01,0-80.29,0-80.3,0-12.58,0-22.79-10.2-22.79-22.79Z"/>
                <path class="cls-8" d="M259.33,63.85c0-12.54,10.16-22.7,22.7-22.7,.02,0,80.3,0,80.32,0,12.51,.03,22.64,10.18,22.64,22.7s-10.14,22.68-22.66,22.7c-.01,0-80.29,0-80.3,0-12.54,0-22.7-10.16-22.7-22.7Z"/>
                <path class="cls-32" d="M259.35,63.79c0-12.49,10.13-22.62,22.62-22.62,.02,0,80.3,0,80.32,0,12.46,.03,22.56,10.15,22.56,22.62s-10.1,22.59-22.57,22.62c-.01,0-80.29,0-80.3,0-12.49,0-22.62-10.13-22.62-22.62Z"/>
                <path class="cls-7" d="M259.37,63.73c0-12.44,10.09-22.53,22.53-22.53,.02,0,80.3,0,80.32,0,12.42,.03,22.47,10.11,22.47,22.53s-10.07,22.51-22.49,22.53c-.01,0-80.29,0-80.3,0-12.44,0-22.53-10.09-22.53-22.53Z"/>
                <path class="cls-40" d="M259.39,63.66c0-12.4,10.05-22.45,22.45-22.45,.02,0,80.3,0,80.32,0,12.37,.03,22.39,10.07,22.39,22.45s-10.03,22.42-22.41,22.45c-.01,0-80.29,0-80.3,0-12.4,0-22.45-10.05-22.45-22.45Z"/>
                <path class="cls-26" d="M259.41,63.6c0-12.35,10.01-22.36,22.36-22.36,.02,0,80.3,0,80.32,0,12.32,.03,22.3,10.03,22.3,22.36s-9.99,22.34-22.32,22.36c-.01,0-80.29,0-80.3,0-12.35,0-22.36-10.01-22.36-22.36Z"/>
                <path class="cls-37" d="M259.43,63.54c0-12.3,9.97-22.28,22.28-22.28,.02,0,80.3,0,80.32,0,12.28,.03,22.22,9.99,22.22,22.28s-9.95,22.25-22.24,22.28c-.01,0-80.29,0-80.3,0-12.3,0-22.28-9.97-22.28-22.28Z"/>
                <path class="cls-27" d="M259.45,63.47c0-12.26,9.94-22.19,22.19-22.19,.02,0,80.3,0,80.32,0,12.23,.03,22.13,9.96,22.13,22.19s-9.91,22.17-22.15,22.19c-.01,0-80.29,0-80.3,0-12.26,0-22.19-9.94-22.19-22.19Z"/>
                <path class="cls-34" d="M259.47,63.41c0-12.21,9.9-22.11,22.11-22.11,.02,0,80.3,0,80.32,0,12.18,.03,22.05,9.92,22.05,22.11s-9.88,22.09-22.07,22.11c-.01,0-80.29,0-80.3,0-12.21,0-22.11-9.9-22.11-22.11Z"/>
                <path class="cls-6" d="M259.49,63.34c0-12.16,9.86-22.02,22.02-22.02,.02,0,80.3,0,80.32,0,12.13,.03,21.96,9.88,21.96,22.02s-9.84,22-21.98,22.02c-.01,0-80.29,0-80.3,0-12.16,0-22.02-9.86-22.02-22.02Z"/>
                <path class="cls-35" d="M259.51,63.28c0-12.12,9.82-21.94,21.94-21.94,.02,0,80.3,0,80.32,0,12.09,.03,21.88,9.84,21.88,21.94s-9.8,21.92-21.9,21.94c-.01,0-80.29,0-80.3,0-12.12,0-21.94-9.82-21.94-21.94Z"/>
                <path class="cls-18" d="M259.53,63.22c0-12.07,9.78-21.85,21.85-21.85,.02,0,80.3,0,80.32,0,12.04,.03,21.79,9.8,21.79,21.85s-9.76,21.83-21.81,21.85c-.01,0-80.29,0-80.3,0-12.07,0-21.85-9.78-21.85-21.85Z"/>
                <path class="cls-1" d="M259.56,63.15c0-12.02,9.75-21.77,21.77-21.77,.02,0,80.3,0,80.32,0,11.99,.03,21.71,9.77,21.71,21.77s-9.72,21.75-21.73,21.77c-.01,0-80.29,0-80.3,0-12.02,0-21.77-9.75-21.77-21.77Z"/>
                <path class="cls-41" d="M259.58,63.09c0-11.98,9.71-21.68,21.68-21.68,.02,0,80.3,0,80.32,0,11.95,.03,21.62,9.73,21.62,21.68s-9.69,21.66-21.64,21.68c-.01,0-80.28,0-80.3,0-11.98,0-21.68-9.71-21.68-21.68Z"/>
                <path class="cls-23" d="M259.6,63.02c0-11.93,9.67-21.6,21.6-21.6,.02,0,80.3,0,80.32,0,11.9,.03,21.54,9.69,21.54,21.6s-9.65,21.58-21.56,21.6c-.01,0-80.28,0-80.3,0-11.93,0-21.6-9.67-21.6-21.6Z"/>
                <path class="cls-16" d="M259.62,62.96c0-11.88,9.63-21.51,21.51-21.51,.02,0,80.3,0,80.32,0,11.85,.03,21.45,9.65,21.45,21.51s-9.61,21.49-21.47,21.51c-.01,0-80.28,0-80.3,0-11.88,0-21.51-9.63-21.51-21.51Z"/>
                <path class="cls-15" d="M259.64,62.9c0-11.83,9.59-21.43,21.43-21.43,.02,0,80.3,0,80.32,0,11.81,.03,21.36,9.61,21.36,21.43s-9.57,21.41-21.39,21.43c-.01,0-80.28,0-80.3,0-11.83,0-21.43-9.59-21.43-21.43Z"/>
                <path class="cls-19" d="M259.66,62.83c0-11.79,9.56-21.34,21.34-21.34,.02,0,80.3,0,80.32,0,11.76,.03,21.28,9.58,21.28,21.34s-9.53,21.32-21.3,21.34c-.01,0-80.28,0-80.3,0-11.79,0-21.34-9.56-21.34-21.34Z"/>
                <path class="cls-2" d="M259.68,62.77c0-11.74,9.52-21.26,21.26-21.26,.02,0,80.3,0,80.32,0,11.71,.03,21.19,9.54,21.19,21.26s-9.5,21.24-21.22,21.26c-.01,0-80.28,0-80.3,0-11.74,0-21.26-9.52-21.26-21.26Z"/>
                <path class="cls-36" d="M259.7,62.7c0-11.69,9.48-21.17,21.17-21.17,.02,0,80.3,0,80.32,0,11.66,.03,21.11,9.5,21.11,21.17s-9.46,21.15-21.13,21.17c-.01,0-80.28,0-80.3,0-11.69,0-21.17-9.48-21.17-21.17Z"/>
                <path class="cls-25" d="M259.72,62.64c0-11.65,9.44-21.09,21.09-21.09,.02,0,80.3,0,80.32,0,11.62,.04,21.02,9.46,21.02,21.09s-9.42,21.07-21.05,21.09c-.01,0-80.28,0-80.3,0-11.65,0-21.09-9.44-21.09-21.09Z"/>
                <path class="cls-12" d="M259.74,62.58c0-11.6,9.4-21,21-21,.02,0,80.3,0,80.32,0,11.57,.04,20.94,9.43,20.94,21s-9.38,20.98-20.96,21c-.01,0-80.28,0-80.3,0-11.6,0-21-9.4-21-21Z"/>
                <path class="cls-3" d="M259.77,62.51c0-11.55,9.37-20.92,20.92-20.92,.02,0,80.3,0,80.32,0,11.52,.04,20.85,9.39,20.85,20.92s-9.34,20.9-20.88,20.92c-.01,0-80.28,0-80.3,0-11.55,0-20.92-9.37-20.92-20.92Z"/>
                <path class="cls-10" d="M259.79,62.45c0-11.51,9.33-20.83,20.83-20.83,.02,0,80.3,0,80.32,0,11.48,.04,20.77,9.35,20.77,20.83s-9.31,20.81-20.8,20.83c-.01,0-80.28,0-80.3,0-11.51,0-20.83-9.33-20.83-20.83Z"/>
                <path class="cls-28" d="M259.81,62.38c0-11.46,9.29-20.75,20.75-20.75,.02,0,80.3,0,80.32,0,11.43,.04,20.68,9.31,20.68,20.75s-9.27,20.73-20.71,20.75c-.01,0-80.28,0-80.3,0-11.46,0-20.75-9.29-20.75-20.75Z"/>
                <path class="cls-14" d="M259.83,62.32c0-11.41,9.25-20.66,20.66-20.66,.02,0,80.3,0,80.32,0,11.38,.04,20.6,9.27,20.6,20.66s-9.23,20.64-20.63,20.66c-.01,0-80.28,0-80.3,0-11.41,0-20.66-9.25-20.66-20.66Z"/>
                <path class="cls-22" d="M259.85,62.26c0-11.37,9.21-20.58,20.58-20.58,.02,0,80.3,0,80.33,0,11.33,.04,20.51,9.24,20.51,20.58s-9.19,20.56-20.54,20.58c-.01,0-80.28,0-80.3,0-11.37,0-20.58-9.21-20.58-20.58Z"/>
                <path class="cls-31" d="M259.87,62.19c0-11.32,9.18-20.49,20.49-20.49,.02,0,80.3,0,80.33,0,11.29,.04,20.43,9.2,20.43,20.49s-9.16,20.47-20.46,20.49c-.01,0-80.28,0-80.3,0-11.32,0-20.49-9.18-20.49-20.49Z"/>
                <path class="cls-33" d="M259.89,62.13c0-11.27,9.14-20.41,20.41-20.41,.02,0,80.3,0,80.33,0,11.24,.04,20.34,9.16,20.34,20.41s-9.12,20.39-20.37,20.41c-.01,0-80.28,0-80.3,0-11.27,0-20.41-9.14-20.41-20.41Z"/>
                <path class="cls-24" d="M259.91,62.06c0-11.22,9.1-20.32,20.32-20.32,.02,0,80.3,0,80.33,0,11.19,.04,20.26,9.12,20.26,20.32s-9.08,20.3-20.29,20.32c-.01,0-80.28,0-80.3,0-11.22,0-20.32-9.1-20.32-20.32Z"/>
                <path class="cls-29" d="M259.93,62c0-11.18,9.06-20.24,20.24-20.24,.02,0,80.3,0,80.33,0,11.15,.04,20.17,9.08,20.17,20.24s-9.04,20.22-20.2,20.24c-.01,0-80.28,0-80.29,0-11.18,0-20.24-9.06-20.24-20.24Z"/>
                <path class="cls-43" d="M259.95,61.94c0-11.13,9.02-20.15,20.15-20.15,.02,0,80.3,0,80.33,0,11.1,.04,20.08,9.05,20.08,20.15s-9,20.13-20.12,20.15c-.01,0-80.28,0-80.29,0-11.13,0-20.15-9.02-20.15-20.15Z"/>
                <path class="cls-11" d="M259.97,61.87c0-11.08,8.99-20.07,20.07-20.07,.02,0,80.3,0,80.33,0,11.05,.04,20,9.01,20,20.07s-8.97,20.05-20.03,20.07c-.01,0-80.28,0-80.29,0-11.08,0-20.07-8.99-20.07-20.07Z"/>
                <path class="cls-39" d="M260,61.81c0-11.04,8.95-19.98,19.98-19.98,.02,0,80.3,0,80.33,0,11,.04,19.91,8.97,19.91,19.98s-8.93,19.96-19.95,19.98c-.01,0-80.28,0-80.29,0-11.04,0-19.98-8.95-19.98-19.98Z"/>
                <path class="cls-20" d="M260.02,61.74c0-10.99,8.91-19.9,19.9-19.9,.02,0,80.31,0,80.33,0,10.96,.04,19.83,8.93,19.83,19.9s-8.89,19.88-19.86,19.9c-.01,0-80.28,0-80.29,0-10.99,0-19.9-8.91-19.9-19.9Z"/>
              </g>
              <path class="cls-17" d="M380.43,61.29c0,11.42-9.24,20.68-20.66,20.72-.02,0-80.3,0-80.31,0-11.44,0-20.72-9.27-20.72-20.72s9.27-20.72,20.72-20.72c.01,0,80.28,0,80.29,0,11.43,.02,20.68,9.29,20.68,20.72Z"/>
            </g>
            <g>
              <path class="cls-38" d="M281.42,64.12c-.75,1.79-1.5,3.21-2.26,4.28l-.72-.48c.43-.57,.81-1.19,1.14-1.85s.67-1.42,1.02-2.27l.82,.32Zm5.96-1.18h-3.72v4.74c0,.48-.05,.84-.16,1.08-.11,.24-.3,.41-.59,.51-.29,.1-.7,.15-1.25,.15h-1.24l-.18-.96h1.18c.41,0,.71-.03,.89-.09,.18-.06,.3-.16,.35-.31,.05-.15,.08-.4,.08-.76v-4.36h-3.86v-.9h3.86v-2.64h-4.2v-.9h2.72c-.2-.95-.35-1.63-.46-2.06l-.36-1.62h-1.28v-.88h3.72c-.23-.73-.47-1.48-.74-2.24l.96-.18c.23,.68,.48,1.49,.76,2.42h3.34v.88h-1.24c-.16,.92-.45,2.15-.88,3.68h2.64v.9h-4.06v2.64h3.72v.9Zm-6.08-8.12c.2,.88,.31,1.35,.32,1.42,.16,.61,.33,1.37,.52,2.26h2.04c.28-.93,.58-2.16,.9-3.68h-3.78Zm5.28,12.44c-.64-.99-1.3-1.95-1.98-2.9l.68-.5c.75,1.03,1.41,1.98,2,2.86l-.7,.54Zm9.42-8.36v.96h-2.3v9.88h-.94v-9.88h-3.08v.04c0,1.79-.06,3.23-.19,4.33-.13,1.1-.36,2.08-.69,2.95-.33,.87-.83,1.77-1.5,2.7l-.9-.48c.64-.88,1.12-1.74,1.45-2.57,.33-.83,.55-1.78,.67-2.85,.12-1.07,.18-2.48,.18-4.24v-5.82c1.16-.13,2.31-.33,3.44-.59,1.13-.26,2.12-.56,2.96-.89l.32,.94c-.77,.32-1.66,.6-2.67,.85s-2.03,.44-3.07,.57v4.1h6.32Z"/>
              <path class="cls-38" d="M307.14,52.76v5.32h-5.54v11.52h-.94v-16.84h6.48Zm-.9,2.28v-1.5h-4.64v1.5h4.64Zm-4.64,.76v1.5h4.64v-1.5h-4.64Zm12.44,10.12l.02,.8-2.4,.12v1.74h-.9v-1.7l-8.32,.38-.02-.82,2.38-.1v-6.08h-1.7v-.78h10.4v.78h-1.84v5.76l2.38-.1Zm-3.28-4.22v-1.44h-5.06v1.44h5.06Zm0,.76h-5.06v1.42h5.06v-1.42Zm-5.06,2.16v1.68l5.06-.24v-1.44h-5.06Zm3.7-11.86h6.5v14.46c0,.6-.07,1.05-.2,1.36-.13,.31-.37,.52-.7,.64-.33,.12-.83,.18-1.48,.18h-1.3l-.18-.88h1.26c.48,0,.83-.04,1.05-.11,.22-.07,.37-.21,.45-.41,.08-.2,.12-.51,.12-.94v-8.98h-5.52v-5.32Zm5.52,2.28v-1.5h-4.62v1.5h4.62Zm-4.62,.76v1.5h4.62v-1.5h-4.62Z"/>
              <path class="cls-38" d="M335.14,56.44v11.52h2.8v.92h-17.3v-.92h2.8v-11.52h5.34v-1.98h-7.4v-.86h7.4v-1.88h.98v1.88h7.44v.86h-7.44v1.98h5.38Zm-.98,2.9v-2.02h-9.72v2.02h9.72Zm-9.72,2.84h9.72v-2h-9.72v2Zm9.72,2.9v-2.06h-9.72v2.06h9.72Zm0,.86h-9.72v2.02h9.72v-2.02Z"/>
              <path class="cls-38" d="M346.82,60.1l-2.1,1.02v6.42c0,.47-.05,.82-.16,1.07-.11,.25-.29,.42-.55,.51-.26,.09-.65,.14-1.17,.14h-1.04l-.2-.96h1c.35,0,.6-.02,.77-.07,.17-.05,.28-.14,.35-.29s.1-.37,.1-.68v-5.72l-1.46,.7c-.16,.07-.37,.17-.64,.3l-.26-1c.83-.35,1.61-.71,2.36-1.08v-3.96h-2.06v-.98h2.06v-3.76h.9v3.76h2.02v.98h-2.02v3.54l1.9-.94,.08,.5,.12,.5Zm7.16-2.14c1.2,1.28,2.89,2.37,5.06,3.28l-.4,.88c-2.57-1.16-4.47-2.5-5.7-4.02v3.22h-.92v-3.22c-1.23,1.57-3.07,2.97-5.54,4.2l-.46-.88c2.19-1.01,3.84-2.17,4.96-3.46h-4.2v-.84h5.24v-3.46c-1.81,.16-3.43,.27-4.86,.34l-.04-.88c1.57-.08,3.44-.22,5.59-.42s3.87-.41,5.15-.62l.14,.92c-1.15,.17-2.83,.37-5.06,.58v3.54h5.76v.84h-4.72Zm-5.46,11.9h-.9v-8.02h9.72v8.02h-.92v-1.16h-7.9v1.16Zm-.06-15.82c.89,.96,1.57,1.73,2.02,2.3l-.72,.44c-.39-.47-1.06-1.22-2.02-2.26l.72-.48Zm3.58,10.84v-2.22h-3.52v2.22h3.52Zm-3.52,.8v2.22h3.52v-2.22h-3.52Zm4.4-.8h3.5v-2.22h-3.5v2.22Zm0,.8v2.22h3.5v-2.22h-3.5Zm1.58-9.24c.92-1.08,1.6-1.93,2.04-2.54l.76,.44c-.53,.71-1.23,1.56-2.08,2.56l-.72-.46Z"/>
            </g>
          </g>
          <g>
            <line class="cls-30" x1="90.19" y1="48.65" x2="115.79" y2="74.25"/>
            <line class="cls-30" x1="115.79" y1="48.65" x2="90.19" y2="74.25"/>
          </g>
          <g>
            <line class="cls-30" x1="219.79" y1="48.65" x2="245.39" y2="74.25"/>
            <line class="cls-30" x1="245.39" y1="48.65" x2="219.79" y2="74.25"/>
          </g>
          <g>
            <polygon class="cls-21" points="387.4 33.04 409.84 0 388.23 33.59 387.4 33.04 387.4 33.04"/>
            <polygon class="cls-21" points="397.51 59.37 436.13 67.66 397.32 60.35 397.51 59.37 397.51 59.37"/>
            <g>
              <path class="cls-21" d="M397.71,41.57l18.17-3.96,.7,3.2-18.17,3.96-.7-3.19Z"/>
              <path class="cls-21" d="M438.16,38.96l-.5,.86,1.75,.26c.07,.6,.1,1.2,.09,1.8-.04,.98-.21,1.72-.48,2.21-.28,.49-.69,.79-1.24,.91-1.26,.27-2.41-.1-3.46-1.13-.82,.78-1.84,1.61-3.06,2.49l-1.67-1.78c.45-.3,.97-.68,1.57-1.16-.24-.12-.85-.32-1.83-.61-.12,1.41-.56,2.93-1.3,4.55l-2.38-1.39c.61-1.09,1-2.04,1.18-2.85s.19-1.74,.02-2.77l-1.17,.25-.5-2.31,1.19-.26-.21-.94,2.36-.51,.21,.94,1.95-.42-.41-1.28-.79,.6c-.13-.21-.25-.38-.37-.5l-3.55,1.22-1.09-1.76c.59-.77,1.08-1.57,1.47-2.4l-1.4,.48-.84-1.41,.5,2.27-1.11,.24,.29,1.35c.73,.4,1.39,.82,1.99,1.26l-.49,2.59s-.28-.21-.79-.56l1.81,8.29-2.38,.52-1.51-6.94c-.18,1.08-.4,2.07-.67,2.96l-1.42-3.66c.17-.51,.33-1.25,.46-2.21s.23-1.99,.29-3.08l-1.45,.32-.58-2.68,1.47-.32-.71-3.28,2.38-.52,.71,3.28,1.11-.24,.07,.33c.38-.77,.67-1.45,.89-2.04,.21-.59,.39-1.26,.53-2.02l1.92,.23c-.25,.77-.63,1.83-1.16,3.17l.86-.21c.26-.73,.41-1.18,.46-1.34l1.59,.4c-.15-.64-.38-1.65-.69-3.05l2.44-.53,.36,1.75,.37,1.61c.28-.5,.53-1.12,.77-1.85s.38-1.39,.44-1.97l1.95,.28c-.1,.48-.25,1.01-.47,1.6-.21,.59-.42,1.09-.62,1.49l.96-.23c.15-.41,.3-.89,.44-1.45l1.83,.44c-.23,.71-.58,1.54-1.05,2.49-.47,.95-.89,1.72-1.27,2.3l1.32-.44c-.04-.06-.23-.34-.56-.82l1.25-.96c.3,.41,.66,.92,1.08,1.55,.41,.62,.72,1.12,.92,1.5l-1.38,.88-.41-.68-3.39,1.1-.85-1.36c.27,1,.56,1.92,.86,2.77l1.35-.29c-.22-.41-.39-.72-.53-.94l2-.84,.77,1.29,1.68-.37,.5,2.31-2.21,.48,1.55,.73Zm-10.14-4.49l-.63-.81c-.19,.33-.44,.74-.76,1.24l1.39-.43Zm.54-1.86c.1,.12,.31,.4,.63,.83,.25,.35,.44,.6,.58,.78-.31-1.08-.6-2.25-.89-3.52-.38,.88-.84,1.81-1.39,2.79l1.08-.88Zm3.34,8.63l-.64,2.09c.7-.54,1.23-.98,1.6-1.33-.44-.69-.89-1.58-1.35-2.67l-2.33,.51c.04,.18,.06,.33,.08,.45,.01,.13,.02,.24,.03,.34,1.23,.28,2.11,.48,2.62,.61Zm.2-9.63l-.8-1.31c.18,.82,.43,1.84,.75,3.05,.49-.71,.93-1.43,1.33-2.18l-1.28,.43Zm1.82,7.2c.27,.57,.51,1.04,.71,1.41,.55-.63,1.02-1.26,1.42-1.87l-2.13,.46Zm3.44,3.29c.09-.17,.13-.44,.12-.81,.02-.23,0-.62-.04-1.15-.44,.68-.94,1.36-1.49,2.02,.17,.16,.33,.26,.49,.29,.16,.03,.37,0,.61-.06,.11-.02,.21-.12,.3-.29Z"/>
              <path class="cls-21" d="M447.28,33.87c-.11,.1-.47,.41-1.08,.94l1.16,5.35c.14,.66,.17,1.17,.09,1.55-.08,.38-.3,.68-.64,.9-.34,.22-.87,.41-1.58,.57l-1.19,.26-1.16-2.75,.98-.21c.35-.08,.57-.17,.64-.27,.07-.1,.08-.28,.02-.54l-.62-2.85-1.08,.96-1.33-2.95c.27-.2,.51-.39,.73-.56s.39-.31,.54-.43l.42-.33-.66-3.03-1.37,.3-.62-2.83,1.37-.3-.62-2.83,2.6-.57,.62,2.83,1.13-.25,.62,2.83-1.13,.25,.35,1.62c.11-.09,.2-.18,.29-.25s.16-.14,.21-.2l1.29,2.79Zm10.98-11.85l.49,2.25-12.9,2.81-.49-2.25,4.57-1-.62-.89,2.76-1.12,.92,1.34,5.28-1.15Zm-10.06,9.98l-.97-4.46,10.14-2.21,.97,4.46-10.14,2.21Zm1.12,10.35l-2.05-9.4,12.23-2.66,1.49,6.84c.15,.67,.18,1.2,.11,1.58s-.27,.7-.59,.92-.81,.41-1.47,.56l-1.84,.4-.81-1.73-4.1,.89-1-4.61,5.49-1.2,.92,4.24c.37-.09,.59-.2,.68-.32,.09-.12,.1-.34,.03-.67l-.91-4.18-7.27,1.58,1.57,7.21-2.48,.54Zm1.05-12.69l5-1.09-.2-.9-5,1.09,.2,.9Zm3.51,7.95l1.52-.33-.25-1.15-1.52,.33,.25,1.15Z"/>
              <path class="cls-21" d="M477.5,20.96l-11.88,2.59,.31,1.43-2.72,.59-.87-3.99,7.13-1.55-.78-1.61,3.43-1,.88,1.85,6.63-1.45,.87,3.99-2.68,.58-.31-1.43Zm-1.7,12.4l7.46-1.62v2.81s-7.51,1.63-7.51,1.63c-2.73,.59-5,.18-6.79-1.25-.32,1.24-.87,2.51-1.66,3.79l-2.47-1.69c.74-1.22,1.22-2.42,1.46-3.6,.24-1.18,.24-2.64,.02-4.38l2.86-.34c.15,1.14,.21,2.21,.19,3.22,1,1.04,2.16,1.62,3.47,1.73l-1.46-6.7-6.88,1.5-.56-2.56,16.1-3.5,.56,2.56-6.31,1.37,.47,2.17,5.84-1.27,.56,2.58-5.84,1.27,.5,2.27Z"/>
              <path class="cls-21" d="M491.5,26.51l-3.07,.67-2.98-11.13,4.14-.9,1.92,11.36Zm1.55,5.15l-3.89,.85-.85-3.89,3.89-.85,.85,3.89Z"/>
            </g>
          </g>
        </g>
      </g>
    </g>
  </g>
</svg>