<?xml version="1.0" encoding="UTF-8"?>
<svg xmlns="http://www.w3.org/2000/svg" viewBox="0 0 128.98 115.55">
  <defs>
    <style>
      .cls-1 {
        opacity: .27;
      }

      .cls-1, .cls-2, .cls-3, .cls-4, .cls-5 {
        fill: #29292a;
      }

      .cls-6 {
        fill: #5f5f62;
        opacity: .65;
      }

      .cls-7 {
        opacity: .73;
      }

      .cls-7, .cls-8, .cls-9, .cls-10, .cls-11 {
        fill: #2d2d2e;
      }

      .cls-12 {
        opacity: .39;
      }

      .cls-12, .cls-13, .cls-14, .cls-15, .cls-16 {
        fill: #2a2a2b;
      }

      .cls-17 {
        opacity: .61;
      }

      .cls-17, .cls-18, .cls-19, .cls-20, .cls-21 {
        fill: #2c2c2d;
      }

      .cls-22 {
        fill: #343435;
        opacity: .06;
      }

      .cls-23, .cls-24, .cls-25, .cls-26 {
        fill: #262627;
      }

      .cls-27 {
        opacity: .86;
      }

      .cls-27, .cls-28, .cls-29, .cls-30, .cls-31 {
        fill: #2f2f30;
      }

      .cls-32 {
        fill: #666668;
        opacity: .74;
      }

      .cls-28 {
        opacity: .94;
      }

      .cls-33 {
        opacity: .16;
      }

      .cls-33, .cls-34, .cls-35, .cls-36, .cls-37 {
        fill: #282829;
      }

      .cls-2 {
        opacity: .29;
      }

      .cls-29 {
        opacity: .88;
      }

      .cls-38 {
        opacity: .47;
      }

      .cls-38, .cls-39, .cls-40, .cls-41, .cls-42, .cls-43 {
        fill: #2b2b2c;
      }

      .cls-24 {
        opacity: .04;
      }

      .cls-44 {
        opacity: .96;
      }

      .cls-44, .cls-45, .cls-46, .cls-47 {
        fill: #303031;
      }

      .cls-48 {
        isolation: isolate;
      }

      .cls-8 {
        opacity: .67;
      }

      .cls-49 {
        fill: #323233;
        opacity: .03;
      }

      .cls-34 {
        opacity: .18;
      }

      .cls-50 {
        fill: #454547;
        opacity: .29;
      }

      .cls-51 {
        fill: #3f3f40;
        opacity: .21;
      }

      .cls-52 {
        fill: #505052;
        opacity: .44;
      }

      .cls-9 {
        opacity: .75;
      }

      .cls-30 {
        opacity: .9;
      }

      .cls-53 {
        fill: #4a4a4b;
        opacity: .35;
      }

      .cls-54 {
        fill: #737375;
        opacity: .91;
      }

      .cls-55 {
        fill: #6e6e71;
        opacity: .85;
      }

      .cls-56 {
        fill: #59595b;
        opacity: .56;
      }

      .cls-57 {
        fill: #757578;
        opacity: .94;
      }

      .cls-58 {
        fill: #4c4c4e;
        opacity: .38;
      }

      .cls-59 {
        fill: #434345;
        opacity: .26;
      }

      .cls-10 {
        opacity: .71;
      }

      .cls-39 {
        opacity: .51;
      }

      .cls-60 {
        fill: #c20d23;
      }

      .cls-35 {
        opacity: .24;
      }

      .cls-61 {
        fill: #414143;
        opacity: .24;
      }

      .cls-18 {
        opacity: .63;
      }

      .cls-62 {
        opacity: .78;
      }

      .cls-62, .cls-63, .cls-64, .cls-65, .cls-66 {
        fill: #2e2e2f;
      }

      .cls-67 {
        fill: #79797c;
      }

      .cls-63 {
        opacity: .82;
      }

      .cls-68 {
        fill: #fff000;
      }

      .cls-69 {
        fill: #555557;
        opacity: .5;
      }

      .cls-70 {
        fill: #707073;
        opacity: .88;
      }

      .cls-13 {
        opacity: .37;
      }

      .cls-3 {
        opacity: .25;
      }

      .cls-40 {
        opacity: .55;
      }

      .cls-71 {
        fill: #39393a;
        opacity: .12;
      }

      .cls-41 {
        opacity: .45;
      }

      .cls-72 {
        fill: #616164;
        opacity: .68;
      }

      .cls-73 {
        fill: #77777a;
        opacity: .97;
      }

      .cls-25 {
        opacity: .02;
      }

      .cls-74 {
        opacity: .1;
      }

      .cls-74, .cls-75, .cls-76, .cls-77, .cls-78 {
        fill: #272728;
      }

      .cls-64 {
        opacity: .8;
      }

      .cls-46 {
        opacity: .98;
      }

      .cls-79 {
        fill: #6c6c6f;
        opacity: .82;
      }

      .cls-19 {
        opacity: .57;
      }

      .cls-14 {
        opacity: .43;
      }

      .cls-20 {
        opacity: .65;
      }

      .cls-80 {
        fill: #3d3d3e;
        opacity: .18;
      }

      .cls-75 {
        opacity: .12;
      }

      .cls-81 {
        fill: #363638;
        opacity: .09;
      }

      .cls-21 {
        opacity: .59;
      }

      .cls-65 {
        opacity: .84;
      }

      .cls-76 {
        opacity: .08;
      }

      .cls-15 {
        opacity: .35;
      }

      .cls-82 {
        opacity: .65;
      }

      .cls-82, .cls-83 {
        mix-blend-mode: multiply;
      }

      .cls-16 {
        opacity: .41;
      }

      .cls-84 {
        fill: #5b5b5d;
        opacity: .59;
      }

      .cls-85 {
        fill: #484849;
        opacity: .32;
      }

      .cls-66 {
        opacity: .76;
      }

      .cls-86 {
        fill: #68686a;
        opacity: .76;
      }

      .cls-11 {
        opacity: .69;
      }

      .cls-36 {
        opacity: .2;
      }

      .cls-77 {
        opacity: .06;
      }

      .cls-37 {
        opacity: .22;
      }

      .cls-87 {
        fill: #6a6a6d;
        opacity: .79;
      }

      .cls-88 {
        fill: #4e4e50;
        opacity: .41;
      }

      .cls-89 {
        fill: #3b3b3c;
        opacity: .15;
      }

      .cls-90 {
        fill: #5d5d5f;
        opacity: .62;
      }

      .cls-31 {
        opacity: .92;
      }

      .cls-91 {
        fill: #f7cd1c;
      }

      .cls-26, .cls-47 {
        opacity: 0;
      }

      .cls-4 {
        opacity: .33;
      }

      .cls-92 {
        fill: #575759;
        opacity: .53;
      }

      .cls-78 {
        opacity: .14;
      }

      .cls-5 {
        opacity: .31;
      }

      .cls-42 {
        opacity: .53;
      }

      .cls-93 {
        fill: #646466;
        opacity: .71;
      }

      .cls-94 {
        fill: #525254;
        opacity: .47;
      }

      .cls-43 {
        opacity: .49;
      }
    </style>
  </defs>
  <g class="cls-48">
    <g id="_圖層_2" data-name="圖層 2">
      <g id="_圖層_2-2" data-name="圖層 2">
        <g>
          <g class="cls-83">
            <circle class="cls-26" cx="65.56" cy="52.14" r="52.14"/>
            <circle class="cls-25" cx="65.66" cy="52.23" r="52.02"/>
            <circle class="cls-24" cx="65.75" cy="52.32" r="51.91"/>
            <circle class="cls-77" cx="65.84" cy="52.41" r="51.8"/>
            <circle class="cls-76" cx="65.94" cy="52.51" r="51.69"/>
            <circle class="cls-74" cx="66.03" cy="52.6" r="51.58"/>
            <circle class="cls-75" cx="66.12" cy="52.69" r="51.47"/>
            <circle class="cls-78" cx="66.22" cy="52.79" r="51.36"/>
            <circle class="cls-33" cx="66.31" cy="52.88" r="51.24"/>
            <circle class="cls-34" cx="66.4" cy="52.97" r="51.13"/>
            <circle class="cls-36" cx="66.49" cy="53.06" r="51.02"/>
            <circle class="cls-37" cx="66.59" cy="53.16" r="50.91"/>
            <circle class="cls-35" cx="66.68" cy="53.25" r="50.8"/>
            <circle class="cls-3" cx="66.77" cy="53.34" r="50.69"/>
            <circle class="cls-1" cx="66.87" cy="53.44" r="50.58"/>
            <circle class="cls-2" cx="66.96" cy="53.53" r="50.46"/>
            <circle class="cls-5" cx="67.05" cy="53.62" r="50.35"/>
            <circle class="cls-4" cx="67.14" cy="53.72" r="50.24"/>
            <circle class="cls-15" cx="67.24" cy="53.81" r="50.13"/>
            <circle class="cls-13" cx="67.33" cy="53.9" r="50.02"/>
            <circle class="cls-12" cx="67.42" cy="53.99" r="49.91"/>
            <circle class="cls-16" cx="67.52" cy="54.09" r="49.8"/>
            <circle class="cls-14" cx="67.61" cy="54.18" r="49.68"/>
            <circle class="cls-41" cx="67.7" cy="54.27" r="49.57"/>
            <circle class="cls-38" cx="67.79" cy="54.37" r="49.46" transform="translate(3.27 112.58) rotate(-80.78)"/>
            <circle class="cls-43" cx="67.89" cy="54.46" r="49.35" transform="translate(3.26 112.75) rotate(-80.78)"/>
            <circle class="cls-39" cx="67.98" cy="54.55" r="49.24" transform="translate(3.24 112.92) rotate(-80.78)"/>
            <circle class="cls-42" cx="68.07" cy="54.64" r="49.13" transform="translate(3.23 113.09) rotate(-80.78)"/>
            <circle class="cls-40" cx="68.17" cy="54.74" r="49.02" transform="translate(3.22 113.26) rotate(-80.78)"/>
            <circle class="cls-19" cx="68.26" cy="54.83" r="48.9" transform="translate(3.2 113.43) rotate(-80.78)"/>
            <circle class="cls-21" cx="68.35" cy="54.92" r="48.79" transform="translate(3.19 113.6) rotate(-80.78)"/>
            <circle class="cls-17" cx="68.45" cy="55.02" r="48.68" transform="translate(3.18 113.77) rotate(-80.78)"/>
            <circle class="cls-18" cx="68.54" cy="55.11" r="48.57" transform="translate(3.16 113.94) rotate(-80.78)"/>
            <circle class="cls-20" cx="68.63" cy="55.2" r="48.46" transform="translate(3.15 114.1) rotate(-80.78)"/>
            <circle class="cls-8" cx="68.72" cy="55.3" r="48.35" transform="translate(3.13 114.27) rotate(-80.78)"/>
            <circle class="cls-11" cx="68.82" cy="55.39" r="48.24" transform="translate(3.12 114.44) rotate(-80.78)"/>
            <circle class="cls-10" cx="68.91" cy="55.48" r="48.12" transform="translate(3.11 114.61) rotate(-80.78)"/>
            <circle class="cls-7" cx="69" cy="55.57" r="48.01" transform="translate(3.09 114.78) rotate(-80.78)"/>
            <circle class="cls-9" cx="69.1" cy="55.67" r="47.9" transform="translate(3.08 114.95) rotate(-80.78)"/>
            <circle class="cls-66" cx="69.19" cy="55.76" r="47.79" transform="translate(3.07 115.12) rotate(-80.78)"/>
            <circle class="cls-62" cx="69.28" cy="55.85" r="47.68" transform="translate(3.05 115.29) rotate(-80.78)"/>
            <circle class="cls-64" cx="69.37" cy="55.95" r="47.57" transform="translate(3.04 115.46) rotate(-80.78)"/>
            <circle class="cls-63" cx="69.47" cy="56.04" r="47.46" transform="translate(3.03 115.63) rotate(-80.78)"/>
            <circle class="cls-65" cx="69.56" cy="56.13" r="47.34" transform="translate(3.01 115.8) rotate(-80.78)"/>
            <circle class="cls-27" cx="69.65" cy="56.22" r="47.23" transform="translate(3 115.97) rotate(-80.78)"/>
            <circle class="cls-29" cx="69.75" cy="56.32" r="47.12" transform="translate(2.98 116.14) rotate(-80.78)"/>
            <circle class="cls-30" cx="69.84" cy="56.41" r="47.01" transform="translate(2.97 116.31) rotate(-80.78)"/>
            <circle class="cls-31" cx="69.93" cy="56.5" r="46.9" transform="translate(2.96 116.48) rotate(-80.78)"/>
            <circle class="cls-28" cx="70.03" cy="56.6" r="46.79" transform="translate(2.94 116.65) rotate(-80.78)"/>
            <circle class="cls-44" cx="70.12" cy="56.69" r="46.68" transform="translate(2.93 116.82) rotate(-80.78)"/>
            <circle class="cls-46" cx="70.21" cy="56.78" r="46.56" transform="translate(2.92 116.99) rotate(-80.78)"/>
            <circle class="cls-45" cx="70.3" cy="56.87" r="46.45" transform="translate(2.9 117.16) rotate(-80.78)"/>
          </g>
          <g class="cls-82">
            <circle class="cls-47" cx="76.84" cy="63.42" r="52.14"/>
            <circle class="cls-49" cx="76.7" cy="63.27" r="51.94"/>
            <circle class="cls-22" cx="76.55" cy="63.12" r="51.75"/>
            <circle class="cls-81" cx="76.41" cy="62.98" r="51.55"/>
            <circle class="cls-71" cx="76.26" cy="62.83" r="51.36"/>
            <circle class="cls-89" cx="76.11" cy="62.68" r="51.16"/>
            <circle class="cls-80" cx="75.97" cy="62.54" r="50.97"/>
            <circle class="cls-51" cx="75.82" cy="62.39" r="50.78"/>
            <circle class="cls-61" cx="75.67" cy="62.24" r="50.58"/>
            <circle class="cls-59" cx="75.53" cy="62.1" r="50.39"/>
            <circle class="cls-50" cx="75.38" cy="61.95" r="50.19"/>
            <circle class="cls-85" cx="75.23" cy="61.81" r="50"/>
            <circle class="cls-53" cx="75.09" cy="61.66" r="49.8"/>
            <circle class="cls-58" cx="74.94" cy="61.51" r="49.61"/>
            <circle class="cls-88" cx="74.8" cy="61.37" r="49.41"/>
            <circle class="cls-52" cx="74.65" cy="61.22" r="49.22"/>
            <circle class="cls-94" cx="74.5" cy="61.07" r="49.03"/>
            <circle class="cls-69" cx="74.36" cy="60.93" r="48.83"/>
            <circle class="cls-92" cx="74.21" cy="60.78" r="48.64"/>
            <circle class="cls-56" cx="74.06" cy="60.63" r="48.44"/>
            <circle class="cls-84" cx="73.92" cy="60.49" r="48.25"/>
            <circle class="cls-90" cx="73.77" cy="60.34" r="48.05"/>
            <circle class="cls-6" cx="73.62" cy="60.2" r="47.86"/>
            <circle class="cls-72" cx="73.48" cy="60.05" r="47.67"/>
            <circle class="cls-93" cx="73.33" cy="59.9" r="47.47"/>
            <circle class="cls-32" cx="73.19" cy="59.76" r="47.28"/>
            <circle class="cls-86" cx="73.04" cy="59.61" r="47.08"/>
            <circle class="cls-87" cx="72.89" cy="59.46" r="46.89"/>
            <circle class="cls-79" cx="72.75" cy="59.32" r="46.69"/>
            <circle class="cls-55" cx="72.6" cy="59.17" r="46.5"/>
            <circle class="cls-70" cx="72.45" cy="59.02" r="46.31"/>
            <circle class="cls-54" cx="72.31" cy="58.88" r="46.11"/>
            <circle class="cls-57" cx="72.16" cy="58.73" r="45.92"/>
            <circle class="cls-73" cx="72.01" cy="58.59" r="45.72"/>
            <circle class="cls-67" cx="71.87" cy="58.44" r="45.53"/>
          </g>
          <circle class="cls-23" cx="70.83" cy="57.4" r="47.4"/>
        </g>
        <g>
          <g>
            <path class="cls-68" d="M69.97,52.32v2.83h-17.94v-2.83h9.33c.54-1.29,1.13-2.83,1.76-4.62,.63-1.79,1.14-3.29,1.52-4.5l3.07,1.19c-.47,1.29-1.37,3.61-2.69,6.96l-.38,.97h5.34Zm-.49-12.26v2.83h-16.83v-2.83h7.1l-.44-1.46c-.11-.3-.23-.68-.36-1.15l3.16-.51c.43,1.33,.74,2.37,.93,3.11h6.45Zm-12.32,11.79c-.49-1.62-1.38-4.07-2.69-7.36l2.65-1.01c.53,1.39,1.47,3.79,2.83,7.2l-2.79,1.17Z"/>
            <path class="cls-68" d="M79.72,48.42c.86,1.59,1.81,3.41,2.85,5.46l-2.29,1.23c-.47-1.01-.81-1.72-1.01-2.12l-5.12,2.25-1.38-2.29c.27-.2,.44-.4,.52-.61,.07-.2,.11-.47,.11-.79v-13.9h8.27v10.5h-5.77v3.4l2.18-.95-.61-1.17,2.22-1.01Zm-.59-6.68v-1.62h-3.22v1.62h3.22Zm-3.22,2.37v1.6h3.22v-1.6h-3.22Zm6.84-5.97h7.34v12.28c0,.97-.21,1.66-.64,2.05-.42,.4-1.1,.6-2.03,.6h-1.46l-.53-2.77h1.27c.32,0,.53-.06,.61-.19s.12-.37,.12-.72v-8.45h-2.08v14.95h-2.61v-17.74Z"/>
            <path class="cls-68" d="M68.5,73.32h-3.16v2.61c0,.66-.05,1.15-.15,1.47-.1,.32-.31,.55-.62,.69s-.8,.21-1.46,.21h-1.66l-.42-2.31c-.54,.55-1.23,1.19-2.08,1.9l-.87-1.15v.08h-3.3v.95h-2.31v-17.31h5.6v6.86c.61-.35,1.13-.71,1.58-1.09-.2-.23-.5-.54-.89-.93l-.47-.49,1.29-1.34c.55,.55,1,1.02,1.36,1.4,.34-.46,.63-1,.89-1.64h-3.26v-2.22h3.86c.11-.57,.18-1.04,.22-1.42l2.51,.02-.24,1.4h4.55v2.22h-3.52c.36,.59,.74,1.11,1.13,1.54l1.36-1.33,1.29,1.44c-.35,.35-.75,.74-1.21,1.15,.53,.38,1.11,.72,1.76,1.03l-.77,2.47c-.42-.22-.76-.4-1.03-.57v4.37Zm-12.54-8.23v-2.06h-1.17v2.06h1.17Zm0,4.61v-2.12h-1.17v2.12h1.17Zm-1.17,2.45v2.2h1.17v-2.2h-1.17Zm8.09,1.17h-3.34v-3.98l-.77,.57-.69-1.29v7.24c.8-.65,1.64-1.48,2.53-2.51l1.56,1.36c-.2,.26-.51,.61-.91,1.07h1.09c.2,0,.34-.05,.41-.14,.07-.09,.11-.3,.11-.61v-1.7Zm3.36-5.26h-4.41v.83h4.41v-.83Zm-4.41,2.55v.83h4.41v-.83h-4.41Zm3.54-4.47c-.47-.58-.93-1.28-1.38-2.1-.35,.78-.75,1.48-1.19,2.1h2.57Zm1.72,7.18c.49,.42,.94,.81,1.38,1.18,.43,.37,.81,.7,1.13,.98,.2,.2,.4,.38,.61,.55l-1.62,1.94-1.38-1.27-1.62-1.5,1.5-1.88Z"/>
            <path class="cls-68" d="M90.83,72.74v2.43h-2.77v3.18h-2.49v-3.18h-3.62v-2.43h3.62v-1.7h-1.5c-.11,.32-.3,.8-.57,1.42l-1.92-.73v4.63c0,.73-.14,1.23-.42,1.52-.28,.28-.77,.42-1.46,.42h-1.54l-.2-1.09h-1.54v-3.26h-.97c-.07,.92-.19,1.72-.36,2.42-.17,.69-.42,1.39-.75,2.09l-1.98-1.48c.27-.73,.47-1.37,.6-1.93,.13-.56,.22-1.23,.27-2,.05-.78,.08-1.85,.08-3.23v-3.76l-.95-1.46c.54-.62,1.05-1.33,1.53-2.14s.97-1.75,1.49-2.83l2.51,.42c-.05,.15-.11,.29-.17,.41-.06,.13-.11,.24-.15,.33h3.7v2.12l-1.33,1.56h1.66v1.01c.47-.34,.83-.65,1.07-.94,.24-.29,.42-.58,.55-.87,.12-.29,.24-.67,.34-1.14h-1.36v-2.37h8.33l-.3,4.27c-.05,.61-.17,1.07-.33,1.4-.17,.32-.43,.55-.79,.69-.36,.14-.85,.2-1.49,.2h-1.9l-.38-1.88c-.45,.85-1.18,1.68-2.21,2.49l1.82,.47-.14,.77h.77v-1.09h2.49v1.09h2.51v2.47h-2.51v1.7h2.77Zm-12.6-9.67h-1.82c-.24,.46-.53,.93-.87,1.42h1.52l1.17-1.42Zm-2.67,5.1h.87v-1.52h-.87v1.52Zm0,3.64h.87v-1.52h-.87v1.52Zm3.9-5.16h-.97v1.52h.97v-1.52Zm0,5.16v-1.52h-.97v1.52h.97Zm-.51,4.23c.23,0,.37-.02,.42-.07,.05-.05,.08-.16,.08-.33v-1.68h-.97v2.08h.46Zm2.63-10.19v5.52c.55-1.21,.98-2.53,1.27-3.94l-1.27-1.58Zm4.47-3.3c-.01,.14-.05,.34-.1,.61-.07,.4-.2,.82-.38,1.25h1.17c.39,0,.64-.05,.76-.14,.11-.09,.19-.3,.21-.61l.06-.4,.08-.71h-1.8Z"/>
          </g>
          <path class="cls-60" d="M70.82,14.95c23.44,0,42.44,19,42.44,42.44s-19,42.44-42.44,42.44S28.37,80.83,28.37,57.39,47.38,14.95,70.82,14.95m0-4.92c-26.11,0-47.36,21.25-47.36,47.36s21.25,47.36,47.36,47.36,47.36-21.25,47.36-47.36S96.93,10.03,70.82,10.03h0Z"/>
          <path class="cls-91" d="M70.82,17.25c22.14,0,40.14,18.01,40.14,40.14s-18.01,40.14-40.14,40.14S30.67,79.53,30.67,57.39,48.68,17.25,70.82,17.25m0-3c-23.83,0-43.14,19.32-43.14,43.14s19.32,43.14,43.14,43.14,43.14-19.32,43.14-43.14S94.64,14.25,70.82,14.25h0Z"/>
          <g>
            <path class="cls-68" d="M18.39,33.89l.78,.44-1.06,1.9-8.26-4.63,1.06-1.9,1.17,.66,1.63-2.9-1.7,.88c-.09-.3-.27-.76-.52-1.39l-2.57,4.59-1.87-1.05,2.32-4.15c-.79,.52-1.59,.97-2.4,1.33l.71-2.54c.49-.22,1.02-.51,1.6-.88,.58-.37,1.14-.8,1.7-1.27l-1.4-.78,1.02-1.83,1.6,.9,.54-.96-1.51-.54,.83-1.9c.79,.31,1.67,.62,2.64,.93,.97,.31,1.82,.55,2.56,.72l-.67,1.92c-.52-.11-1.1-.26-1.76-.46l-.75,1.34,1.52,.85-1.02,1.83-1.52-.85-.36,.64c.39,.79,.75,1.64,1.09,2.54l3.99-7.12,6.31,3.53-5.68,10.15Zm-1.09-2.67l-2.42-1.35-.88,1.56,2.42,1.35,.88-1.56Zm-1.41-3.14l2.41,1.35,.89-1.59-2.42-1.35-.89,1.59Zm4.31-2.03l.9-1.61-2.41-1.35-.9,1.61,2.41,1.35Z"/>
            <path class="cls-68" d="M9.84,48.23c2.23,.97,3.73,1.67,4.51,2.12l-1.07,1.62c-.68-.37-1.52-.8-2.52-1.29-1-.49-1.84-.89-2.52-1.19l.87-1.44-2.86-.68,.33,1.72c-.7,.04-1.63,.05-2.8,.03-1.17-.02-2.16-.07-2.99-.15l-.19-1.89c1.4,.15,3.13,.21,5.2,.18l-3.78-.9,1.67-7.05,11.46,2.71-1.67,7.05-3.63-.86Zm-5.71-13.45l12.63,2.99-.91,3.85-12.63-2.99,.91-3.85Zm7.68,11.72l-7.13-1.69-.14,.61,7.13,1.69,.14-.61Zm-6.86-2.83l7.13,1.69,.14-.61-7.13-1.69-.14,.61Zm7.54-.06l.14-.61-7.13-1.69-.14,.61,7.13,1.69Zm-5.15-6.51l-1.48-.35-.23,.95,1.48,.35,.22-.95Zm3.26,1.77l.22-.95-1.45-.34-.23,.95,1.45,.34Zm2.04,.48l1.46,.35,.23-.95-1.46-.35-.22,.95Z"/>
            <path class="cls-68" d="M5.82,57.38l-.04,1.7c0,.07,0,.13,0,.18l6.81-.3c0,.75-.03,1.88-.06,3.38-.04,1.51-.06,2.38-.08,2.63-.03,.69-.15,1.22-.36,1.6-.21,.38-.53,.66-.96,.84-.44,.17-1.04,.28-1.8,.31l-2.56,.11-.55-2.3,2.19-.1c.48-.02,.84-.07,1.07-.15s.39-.21,.48-.38c.09-.17,.14-.44,.16-.79,0-.34,.02-.81,.05-1.4,.03-.59,.05-1.05,.07-1.4l-4.55,.2c-.17,1.36-.54,2.58-1.09,3.64-.55,1.07-1.4,2.17-2.54,3.31l-1.82-1.74c.84-.81,1.48-1.56,1.91-2.26,.43-.7,.75-1.48,.94-2.32,.19-.85,.31-1.93,.34-3.24,.02-.56,.02-1.03,.02-1.41l-3.31,.15-.1-2.22,5.74-.26c-.22-.88-.36-1.38-.4-1.52l2.69-.42s.15,.47,.39,1.29l.15,.52,5.26-.23,.1,2.22-8.1,.36Z"/>
            <path class="cls-68" d="M4.78,74.95l.23,.68-2.08,.7-.78-2.32,5.05-1.7-.49-.55,2.07-1.13c.18,.2,.44,.49,.77,.89l4.99-1.68,.76,2.26-2.05,.69-.21-.62-8.26,2.78Zm1.02,2.53l-2.61,.88-.55-1.62,3.91-1.32c.09-.29,.18-.58,.26-.88l2.33-.7c-.04,.17-.12,.43-.23,.78l6.85-2.31,.55,1.62-2.14,.72c-.27,.68-.66,1.32-1.17,1.93,1.88-.18,3.1-.28,3.65-.28l-.15,1.81c-1.73,.03-3.53,.11-5.37,.24-1.41,1.09-3.45,2.28-6.13,3.56l-1.08-1.39c1.71-.76,3.05-1.41,4.02-1.94-.77,.07-1.69,.15-2.78,.26,.24-.47,.44-.93,.62-1.36Zm13.14,5.39c-1.29,.02-2.39,0-3.31-.07-.92-.06-1.78-.19-2.59-.38l.81,2.4-2.08,.7-.81-2.4c-.53,.64-1.14,1.28-1.85,1.91-.7,.64-1.55,1.33-2.53,2.08l-1.45-1.66c1.53-.93,2.75-1.83,3.65-2.7l-3.85,1.3-.56-1.65,5.7-1.92-.29-.85,2.08-.7,.29,.85,5.7-1.92,.56,1.65-3.73,1.26c1.22,.16,2.7,.17,4.43,.01l-.16,2.08Zm-10.74-6.19c-.04,.12-.08,.21-.11,.29-.04,.08-.07,.15-.09,.2,.17-.03,1.01-.14,2.52-.33,.48-.42,.84-.86,1.09-1.31l-3.41,1.15Z"/>
          </g>
        </g>
      </g>
    </g>
  </g>
</svg>