<?xml version="1.0" encoding="UTF-8"?>
<svg id="_圖層_2" data-name="圖層 2" xmlns="http://www.w3.org/2000/svg" xmlns:xlink="http://www.w3.org/1999/xlink" viewBox="0 0 205.86 141.64">
  <defs>
    <style>
      .cls-1 {
        fill: #c20d23;
      }

      .cls-2 {
        clip-path: url(#clippath);
      }

      .cls-3 {
        fill: none;
      }

      .cls-4 {
        fill: #f7cd1c;
      }
    </style>
    <clipPath id="clippath">
      <rect class="cls-3" y="0" width="205.86" height="141.64"/>
    </clipPath>
  </defs>
  <g id="_圖層_2-2" data-name="圖層 2">
    <g class="cls-2">
      <g>
        <rect class="cls-1" x="-2.32" y="15.47" width="275.83" height="61.88" transform="translate(48.09 -67.09) rotate(33.48)"/>
        <g>
          <path class="cls-4" d="M92.38,33.34l-1.99,2.66c-.47,.64-.89,1.08-1.26,1.32-.37,.24-.78,.32-1.24,.22-.46-.09-1.04-.38-1.75-.84l-2.26-1.5c-.85-.56-1.34-1.14-1.47-1.74-.14-.6,.08-1.33,.65-2.19l2.59-3.92-1.15-.76c-1.12,1.53-2.39,2.55-3.8,3.06-1.41,.51-3.05,.75-4.93,.72l-.94-4.1c1.19,.17,2.17,.22,2.95,.16-1.32-.54-2.84-1.16-4.56-1.85s-3.04-1.23-3.97-1.6l1.8-3.58c.28,.12,1.25,.52,2.92,1.2l2.96-4.47-1.98-1.31,2.17-3.28,1.98,1.31,2.38-3.6-2.1-1.39,2.14-3.23,7.22,4.77-2.14,3.23-1.94-1.28-2.38,3.6,1.94,1.28-2.17,3.28-1.94-1.28-2.52,3.81,2.53,.94-.94,1.77-.87,1.61c.59-.12,1.13-.32,1.62-.6s.99-.68,1.48-1.19l-1.41-.93,9.47-14.33,11.51,7.61-9.47,14.33-2.7-1.79-1.62,2.45c-.17,.26-.25,.47-.22,.62,.02,.15,.13,.28,.31,.4l.67,.44c.2,.13,.36,.18,.48,.15,.12-.03,.28-.19,.49-.47,.22-.3,.68-.98,1.38-2.04l2.05,2.32Zm-1.35-8.09l-5.24-3.46-.73,1.11,5.24,3.46,.73-1.11Zm-2.75-7.22l-.78,1.18,5.24,3.46,.78-1.18-5.24-3.46Zm6.95,.88l.75-1.13-5.24-3.46-.75,1.13,5.24,3.46Z"/>
          <path class="cls-4" d="M110.99,40.34l-3.23,4.89,6.92,4.58-2.3,3.48-20.19-13.35,2.3-3.48,2.68,1.77,6.77-10.24,3.69,2.44-6.77,10.24,3.21,2.12,8.22-12.43-8.51-5.63,2.32-3.51,18.48,12.22-2.32,3.51-6.27-4.15-2.7,4.08,5.51,3.65-2.29,3.46-5.51-3.65Z"/>
          <path class="cls-4" d="M136.79,63.11c.05,.83,.04,1.94-.02,3.34-.02,.8-.03,1.47-.03,2l-4.03-.67c.11-.83,.19-1.78,.24-2.84,.05-1.06,.06-2.05,.03-2.98l3.31,.56c-.43-.82-.24-2.13,.58-3.93l.78-1.48-2.09,1.01-.54-1.59c-1.13,.8-2.66,1.59-4.59,2.37l-1.12-2.93-.79,1.1c-.87-.55-3.34-1.97-7.41-4.24l2.25,2.71c-.82,.56-1.75,1.14-2.8,1.73-1.05,.59-1.97,1.06-2.76,1.42l-2.34-3.54c1.02-.37,2.02-.77,3.03-1.21,1-.44,1.8-.87,2.4-1.27l-1.98-1.07,1.62-2.74,3.86,2.19,.72-1.08-2.86-1.89,1.42-2.15c-.16-.02-.4-.07-.71-.14l.32-2.44c1.43,.28,2.78,.46,4.06,.53l-2.54-1.68,1.65-2.49,3.64,2.41,.66-.99-3-1.98,1.63-2.47,3,1.98,.75-1.13,2.86,1.89-.75,1.13,2.81,1.86-1.63,2.47-2.81-1.86-.66,.99,3.28,2.17-1.65,2.49-2.1-1.39c.36,.59,.82,1.4,1.37,2.43l2.02-.55,.63,1.31c.54-.75,.99-1.4,1.36-1.95l-1.59-1.05,2.06-3.12,1.59,1.05,1.58-2.34,2.68,1.77c-.28,.39-.81,1.17-1.58,2.34l3.6,2.38-3.43,5.19-2.21,3.34c-.41,.62-.67,1.06-.8,1.34-.13,.28-.16,.44-.08,.5,.05,.03,.17-.02,.38-.17,.2-.14,.45-.38,.74-.72,.59-.69,1.08-1.31,1.46-1.85l1.06,2.06c-.4,.47-.92,1.05-1.56,1.75-.64,.7-1.1,1.18-1.38,1.44-.73,.67-1.36,1.04-1.9,1.12-.54,.08-1.04-.04-1.5-.34l-.16-.11Zm-9.53-5.74c-.14,.64-.35,1.47-.65,2.49-.3,1.02-.57,1.91-.81,2.68l-3.63-1.67c.17-.42,.46-1.29,.89-2.6,.3-.99,.57-1.8,.8-2.42l3.4,1.52Zm-.61-9.75l.88-1.34,2.47,1.63c-.18-.36-.36-.65-.53-.85l1.5-.76-2.17-1.43-.03,1.4c-.16,0-.73,0-1.7-.03-.98-.03-1.92-.1-2.84-.22l2.42,1.6Zm3.14,7.68c.93-.33,1.71-.66,2.35-.98,.64-.32,1.22-.67,1.74-1.05-.29-.83-.53-1.48-.71-1.93l-1.03,.61-.36-.57-1.39,2.1-2.63-1.74-.6,.9,3.21,1.82-.59,.84Zm2.2,4.8c-.04,.66-.16,1.44-.37,2.34-.21,.9-.33,1.43-.37,1.58-.08,.26-.19,.68-.32,1.28l-3.66-1.33,.33-1.24c.52-1.93,.83-3.18,.93-3.76l3.46,1.13Zm-.5-9.28l-.43-.81c-.47-.95-.78-1.57-.93-1.84l-.81,1.22,2.17,1.43Zm7.15,4.53c.46-.8,.98-1.64,1.56-2.51l1.27-1.92-.97-.64c-1.14,1.66-1.99,2.82-2.54,3.49l.68,1.58Z"/>
          <path class="cls-4" d="M147.53,70.68l-.63,.95,2.65,1.16-.98,1.58-.9,1.46c-.35-.21-1.78-.92-4.3-2.12-2.52-1.2-3.96-1.87-4.32-1.99l1.43-3.07,3.57,1.67,.76-1.15-2.23-.58c.78-1.94,1.29-3.47,1.54-4.58l2.21,.57c-.69,2.11-1.07,3.29-1.15,3.55l-.32,.98,2.81-4.25-2.7-1.78,1.8-2.72,2.7,1.78,.72-1.08-1.54-1.02,.96-1.45c-.65,.21-1.29,.4-1.94,.58l1.6-3.78c1.08-.33,2.22-.71,3.42-1.17,1.2-.45,2.19-.9,2.95-1.35l2.17,1.43,.17,1.04c.46,2.91,.72,4.88,.77,5.91l-3.05,1.4c.02-.16,0-.46-.04-.89l-1.34,2.03-1.55-1.02-.72,1.08,2.56,1.69-1.8,2.72-2.56-1.69-2.68,4.06c1.58-1.29,2.74-2.31,3.47-3.04l1.31,1.63c-.92,.85-2.11,1.88-3.56,3.08l-1.26-1.6Zm21.45-9.82l-3.81,5.77,4.08,2.7-8.51,12.87c-.67,1.01-1.35,1.61-2.05,1.79-.69,.18-1.5-.03-2.43-.64l-2.93-1.94,1.42-3.5,2.11,1.43c.33,.24,.6,.33,.81,.29,.21-.05,.42-.23,.62-.54l.31-.46-5.08-3.36-2.93,4.43-3.07-2.03,10.45-15.8,3.95,2.61,3.81-5.77,3.25,2.15Zm-17.57-2.86l4.15,2.75c-.1-.95-.28-2.36-.52-4.22-.91,.48-2.12,.97-3.63,1.48Zm4.85,13.12l-.85,1.29,5.08,3.36,.85-1.29-5.08-3.36Zm1.89-2.86l5.08,3.36,.82-1.25-5.08-3.36-.82,1.25Zm1.84-6.04c-.12-1.32-.35-2.9-.67-4.75l3.35-.4c.25,1.03,.49,2.59,.71,4.68l-3.4,.47Zm12.16,4.43c-1.64,.35-3.14,.61-4.49,.78l-.55-3.38c.8-.11,1.56-.23,2.28-.35,.72-.12,1.44-.27,2.15-.44l.61,3.39Z"/>
          <path class="cls-4" d="M188.45,74.39l-2.32,3.51,7.66,5.06-7.58,11.47-7.66-5.06-4.23,6.39-3.74-2.47,4.23-6.39-7.61-5.03,7.58-11.46,7.61,5.03,2.32-3.51,3.74,2.47Zm-12.47,1.7l-3.1,4.68,4.15,2.75,3.1-4.68-4.15-2.75Zm7.89,5.22l-3.1,4.68,4.2,2.78,3.1-4.68-4.2-2.78Z"/>
        </g>
        <g>
          <path class="cls-4" d="M122.31,17.89l2.11-3.19,1.82,1.2-5.5,8.31-1.82-1.2,2.27-3.44-3.36-2.22-2.27,3.44-1.81-1.19,5.5-8.31,1.81,1.2-2.11,3.19,3.36,2.22Z"/>
          <path class="cls-4" d="M124.01,25.83c-.34-.73-.46-1.52-.34-2.37,.12-.85,.46-1.71,1.04-2.58s1.24-1.53,1.97-1.98,1.51-.65,2.32-.62c.81,.03,1.6,.3,2.38,.81,.78,.51,1.34,1.14,1.67,1.87,.34,.73,.45,1.52,.33,2.37s-.47,1.72-1.04,2.59-1.24,1.53-1.97,1.97c-.74,.44-1.51,.64-2.31,.62-.8-.03-1.59-.3-2.37-.81-.78-.51-1.34-1.14-1.68-1.87Zm4.7,.42c.66-.23,1.25-.75,1.78-1.55s.77-1.55,.73-2.25c-.04-.7-.36-1.26-.97-1.66-.61-.4-1.24-.48-1.91-.25-.67,.24-1.26,.75-1.79,1.55-.53,.8-.77,1.55-.72,2.25,.04,.7,.37,1.25,.98,1.65,.61,.4,1.24,.48,1.9,.25Z"/>
          <path class="cls-4" d="M134.2,33.12l-1.81-1.19,4.38-6.62-2.27-1.5,1.12-1.69,6.34,4.19-1.12,1.69-2.26-1.5-4.38,6.62Z"/>
          <path class="cls-4" d="M142.41,37.94c-.32-.75-.41-1.53-.28-2.33l2.05,.3c-.1,.47-.07,.9,.1,1.28s.45,.71,.84,.97c.41,.27,.78,.41,1.12,.42,.34,0,.59-.11,.75-.35,.11-.17,.16-.34,.15-.52-.01-.17-.1-.38-.26-.62-.16-.24-.41-.56-.75-.96-.45-.52-.8-.98-1.06-1.38-.26-.4-.42-.86-.48-1.38-.06-.52,.09-1.05,.46-1.6,.32-.48,.74-.83,1.27-1.03,.53-.21,1.1-.26,1.71-.17,.62,.09,1.21,.33,1.78,.71,1.44,.95,2.04,2.29,1.81,4.02l-2.05-.27c.07-.49,.03-.9-.12-1.24-.15-.34-.4-.63-.75-.86-.34-.23-.68-.34-1.02-.35-.33,0-.58,.1-.72,.33-.12,.19-.17,.37-.15,.54,.02,.18,.11,.38,.27,.62s.41,.55,.76,.95c.44,.51,.8,.96,1.06,1.36s.42,.85,.48,1.37c.05,.52-.1,1.05-.46,1.6-.34,.52-.78,.88-1.31,1.09-.53,.21-1.1,.26-1.72,.15-.62-.11-1.24-.37-1.86-.78-.76-.5-1.29-1.12-1.61-1.87Z"/>
          <path class="cls-4" d="M155.84,47.42l-1.92-1.27,.57-2.19-2.9-1.92-1.79,1.38-1.91-1.26,8.54-6.3,1.85,1.22-2.44,10.33Zm-.08-8.58l-2.47,1.9,1.75,1.15,.79-3.01-.06-.04Z"/>
          <path class="cls-4" d="M164.01,40.88l-4.41,6.67,3.76,2.48-1.08,1.64-5.57-3.68,5.5-8.31,1.81,1.2Z"/>
          <path class="cls-4" d="M167.39,50.18l-1.16,1.76,3.77,2.49-1.08,1.64-5.58-3.69,5.5-8.31,5.45,3.61-1.08,1.64-3.64-2.41-1.08,1.63,3.45,2.28-1.08,1.64-3.45-2.28Z"/>
        </g>
      </g>
    </g>
  </g>
</svg>