<?xml version="1.0" encoding="UTF-8"?>
<svg xmlns="http://www.w3.org/2000/svg" xmlns:xlink="http://www.w3.org/1999/xlink" viewBox="0 0 126.68 129.43">
  <defs>
    <style>
      .cls-1 {
        opacity: .61;
      }

      .cls-1, .cls-2, .cls-3, .cls-4, .cls-5 {
        fill: #2c2c2d;
      }

      .cls-6 {
        fill: #323233;
        opacity: .03;
      }

      .cls-7 {
        fill: #5f5f62;
        opacity: .65;
      }

      .cls-8 {
        fill: #59595b;
        opacity: .56;
      }

      .cls-9 {
        opacity: .82;
      }

      .cls-9, .cls-10, .cls-11, .cls-12, .cls-13 {
        fill: #2e2e2f;
      }

      .cls-14 {
        opacity: .16;
      }

      .cls-14, .cls-15, .cls-16, .cls-17, .cls-18 {
        fill: #282829;
      }

      .cls-19 {
        fill: #646466;
        opacity: .71;
      }

      .cls-20 {
        opacity: .51;
      }

      .cls-20, .cls-21, .cls-22, .cls-23, .cls-24, .cls-25 {
        fill: #2b2b2c;
      }

      .cls-26 {
        opacity: .67;
      }

      .cls-26, .cls-27, .cls-28, .cls-29, .cls-30 {
        fill: #2d2d2e;
      }

      .cls-31 {
        fill: #757578;
        opacity: .94;
      }

      .cls-2 {
        opacity: .57;
      }

      .cls-32, .cls-33, .cls-34, .cls-35 {
        fill: #262627;
      }

      .cls-36 {
        fill: #616164;
        opacity: .68;
      }

      .cls-15 {
        opacity: .22;
      }

      .cls-37 {
        opacity: .08;
      }

      .cls-37, .cls-38, .cls-39, .cls-40, .cls-41 {
        fill: #272728;
      }

      .cls-42 {
        opacity: .96;
      }

      .cls-42, .cls-43, .cls-44, .cls-45 {
        fill: #303031;
      }

      .cls-46 {
        fill: #434345;
        opacity: .26;
      }

      .cls-47 {
        fill: #4a4a4b;
        opacity: .35;
      }

      .cls-48 {
        fill: #343435;
        opacity: .06;
      }

      .cls-49 {
        fill: #414143;
        opacity: .24;
      }

      .cls-50 {
        isolation: isolate;
      }

      .cls-38 {
        opacity: .1;
      }

      .cls-21 {
        opacity: .53;
      }

      .cls-51 {
        fill: #4e4e50;
        opacity: .41;
      }

      .cls-52 {
        fill: #3d3d3e;
        opacity: .18;
      }

      .cls-53 {
        fill: #3b3b3c;
        opacity: .15;
      }

      .cls-54 {
        fill: #484849;
        opacity: .32;
      }

      .cls-16 {
        opacity: .24;
      }

      .cls-17 {
        opacity: .18;
      }

      .cls-55 {
        fill: #3f3f40;
        opacity: .21;
      }

      .cls-27 {
        opacity: .71;
      }

      .cls-56 {
        opacity: .27;
      }

      .cls-56, .cls-57, .cls-58, .cls-59, .cls-60 {
        fill: #29292a;
      }

      .cls-61 {
        opacity: .37;
      }

      .cls-61, .cls-62, .cls-63, .cls-64, .cls-65 {
        fill: #2a2a2b;
      }

      .cls-66 {
        opacity: .9;
      }

      .cls-66, .cls-67, .cls-68, .cls-69, .cls-70 {
        fill: #2f2f30;
      }

      .cls-71 {
        fill: #575759;
        opacity: .53;
      }

      .cls-62 {
        opacity: .35;
      }

      .cls-63 {
        opacity: .43;
      }

      .cls-72 {
        fill: #5b5b5d;
        opacity: .59;
      }

      .cls-73 {
        filter: url(#drop-shadow-1);
      }

      .cls-74 {
        fill: #c20d23;
      }

      .cls-67 {
        opacity: .92;
      }

      .cls-28 {
        opacity: .69;
      }

      .cls-75 {
        fill: #737375;
        opacity: .91;
      }

      .cls-76 {
        fill: #525254;
        opacity: .47;
      }

      .cls-33 {
        opacity: .02;
      }

      .cls-22 {
        opacity: .45;
      }

      .cls-77 {
        fill: #6e6e71;
        opacity: .85;
      }

      .cls-78 {
        fill: #363638;
        opacity: .09;
      }

      .cls-10 {
        opacity: .8;
      }

      .cls-39 {
        opacity: .14;
      }

      .cls-79 {
        fill: #6a6a6d;
        opacity: .79;
      }

      .cls-40 {
        opacity: .12;
      }

      .cls-11 {
        opacity: .78;
      }

      .cls-80 {
        fill: #79797c;
      }

      .cls-64 {
        opacity: .39;
      }

      .cls-29 {
        opacity: .73;
      }

      .cls-81 {
        fill: #707073;
        opacity: .88;
      }

      .cls-82 {
        fill: #fff000;
      }

      .cls-34 {
        opacity: .04;
      }

      .cls-83 {
        fill: #555557;
        opacity: .5;
      }

      .cls-84 {
        fill: #6c6c6f;
        opacity: .82;
      }

      .cls-85 {
        fill: #666668;
        opacity: .74;
      }

      .cls-57 {
        opacity: .25;
      }

      .cls-58 {
        opacity: .31;
      }

      .cls-86 {
        fill: #4c4c4e;
        opacity: .38;
      }

      .cls-3 {
        opacity: .65;
      }

      .cls-23 {
        opacity: .49;
      }

      .cls-18 {
        opacity: .2;
      }

      .cls-87 {
        fill: #39393a;
        opacity: .12;
      }

      .cls-30 {
        opacity: .75;
      }

      .cls-88 {
        fill: #77777a;
        opacity: .97;
      }

      .cls-65 {
        opacity: .41;
      }

      .cls-12 {
        opacity: .76;
      }

      .cls-44 {
        opacity: .98;
      }

      .cls-89 {
        opacity: .65;
      }

      .cls-89, .cls-90 {
        mix-blend-mode: multiply;
      }

      .cls-24 {
        opacity: .47;
      }

      .cls-68 {
        opacity: .88;
      }

      .cls-25 {
        opacity: .55;
      }

      .cls-91 {
        fill: #68686a;
        opacity: .76;
      }

      .cls-69 {
        opacity: .86;
      }

      .cls-92 {
        fill: #5d5d5f;
        opacity: .62;
      }

      .cls-41 {
        opacity: .06;
      }

      .cls-93 {
        fill: #454547;
        opacity: .29;
      }

      .cls-94 {
        fill: #f7cd1c;
      }

      .cls-4 {
        opacity: .59;
      }

      .cls-35, .cls-45 {
        opacity: 0;
      }

      .cls-59 {
        opacity: .33;
      }

      .cls-5 {
        opacity: .63;
      }

      .cls-70 {
        opacity: .94;
      }

      .cls-60 {
        opacity: .29;
      }

      .cls-95 {
        fill: #505052;
        opacity: .44;
      }

      .cls-13 {
        opacity: .84;
      }
    </style>
    <filter id="drop-shadow-1" filterUnits="userSpaceOnUse">
      <feOffset dx="0" dy="0"/>
      <feGaussianBlur result="blur" stdDeviation="5"/>
      <feFlood flood-color="#000" flood-opacity=".75"/>
      <feComposite in2="blur" operator="in"/>
      <feComposite in="SourceGraphic"/>
    </filter>
  </defs>
  <g class="cls-50">
    <g id="_圖層_2" data-name="圖層 2">
      <g id="_圖層_2-2" data-name="圖層 2">
        <g>
          <g>
            <g class="cls-90">
              <circle class="cls-35" cx="63.26" cy="66.01" r="52.14"/>
              <circle class="cls-33" cx="63.36" cy="66.1" r="52.02"/>
              <circle class="cls-34" cx="63.45" cy="66.2" r="51.91"/>
              <circle class="cls-41" cx="63.54" cy="66.29" r="51.8"/>
              <circle class="cls-37" cx="63.64" cy="66.38" r="51.69"/>
              <circle class="cls-38" cx="63.73" cy="66.48" r="51.58"/>
              <circle class="cls-40" cx="63.82" cy="66.57" r="51.47"/>
              <circle class="cls-39" cx="63.92" cy="66.66" r="51.36"/>
              <circle class="cls-14" cx="64.01" cy="66.75" r="51.24"/>
              <circle class="cls-17" cx="64.1" cy="66.85" r="51.13"/>
              <circle class="cls-18" cx="64.19" cy="66.94" r="51.02"/>
              <circle class="cls-15" cx="64.29" cy="67.03" r="50.91"/>
              <circle class="cls-16" cx="64.38" cy="67.13" r="50.8"/>
              <circle class="cls-57" cx="64.47" cy="67.22" r="50.69"/>
              <circle class="cls-56" cx="64.57" cy="67.31" r="50.58"/>
              <circle class="cls-60" cx="64.66" cy="67.41" r="50.46"/>
              <circle class="cls-58" cx="64.75" cy="67.5" r="50.35"/>
              <circle class="cls-59" cx="64.84" cy="67.59" r="50.24"/>
              <circle class="cls-62" cx="64.94" cy="67.68" r="50.13"/>
              <circle class="cls-61" cx="65.03" cy="67.78" r="50.02"/>
              <circle class="cls-64" cx="65.12" cy="67.87" r="49.91"/>
              <circle class="cls-65" cx="65.22" cy="67.96" r="49.8"/>
              <circle class="cls-63" cx="65.31" cy="68.06" r="49.68"/>
              <circle class="cls-22" cx="65.4" cy="68.15" r="49.57"/>
              <circle class="cls-24" cx="65.5" cy="68.24" r="49.46" transform="translate(-12.36 121.96) rotate(-80.78)"/>
              <circle class="cls-23" cx="65.59" cy="68.33" r="49.35" transform="translate(-12.37 122.13) rotate(-80.78)"/>
              <circle class="cls-20" cx="65.68" cy="68.43" r="49.24" transform="translate(-12.38 122.3) rotate(-80.78)"/>
              <circle class="cls-21" cx="65.77" cy="68.52" r="49.13" transform="translate(-12.4 122.47) rotate(-80.78)"/>
              <circle class="cls-25" cx="65.87" cy="68.61" r="49.02" transform="translate(-12.41 122.64) rotate(-80.78)"/>
              <circle class="cls-2" cx="65.96" cy="68.71" r="48.9" transform="translate(-12.43 122.81) rotate(-80.78)"/>
              <circle class="cls-4" cx="66.05" cy="68.8" r="48.79" transform="translate(-12.44 122.98) rotate(-80.78)"/>
              <circle class="cls-1" cx="66.15" cy="68.89" r="48.68" transform="translate(-12.45 123.15) rotate(-80.78)"/>
              <circle class="cls-5" cx="66.24" cy="68.99" r="48.57" transform="translate(-12.47 123.32) rotate(-80.78)"/>
              <circle class="cls-3" cx="66.33" cy="69.08" r="48.46" transform="translate(-12.48 123.49) rotate(-80.78)"/>
              <circle class="cls-26" cx="66.42" cy="69.17" r="48.35" transform="translate(-12.49 123.66) rotate(-80.78)"/>
              <circle class="cls-28" cx="66.52" cy="69.26" r="48.24" transform="translate(-12.51 123.83) rotate(-80.78)"/>
              <circle class="cls-27" cx="66.61" cy="69.36" r="48.12" transform="translate(-12.52 124) rotate(-80.78)"/>
              <circle class="cls-29" cx="66.7" cy="69.45" r="48.01" transform="translate(-12.53 124.17) rotate(-80.78)"/>
              <circle class="cls-30" cx="66.8" cy="69.54" r="47.9" transform="translate(-12.55 124.34) rotate(-80.78)"/>
              <circle class="cls-12" cx="66.89" cy="69.64" r="47.79" transform="translate(-12.56 124.51) rotate(-80.78)"/>
              <circle class="cls-11" cx="66.98" cy="69.73" r="47.68" transform="translate(-12.58 124.68) rotate(-80.78)"/>
              <circle class="cls-10" cx="67.08" cy="69.82" r="47.57" transform="translate(-12.59 124.85) rotate(-80.78)"/>
              <circle class="cls-9" cx="67.17" cy="69.91" r="47.46" transform="translate(-12.6 125.02) rotate(-80.78)"/>
              <circle class="cls-13" cx="67.26" cy="70.01" r="47.34" transform="translate(-12.62 125.19) rotate(-80.78)"/>
              <circle class="cls-69" cx="67.35" cy="70.1" r="47.23" transform="translate(-12.63 125.36) rotate(-80.78)"/>
              <circle class="cls-68" cx="67.45" cy="70.19" r="47.12" transform="translate(-12.64 125.53) rotate(-80.78)"/>
              <circle class="cls-66" cx="67.54" cy="70.29" r="47.01" transform="translate(-12.66 125.7) rotate(-80.78)"/>
              <circle class="cls-67" cx="67.63" cy="70.38" r="46.9" transform="translate(-12.67 125.87) rotate(-80.78)"/>
              <circle class="cls-70" cx="67.73" cy="70.47" r="46.79" transform="translate(-12.69 126.03) rotate(-80.78)"/>
              <circle class="cls-42" cx="67.82" cy="70.57" r="46.68" transform="translate(-12.7 126.2) rotate(-80.78)"/>
              <circle class="cls-44" cx="67.91" cy="70.66" r="46.56" transform="translate(-12.71 126.37) rotate(-80.78)"/>
              <circle class="cls-43" cx="68" cy="70.75" r="46.45" transform="translate(-12.73 126.54) rotate(-80.78)"/>
            </g>
            <g class="cls-89">
              <circle class="cls-45" cx="74.54" cy="77.29" r="52.14"/>
              <circle class="cls-6" cx="74.4" cy="77.15" r="51.94"/>
              <circle class="cls-48" cx="74.25" cy="77" r="51.75"/>
              <circle class="cls-78" cx="74.11" cy="76.85" r="51.55"/>
              <circle class="cls-87" cx="73.96" cy="76.71" r="51.36"/>
              <circle class="cls-53" cx="73.81" cy="76.56" r="51.16"/>
              <circle class="cls-52" cx="73.67" cy="76.41" r="50.97"/>
              <circle class="cls-55" cx="73.52" cy="76.27" r="50.78"/>
              <circle class="cls-49" cx="73.37" cy="76.12" r="50.58"/>
              <circle class="cls-46" cx="73.23" cy="75.97" r="50.39"/>
              <circle class="cls-93" cx="73.08" cy="75.83" r="50.19"/>
              <circle class="cls-54" cx="72.93" cy="75.68" r="50"/>
              <circle class="cls-47" cx="72.79" cy="75.54" r="49.8"/>
              <circle class="cls-86" cx="72.64" cy="75.39" r="49.61"/>
              <circle class="cls-51" cx="72.5" cy="75.24" r="49.41"/>
              <circle class="cls-95" cx="72.35" cy="75.1" r="49.22"/>
              <circle class="cls-76" cx="72.2" cy="74.95" r="49.03"/>
              <circle class="cls-83" cx="72.06" cy="74.8" r="48.83"/>
              <circle class="cls-71" cx="71.91" cy="74.66" r="48.64"/>
              <circle class="cls-8" cx="71.76" cy="74.51" r="48.44"/>
              <circle class="cls-72" cx="71.62" cy="74.36" r="48.25"/>
              <circle class="cls-92" cx="71.47" cy="74.22" r="48.05"/>
              <circle class="cls-7" cx="71.32" cy="74.07" r="47.86"/>
              <circle class="cls-36" cx="71.18" cy="73.93" r="47.67"/>
              <circle class="cls-19" cx="71.03" cy="73.78" r="47.47"/>
              <circle class="cls-85" cx="70.89" cy="73.63" r="47.28"/>
              <circle class="cls-91" cx="70.74" cy="73.49" r="47.08"/>
              <circle class="cls-79" cx="70.59" cy="73.34" r="46.89"/>
              <circle class="cls-84" cx="70.45" cy="73.19" r="46.69"/>
              <circle class="cls-77" cx="70.3" cy="73.05" r="46.5"/>
              <circle class="cls-81" cx="70.15" cy="72.9" r="46.31"/>
              <circle class="cls-75" cx="70.01" cy="72.75" r="46.11"/>
              <circle class="cls-31" cx="69.86" cy="72.61" r="45.92"/>
              <circle class="cls-88" cx="69.71" cy="72.46" r="45.72"/>
              <circle class="cls-80" cx="69.57" cy="72.32" r="45.53"/>
            </g>
            <circle class="cls-32" cx="68.53" cy="71.27" r="47.4"/>
          </g>
          <g>
            <path class="cls-82" d="M67.67,66.2v2.83h-17.94v-2.83h9.33c.54-1.29,1.13-2.83,1.76-4.62,.63-1.79,1.14-3.29,1.52-4.5l3.07,1.19c-.47,1.29-1.37,3.61-2.69,6.96l-.38,.97h5.34Zm-.49-12.26v2.83h-16.83v-2.83h7.1l-.44-1.46c-.11-.3-.23-.68-.36-1.15l3.16-.51c.43,1.33,.74,2.37,.93,3.11h6.45Zm-12.32,11.79c-.49-1.62-1.38-4.07-2.69-7.36l2.65-1.01c.53,1.39,1.47,3.79,2.83,7.2l-2.79,1.17Z"/>
            <path class="cls-82" d="M77.42,62.29c.86,1.59,1.81,3.41,2.85,5.46l-2.29,1.23c-.47-1.01-.81-1.72-1.01-2.12l-5.12,2.25-1.38-2.29c.27-.2,.44-.4,.52-.61,.07-.2,.11-.47,.11-.79v-13.9h8.27v10.5h-5.77v3.4l2.18-.95-.61-1.17,2.22-1.01Zm-.59-6.68v-1.62h-3.22v1.62h3.22Zm-3.22,2.37v1.6h3.22v-1.6h-3.22Zm6.84-5.97h7.34v12.28c0,.97-.21,1.66-.64,2.05-.42,.4-1.1,.6-2.03,.6h-1.46l-.53-2.77h1.27c.32,0,.53-.06,.61-.19s.12-.37,.12-.72v-8.45h-2.08v14.95h-2.61v-17.74Z"/>
            <path class="cls-82" d="M66.2,87.2h-3.16v2.61c0,.66-.05,1.15-.15,1.47-.1,.32-.31,.55-.62,.69s-.8,.21-1.46,.21h-1.66l-.42-2.31c-.54,.55-1.23,1.19-2.08,1.9l-.87-1.15v.08h-3.3v.95h-2.31v-17.31h5.6v6.86c.61-.35,1.13-.71,1.58-1.09-.2-.23-.5-.54-.89-.93l-.47-.49,1.29-1.34c.55,.55,1,1.02,1.36,1.4,.34-.46,.63-1,.89-1.64h-3.26v-2.22h3.86c.11-.57,.18-1.04,.22-1.42l2.51,.02-.24,1.4h4.55v2.22h-3.52c.36,.59,.74,1.11,1.13,1.54l1.36-1.33,1.29,1.44c-.35,.35-.75,.74-1.21,1.15,.53,.38,1.11,.72,1.76,1.03l-.77,2.47c-.42-.22-.76-.4-1.03-.57v4.37Zm-12.54-8.23v-2.06h-1.17v2.06h1.17Zm0,4.61v-2.12h-1.17v2.12h1.17Zm-1.17,2.45v2.2h1.17v-2.2h-1.17Zm8.09,1.17h-3.34v-3.98l-.77,.57-.69-1.29v7.24c.8-.65,1.64-1.48,2.53-2.51l1.56,1.36c-.2,.26-.51,.61-.91,1.07h1.09c.2,0,.34-.05,.41-.14,.07-.09,.11-.3,.11-.61v-1.7Zm3.36-5.26h-4.41v.83h4.41v-.83Zm-4.41,2.55v.83h4.41v-.83h-4.41Zm3.54-4.47c-.47-.58-.93-1.28-1.38-2.1-.35,.78-.75,1.48-1.19,2.1h2.57Zm1.72,7.18c.49,.42,.94,.81,1.38,1.18,.43,.37,.81,.7,1.13,.98,.2,.2,.4,.38,.61,.55l-1.62,1.94-1.38-1.27-1.62-1.5,1.5-1.88Z"/>
            <path class="cls-82" d="M88.53,86.61v2.43h-2.77v3.18h-2.49v-3.18h-3.62v-2.43h3.62v-1.7h-1.5c-.11,.32-.3,.8-.57,1.42l-1.92-.73v4.63c0,.73-.14,1.23-.42,1.52-.28,.28-.77,.42-1.46,.42h-1.54l-.2-1.09h-1.54v-3.26h-.97c-.07,.92-.19,1.72-.36,2.42-.17,.69-.42,1.39-.75,2.09l-1.98-1.48c.27-.73,.47-1.37,.6-1.93,.13-.56,.22-1.23,.27-2,.05-.78,.08-1.85,.08-3.23v-3.76l-.95-1.46c.54-.62,1.05-1.33,1.53-2.14s.97-1.75,1.49-2.83l2.51,.42c-.05,.15-.11,.29-.17,.41-.06,.13-.11,.24-.15,.33h3.7v2.12l-1.33,1.56h1.66v1.01c.47-.34,.83-.65,1.07-.94,.24-.29,.42-.58,.55-.87,.12-.29,.24-.67,.34-1.14h-1.36v-2.37h8.33l-.3,4.27c-.05,.61-.17,1.07-.33,1.4-.17,.32-.43,.55-.79,.69-.36,.14-.85,.2-1.49,.2h-1.9l-.38-1.88c-.45,.85-1.18,1.68-2.21,2.49l1.82,.47-.14,.77h.77v-1.09h2.49v1.09h2.51v2.47h-2.51v1.7h2.77Zm-12.6-9.67h-1.82c-.24,.46-.53,.93-.87,1.42h1.52l1.17-1.42Zm-2.67,5.1h.87v-1.52h-.87v1.52Zm0,3.64h.87v-1.52h-.87v1.52Zm3.9-5.16h-.97v1.52h.97v-1.52Zm0,5.16v-1.52h-.97v1.52h.97Zm-.51,4.23c.23,0,.37-.02,.42-.07,.05-.05,.08-.16,.08-.33v-1.68h-.97v2.08h.46Zm2.63-10.19v5.52c.55-1.21,.98-2.53,1.27-3.94l-1.27-1.58Zm4.47-3.3c-.01,.14-.05,.34-.1,.61-.07,.4-.2,.82-.38,1.25h1.17c.39,0,.64-.05,.76-.14,.11-.09,.19-.3,.21-.61l.06-.4,.08-.71h-1.8Z"/>
          </g>
          <path class="cls-74" d="M68.52,28.83c23.44,0,42.44,19,42.44,42.44s-19,42.44-42.44,42.44-42.44-19-42.44-42.44S45.08,28.83,68.52,28.83m0-4.92c-26.11,0-47.36,21.25-47.36,47.36s21.25,47.36,47.36,47.36,47.36-21.25,47.36-47.36-21.25-47.36-47.36-47.36h0Z"/>
          <path class="cls-94" d="M68.52,31.13c22.14,0,40.14,18.01,40.14,40.14s-18.01,40.14-40.14,40.14-40.14-18.01-40.14-40.14S46.38,31.13,68.52,31.13m0-3c-23.83,0-43.14,19.32-43.14,43.14s19.32,43.14,43.14,43.14,43.14-19.32,43.14-43.14-19.32-43.14-43.14-43.14h0Z"/>
          <g class="cls-73">
            <path class="cls-82" d="M15.58,39.31l.39-.81,1.96,.94-4.09,8.54-1.96-.94,.58-1.21-3-1.44,.99,1.64c-.29,.11-.74,.31-1.36,.61l4.75,2.27-.93,1.93-4.29-2.05c.57,.76,1.07,1.53,1.49,2.31l-2.58-.54c-.25-.47-.57-.98-.99-1.54-.41-.55-.87-1.09-1.37-1.62l-.69,1.44-1.89-.9,.79-1.66-1-.48-.44,1.55-1.95-.7c.26-.81,.51-1.71,.76-2.7,.25-.99,.43-1.85,.55-2.6l1.96,.55c-.07,.52-.19,1.12-.34,1.79l1.39,.66,.75-1.57,1.89,.9-.75,1.57,.66,.32c.77-.44,1.59-.86,2.46-1.25l-7.36-3.52,3.12-6.52,10.49,5.02Zm-7.93-1.29l-1.66-.79-1.19,2.5,1.66,.79,1.19-2.5Zm2.3,4.17l1.2-2.5-1.65-.79-1.19,2.5,1.65,.79Zm3.04-1.61l-1.19,2.5,1.62,.77,1.19-2.5-1.62-.77Z"/>
            <path class="cls-82" d="M9.06,27.94l8.58-9.73,2.96,2.62-8.58,9.73-2.96-2.62Zm3.56-1.74l-1.01,1.14,.73,.65,1-1.14-.73-.64Zm10.99,3.04c1.9-1.51,3.23-2.5,4-2.98l.92,1.71c-.65,.43-1.42,.96-2.32,1.61-.9,.65-1.65,1.2-2.24,1.66l-.86-1.44-1.95,2.21,1.68,.52c-.29,.64-.72,1.47-1.29,2.48-.57,1.02-1.08,1.87-1.54,2.57l-1.76-.72c.79-1.17,1.66-2.67,2.61-4.5l-2.57,2.92-5.44-4.8,7.79-8.83,5.44,4.8-2.47,2.79Zm-7.89-5.08l-.73-.65-.98,1.12,.73,.65,.98-1.12Zm5.07,.57l-.47-.41-4.85,5.5,.47,.41,4.85-5.5Zm-3.68-2.14l1-1.13-.73-.65-1,1.13,.73,.65Zm.18,8.82l4.85-5.5-.47-.41-4.85,5.49,.47,.41Zm5.72-4.72l-4.85,5.49,.47,.41,4.85-5.5-.47-.41Z"/>
            <path class="cls-82" d="M29.62,13.64l.83,1.49c.04,.06,.07,.12,.08,.16l5.73-3.7c.37,.65,.92,1.64,1.65,2.95,.73,1.32,1.15,2.09,1.25,2.31,.32,.61,.48,1.13,.5,1.57,.01,.43-.12,.84-.41,1.21s-.75,.76-1.4,1.18l-2.15,1.39-1.63-1.71,1.84-1.19c.4-.26,.69-.48,.84-.67,.16-.19,.23-.38,.22-.57-.01-.19-.1-.45-.26-.76-.17-.3-.39-.71-.66-1.23s-.49-.93-.65-1.24l-3.83,2.47c.54,1.27,.84,2.5,.9,3.69,.06,1.2-.11,2.58-.53,4.14l-2.46-.59c.32-1.12,.49-2.09,.51-2.92,.02-.83-.1-1.65-.36-2.48-.26-.83-.71-1.82-1.34-2.97-.27-.49-.5-.9-.7-1.23l-2.78,1.8-1.21-1.87,4.83-3.11c-.63-.65-1-1.02-1.12-1.11l2.11-1.72s.37,.33,.99,.92l.39,.37,4.42-2.85,1.21,1.87-6.82,4.4Z"/>
            <path class="cls-82" d="M43.45,4.84l.21,.69-2.1,.64-.72-2.34,5.09-1.56-.47-.56,2.1-1.08c.17,.2,.42,.51,.75,.91l5.03-1.54,.7,2.28-2.07,.63-.19-.63-8.34,2.56Zm.95,2.55l-2.63,.81-.5-1.64,3.95-1.21c.1-.29,.2-.58,.28-.87l2.35-.64c-.05,.17-.13,.43-.25,.78l6.91-2.12,.5,1.64-2.16,.66c-.29,.67-.69,1.3-1.23,1.9,1.89-.13,3.11-.2,3.66-.19l-.2,1.8c-1.73-.01-3.53,.02-5.38,.1-1.44,1.06-3.51,2.19-6.22,3.4l-1.04-1.42c1.73-.71,3.09-1.32,4.07-1.83-.77,.05-1.7,.11-2.79,.19,.25-.47,.47-.91,.66-1.34Zm12.99,5.74c-1.29-.02-2.39-.07-3.31-.16-.92-.09-1.78-.24-2.58-.45l.74,2.42-2.09,.64-.74-2.42c-.54,.62-1.18,1.25-1.9,1.86-.72,.62-1.58,1.29-2.59,2.01l-1.41-1.69c1.56-.89,2.8-1.76,3.72-2.6l-3.88,1.19-.51-1.67,5.75-1.76-.26-.86,2.09-.64,.26,.86,5.75-1.77,.51,1.67-3.76,1.15c1.22,.19,2.7,.24,4.43,.13l-.22,2.08Zm-10.57-6.48c-.04,.11-.08,.21-.12,.29-.04,.08-.07,.15-.1,.2,.17-.03,1.01-.12,2.53-.26,.49-.41,.87-.83,1.13-1.28l-3.44,1.06Z"/>
          </g>
        </g>
      </g>
    </g>
  </g>
</svg>