<?xml version="1.0" encoding="UTF-8"?>
<svg xmlns="http://www.w3.org/2000/svg" xmlns:xlink="http://www.w3.org/1999/xlink" viewBox="0 0 108.1 142.55">
  <defs>
    <style>
      .cls-1 {
        opacity: .61;
      }

      .cls-1, .cls-2, .cls-3, .cls-4, .cls-5 {
        fill: #2c2c2d;
      }

      .cls-6 {
        opacity: .82;
      }

      .cls-6, .cls-7, .cls-8, .cls-9, .cls-10 {
        fill: #2e2e2f;
      }

      .cls-11 {
        opacity: .16;
      }

      .cls-11, .cls-12, .cls-13, .cls-14, .cls-15 {
        fill: #282829;
      }

      .cls-16 {
        fill: #fff;
      }

      .cls-17 {
        opacity: .51;
      }

      .cls-17, .cls-18, .cls-19, .cls-20, .cls-21, .cls-22 {
        fill: #2b2b2c;
      }

      .cls-23 {
        opacity: .67;
      }

      .cls-23, .cls-24, .cls-25, .cls-26, .cls-27 {
        fill: #2d2d2e;
      }

      .cls-2 {
        opacity: .57;
      }

      .cls-28, .cls-29, .cls-30, .cls-31 {
        fill: #262627;
      }

      .cls-12 {
        opacity: .22;
      }

      .cls-32 {
        opacity: .08;
      }

      .cls-32, .cls-33, .cls-34, .cls-35, .cls-36 {
        fill: #272728;
      }

      .cls-37 {
        opacity: .96;
      }

      .cls-37, .cls-38, .cls-39 {
        fill: #303031;
      }

      .cls-40 {
        mix-blend-mode: lighten;
      }

      .cls-41 {
        isolation: isolate;
      }

      .cls-33 {
        opacity: .1;
      }

      .cls-18 {
        opacity: .53;
      }

      .cls-13 {
        opacity: .24;
      }

      .cls-14 {
        opacity: .18;
      }

      .cls-24 {
        opacity: .71;
      }

      .cls-42 {
        opacity: .27;
      }

      .cls-42, .cls-43, .cls-44, .cls-45, .cls-46 {
        fill: #29292a;
      }

      .cls-47 {
        opacity: .37;
      }

      .cls-47, .cls-48, .cls-49, .cls-50, .cls-51 {
        fill: #2a2a2b;
      }

      .cls-52 {
        opacity: .9;
      }

      .cls-52, .cls-53, .cls-54, .cls-55, .cls-56 {
        fill: #2f2f30;
      }

      .cls-48 {
        opacity: .35;
      }

      .cls-49 {
        opacity: .43;
      }

      .cls-57 {
        filter: url(#drop-shadow-1);
      }

      .cls-53 {
        opacity: .92;
      }

      .cls-25 {
        opacity: .69;
      }

      .cls-29 {
        opacity: .02;
      }

      .cls-19 {
        opacity: .45;
      }

      .cls-7 {
        opacity: .8;
      }

      .cls-34 {
        opacity: .14;
      }

      .cls-35 {
        opacity: .12;
      }

      .cls-8 {
        opacity: .78;
      }

      .cls-50 {
        opacity: .39;
      }

      .cls-26 {
        opacity: .73;
      }

      .cls-30 {
        opacity: .04;
      }

      .cls-43 {
        opacity: .25;
      }

      .cls-44 {
        opacity: .31;
      }

      .cls-3 {
        opacity: .65;
      }

      .cls-20 {
        opacity: .49;
      }

      .cls-15 {
        opacity: .2;
      }

      .cls-27 {
        opacity: .75;
      }

      .cls-51 {
        opacity: .41;
      }

      .cls-9 {
        opacity: .76;
      }

      .cls-39 {
        opacity: .98;
      }

      .cls-21 {
        opacity: .47;
      }

      .cls-54 {
        opacity: .88;
      }

      .cls-22 {
        opacity: .55;
      }

      .cls-55 {
        opacity: .86;
      }

      .cls-36 {
        opacity: .06;
      }

      .cls-58 {
        fill: #f7cd1c;
      }

      .cls-4 {
        opacity: .59;
      }

      .cls-31 {
        opacity: 0;
      }

      .cls-45 {
        opacity: .33;
      }

      .cls-5 {
        opacity: .63;
      }

      .cls-56 {
        opacity: .94;
      }

      .cls-46 {
        opacity: .29;
      }

      .cls-10 {
        opacity: .84;
      }
    </style>
    <filter id="drop-shadow-1" filterUnits="userSpaceOnUse">
      <feOffset dx="0" dy="0"/>
      <feGaussianBlur result="blur" stdDeviation="6"/>
      <feFlood flood-color="#162059" flood-opacity=".98"/>
      <feComposite in2="blur" operator="in"/>
      <feComposite in="SourceGraphic"/>
    </filter>
  </defs>
  <g class="cls-41">
    <g id="_圖層_2" data-name="圖層 2">
      <g id="_圖層_2-2" data-name="圖層 2">
        <g class="cls-57">
          <path class="cls-16" d="M11.82,112.83v-8.32h1.43v18.66h-1.43v-9.01H1.43v9.01H0v-18.66H1.43v8.32H11.82Z"/>
          <path class="cls-16" d="M17.87,123.17v-18.66h5.46c2.96,0,5.25,.82,6.85,2.46,1.6,1.64,2.41,3.93,2.41,6.88,0,1.94-.37,3.61-1.12,5.01-.75,1.4-1.84,2.47-3.27,3.21s-3.16,1.11-5.18,1.11h-5.13Zm5.09-1.36c2.63,0,4.65-.69,6.05-2.06,1.4-1.37,2.1-3.35,2.1-5.91s-.68-4.54-2.05-5.91c-1.37-1.37-3.33-2.06-5.9-2.06h-3.85v15.95h3.65Z"/>
          <path class="cls-16" d="M57.54,104.9v1.04h-21.16v-1.04h10.34l-.3-.59-.86-1.78,1.23-.44c.31,.58,.77,1.51,1.36,2.81h9.38Zm-19.77,19.63v-10.15h18.39v7.38c0,.66-.08,1.16-.25,1.52-.17,.35-.45,.61-.84,.77-.39,.16-.96,.23-1.7,.23h-2.62l-.22-1.09h2.44c.56,0,.98-.04,1.25-.14,.27-.09,.46-.25,.57-.49,.11-.24,.16-.6,.16-1.07v-6.1h-15.97v9.13h-1.21Zm2.2-12.29v-4.25h14v4.25h-14Zm1.18-.99h11.6v-2.27h-11.6v2.27Zm1.23,6.29h9.16v4.44h-9.16v-4.44Zm1.16,3.46h6.81v-2.52h-6.81v2.52Z"/>
          <path class="cls-16" d="M80.18,104.39v2.32h2.67v.86h-2.67v2.32h-7.43v1.46h8.59v.84h-8.59v1.46h9.85v.89h-20.64v-.89h9.6v-1.46h-8.25v-.84h8.25v-1.46h-7.95v-.84h7.95v-1.48h-9.9v-.86h9.9v-1.43h-7.8v-.89h7.8v-2h1.18v2h7.43Zm2.59,19.38h-21.01v-.94h21.01v.94Zm-18.39-2.44v-5.43h15.77v5.43h-15.77Zm7.28-3.11v-1.48h-6.1v1.48h6.1Zm0,.79h-6.1v1.48h6.1v-1.48Zm7.33-13.73h-6.25v1.43h6.25v-1.43Zm-6.25,3.78h6.25v-1.48h-6.25v1.48Zm.07,9.16h6.12v-1.48h-6.12v1.48Zm0,.79v1.48h6.12v-1.48h-6.12Z"/>
          <path class="cls-16" d="M90.1,108.06c-.07,1.02-.27,1.88-.6,2.57-.34,.69-.93,1.47-1.76,2.35l-.91-.62c.66-.64,1.14-1.22,1.44-1.73s.51-1.05,.62-1.62,.16-1.32,.16-2.26v-2.52c1.25-.11,2.53-.28,3.85-.51,1.32-.22,2.48-.48,3.51-.78l.27,1.01c-.94,.26-2,.51-3.18,.73-1.19,.22-2.3,.39-3.36,.51v1.93h7.73v.94h-3.11v3.43h-1.09v-3.43h-3.56Zm-3.23,15.65c1.18-.23,2.57-.57,4.15-1.02s2.97-.88,4.17-1.3l.32,1.01c-1.12,.43-2.5,.88-4.13,1.35s-3.05,.83-4.23,1.07l-.27-1.11Zm18.22-3.01h-15.08v-8.49h15.08v8.49Zm-1.23-5.9v-1.7h-12.62v1.7h12.62Zm-12.62,.79v1.73h12.62v-1.73h-12.62Zm0,2.54v1.7h12.62v-1.7h-12.62Zm5.58-6.67c.56-.56,.97-1.05,1.22-1.47,.25-.42,.42-.87,.51-1.36,.08-.49,.12-1.16,.12-2.04v-2.37c1.35-.11,2.7-.28,4.06-.51,1.36-.22,2.58-.48,3.67-.78l.25,1.01c-.91,.26-1.97,.5-3.21,.7-1.23,.21-2.45,.37-3.65,.51v1.95h8.27v.94h-3.48v3.43h-1.14v-3.43h-3.7c-.07,.82-.24,1.51-.52,2.07-.28,.56-.77,1.19-1.48,1.9l-.91-.57Zm2.96,10c.97,.23,2.29,.57,3.95,1.02s3.12,.87,4.37,1.25l-.3,1.06-2.22-.64c-3.09-.89-5.11-1.44-6.05-1.65l.25-1.04Z"/>
        </g>
        <g>
          <path class="cls-16" d="M26.72,139.08v-2.36h.41v5.29h-.41v-2.55h-2.95v2.55h-.41v-5.29h.41v2.36h2.95Z"/>
          <path class="cls-16" d="M28.43,142.01v-5.29h1.55c.84,0,1.49,.23,1.94,.7s.68,1.11,.68,1.95c0,.55-.11,1.02-.32,1.42-.21,.4-.52,.7-.93,.91-.41,.21-.9,.31-1.47,.31h-1.46Zm1.44-.38c.75,0,1.32-.19,1.72-.58,.4-.39,.59-.95,.59-1.68s-.19-1.29-.58-1.68c-.39-.39-.94-.58-1.67-.58h-1.09v4.52h1.04Z"/>
          <path class="cls-16" d="M39.72,139.08v-2.36h.41v5.29h-.41v-2.55h-2.95v2.55h-.41v-5.29h.41v2.36h2.95Z"/>
          <path class="cls-16" d="M41.84,136.72v5.29h-.41v-5.29h.41Z"/>
          <path class="cls-16" d="M44.31,137.3c-.29,.19-.52,.47-.68,.82-.16,.35-.24,.77-.24,1.25s.08,.9,.23,1.25c.16,.35,.38,.63,.67,.82s.62,.29,1,.29c.56,0,1.05-.23,1.47-.7v-1.32h-1.31v-.39h1.71v1.86c-.53,.63-1.15,.94-1.88,.94-.47,0-.88-.11-1.23-.33s-.62-.54-.8-.95c-.19-.41-.28-.9-.28-1.46s.1-1.05,.29-1.46,.46-.73,.82-.95,.77-.33,1.25-.33c.35,0,.67,.07,.96,.22,.3,.15,.54,.36,.73,.62l-.32,.25c-.16-.22-.37-.39-.61-.52s-.5-.19-.77-.19c-.39,0-.73,.1-1.03,.29Z"/>
          <path class="cls-16" d="M51.77,139.08v-2.36h.41v5.29h-.41v-2.55h-2.95v2.55h-.41v-5.29h.41v2.36h2.95Z"/>
          <path class="cls-16" d="M60.32,140.59c-.13,.37-.32,.67-.56,.91l.66,.78-.31,.27-.67-.78c-.35,.23-.76,.35-1.22,.35s-.86-.11-1.2-.34-.61-.55-.8-.96-.28-.89-.28-1.44,.09-1.02,.28-1.43,.46-.73,.8-.96,.75-.34,1.2-.34,.86,.11,1.21,.34,.62,.55,.81,.96,.28,.89,.28,1.43c0,.45-.07,.85-.2,1.22Zm-1.14,.86l-.57-.67,.3-.27,.57,.68c.2-.21,.35-.48,.45-.79,.1-.31,.16-.65,.16-1.03,0-.47-.08-.88-.23-1.24-.16-.36-.38-.63-.66-.83-.28-.2-.61-.29-.98-.29s-.7,.1-.98,.29c-.28,.2-.5,.47-.66,.83s-.23,.77-.23,1.24,.08,.88,.23,1.24,.38,.63,.66,.83c.28,.2,.61,.29,.98,.29s.68-.09,.96-.28Z"/>
          <path class="cls-16" d="M64.56,141.28c.26-.29,.39-.69,.39-1.19v-3.37h.41v3.43c0,.4-.07,.74-.22,1.04s-.36,.52-.64,.68c-.28,.16-.61,.24-.98,.24s-.7-.08-.98-.24c-.28-.16-.49-.39-.64-.68s-.22-.64-.22-1.04v-3.43h.41v3.35c0,.51,.13,.91,.39,1.2,.26,.29,.61,.44,1.05,.44s.79-.15,1.05-.44Z"/>
          <path class="cls-16" d="M70.34,142.01h-.43l-.67-1.86h-2.06l-.67,1.86h-.43l1.92-5.29h.43l1.92,5.29Zm-2.14-4.7l-.88,2.45h1.79l-.88-2.45h-.03Z"/>
          <path class="cls-16" d="M71.6,136.72v4.91h2.73v.38h-3.14v-5.29h.41Z"/>
          <path class="cls-16" d="M75.62,136.72v5.29h-.41v-5.29h.41Z"/>
          <path class="cls-16" d="M78.63,142.01h-.41v-4.91h-1.71v-.39h3.83v.39h-1.71v4.91Z"/>
          <path class="cls-16" d="M82.54,139.87l-1.78-3.15h.47l1.5,2.72h.02l1.5-2.72h.47l-1.78,3.15v2.14h-.41v-2.14Z"/>
        </g>
        <g class="cls-40">
          <circle class="cls-31" cx="50.27" cy="34.91" r="34.91" transform="translate(7.77 78.94) rotate(-80.78)"/>
          <circle class="cls-29" cx="50.34" cy="34.97" r="34.83" transform="translate(7.8 79.1) rotate(-80.84)"/>
          <circle class="cls-30" cx="50.4" cy="35.03" r="34.76" transform="translate(7.84 79.26) rotate(-80.9)"/>
          <circle class="cls-36" cx="50.46" cy="35.09" r="34.68" transform="translate(7.88 79.42) rotate(-80.97)"/>
          <circle class="cls-32" cx="50.52" cy="35.15" r="34.61" transform="translate(7.93 79.59) rotate(-81.04)"/>
          <circle class="cls-33" cx="50.59" cy="35.22" r="34.53" transform="translate(7.98 79.76) rotate(-81.12)"/>
          <circle class="cls-35" cx="50.65" cy="35.28" r="34.46" transform="translate(8.04 79.94) rotate(-81.2)"/>
          <circle class="cls-34" cx="50.71" cy="35.34" r="34.38" transform="translate(8.1 80.12) rotate(-81.3)"/>
          <circle class="cls-11" cx="50.77" cy="35.4" r="34.31" transform="translate(8.17 80.31) rotate(-81.4)"/>
          <circle class="cls-14" cx="50.83" cy="35.47" r="34.23" transform="translate(8.25 80.5) rotate(-81.5)"/>
          <circle class="cls-15" cx="50.9" cy="35.53" r="34.16" transform="translate(8.33 80.71) rotate(-81.62)"/>
          <circle class="cls-12" cx="50.96" cy="35.59" r="34.09" transform="translate(8.43 80.92) rotate(-81.76)"/>
          <circle class="cls-13" cx="51.02" cy="35.65" r="34.01" transform="translate(8.54 81.14) rotate(-81.91)"/>
          <circle class="cls-43" cx="51.08" cy="35.71" r="33.94" transform="translate(8.66 81.38) rotate(-82.07)"/>
          <circle class="cls-42" cx="51.15" cy="35.78" r="33.86" transform="translate(8.8 81.63) rotate(-82.26)"/>
          <circle class="cls-46" cx="51.21" cy="35.84" r="33.79" transform="translate(8.96 81.91) rotate(-82.47)"/>
          <circle class="cls-44" cx="51.27" cy="35.9" r="33.71" transform="translate(9.15 82.2) rotate(-82.71)"/>
          <circle class="cls-45" cx="51.33" cy="35.96" r="33.64" transform="translate(9.37 82.52) rotate(-82.98)"/>
          <circle class="cls-48" cx="51.39" cy="36.03" r="33.56" transform="translate(9.62 82.87) rotate(-83.3)"/>
          <circle class="cls-47" cx="51.46" cy="36.09" r="33.49" transform="translate(9.93 83.26) rotate(-83.68)"/>
          <circle class="cls-50" cx="51.52" cy="36.15" r="33.41"/>
          <circle class="cls-51" cx="51.58" cy="36.21" r="33.34"/>
          <circle class="cls-49" cx="51.64" cy="36.27" r="33.26"/>
          <circle class="cls-19" cx="51.71" cy="36.34" r="33.19"/>
          <circle class="cls-21" cx="51.77" cy="36.4" r="33.12"/>
          <circle class="cls-20" cx="51.83" cy="36.46" r="33.04"/>
          <circle class="cls-17" cx="51.89" cy="36.52" r="32.97"/>
          <circle class="cls-18" cx="51.95" cy="36.59" r="32.89"/>
          <circle class="cls-22" cx="52.02" cy="36.65" r="32.82"/>
          <circle class="cls-2" cx="52.08" cy="36.71" r="32.74"/>
          <circle class="cls-4" cx="52.14" cy="36.77" r="32.67"/>
          <circle class="cls-1" cx="52.2" cy="36.83" r="32.59"/>
          <circle class="cls-5" cx="52.27" cy="36.9" r="32.52"/>
          <circle class="cls-3" cx="52.33" cy="36.96" r="32.44"/>
          <circle class="cls-23" cx="52.39" cy="37.02" r="32.37"/>
          <circle class="cls-25" cx="52.45" cy="37.08" r="32.29"/>
          <circle class="cls-24" cx="52.51" cy="37.15" r="32.22"/>
          <circle class="cls-26" cx="52.58" cy="37.21" r="32.15"/>
          <circle class="cls-27" cx="52.64" cy="37.27" r="32.07"/>
          <circle class="cls-9" cx="52.7" cy="37.33" r="32"/>
          <circle class="cls-8" cx="52.76" cy="37.39" r="31.92"/>
          <circle class="cls-7" cx="52.83" cy="37.46" r="31.85" transform="translate(2.68 78.44) rotate(-74.6)"/>
          <circle class="cls-6" cx="52.89" cy="37.52" r="31.77" transform="translate(2.93 78.86) rotate(-74.97)"/>
          <circle class="cls-10" cx="52.95" cy="37.58" r="31.7" transform="translate(3.15 79.24) rotate(-75.28)"/>
          <circle class="cls-55" cx="53.01" cy="37.64" r="31.62" transform="translate(3.33 79.58) rotate(-75.55)"/>
          <circle class="cls-54" cx="53.07" cy="37.71" r="31.55" transform="translate(3.48 79.89) rotate(-75.78)"/>
          <circle class="cls-52" cx="53.14" cy="37.77" r="31.47" transform="translate(3.62 80.17) rotate(-75.98)"/>
          <circle class="cls-53" cx="53.2" cy="37.83" r="31.4" transform="translate(3.74 80.44) rotate(-76.16)"/>
          <circle class="cls-56" cx="53.26" cy="37.89" r="31.33" transform="translate(3.85 80.69) rotate(-76.33)"/>
          <circle class="cls-37" cx="53.32" cy="37.95" r="31.25" transform="translate(3.95 80.92) rotate(-76.47)"/>
          <circle class="cls-39" cx="53.39" cy="38.02" r="31.18" transform="translate(4.03 81.14) rotate(-76.6)"/>
          <circle class="cls-38" cx="53.45" cy="38.08" r="31.1" transform="translate(4.11 81.35) rotate(-76.72)"/>
        </g>
        <circle class="cls-28" cx="53.8" cy="38.43" r="31.73"/>
        <g>
          <path class="cls-58" d="M73.82,50.02H33.74c-.14-.27-.08-.51-.08-.74,0-7.14,0-14.28,0-21.41,0-.96,.12-1.08,1.06-1.08,12.71,0,25.42,0,38.13,0,.93,0,1.06,.13,1.06,1.09,0,7.14,0,14.28,0,21.41,0,.23,.03,.47-.07,.73Zm-39.23-11.65h38.38c0-.23,0-.39,0-.56,0-3.07,0-6.14,0-9.21,0-.9-.12-1.01-1.05-1.01-12.11,0-24.23,0-36.34,0-.95,0-1.07,.12-1.07,1.07,0,3.02,0,6.04,0,9.06,0,.21-.06,.43,.08,.64Zm17.36,5.73c-.33,.24-.63,.43-.89,.67-1.24,1.14-.83,3.01,.79,3.51,.93,.29,1.88,.28,2.82-.01,.83-.26,1.4-.8,1.57-1.68,.17-.91-.16-1.63-.88-2.19-.22-.17-.44-.32-.7-.51,.41-.25,.72-.51,.96-.83,.85-1.13,.39-2.62-.95-3.05-.91-.29-1.84-.28-2.73,.08-1.51,.6-1.81,2.48-.59,3.55,.18,.15,.37,.29,.61,.47Zm11.08,.03c-.04-.92-.04-1.76-.32-2.56-.28-.82-.8-1.4-1.65-1.64-1.8-.51-3.34,.35-3.79,2.16-.35,1.43-.32,2.88,0,4.31,.16,.74,.54,1.37,1.24,1.75,1.59,.86,3.56,.11,4.17-1.59,.3-.82,.32-1.68,.35-2.44Zm-19.42-.04c0,.97,.04,1.8,.31,2.6,.25,.76,.72,1.34,1.5,1.61,1.76,.63,3.45-.22,3.92-2.01,.39-1.5,.36-3.02,0-4.52-.17-.72-.56-1.3-1.25-1.65-1.63-.83-3.55-.08-4.15,1.65-.27,.8-.34,1.62-.33,2.33Zm20.84-3.94c-.22,.56-.25,7.39-.04,8.09,.49,.16,1,.18,1.58-.06v-2.63c.29-.17,.53-.1,.76-.11,.52-.04,1.05-.08,1.54-.27,1.24-.47,1.86-1.57,1.71-3.03-.12-1.15-.94-1.93-2.25-2.1-.92-.13-1.85-.07-2.78-.07-.17,0-.33,.03-.52,.19Zm-26.79,8.13h4.81c.23-.44,.25-.83-.05-1.28h-1.42v-6.99c-.56-.14-1.06-.23-1.48,0-.7,.39-1.39,.82-2.04,1.35,.06,.35-.12,.71,.18,1.03,.6-.12,1.04-.58,1.6-.74v5.31c-.57,.11-1.1-.05-1.61,.11-.2,.4-.2,.78,.02,1.2Z"/>
          <path class="cls-58" d="M64.53,36.12v-6.38c1.37,.04,2.74-.31,4,.39,1.35,.75,1.49,2.05,1.34,3.42-.15,1.38-.83,2.2-2.05,2.53-.66,.18-2.43,.21-3.29,.04Zm1.32-5.36v4.4c.93,.06,1.82,.1,2.33-.78,.53-.92,.55-1.93,0-2.85-.52-.86-1.41-.84-2.33-.77Z"/>
          <path class="cls-58" d="M63.55,29.8v6.3c-.61,.23-.61,.23-1.29,0v-2.63h-2.44v2.64c-.46,.23-.86,.19-1.3,.06v-6.34q.59-.2,1.23-.03c.14,.78,0,1.58,.09,2.46,.77,.08,1.54,.03,2.35,.03,.15-.83,0-1.63,.1-2.42,.55-.26,.56-.26,1.26-.06Z"/>
          <path class="cls-58" d="M46.86,29.82c.32-.13,.55-.08,.76-.06,.16,.19,.12,.39,.11,.57-.02,1.33,.08,2.66-.06,3.99-.14,1.27-.88,1.95-2.17,2.02-.26,.01-.52,.01-.79,0-1.24-.1-1.95-.74-2.06-1.96-.13-1.51-.04-3.03-.05-4.54,.26-.16,.5-.08,.71-.09,.21,.23,.13,.47,.13,.7,.02,1.16-.01,2.33,.03,3.49,.06,1.44,1.49,2.15,2.73,1.39,.43-.27,.57-.69,.61-1.15,.1-1.02,.03-2.04,.05-3.06,0-.43,0-.85,0-1.3Z"/>
          <path class="cls-58" d="M41.89,29.77c.13,.24,.07,.44,.05,.73h-3.44c-.09,.69-.07,1.3-.02,1.98h2.89c.18,.28,.15,.51,.05,.8h-2.93c-.12,1,0,1.95-.07,2.88-.28,.13-.53,.1-.8,.03v-6.42h4.27Z"/>
          <path class="cls-58" d="M53.96,35.5h3.15c.14,.25,.11,.45,.04,.7h-4v-6.38c.27-.13,.5-.07,.8-.05v5.74Z"/>
          <path class="cls-58" d="M49.44,35.48h3.07c.26,.24,.12,.47,.16,.73h-4.03v-6.39c.22-.16,.47-.04,.8-.07v5.74Z"/>
          <path class="cls-58" d="M53.23,44.76c1.09,.47,1.48,.96,1.33,1.66-.11,.52-.48,.77-1.18,.78-.76,.02-1.18-.22-1.3-.73-.17-.7,.18-1.23,1.15-1.71Z"/>
          <path class="cls-58" d="M53.41,43.31c-.99-.53-1.29-.95-1.16-1.55,.1-.43,.42-.67,.95-.7,.61-.03,1.01,.19,1.14,.64,.17,.6-.1,1.07-.94,1.61Z"/>
          <path class="cls-58" d="M58.77,44.1c.02-.63,0-1.3,.18-1.95,.2-.7,.53-.98,1.13-.98,.57,0,.89,.27,1.04,.97,.28,1.29,.26,2.59,.04,3.89-.02,.12-.06,.23-.1,.34-.21,.52-.57,.77-1.09,.74-.5-.03-.8-.26-.97-.8-.22-.71-.2-1.45-.22-2.22Z"/>
          <path class="cls-58" d="M45.34,44.11c0-.64,0-1.28,.16-1.91,.19-.71,.51-1.01,1.09-1.02,.61-.01,.94,.25,1.1,.99,.27,1.29,.27,2.59,.03,3.89-.03,.16-.1,.32-.17,.47-.2,.44-.57,.61-1.04,.59-.46-.02-.75-.26-.91-.68-.28-.75-.25-1.54-.26-2.32Z"/>
          <path class="cls-58" d="M66.03,44.13v-2.83c.72,.01,1.47-.22,1.98,.47,.39,.52,.35,1.13,.05,1.68-.43,.81-1.23,.64-2.03,.67Z"/>
        </g>
      </g>
    </g>
  </g>
</svg>