<?xml version="1.0" encoding="UTF-8"?>
<svg xmlns="http://www.w3.org/2000/svg" viewBox="0 0 146.78 142.11">
  <defs>
    <style>
      .cls-1 {
        opacity: .61;
      }

      .cls-1, .cls-2, .cls-3, .cls-4, .cls-5 {
        fill: #2c2c2d;
      }

      .cls-6 {
        opacity: .82;
      }

      .cls-6, .cls-7, .cls-8, .cls-9, .cls-10 {
        fill: #2e2e2f;
      }

      .cls-11 {
        opacity: .16;
      }

      .cls-11, .cls-12, .cls-13, .cls-14, .cls-15 {
        fill: #282829;
      }

      .cls-16 {
        fill: #fff;
      }

      .cls-17 {
        opacity: .51;
      }

      .cls-17, .cls-18, .cls-19, .cls-20, .cls-21, .cls-22 {
        fill: #2b2b2c;
      }

      .cls-23 {
        opacity: .67;
      }

      .cls-23, .cls-24, .cls-25, .cls-26, .cls-27 {
        fill: #2d2d2e;
      }

      .cls-2 {
        opacity: .57;
      }

      .cls-28, .cls-29, .cls-30, .cls-31 {
        fill: #262627;
      }

      .cls-12 {
        opacity: .22;
      }

      .cls-32 {
        opacity: .08;
      }

      .cls-32, .cls-33, .cls-34, .cls-35, .cls-36 {
        fill: #272728;
      }

      .cls-37 {
        opacity: .96;
      }

      .cls-37, .cls-38, .cls-39 {
        fill: #303031;
      }

      .cls-40 {
        mix-blend-mode: lighten;
      }

      .cls-41 {
        isolation: isolate;
      }

      .cls-33 {
        opacity: .1;
      }

      .cls-18 {
        opacity: .53;
      }

      .cls-13 {
        opacity: .24;
      }

      .cls-14 {
        opacity: .18;
      }

      .cls-24 {
        opacity: .71;
      }

      .cls-42 {
        opacity: .27;
      }

      .cls-42, .cls-43, .cls-44, .cls-45, .cls-46 {
        fill: #29292a;
      }

      .cls-47 {
        opacity: .37;
      }

      .cls-47, .cls-48, .cls-49, .cls-50, .cls-51 {
        fill: #2a2a2b;
      }

      .cls-52 {
        opacity: .9;
      }

      .cls-52, .cls-53, .cls-54, .cls-55, .cls-56 {
        fill: #2f2f30;
      }

      .cls-48 {
        opacity: .35;
      }

      .cls-49 {
        opacity: .43;
      }

      .cls-53 {
        opacity: .92;
      }

      .cls-25 {
        opacity: .69;
      }

      .cls-29 {
        opacity: .02;
      }

      .cls-19 {
        opacity: .45;
      }

      .cls-7 {
        opacity: .8;
      }

      .cls-34 {
        opacity: .14;
      }

      .cls-35 {
        opacity: .12;
      }

      .cls-8 {
        opacity: .78;
      }

      .cls-50 {
        opacity: .39;
      }

      .cls-26 {
        opacity: .73;
      }

      .cls-30 {
        opacity: .04;
      }

      .cls-43 {
        opacity: .25;
      }

      .cls-44 {
        opacity: .31;
      }

      .cls-3 {
        opacity: .65;
      }

      .cls-20 {
        opacity: .49;
      }

      .cls-15 {
        opacity: .2;
      }

      .cls-27 {
        opacity: .75;
      }

      .cls-51 {
        opacity: .41;
      }

      .cls-9 {
        opacity: .76;
      }

      .cls-39 {
        opacity: .98;
      }

      .cls-57 {
        fill: none;
        stroke: #f7cd1c;
        stroke-linecap: round;
        stroke-miterlimit: 10;
        stroke-width: 2.47px;
      }

      .cls-21 {
        opacity: .47;
      }

      .cls-54 {
        opacity: .88;
      }

      .cls-22 {
        opacity: .55;
      }

      .cls-55 {
        opacity: .86;
      }

      .cls-36 {
        opacity: .06;
      }

      .cls-58 {
        fill: #f7cd1c;
      }

      .cls-4 {
        opacity: .59;
      }

      .cls-31 {
        opacity: 0;
      }

      .cls-45 {
        opacity: .33;
      }

      .cls-5 {
        opacity: .63;
      }

      .cls-56 {
        opacity: .94;
      }

      .cls-46 {
        opacity: .29;
      }

      .cls-10 {
        opacity: .84;
      }
    </style>
  </defs>
  <g class="cls-41">
    <g id="_圖層_2" data-name="圖層 2">
      <g id="_圖層_2-2" data-name="圖層 2">
        <g>
          <path class="cls-16" d="M0,123.17v-18.66H5.46c2.96,0,5.25,.82,6.85,2.46,1.6,1.64,2.41,3.93,2.41,6.88,0,1.94-.37,3.61-1.12,5.01-.75,1.4-1.84,2.47-3.27,3.21s-3.16,1.11-5.18,1.11H0Zm5.09-1.36c2.63,0,4.65-.69,6.05-2.06,1.4-1.37,2.1-3.35,2.1-5.91s-.68-4.54-2.05-5.91c-1.37-1.37-3.33-2.06-5.9-2.06H1.43v15.95h3.65Z"/>
          <path class="cls-16" d="M20.25,122.65c-1.11-.58-2-1.38-2.68-2.42l1.18-.77c.59,.87,1.34,1.54,2.25,2,.9,.46,1.88,.69,2.94,.69,.92,0,1.75-.16,2.49-.47,.74-.31,1.32-.74,1.74-1.3,.42-.55,.63-1.17,.63-1.86s-.17-1.32-.52-1.8c-.35-.48-.88-.9-1.62-1.26-.73-.36-1.73-.72-3-1.09-1.22-.35-2.22-.7-3.01-1.07-.79-.37-1.44-.88-1.95-1.54-.51-.66-.77-1.51-.77-2.57,0-.99,.25-1.86,.77-2.62,.51-.76,1.23-1.35,2.17-1.78,.94-.43,2.02-.64,3.23-.64s2.37,.26,3.36,.78c.99,.52,1.81,1.25,2.47,2.19l-1.14,.81c-.59-.77-1.3-1.37-2.11-1.79-.81-.42-1.69-.63-2.63-.63-.86,0-1.64,.15-2.36,.46s-1.28,.73-1.7,1.27c-.42,.54-.63,1.15-.63,1.83,0,.81,.22,1.46,.65,1.97,.44,.51,.99,.91,1.65,1.2,.67,.29,1.55,.59,2.65,.9,1.33,.36,2.42,.76,3.27,1.2s1.5,.98,1.96,1.64,.69,1.47,.69,2.44c0,1.56-.57,2.8-1.7,3.72-1.14,.91-2.68,1.37-4.64,1.37-1.33,0-2.56-.29-3.67-.86Z"/>
          <path class="cls-16" d="M39.42,104.51c2.22,0,3.93,.49,5.12,1.46,1.19,.97,1.79,2.35,1.79,4.12s-.59,3.17-1.77,4.12c-1.18,.95-2.86,1.43-5.05,1.43h-4v7.53h-1.43v-18.66h5.33Zm-.15,9.8c1.81,0,3.2-.37,4.16-1.1,.96-.73,1.44-1.77,1.44-3.12s-.48-2.39-1.44-3.12c-.96-.73-2.35-1.1-4.16-1.1h-3.75v8.44h3.75Z"/>
          <path class="cls-16" d="M63.55,115.96c1.69,2.73,4.05,5.18,7.1,7.33l-.91,1.28c-2.63-1.99-4.74-4.12-6.33-6.39-1.59-2.27-2.7-4.76-3.34-7.46-.58,2.68-1.66,5.15-3.26,7.41-1.6,2.25-3.77,4.41-6.52,6.47l-.89-1.16c2.35-1.71,4.25-3.47,5.7-5.28,1.45-1.81,2.51-3.79,3.2-5.92,.68-2.14,1.02-4.55,1.02-7.23v-2.39h1.28v2.84c0,.53,0,.92-.02,1.18,.3,3.49,1.29,6.6,2.97,9.33Z"/>
          <path class="cls-16" d="M77,112.8c-.08,.66-.25,1.29-.52,1.9-.26,.61-.68,1.28-1.23,2l-.69-.89c.61-.81,1.02-1.52,1.22-2.14s.31-1.44,.31-2.46v-2.05h8.91v3.63h-8Zm16.91,2.86h-2.32v5.97l4.42-.1v.89l-4.42,.1v2.32h-1.21v-2.3l-15.77,.37-.02-.86,4.27-.1v-6.3h-2.02v-.89h17.08v.89Zm-18.29-8.81h4.37v-1.73h-5.36v-.91h5.36v-1.93h1.16v1.93h5.01v.91h-5.01v1.73h4.34v.91h-9.87v-.91Zm4.49,3.16h-3.04v1.9h3.04v-1.9Zm10.27,7.13v-1.48h-10.32v1.48h10.32Zm0,.84h-10.32v1.48h10.32v-1.48Zm-10.32,2.3v1.65l10.32-.25v-1.41h-10.32Zm.99-8.37h2.94v-1.9h-2.94v1.9Zm4.71,.94c1.78-.36,3.18-.81,4.2-1.33-.92-.69-1.87-1.7-2.84-3.04v-.81h7.36v.77c-.89,1.33-1.81,2.36-2.76,3.09,1.13,.59,2.61,1.04,4.42,1.33l-.32,.91c-2.07-.4-3.73-.95-4.96-1.68-.64,.38-1.34,.7-2.09,.95-.75,.26-1.63,.5-2.63,.73l-.37-.91Zm.37-6.29c.74-.31,1.23-.6,1.46-.85,.23-.26,.35-.65,.35-1.2v-1.18h5.8v1.65c0,.41,.05,.67,.14,.78,.09,.11,.31,.16,.65,.16h1.48l-.15,.81h-1.78c-.51,0-.86-.08-1.06-.25-.2-.16-.3-.46-.3-.89v-1.36h-3.78v.81c0,.92-.75,1.68-2.25,2.27l-.57-.77Zm2.17,1.93c.82,1.1,1.67,1.94,2.54,2.52,.95-.66,1.74-1.5,2.34-2.52h-4.89Z"/>
          <path class="cls-16" d="M104.08,113.08c-1.07-.92-2.52-2.11-4.34-3.58l.72-.99c1.68,1.3,3.13,2.47,4.34,3.51l-.72,1.06Zm.25,2.49l.59,.2c-.36,1.07-.91,2.68-1.63,4.83-.72,2.15-1.14,3.44-1.26,3.86l-1.18-.4c.2-.48,.7-1.93,1.49-4.34,.8-2.42,1.25-3.87,1.37-4.34l.62,.2Zm-2.69-12.27c.97,.72,2.43,1.87,4.37,3.43l-.69,1.01-2.81-2.25-1.53-1.21,.67-.99Zm8.39,4.89c-1.09-1.32-2.26-2.63-3.53-3.95l.84-.79c1.48,1.6,2.67,2.9,3.55,3.92l-.86,.81Zm4.07-5.83v7.13h5.6v12.19c0,.69-.09,1.22-.26,1.59-.17,.37-.46,.63-.88,.78s-1.02,.22-1.83,.22h-2.54l-.25-1.21h2.47c.61,0,1.06-.05,1.35-.15,.29-.1,.48-.26,.58-.49,.1-.23,.15-.59,.15-1.09v-1.85h-10v4.96h-1.21v-14.96h5.6v-7.13h1.21Zm-5.6,11.55h10v-3.26h-10v3.26Zm0,1.16v3.31h10v-3.31h-10Zm11.95-10.84c-.99,1.22-2.2,2.58-3.63,4.07l-.84-.79c1.42-1.48,2.61-2.82,3.58-4.02l.89,.74Z"/>
          <path class="cls-16" d="M130.34,111.42c.67,1.02,1.17,1.97,1.48,2.85s.47,1.77,.47,2.68c0,.86-.09,1.52-.28,1.99-.19,.47-.5,.8-.93,1-.43,.2-1.02,.3-1.78,.3h-1.16l-.22-1.14h1.06c.61,0,1.07-.07,1.38-.21,.31-.14,.53-.37,.67-.7,.13-.33,.2-.81,.2-1.43,0-1.55-.67-3.26-2.02-5.13l1.95-6.12h-3.78v19.35h-1.11v-20.54h6.02v1.21l-1.95,5.9Zm5.95,6.39c-.92,1.81-2.17,3.64-3.73,5.48l-.89-.77c.67-.74,1.33-1.57,1.95-2.48,.63-.91,1.18-1.84,1.65-2.78l1.01,.54Zm.43-9.64c-1.16,1.33-2.37,2.46-3.64,3.39l-.67-1.04c1.3-.94,2.54-2.09,3.71-3.47,1.18-1.37,2.15-2.8,2.93-4.28h1.21c.72,1.38,1.67,2.75,2.85,4.1,1.18,1.35,2.4,2.49,3.67,3.43l-.62,1.11c-1.23-.94-2.43-2.07-3.59-3.39s-2.12-2.66-2.88-4.01c-.82,1.45-1.81,2.84-2.97,4.16Zm9.25,7.81h-5.85v6.22c0,.61-.08,1.08-.23,1.41-.16,.33-.41,.56-.77,.68-.35,.12-.86,.19-1.52,.19h-2.07l-.25-1.16h1.97c.49,0,.86-.04,1.11-.12,.25-.08,.42-.23,.51-.43,.09-.21,.14-.51,.14-.93v-5.85h-5.78v-1.21h5.78v-3.51h-3.68v-1.16h8.39v1.16h-3.6v3.51h5.85v1.21Zm-3.23,1.31c.41,.51,1.42,1.84,3.01,4l.86,1.16-.89,.72c-.56-.81-1.21-1.72-1.96-2.73s-1.37-1.83-1.86-2.46l.84-.69Z"/>
        </g>
        <g>
          <path class="cls-16" d="M26.33,142.01v-5.29h1.55c.84,0,1.49,.23,1.94,.7s.68,1.11,.68,1.95c0,.55-.11,1.02-.32,1.42-.21,.4-.52,.7-.93,.91-.41,.21-.9,.31-1.47,.31h-1.46Zm1.44-.38c.75,0,1.32-.19,1.72-.58,.4-.39,.59-.95,.59-1.68s-.19-1.29-.58-1.68c-.39-.39-.94-.58-1.67-.58h-1.09v4.52h1.04Z"/>
          <path class="cls-16" d="M32.08,141.86c-.31-.16-.57-.39-.76-.69l.34-.22c.17,.25,.38,.44,.64,.57,.26,.13,.53,.2,.83,.2,.26,0,.5-.04,.71-.13,.21-.09,.37-.21,.49-.37,.12-.16,.18-.33,.18-.53s-.05-.38-.15-.51c-.1-.14-.25-.25-.46-.36-.21-.1-.49-.21-.85-.31-.35-.1-.63-.2-.85-.3s-.41-.25-.55-.44-.22-.43-.22-.73c0-.28,.07-.53,.22-.74,.14-.21,.35-.38,.62-.5,.27-.12,.57-.18,.92-.18s.67,.07,.95,.22c.28,.15,.51,.35,.7,.62l-.32,.23c-.17-.22-.37-.39-.6-.51-.23-.12-.48-.18-.75-.18-.24,0-.47,.04-.67,.13-.2,.09-.36,.21-.48,.36-.12,.15-.18,.33-.18,.52,0,.23,.06,.42,.19,.56,.12,.15,.28,.26,.47,.34s.44,.17,.75,.26c.38,.1,.69,.22,.93,.34,.24,.12,.43,.28,.56,.47,.13,.19,.2,.42,.2,.69,0,.44-.16,.79-.48,1.05-.32,.26-.76,.39-1.32,.39-.38,0-.72-.08-1.04-.25Z"/>
          <path class="cls-16" d="M37.51,136.72c.63,0,1.11,.14,1.45,.41,.34,.28,.51,.67,.51,1.17s-.17,.9-.5,1.17c-.33,.27-.81,.41-1.43,.41h-1.13v2.13h-.41v-5.29h1.51Zm-.04,2.78c.51,0,.91-.1,1.18-.31s.41-.5,.41-.89-.14-.68-.41-.89-.67-.31-1.18-.31h-1.06v2.39h1.06Z"/>
          <path class="cls-16" d="M44.5,142.01l-1.92-5.29h.43l1.69,4.7h.03l1.68-4.7h.43l-1.92,5.29h-.43Z"/>
          <path class="cls-16" d="M48.37,141.77c-.35-.23-.62-.55-.8-.97-.19-.42-.28-.89-.28-1.44s.09-1.02,.28-1.44c.19-.42,.46-.74,.8-.97s.75-.34,1.2-.34,.85,.11,1.2,.34,.62,.55,.81,.97c.19,.42,.29,.89,.29,1.44s-.1,1.02-.29,1.44c-.19,.42-.46,.74-.81,.97-.35,.23-.75,.34-1.2,.34s-.85-.11-1.2-.34Zm2.18-.34c.28-.2,.5-.47,.66-.83,.16-.36,.23-.77,.23-1.24s-.08-.88-.23-1.24c-.16-.36-.38-.63-.66-.83-.28-.2-.61-.29-.98-.29s-.7,.1-.98,.29c-.28,.2-.5,.47-.66,.83s-.23,.77-.23,1.24,.08,.88,.23,1.24c.16,.36,.38,.63,.66,.83,.28,.2,.61,.29,.98,.29s.7-.1,.98-.29Z"/>
          <path class="cls-16" d="M56.88,141.28c-.18,.26-.42,.47-.72,.61-.3,.15-.62,.22-.98,.22-.47,0-.89-.11-1.24-.34-.36-.23-.63-.55-.83-.97s-.29-.9-.29-1.46,.1-1.02,.29-1.43c.19-.41,.47-.72,.83-.95,.36-.22,.77-.34,1.24-.34,.34,0,.66,.07,.96,.22,.3,.15,.55,.35,.74,.61l-.32,.24c-.16-.21-.37-.38-.62-.5s-.51-.19-.77-.19c-.39,0-.73,.1-1.02,.29s-.52,.46-.68,.82c-.16,.35-.24,.76-.24,1.23s.08,.9,.24,1.26c.16,.36,.39,.64,.68,.84,.29,.2,.63,.29,1.02,.29,.27,0,.53-.06,.77-.18,.25-.12,.45-.29,.61-.51l.31,.25Z"/>
          <path class="cls-16" d="M61.75,142.01h-.43l-.67-1.86h-2.06l-.67,1.86h-.43l1.92-5.29h.43l1.92,5.29Zm-2.14-4.7l-.88,2.45h1.79l-.88-2.45h-.03Z"/>
          <path class="cls-16" d="M63.01,136.72v4.91h2.73v.38h-3.14v-5.29h.41Z"/>
          <path class="cls-16" d="M73.14,141.28c-.18,.26-.42,.47-.72,.61-.3,.15-.62,.22-.98,.22-.47,0-.89-.11-1.24-.34-.36-.23-.63-.55-.83-.97s-.29-.9-.29-1.46,.1-1.02,.29-1.43c.19-.41,.47-.72,.83-.95,.36-.22,.77-.34,1.24-.34,.34,0,.66,.07,.96,.22,.3,.15,.55,.35,.74,.61l-.32,.24c-.16-.21-.37-.38-.62-.5s-.51-.19-.77-.19c-.39,0-.73,.1-1.02,.29s-.52,.46-.68,.82c-.16,.35-.24,.76-.24,1.23s.08,.9,.24,1.26c.16,.36,.39,.64,.68,.84,.29,.2,.63,.29,1.02,.29,.27,0,.53-.06,.77-.18s.45-.29,.61-.51l.31,.25Z"/>
          <path class="cls-16" d="M78.01,142.01h-.43l-.67-1.86h-2.06l-.67,1.86h-.43l1.92-5.29h.43l1.92,5.29Zm-2.14-4.7l-.88,2.45h1.79l-.88-2.45h-.03Z"/>
          <path class="cls-16" d="M79.26,142.01h-.41v-5.29h.44l3.01,4.6h.03v-4.6h.4v5.29h-.43l-3.01-4.6h-.03v4.6Z"/>
          <path class="cls-16" d="M87.93,141.28c-.18,.26-.42,.47-.72,.61-.3,.15-.62,.22-.98,.22-.47,0-.88-.11-1.24-.34-.36-.23-.63-.55-.83-.97-.19-.42-.29-.9-.29-1.46s.1-1.02,.29-1.43c.19-.41,.47-.72,.83-.95,.36-.22,.77-.34,1.24-.34,.34,0,.66,.07,.96,.22s.55,.35,.74,.61l-.32,.24c-.16-.21-.37-.38-.62-.5-.25-.12-.51-.19-.77-.19-.39,0-.73,.1-1.02,.29s-.52,.46-.68,.82c-.16,.35-.24,.76-.24,1.23s.08,.9,.24,1.26c.16,.36,.39,.64,.68,.84,.29,.2,.63,.29,1.02,.29,.27,0,.53-.06,.77-.18s.45-.29,.61-.51l.31,.25Z"/>
          <path class="cls-16" d="M89.41,139.44v2.18h2.78v.38h-3.18v-5.29h3.09v.39h-2.69v1.96h2.53v.38h-2.53Z"/>
          <path class="cls-16" d="M93.65,136.72v4.91h2.73v.38h-3.14v-5.29h.41Z"/>
          <path class="cls-16" d="M97.68,136.72v4.91h2.73v.38h-3.14v-5.29h.41Z"/>
          <path class="cls-16" d="M105.1,142.01h-.43l-.67-1.86h-2.06l-.67,1.86h-.43l1.92-5.29h.43l1.92,5.29Zm-2.14-4.7l-.88,2.45h1.79l-.88-2.45h-.03Z"/>
          <path class="cls-16" d="M106.71,142.01h-.41v-4.91h-1.71v-.39h3.83v.39h-1.71v4.91Z"/>
          <path class="cls-16" d="M109.71,136.72v5.29h-.41v-5.29h.41Z"/>
          <path class="cls-16" d="M111.94,141.77c-.35-.23-.62-.55-.8-.97-.19-.42-.28-.89-.28-1.44s.09-1.02,.28-1.44c.19-.42,.46-.74,.8-.97s.75-.34,1.2-.34,.85,.11,1.2,.34,.62,.55,.81,.97c.19,.42,.29,.89,.29,1.44s-.1,1.02-.29,1.44c-.19,.42-.46,.74-.81,.97-.35,.23-.75,.34-1.2,.34s-.85-.11-1.2-.34Zm2.18-.34c.29-.2,.5-.47,.66-.83,.16-.36,.23-.77,.23-1.24s-.08-.88-.23-1.24c-.16-.36-.38-.63-.66-.83-.28-.2-.61-.29-.98-.29s-.7,.1-.98,.29c-.28,.2-.5,.47-.66,.83s-.23,.77-.23,1.24,.08,.88,.23,1.24c.16,.36,.38,.63,.66,.83,.28,.2,.61,.29,.98,.29s.7-.1,.98-.29Z"/>
          <path class="cls-16" d="M116.98,142.01h-.41v-5.29h.44l3.01,4.6h.03v-4.6h.4v5.29h-.43l-3.01-4.6h-.03v4.6Z"/>
        </g>
        <g class="cls-40">
          <circle class="cls-31" cx="69.62" cy="34.91" r="34.91" transform="translate(24.01 98.03) rotate(-80.78)"/>
          <circle class="cls-29" cx="69.68" cy="34.97" r="34.83" transform="translate(24.06 98.19) rotate(-80.84)"/>
          <circle class="cls-30" cx="69.74" cy="35.03" r="34.76" transform="translate(24.12 98.35) rotate(-80.9)"/>
          <circle class="cls-36" cx="69.8" cy="35.09" r="34.68" transform="translate(24.19 98.52) rotate(-80.97)"/>
          <circle class="cls-32" cx="69.86" cy="35.15" r="34.61" transform="translate(24.26 98.69) rotate(-81.04)"/>
          <circle class="cls-33" cx="69.93" cy="35.22" r="34.53" transform="translate(24.34 98.87) rotate(-81.12)"/>
          <circle class="cls-35" cx="69.99" cy="35.28" r="34.46" transform="translate(24.42 99.05) rotate(-81.2)"/>
          <circle class="cls-34" cx="70.05" cy="35.34" r="34.38" transform="translate(24.51 99.24) rotate(-81.3)"/>
          <circle class="cls-11" cx="70.11" cy="35.4" r="34.31" transform="translate(24.62 99.43) rotate(-81.4)"/>
          <circle class="cls-14" cx="70.18" cy="35.47" r="34.23" transform="translate(24.73 99.63) rotate(-81.5)"/>
          <circle class="cls-15" cx="70.24" cy="35.53" r="34.16" transform="translate(24.86 99.84) rotate(-81.62)"/>
          <circle class="cls-12" cx="70.3" cy="35.59" r="34.09" transform="translate(25 100.06) rotate(-81.76)"/>
          <circle class="cls-13" cx="70.36" cy="35.65" r="34.01" transform="translate(25.16 100.29) rotate(-81.91)"/>
          <circle class="cls-43" cx="70.42" cy="35.71" r="33.94" transform="translate(25.34 100.54) rotate(-82.07)"/>
          <circle class="cls-42" cx="70.49" cy="35.78" r="33.86" transform="translate(25.54 100.8) rotate(-82.26)"/>
          <circle class="cls-46" cx="70.55" cy="35.84" r="33.79" transform="translate(25.77 101.08) rotate(-82.47)"/>
          <circle class="cls-44" cx="70.61" cy="35.9" r="33.71" transform="translate(26.03 101.38) rotate(-82.71)"/>
          <circle class="cls-45" cx="70.67" cy="35.96" r="33.64" transform="translate(26.34 101.71) rotate(-82.98)"/>
          <circle class="cls-48" cx="70.74" cy="36.03" r="33.56" transform="translate(26.71 102.08) rotate(-83.3)"/>
          <circle class="cls-47" cx="70.8" cy="36.09" r="33.49" transform="translate(27.14 102.49) rotate(-83.68)"/>
          <circle class="cls-50" cx="70.86" cy="36.15" r="33.41"/>
          <circle class="cls-51" cx="70.92" cy="36.21" r="33.34"/>
          <circle class="cls-49" cx="70.98" cy="36.27" r="33.26"/>
          <circle class="cls-19" cx="71.05" cy="36.34" r="33.19"/>
          <circle class="cls-21" cx="71.11" cy="36.4" r="33.12"/>
          <circle class="cls-20" cx="71.17" cy="36.46" r="33.04"/>
          <circle class="cls-17" cx="71.23" cy="36.52" r="32.97"/>
          <circle class="cls-18" cx="71.3" cy="36.59" r="32.89"/>
          <circle class="cls-22" cx="71.36" cy="36.65" r="32.82"/>
          <circle class="cls-2" cx="71.42" cy="36.71" r="32.74"/>
          <circle class="cls-4" cx="71.48" cy="36.77" r="32.67"/>
          <circle class="cls-1" cx="71.54" cy="36.83" r="32.59"/>
          <circle class="cls-5" cx="71.61" cy="36.9" r="32.52"/>
          <circle class="cls-3" cx="71.67" cy="36.96" r="32.44"/>
          <circle class="cls-23" cx="71.73" cy="37.02" r="32.37"/>
          <circle class="cls-25" cx="71.79" cy="37.08" r="32.29"/>
          <circle class="cls-24" cx="71.86" cy="37.15" r="32.22"/>
          <circle class="cls-26" cx="71.92" cy="37.21" r="32.15"/>
          <circle class="cls-27" cx="71.98" cy="37.27" r="32.07"/>
          <circle class="cls-9" cx="72.04" cy="37.33" r="32"/>
          <circle class="cls-8" cx="72.1" cy="37.39" r="31.92"/>
          <circle class="cls-7" cx="72.17" cy="37.46" r="31.85" transform="translate(16.89 97.08) rotate(-74.6)"/>
          <circle class="cls-6" cx="72.23" cy="37.52" r="31.77" transform="translate(17.26 97.54) rotate(-74.97)"/>
          <circle class="cls-10" cx="72.29" cy="37.58" r="31.7" transform="translate(17.57 97.95) rotate(-75.28)"/>
          <circle class="cls-55" cx="72.35" cy="37.64" r="31.62" transform="translate(17.84 98.31) rotate(-75.55)"/>
          <circle class="cls-54" cx="72.42" cy="37.71" r="31.55" transform="translate(18.07 98.64) rotate(-75.78)"/>
          <circle class="cls-52" cx="72.48" cy="37.77" r="31.47" transform="translate(18.28 98.94) rotate(-75.98)"/>
          <circle class="cls-53" cx="72.54" cy="37.83" r="31.4" transform="translate(18.46 99.22) rotate(-76.16)"/>
          <circle class="cls-56" cx="72.6" cy="37.89" r="31.33" transform="translate(18.62 99.48) rotate(-76.33)"/>
          <circle class="cls-37" cx="72.66" cy="37.95" r="31.25" transform="translate(18.76 99.72) rotate(-76.47)"/>
          <circle class="cls-39" cx="72.73" cy="38.02" r="31.18" transform="translate(18.89 99.95) rotate(-76.6)"/>
          <circle class="cls-38" cx="72.79" cy="38.08" r="31.1" transform="translate(19 100.17) rotate(-76.72)"/>
        </g>
        <circle class="cls-28" cx="73.14" cy="38.43" r="31.73"/>
        <line class="cls-57" x1="85.74" y1="52.26" x2="58.57" y2="25.1"/>
        <path class="cls-58" d="M70.92,29.49v2.61c0,.08,.03,.16,.09,.22l1.85,1.85c.12,.12,.32,.12,.44,0,.06-.06,.09-.14,.09-.22v-5.72c0-.7-.37-1.34-.98-1.68-.63-.34-1.4-.28-1.97,.14-.02,.01-.03,.03-.05,.04l-2.46,2.02c-.13,.11-.15,.3-.04,.43,0,0,.01,.02,.02,.02l1.32,1.32c.11,.11,.29,.12,.41,.02l1.29-1.05Z"/>
        <path class="cls-58" d="M70.92,47.87l-6.02-4.93c-.44-.36-1-.55-1.57-.55h-4.76v-7.41h3.91c.17,0,.31-.14,.31-.31,0-.08-.03-.16-.09-.22l-1.85-1.85c-.06-.06-.14-.09-.22-.09h-2.68c-1.02,0-1.85,.83-1.85,1.85v8.64c0,1.02,.83,1.85,1.85,1.85h5.38l7.05,5.77s.03,.03,.05,.04c.58,.43,1.36,.48,1.99,.13,.6-.34,.96-.98,.95-1.66v-3.87c0-.08-.03-.16-.09-.22l-1.85-1.85c-.12-.12-.32-.12-.44,0-.06,.06-.09,.14-.09,.22v4.46Z"/>
        <path class="cls-58" d="M80.8,38.68c0-1.9-.45-3.69-1.37-5.5-.32-.6-1.07-.83-1.67-.51-.59,.31-.82,1.03-.53,1.63,.74,1.45,1.1,2.88,1.1,4.38,0,.21,0,.41-.02,.63-.01,.18,.05,.36,.18,.48l1.52,1.52c.12,.12,.32,.12,.44,0,.04-.04,.07-.1,.08-.16,.18-.81,.28-1.64,.28-2.47Z"/>
        <path class="cls-58" d="M85.74,38.68c0-3.95-1.01-6.47-2.64-9.27-.35-.58-1.11-.77-1.69-.42-.57,.34-.77,1.08-.44,1.67,1.46,2.5,2.3,4.61,2.3,8.02,0,1.84-.25,3.31-.72,4.68-.08,.22-.02,.47,.15,.64l1.29,1.29c.12,.12,.32,.12,.44,0,.03-.03,.05-.06,.07-.1,.79-1.89,1.25-3.9,1.25-6.51Z"/>
        <path class="cls-58" d="M90.68,38.68c0-5.73-1.56-9.35-3.9-13.01-.37-.58-1.13-.74-1.71-.38-.58,.37-.74,1.13-.38,1.71,2.11,3.3,3.51,6.55,3.51,11.68,0,3.66-.69,6.34-1.82,8.72-.06,.12-.03,.26,.06,.35l1.38,1.38c.12,.12,.32,.12,.44,0,.02-.02,.04-.05,.06-.08,1.66-3.25,2.36-6.44,2.36-10.37Z"/>
      </g>
    </g>
  </g>
</svg>