<?xml version="1.0" encoding="UTF-8"?>
<svg xmlns="http://www.w3.org/2000/svg" viewBox="0 0 147.85 142.11">
  <defs>
    <style>
      .cls-1 {
        opacity: .61;
      }

      .cls-1, .cls-2, .cls-3, .cls-4, .cls-5 {
        fill: #2c2c2d;
      }

      .cls-6 {
        opacity: .82;
      }

      .cls-6, .cls-7, .cls-8, .cls-9, .cls-10 {
        fill: #2e2e2f;
      }

      .cls-11 {
        opacity: .16;
      }

      .cls-11, .cls-12, .cls-13, .cls-14, .cls-15 {
        fill: #282829;
      }

      .cls-16 {
        fill: #fff;
      }

      .cls-17 {
        opacity: .51;
      }

      .cls-17, .cls-18, .cls-19, .cls-20, .cls-21, .cls-22 {
        fill: #2b2b2c;
      }

      .cls-23 {
        opacity: .67;
      }

      .cls-23, .cls-24, .cls-25, .cls-26, .cls-27 {
        fill: #2d2d2e;
      }

      .cls-2 {
        opacity: .57;
      }

      .cls-28, .cls-29, .cls-30, .cls-31 {
        fill: #262627;
      }

      .cls-12 {
        opacity: .22;
      }

      .cls-32 {
        opacity: .08;
      }

      .cls-32, .cls-33, .cls-34, .cls-35, .cls-36 {
        fill: #272728;
      }

      .cls-37 {
        opacity: .96;
      }

      .cls-37, .cls-38, .cls-39 {
        fill: #303031;
      }

      .cls-40 {
        mix-blend-mode: lighten;
      }

      .cls-41 {
        isolation: isolate;
      }

      .cls-33 {
        opacity: .1;
      }

      .cls-18 {
        opacity: .53;
      }

      .cls-13 {
        opacity: .24;
      }

      .cls-14 {
        opacity: .18;
      }

      .cls-24 {
        opacity: .71;
      }

      .cls-42 {
        opacity: .27;
      }

      .cls-42, .cls-43, .cls-44, .cls-45, .cls-46 {
        fill: #29292a;
      }

      .cls-47 {
        opacity: .37;
      }

      .cls-47, .cls-48, .cls-49, .cls-50, .cls-51 {
        fill: #2a2a2b;
      }

      .cls-52 {
        opacity: .9;
      }

      .cls-52, .cls-53, .cls-54, .cls-55, .cls-56 {
        fill: #2f2f30;
      }

      .cls-48 {
        opacity: .35;
      }

      .cls-49 {
        opacity: .43;
      }

      .cls-53 {
        opacity: .92;
      }

      .cls-25 {
        opacity: .69;
      }

      .cls-29 {
        opacity: .02;
      }

      .cls-19 {
        opacity: .45;
      }

      .cls-7 {
        opacity: .8;
      }

      .cls-34 {
        opacity: .14;
      }

      .cls-35 {
        opacity: .12;
      }

      .cls-8 {
        opacity: .78;
      }

      .cls-50 {
        opacity: .39;
      }

      .cls-26 {
        opacity: .73;
      }

      .cls-30 {
        opacity: .04;
      }

      .cls-57 {
        fill: #f7cd1c;
        stroke: #f7cd1c;
        stroke-miterlimit: 10;
        stroke-width: .25px;
      }

      .cls-43 {
        opacity: .25;
      }

      .cls-44 {
        opacity: .31;
      }

      .cls-3 {
        opacity: .65;
      }

      .cls-20 {
        opacity: .49;
      }

      .cls-15 {
        opacity: .2;
      }

      .cls-27 {
        opacity: .75;
      }

      .cls-51 {
        opacity: .41;
      }

      .cls-9 {
        opacity: .76;
      }

      .cls-39 {
        opacity: .98;
      }

      .cls-21 {
        opacity: .47;
      }

      .cls-54 {
        opacity: .88;
      }

      .cls-22 {
        opacity: .55;
      }

      .cls-55 {
        opacity: .86;
      }

      .cls-36 {
        opacity: .06;
      }

      .cls-4 {
        opacity: .59;
      }

      .cls-31 {
        opacity: 0;
      }

      .cls-45 {
        opacity: .33;
      }

      .cls-5 {
        opacity: .63;
      }

      .cls-56 {
        opacity: .94;
      }

      .cls-46 {
        opacity: .29;
      }

      .cls-10 {
        opacity: .84;
      }
    </style>
  </defs>
  <g class="cls-41">
    <g id="_圖層_2" data-name="圖層 2">
      <g id="_圖層_2-2" data-name="圖層 2">
        <g>
          <path class="cls-16" d="M4.05,113.43c-.84,.62-1.98,1.25-3.43,1.89l-.62-1.04c1.61-.69,2.85-1.4,3.7-2.14,.86-.73,1.42-1.6,1.7-2.6H.12v-1.01H5.6l.02-.47,.07-2.37H3.23c-.48,.82-1.02,1.58-1.63,2.27l-.89-.67c.66-.76,1.25-1.6,1.78-2.52,.53-.92,.94-1.79,1.23-2.59l1.04,.37c-.25,.69-.56,1.4-.94,2.12h6.94v1.01h-3.92l-.07,2.42-.02,.42h4.64v1.01H6.59c-.05,.28-.12,.56-.22,.84,2.32,1.42,3.9,2.42,4.74,3.01l-.67,.96c-1.33-.94-2.83-1.94-4.49-3.01-.43,.77-1.06,1.47-1.9,2.09Zm.57,11.37h-1.23v-9.85h14.79v9.83h-1.23v-1.28H4.62v1.31Zm12.32-6.07v-2.69H4.62v2.69h12.32Zm-12.32,1.04v2.67h12.32v-2.67H4.62Zm7.9-6.96v-8.27h7.6v8.27h-7.6Zm1.11-1.16h5.33v-6h-5.33v6Z"/>
          <path class="cls-16" d="M25.53,123.57c.51-.54,1.03-1.18,1.56-1.91s.96-1.42,1.31-2.06l1.01,.59c-.4,.68-.86,1.39-1.41,2.14s-1.08,1.4-1.6,1.96l-.86-.72Zm1.93-11.23h3.31v-1.6h-5.06v-.89h5.06v-1.78h-4v-.84h4v-1.83h-4.52v-.89h4.52v-1.93h1.14v1.93h3.63v.89h-3.63v1.83h3.38v.84h-3.38v1.78h3.73v.89h-3.73v1.6h8.47v-1.6h-3.9v-.89h3.9v-1.78h-3.58v-.84h3.58v-1.83h-3.83v-.89h3.83v-1.93h1.09v1.93h4.49v.89h-4.49v1.83h4v.84h-4v1.78h4.99v.89h-4.99v1.6h2.74v6.1H27.13v-.89h15.92v-1.73h-15.06v-.86h15.06v-1.75h-15.6v-.86Zm12.96,7.7l1.09,.27c0,.43-.02,1.06-.07,1.9-.1,.82-.35,1.39-.74,1.69-.39,.3-1.09,.46-2.1,.46h-4.91c-.67,0-1.19-.07-1.56-.21-.36-.14-.62-.38-.78-.73-.16-.35-.23-.84-.23-1.48v-2.42h1.19v2.22c0,.64,.12,1.07,.36,1.3,.24,.22,.7,.33,1.4,.33h4.3c.74,0,1.25-.1,1.53-.3,.28-.2,.44-.59,.47-1.19l.07-1.85Zm-4.79-1.38c.25,.23,.79,.78,1.63,1.65l1.19,1.21-.86,.72c-.31-.35-1.22-1.3-2.72-2.86l.77-.72Zm7.38,.62c.76,.82,1.92,2.16,3.48,4.02l-.89,.72c-1.09-1.38-2.23-2.73-3.43-4.05l.84-.69Z"/>
          <path class="cls-16" d="M59.99,119.47v1.11h-4.07v4.22h-.99v-4.22h-4.27v-1.11h4.27v-2.59h-3.23v-8.05h3.23v-2.47h-4.07v-1.09h4.07v-2.86h.99v2.86h3.9v1.09h-3.9v2.47h3.23v8.05h-3.23v2.59h4.07Zm-5.06-7.06v-2.59h-2.35v2.59h2.35Zm0,.94h-2.35v2.57h2.35v-2.57Zm.96-.94h2.34v-2.59h-2.34v2.59Zm0,.94v2.57h2.34v-2.57h-2.34Zm10.66,4.25v4.89h5.53v1.09h-12.76v-1.09h6.05v-4.89h-4.84v-1.11h10.81v1.11h-4.79Zm-4.05-2.15c-.26-.58-.64-1.33-1.14-2.26-.49-.93-.93-1.72-1.31-2.36,.31-.51,.7-1.23,1.16-2.15,.46-.92,.82-1.73,1.09-2.42l.96,.4c-.23,.59-.55,1.3-.96,2.12-.41,.82-.77,1.51-1.09,2.07,1.09,1.94,1.83,3.32,2.22,4.15l-.94,.44Zm-2.35-11.21h11.63v1.16h-11.63v-1.16Zm7.06,2.42c-.25,.61-.58,1.34-1,2.18-.42,.85-.77,1.52-1.05,2.01,1.2,2.14,1.95,3.52,2.25,4.15l-.94,.44c-.68-1.38-1.5-2.92-2.47-4.62,.31-.49,.69-1.21,1.15-2.14,.45-.93,.81-1.74,1.07-2.43l.99,.4Zm4,0c-.28,.66-.63,1.41-1.05,2.26-.42,.85-.76,1.49-1.02,1.94,.33,.53,.73,1.23,1.2,2.1,.47,.87,.83,1.56,1.07,2.05l-.96,.44c-.89-1.79-1.71-3.33-2.47-4.62,.31-.49,.7-1.21,1.16-2.16,.46-.95,.81-1.75,1.06-2.41l1.01,.4Z"/>
          <path class="cls-16" d="M84.82,118.14l.05,.62-2.64,.64c-3.92,.95-5.96,1.46-6.12,1.51l-.25-1.33,3.83-.91v-12.24h-3.48v-1.26h7.92v1.26h-3.26v11.95c2.29-.54,3.57-.86,3.85-.94l.1,.72Zm12.34-12.54h-8.07l-1.04,6.34h7.78l-.37,6.22-.12,2.07c-.07,.95-.24,1.69-.52,2.21-.28,.52-.72,.89-1.32,1.12-.6,.23-1.44,.35-2.51,.35h-3.41l-.22-1.26h3.51c.86,0,1.5-.08,1.93-.23,.43-.16,.73-.43,.91-.81,.18-.39,.3-.97,.37-1.74,.05-.66,.1-1.42,.16-2.28,.06-.86,.11-1.68,.16-2.46l.12-1.95h-7.95l1.21-7.58h-2.89v-1.26h12.27v1.26Z"/>
          <path class="cls-16" d="M107.09,102.88c-.56,2.04-1.22,3.97-1.97,5.78v16.19h-1.16v-13.6c-.79,1.63-1.6,3.02-2.42,4.17l-.52-1.48c.84-1.22,1.72-2.89,2.63-5.02s1.67-4.25,2.26-6.36l1.18,.32Zm15.33,21.55c-2.04-.25-3.8-.56-5.28-.94s-2.8-.87-3.95-1.48c-.62,.56-1.46,1.06-2.51,1.51s-2.41,.9-4.08,1.36l-.44-1.16c1.55-.41,2.78-.79,3.7-1.15,.92-.35,1.67-.75,2.25-1.2-1.2-.79-2.36-1.87-3.48-3.23l.86-.72c1.14,1.33,2.3,2.38,3.48,3.14,.35-.44,.61-.96,.8-1.56,.19-.59,.32-1.29,.38-2.1h-5.78v-9.11h5.85v-2.79h-6.37v-1.11h14.69v1.11h-7.16v2.79h5.83v9.11h-5.88c-.08,.94-.23,1.74-.43,2.42s-.5,1.28-.88,1.8c1.04,.51,2.25,.93,3.64,1.26,1.39,.33,3.07,.58,5.02,.77l-.27,1.28Zm-8.2-12.61v-2.94h-4.71v2.94h4.71Zm-4.71,.99v2.99h4.71v-2.99h-4.71Zm10.54-.99v-2.94h-4.67v2.94h4.67Zm-4.67,3.97h4.67v-2.99h-4.67v2.99Z"/>
          <path class="cls-16" d="M132.81,113.64l.12,.54-.67,.25c-.39,.13-1.02,.36-1.88,.69v6.71c0,.61-.07,1.07-.21,1.39-.14,.32-.38,.55-.72,.69-.34,.14-.83,.21-1.47,.21h-1.14l-.2-1.19h1.11c.64,0,1.06-.09,1.26-.28,.2-.19,.3-.58,.3-1.17v-5.97l-1.06,.4c-.61,.21-1.07,.39-1.38,.52l-.35-1.16,2.79-.99v-6.2h-2.72v-1.14h2.72v-4.52h1.06v4.52h2.34v1.14h-2.34v5.83l2.3-.84,.12,.57Zm8.71,.94h6.32v.79h-13.63v-5.28c-.74,.99-1.42,1.77-2.05,2.35l-.52-1.01c.77-.67,1.48-1.49,2.12-2.43s1.15-1.87,1.53-2.78l.94,.35c-.23,.51-.44,.95-.64,1.31h4.89c-.15-.41-.32-.83-.52-1.26l1.01-.32,.64,1.58h5.9v.84h-6v1.46h5.38v.81h-5.38v1.38h5.38v.79h-5.38v1.43Zm-7.95,10.15v-8.02h13.68v6c0,.48-.08,.84-.25,1.09-.16,.25-.44,.42-.83,.52-.39,.1-.96,.15-1.72,.15h-1.41l-.2-.99h1.28c.82,0,1.37-.07,1.65-.21,.28-.14,.42-.44,.42-.9v-4.84h-11.6v7.21h-1.04Zm12.07-21.82h1.09v2.99h-12.61v-2.99h1.04v2.12h4.76v-2.84h1.06v2.84h4.67v-2.12Zm-6.47,15.63c-.79,.56-2.08,1.32-3.88,2.27l-.37-.79c1.84-.95,3.11-1.7,3.8-2.22l.44,.74Zm-3.95-8.37h5.28v-1.46h-5.28v1.46Zm0,2.2h5.28v-1.38h-5.28v1.38Zm5.28,.79h-5.28v1.43h5.28v-1.43Zm-2.99,6.71h5.85v2.84h-5.85v-2.84Zm.86,2.07h4.07v-1.28h-4.07v1.28Zm7.04-1.19c-1.15-.79-2.35-1.56-3.6-2.3l.42-.67c1.76,1.05,2.96,1.79,3.6,2.22l-.42,.74Z"/>
        </g>
        <g>
          <path class="cls-16" d="M35.45,141.87c-.31-.16-.57-.39-.76-.69l.34-.22c.17,.25,.38,.44,.64,.57,.26,.13,.53,.2,.83,.2,.26,0,.5-.04,.71-.13,.21-.09,.37-.21,.49-.37,.12-.16,.18-.33,.18-.53s-.05-.38-.15-.51c-.1-.14-.25-.25-.46-.36-.21-.1-.49-.21-.85-.31-.35-.1-.63-.2-.85-.3s-.41-.25-.55-.44-.22-.43-.22-.73c0-.28,.07-.53,.22-.74,.14-.21,.35-.38,.62-.5,.27-.12,.57-.18,.92-.18s.67,.07,.95,.22c.28,.15,.51,.35,.7,.62l-.32,.23c-.17-.22-.37-.39-.6-.51-.23-.12-.48-.18-.75-.18-.24,0-.47,.04-.67,.13-.2,.09-.36,.21-.48,.36-.12,.15-.18,.33-.18,.52,0,.23,.06,.42,.19,.56,.12,.15,.28,.26,.47,.34s.44,.17,.75,.26c.38,.1,.69,.22,.93,.34,.24,.12,.43,.28,.56,.47,.13,.19,.2,.42,.2,.69,0,.44-.16,.79-.48,1.05-.32,.26-.76,.39-1.32,.39-.38,0-.72-.08-1.04-.25Z"/>
          <path class="cls-16" d="M39.78,142.02h-.41v-5.29h.43l1.99,3.63h.03l1.98-3.63h.43v5.29h-.4v-4.52h-.03l-1.87,3.42h-.27l-1.87-3.42h-.03v4.52Z"/>
          <path class="cls-16" d="M49.35,142.01h-.43l-.67-1.86h-2.06l-.67,1.86h-.43l1.92-5.29h.43l1.92,5.29Zm-2.14-4.7l-.88,2.45h1.79l-.88-2.45h-.03Z"/>
          <path class="cls-16" d="M53.76,142.01h-.47l-1.37-2.34s-.12,0-.22,0h-1.1v2.33h-.41v-5.29h1.47c.62,0,1.1,.13,1.43,.39,.33,.26,.5,.63,.5,1.11,0,.38-.11,.69-.33,.92-.22,.24-.53,.4-.94,.48l1.43,2.39Zm-2.13-2.72c.5,0,.88-.09,1.15-.28,.27-.18,.41-.45,.41-.79s-.14-.64-.41-.83c-.27-.19-.66-.29-1.15-.29h-1.02v2.19h1.02Z"/>
          <path class="cls-16" d="M56.27,142.01h-.41v-4.91h-1.71v-.39h3.83v.39h-1.71v4.91Z"/>
          <path class="cls-16" d="M61.9,142.02h-.41v-5.29h.43l1.99,3.63h.03l1.98-3.63h.43v5.29h-.4v-4.52h-.03l-1.87,3.42h-.27l-1.87-3.42h-.03v4.52Z"/>
          <path class="cls-16" d="M68.08,136.72v5.29h-.41v-5.29h.41Z"/>
          <path class="cls-16" d="M69.79,142.01h-.41v-5.29h.44l3.01,4.6h.03v-4.6h.4v5.29h-.43l-3.01-4.6h-.03v4.6Z"/>
          <path class="cls-16" d="M74.99,136.72v5.29h-.41v-5.29h.41Z"/>
          <path class="cls-16" d="M80.43,136.72c.63,0,1.11,.14,1.45,.41,.34,.28,.51,.67,.51,1.17s-.17,.9-.5,1.17c-.33,.27-.81,.41-1.43,.41h-1.13v2.13h-.41v-5.29h1.51Zm-.04,2.78c.51,0,.91-.1,1.18-.31,.27-.21,.41-.5,.41-.89s-.14-.68-.41-.89c-.27-.21-.67-.31-1.18-.31h-1.06v2.39h1.06Z"/>
          <path class="cls-16" d="M84.26,141.77c-.35-.23-.62-.55-.8-.97-.19-.42-.28-.89-.28-1.44s.09-1.02,.28-1.44c.19-.42,.46-.74,.8-.97s.75-.34,1.2-.34,.85,.11,1.2,.34,.62,.55,.81,.97c.19,.42,.29,.89,.29,1.44s-.1,1.02-.29,1.44c-.19,.42-.46,.74-.81,.97-.35,.23-.75,.34-1.2,.34s-.85-.11-1.2-.34Zm2.18-.34c.28-.2,.5-.47,.66-.83,.16-.36,.23-.77,.23-1.24s-.08-.88-.23-1.24-.38-.63-.66-.83c-.29-.2-.61-.29-.98-.29s-.7,.1-.98,.29c-.28,.2-.5,.47-.66,.83s-.23,.77-.23,1.24,.08,.88,.23,1.24c.16,.36,.38,.63,.66,.83,.28,.2,.61,.29,.98,.29s.7-.1,.98-.29Z"/>
          <path class="cls-16" d="M92.45,142.01h-.47l-1.37-2.34s-.12,0-.22,0h-1.1v2.33h-.41v-5.29h1.47c.62,0,1.1,.13,1.43,.39,.33,.26,.5,.63,.5,1.11,0,.38-.11,.69-.33,.92-.22,.24-.53,.4-.94,.48l1.43,2.39Zm-2.13-2.72c.5,0,.88-.09,1.15-.28,.27-.18,.41-.45,.41-.79s-.14-.64-.41-.83c-.27-.19-.66-.29-1.15-.29h-1.02v2.19h1.02Z"/>
          <path class="cls-16" d="M94.96,142.01h-.41v-4.91h-1.71v-.39h3.83v.39h-1.71v4.91Z"/>
          <path class="cls-16" d="M100.42,142.01h-.43l-.67-1.86h-2.06l-.67,1.86h-.43l1.92-5.29h.43l1.92,5.29Zm-2.14-4.7l-.88,2.45h1.79l-.88-2.45h-.03Z"/>
          <path class="cls-16" d="M103.54,139.25c.4,.05,.71,.18,.93,.41,.23,.23,.34,.51,.34,.86,0,.48-.18,.85-.55,1.11-.36,.26-.88,.39-1.56,.39h-1.44v-5.29h1.43c.59,0,1.05,.11,1.37,.34s.48,.55,.48,.97c0,.29-.09,.55-.27,.76s-.42,.35-.73,.42v.04Zm-1.87-2.14v1.94h1.07c.43,0,.77-.09,1.01-.27,.24-.18,.37-.42,.37-.73s-.13-.53-.38-.69c-.26-.16-.62-.25-1.09-.25h-.97Zm.97,4.52c.57,0,1-.1,1.3-.29,.3-.2,.45-.48,.45-.84,0-.35-.14-.61-.43-.79-.29-.18-.7-.27-1.22-.27h-1.07v2.2h.97Z"/>
          <path class="cls-16" d="M106.35,136.72v4.91h2.73v.38h-3.14v-5.29h.41Z"/>
          <path class="cls-16" d="M110.38,139.44v2.18h2.78v.38h-3.19v-5.29h3.09v.39h-2.69v1.96h2.53v.38h-2.53Z"/>
        </g>
        <g class="cls-40">
          <circle class="cls-31" cx="70.15" cy="34.91" r="34.91" transform="translate(24.46 98.56) rotate(-80.78)"/>
          <circle class="cls-29" cx="70.21" cy="34.97" r="34.83" transform="translate(24.51 98.72) rotate(-80.84)"/>
          <circle class="cls-30" cx="70.27" cy="35.03" r="34.76" transform="translate(24.57 98.88) rotate(-80.9)"/>
          <circle class="cls-36" cx="70.33" cy="35.09" r="34.68" transform="translate(24.64 99.05) rotate(-80.97)"/>
          <circle class="cls-32" cx="70.4" cy="35.15" r="34.61" transform="translate(24.71 99.22) rotate(-81.04)"/>
          <circle class="cls-33" cx="70.46" cy="35.22" r="34.53" transform="translate(24.79 99.39) rotate(-81.12)"/>
          <circle class="cls-35" cx="70.52" cy="35.28" r="34.46" transform="translate(24.87 99.58) rotate(-81.2)"/>
          <circle class="cls-34" cx="70.58" cy="35.34" r="34.38" transform="translate(24.97 99.76) rotate(-81.3)"/>
          <circle class="cls-11" cx="70.64" cy="35.4" r="34.31" transform="translate(25.07 99.96) rotate(-81.4)"/>
          <circle class="cls-14" cx="70.71" cy="35.47" r="34.23" transform="translate(25.18 100.16) rotate(-81.5)"/>
          <circle class="cls-15" cx="70.77" cy="35.53" r="34.16" transform="translate(25.31 100.37) rotate(-81.62)"/>
          <circle class="cls-12" cx="70.83" cy="35.59" r="34.09" transform="translate(25.45 100.59) rotate(-81.76)"/>
          <circle class="cls-13" cx="70.89" cy="35.65" r="34.01" transform="translate(25.61 100.82) rotate(-81.91)"/>
          <circle class="cls-43" cx="70.96" cy="35.71" r="33.94" transform="translate(25.79 101.06) rotate(-82.07)"/>
          <circle class="cls-42" cx="71.02" cy="35.78" r="33.86" transform="translate(26 101.33) rotate(-82.26)"/>
          <circle class="cls-46" cx="71.08" cy="35.84" r="33.79" transform="translate(26.23 101.61) rotate(-82.47)"/>
          <circle class="cls-44" cx="71.14" cy="35.9" r="33.71" transform="translate(26.5 101.91) rotate(-82.71)"/>
          <circle class="cls-45" cx="71.2" cy="35.96" r="33.64" transform="translate(26.81 102.24) rotate(-82.98)"/>
          <circle class="cls-48" cx="71.27" cy="36.03" r="33.56" transform="translate(27.18 102.61) rotate(-83.3)"/>
          <circle class="cls-47" cx="71.33" cy="36.09" r="33.49" transform="translate(27.61 103.01) rotate(-83.68)"/>
          <circle class="cls-50" cx="71.39" cy="36.15" r="33.41"/>
          <circle class="cls-51" cx="71.45" cy="36.21" r="33.34"/>
          <circle class="cls-49" cx="71.52" cy="36.27" r="33.26"/>
          <circle class="cls-19" cx="71.58" cy="36.34" r="33.19"/>
          <circle class="cls-21" cx="71.64" cy="36.4" r="33.12"/>
          <circle class="cls-20" cx="71.7" cy="36.46" r="33.04"/>
          <circle class="cls-17" cx="71.76" cy="36.52" r="32.97"/>
          <circle class="cls-18" cx="71.83" cy="36.59" r="32.89"/>
          <circle class="cls-22" cx="71.89" cy="36.65" r="32.82"/>
          <circle class="cls-2" cx="71.95" cy="36.71" r="32.74"/>
          <circle class="cls-4" cx="72.01" cy="36.77" r="32.67"/>
          <circle class="cls-1" cx="72.08" cy="36.83" r="32.59"/>
          <circle class="cls-5" cx="72.14" cy="36.9" r="32.52"/>
          <circle class="cls-3" cx="72.2" cy="36.96" r="32.44"/>
          <circle class="cls-23" cx="72.26" cy="37.02" r="32.37"/>
          <circle class="cls-25" cx="72.32" cy="37.08" r="32.29"/>
          <circle class="cls-24" cx="72.39" cy="37.15" r="32.22"/>
          <circle class="cls-26" cx="72.45" cy="37.21" r="32.15"/>
          <circle class="cls-27" cx="72.51" cy="37.27" r="32.07"/>
          <circle class="cls-9" cx="72.57" cy="37.33" r="32"/>
          <circle class="cls-8" cx="72.64" cy="37.39" r="31.92"/>
          <circle class="cls-7" cx="72.7" cy="37.46" r="31.85" transform="translate(17.28 97.6) rotate(-74.6)"/>
          <circle class="cls-6" cx="72.76" cy="37.52" r="31.77" transform="translate(17.65 98.06) rotate(-74.97)"/>
          <circle class="cls-10" cx="72.82" cy="37.58" r="31.7" transform="translate(17.97 98.46) rotate(-75.28)"/>
          <circle class="cls-55" cx="72.88" cy="37.64" r="31.62" transform="translate(18.24 98.82) rotate(-75.55)"/>
          <circle class="cls-54" cx="72.95" cy="37.71" r="31.55" transform="translate(18.48 99.15) rotate(-75.78)"/>
          <circle class="cls-52" cx="73.01" cy="37.77" r="31.47" transform="translate(18.68 99.46) rotate(-75.98)"/>
          <circle class="cls-53" cx="73.07" cy="37.83" r="31.4" transform="translate(18.86 99.73) rotate(-76.16)"/>
          <circle class="cls-56" cx="73.13" cy="37.89" r="31.33" transform="translate(19.03 99.99) rotate(-76.33)"/>
          <circle class="cls-37" cx="73.2" cy="37.95" r="31.25" transform="translate(19.17 100.24) rotate(-76.47)"/>
          <circle class="cls-39" cx="73.26" cy="38.02" r="31.18" transform="translate(19.3 100.47) rotate(-76.6)"/>
          <circle class="cls-38" cx="73.32" cy="38.08" r="31.1" transform="translate(19.41 100.69) rotate(-76.72)"/>
        </g>
        <circle class="cls-28" cx="73.67" cy="38.43" r="31.73"/>
        <path class="cls-57" d="M80.01,44.33c.17,.02,.34,.05,.51,.07,.27,.03,.5,.12,.6,.4,.1,.27-.03,.47-.2,.65-1.41,1.52-3.03,2.76-4.87,3.71-2.56,1.32-5.26,1.88-8.13,1.47-.26-.04-.32,.09-.41,.27-.88,1.75-1.76,3.49-2.62,5.25-.2,.41-.47,.58-.93,.6-1.29,.05-2.49,.36-3.47,1.27-.2,.19-.43,.2-.67,.06-.26-.16-.29-.4-.23-.67,.18-.83,.46-1.62,.82-2.39,.91-1.95,2.17-3.66,3.55-5.29,.38-.45,.77-.9,1.18-1.32,.19-.2,.19-.36,.11-.6-.79-2.21-.93-4.45-.27-6.71,.58-2,1.68-3.69,3.08-5.21,1.01-1.1,2.14-2.06,3.4-2.88,.23-.15,.46-.29,.74-.16,.3,.15,.33,.43,.33,.72,0,.12,.02,.23,.02,.36,.15-.04,.14-.17,.18-.26,.75-1.84,2.06-3.24,3.57-4.48,1.36-1.11,2.85-2.05,4.25-3.11,1.25-.94,2.43-1.94,3.3-3.27,.57-.88,.95-1.83,1.09-2.87,.01-.09,.03-.18,.05-.28,.05-.27,.2-.44,.47-.47,.29-.03,.5,.1,.59,.37,.16,.45,.33,.91,.47,1.37,.85,2.72,1.47,5.49,1.66,8.33,.16,2.48,.07,4.95-.97,7.26-1.09,2.41-2.72,4.42-4.78,6.07-.77,.62-1.6,1.16-2.44,1.72Zm-18.9,11.93c.9-.37,1.75-.59,2.64-.63,.21,0,.23-.2,.3-.34,.88-1.75,1.75-3.5,2.63-5.24,.31-.62,.42-.67,1.1-.55,1.24,.21,2.48,.21,3.72,0,2.96-.49,5.46-1.92,7.67-3.89,.06-.06,.17-.1,.13-.24-.54-.06-1.09-.12-1.63-.18-.3-.03-.51-.17-.55-.49-.04-.31,.11-.51,.4-.61,2.31-.85,4.27-2.2,5.97-3.98,2.51-2.63,3.78-5.73,3.64-9.4-.08-2.21-.38-4.38-.88-6.52-.18-.77-.36-1.54-.64-2.36-.41,.98-.91,1.81-1.55,2.56-1.12,1.33-2.5,2.35-3.89,3.35-1.46,1.05-2.96,2.04-4.26,3.3-1.48,1.44-2.47,3.12-2.65,5.22-.03,.32-.11,.59-.46,.66-.31,.07-.51-.08-.69-.47-.3-.66-.47-1.36-.64-2.1-.15,.11-.27,.19-.39,.27-1.19,.91-2.26,1.94-3.16,3.14-1.7,2.25-2.57,4.74-2.16,7.59,.09,.61,.21,1.22,.45,1.81,.54-.53,1.06-1.03,1.58-1.54,2.75-2.72,5.62-5.3,8.36-8.03,1.08-1.08,2.14-2.19,3.11-3.37,1.38-1.68,2.66-3.43,3.19-5.62,.39,.02,.73,.11,1.09,.2-.11,.64-.33,1.23-.58,1.8-.87,1.95-2.17,3.6-3.56,5.18-1.96,2.22-4.14,4.24-6.29,6.28-2.77,2.62-5.57,5.2-8.06,8.09-1.39,1.61-2.66,3.3-3.57,5.23-.12,.26-.23,.53-.37,.87Z"/>
      </g>
    </g>
  </g>
</svg>