<?xml version="1.0" encoding="UTF-8"?>
<svg xmlns="http://www.w3.org/2000/svg" viewBox="0 0 142.44 142.11">
  <defs>
    <style>
      .cls-1 {
        opacity: .61;
      }

      .cls-1, .cls-2, .cls-3, .cls-4, .cls-5 {
        fill: #2c2c2d;
      }

      .cls-6 {
        opacity: .82;
      }

      .cls-6, .cls-7, .cls-8, .cls-9, .cls-10 {
        fill: #2e2e2f;
      }

      .cls-11 {
        opacity: .16;
      }

      .cls-11, .cls-12, .cls-13, .cls-14, .cls-15 {
        fill: #282829;
      }

      .cls-16 {
        fill: #fff;
      }

      .cls-17 {
        opacity: .51;
      }

      .cls-17, .cls-18, .cls-19, .cls-20, .cls-21, .cls-22 {
        fill: #2b2b2c;
      }

      .cls-23 {
        opacity: .67;
      }

      .cls-23, .cls-24, .cls-25, .cls-26, .cls-27 {
        fill: #2d2d2e;
      }

      .cls-2 {
        opacity: .57;
      }

      .cls-28, .cls-29, .cls-30, .cls-31 {
        fill: #262627;
      }

      .cls-12 {
        opacity: .22;
      }

      .cls-32 {
        opacity: .08;
      }

      .cls-32, .cls-33, .cls-34, .cls-35, .cls-36 {
        fill: #272728;
      }

      .cls-37 {
        opacity: .96;
      }

      .cls-37, .cls-38, .cls-39 {
        fill: #303031;
      }

      .cls-40 {
        mix-blend-mode: lighten;
      }

      .cls-41 {
        isolation: isolate;
      }

      .cls-33 {
        opacity: .1;
      }

      .cls-18 {
        opacity: .53;
      }

      .cls-13 {
        opacity: .24;
      }

      .cls-14 {
        opacity: .18;
      }

      .cls-24 {
        opacity: .71;
      }

      .cls-42 {
        opacity: .27;
      }

      .cls-42, .cls-43, .cls-44, .cls-45, .cls-46 {
        fill: #29292a;
      }

      .cls-47 {
        opacity: .37;
      }

      .cls-47, .cls-48, .cls-49, .cls-50, .cls-51 {
        fill: #2a2a2b;
      }

      .cls-52 {
        opacity: .9;
      }

      .cls-52, .cls-53, .cls-54, .cls-55, .cls-56 {
        fill: #2f2f30;
      }

      .cls-48 {
        opacity: .35;
      }

      .cls-49 {
        opacity: .43;
      }

      .cls-53 {
        opacity: .92;
      }

      .cls-25 {
        opacity: .69;
      }

      .cls-29 {
        opacity: .02;
      }

      .cls-19 {
        opacity: .45;
      }

      .cls-7 {
        opacity: .8;
      }

      .cls-34 {
        opacity: .14;
      }

      .cls-35 {
        opacity: .12;
      }

      .cls-8 {
        opacity: .78;
      }

      .cls-50 {
        opacity: .39;
      }

      .cls-26 {
        opacity: .73;
      }

      .cls-30 {
        opacity: .04;
      }

      .cls-43 {
        opacity: .25;
      }

      .cls-44 {
        opacity: .31;
      }

      .cls-3 {
        opacity: .65;
      }

      .cls-20 {
        opacity: .49;
      }

      .cls-15 {
        opacity: .2;
      }

      .cls-27 {
        opacity: .75;
      }

      .cls-51 {
        opacity: .41;
      }

      .cls-9 {
        opacity: .76;
      }

      .cls-39 {
        opacity: .98;
      }

      .cls-21 {
        opacity: .47;
      }

      .cls-54 {
        opacity: .88;
      }

      .cls-22 {
        opacity: .55;
      }

      .cls-55 {
        opacity: .86;
      }

      .cls-36 {
        opacity: .06;
      }

      .cls-57 {
        fill: #f7cd1c;
      }

      .cls-4 {
        opacity: .59;
      }

      .cls-31 {
        opacity: 0;
      }

      .cls-45 {
        opacity: .33;
      }

      .cls-5 {
        opacity: .63;
      }

      .cls-56 {
        opacity: .94;
      }

      .cls-46 {
        opacity: .29;
      }

      .cls-10 {
        opacity: .84;
      }
    </style>
  </defs>
  <g class="cls-41">
    <g id="_圖層_2" data-name="圖層 2">
      <g id="_圖層_2-2" data-name="圖層 2">
        <g>
          <path class="cls-16" d="M6.27,115.62L0,104.51H1.65l5.31,9.6h.07l5.31-9.6h1.65l-6.27,11.11v7.55h-1.46v-7.55Z"/>
          <path class="cls-16" d="M15.48,122.67c-.87-.57-1.55-1.37-2.04-2.41-.49-1.04-.73-2.23-.73-3.58s.24-2.54,.73-3.58c.49-1.04,1.16-1.84,2.04-2.41,.87-.57,1.88-.85,3.01-.85s2.16,.28,3.04,.85,1.55,1.37,2.04,2.41c.49,1.04,.73,2.23,.73,3.58s-.24,2.54-.73,3.58c-.49,1.04-1.17,1.84-2.04,2.41-.87,.57-1.88,.85-3.04,.85s-2.14-.28-3.01-.85Zm5.32-1.12c.67-.46,1.19-1.11,1.56-1.95s.56-1.81,.56-2.91-.19-2.07-.56-2.91c-.37-.84-.89-1.49-1.56-1.95-.67-.46-1.44-.69-2.31-.69s-1.64,.23-2.3,.69c-.66,.46-1.17,1.11-1.54,1.95-.37,.84-.56,1.81-.56,2.91s.19,2.07,.56,2.91,.88,1.49,1.54,1.95c.66,.46,1.42,.69,2.3,.69s1.64-.23,2.31-.69Z"/>
          <path class="cls-16" d="M38.44,110.19v12.98h-1.38v-2.3h-.1c-.41,.82-1.02,1.47-1.81,1.94-.8,.47-1.67,.7-2.63,.7-1.46,0-2.61-.46-3.43-1.37-.82-.91-1.23-2.19-1.23-3.84v-8.12h1.38v7.88c0,1.32,.32,2.34,.97,3.09s1.53,1.11,2.63,1.11c.82,0,1.56-.19,2.2-.58,.64-.39,1.14-.91,1.49-1.58,.35-.67,.53-1.39,.53-2.18v-7.73h1.38Z"/>
          <path class="cls-16" d="M48.66,111.47h-3.85v8.1c0,.84,.2,1.49,.59,1.95,.39,.46,.93,.69,1.6,.69,.39,0,.85-.1,1.36-.3v1.28c-.51,.2-1.05,.3-1.63,.3-1.04,0-1.85-.33-2.43-.99-.58-.66-.88-1.6-.88-2.81v-8.22h-2.05v-1.28h2.05v-3.85h1.38v3.85h3.85v1.28Z"/>
          <path class="cls-16" d="M61.89,110.19v12.98h-1.38v-2.3h-.1c-.41,.82-1.02,1.47-1.81,1.94-.8,.47-1.67,.7-2.63,.7-1.46,0-2.61-.46-3.43-1.37-.82-.91-1.23-2.19-1.23-3.84v-8.12h1.38v7.88c0,1.32,.33,2.34,.98,3.09,.65,.74,1.53,1.11,2.63,1.11,.82,0,1.55-.19,2.2-.58,.64-.39,1.14-.91,1.49-1.58,.35-.67,.53-1.39,.53-2.18v-7.73h1.38Z"/>
          <path class="cls-16" d="M66.18,123.17v-18.66h1.36v8.22h.1c.46-.87,1.08-1.56,1.86-2.06s1.67-.75,2.65-.75c1.07,0,2.02,.28,2.86,.85,.84,.57,1.5,1.35,1.97,2.36,.48,1,.71,2.15,.71,3.43s-.24,2.53-.71,3.58c-.48,1.05-1.14,1.88-1.97,2.47-.84,.59-1.79,.89-2.86,.89-1,0-1.9-.25-2.68-.75-.78-.5-1.39-1.2-1.84-2.09h-.1v2.52h-1.36Zm1.86-3.65c.37,.82,.88,1.47,1.54,1.94,.66,.47,1.41,.7,2.25,.7s1.62-.23,2.31-.7c.68-.47,1.21-1.11,1.59-1.94,.38-.82,.57-1.76,.57-2.81s-.19-1.99-.57-2.81c-.38-.82-.9-1.47-1.58-1.94-.67-.47-1.44-.7-2.29-.7s-1.59,.23-2.26,.7c-.67,.47-1.18,1.11-1.55,1.94-.37,.82-.56,1.76-.56,2.81s.19,1.99,.56,2.81Z"/>
          <path class="cls-16" d="M91.96,117.1h-9.8c.08,1.55,.54,2.79,1.37,3.72,.83,.93,1.91,1.39,3.25,1.39,.79,0,1.54-.19,2.25-.58,.71-.39,1.26-.92,1.65-1.59l1.06,.72c-.48,.84-1.15,1.5-2.02,1.99-.87,.49-1.85,.73-2.94,.73-1.2,0-2.25-.28-3.16-.84s-1.6-1.35-2.1-2.37c-.49-1.02-.74-2.21-.74-3.55s.24-2.57,.72-3.6c.48-1.04,1.15-1.84,2.02-2.41,.87-.57,1.89-.85,3.06-.85,1.1,0,2.07,.25,2.9,.75,.83,.5,1.47,1.21,1.92,2.12,.45,.91,.68,1.96,.68,3.15,0,.38-.04,.79-.12,1.23Zm-1.28-1.26c0-1.42-.38-2.56-1.14-3.43-.76-.87-1.75-1.31-2.96-1.31s-2.2,.43-2.99,1.28c-.79,.86-1.25,2.01-1.38,3.46h8.47Z"/>
          <path class="cls-16" d="M95.63,118.66l-.03-1.09,5.13-.25v-2.39h-4.57v-1.06h4.57v-2.22h-4.22v-8.05h9.53v8.05h-4.25v2.22h4.54v1.06h-4.54v2.35l4.89-.22v.52l-.02,.57-11.03,.52Zm-.03,5.6c.23-.69,.47-1.49,.73-2.39,.25-.9,.44-1.66,.56-2.27l.99,.17c-.1,.61-.27,1.38-.52,2.31-.25,.93-.49,1.74-.72,2.43l-1.04-.25Zm5.18-19.63h-3.23v5.97h3.23v-5.97Zm-2.02,1.01c.72,1.38,1.28,2.52,1.68,3.41l-.84,.44c-.44-1.02-1-2.16-1.68-3.43l.84-.42Zm1.41,13.97c.3,1.71,.52,3.07,.67,4.07l-1.01,.15c-.23-1.65-.45-3-.67-4.07l1.01-.15Zm1.58-9.01h3.26v-5.97h-3.26v5.97Zm.96,8.71c.38,1.14,.79,2.44,1.23,3.93l-1.01,.25c-.39-1.48-.77-2.79-1.14-3.92l.91-.25Zm-.72-10.17c.49-.89,1.09-2.04,1.8-3.46l.81,.37c-.25,.53-.85,1.69-1.8,3.51l-.82-.42Zm3.36,9.8c.48,.99,1.04,2.27,1.7,3.85l-.99,.35c-.41-1.05-.95-2.33-1.63-3.83l.91-.37Zm11.48-11.36v1.19h-4.89v5.04h3.78v10.79h-1.13v-2.15h-5.8v2.15h-1.14v-10.79h3.16v-11.23h1.14v5.01h4.89Zm-8.05,13.68h5.8v-6.27h-5.8v6.27Z"/>
          <path class="cls-16" d="M133.7,114.21h-2.42v7.58c0,.67-.08,1.19-.23,1.54-.16,.35-.43,.6-.81,.75-.39,.15-.96,.22-1.72,.22h-2.2l-.2-1.14h2.2c.54,0,.94-.04,1.2-.12,.25-.08,.43-.24,.52-.48,.09-.24,.14-.6,.14-1.1v-7.26h-9.43v-1.06h12.96v1.06Zm-2.42-1.9h-1.14v-7.43h-9.06v-1.11h12.27v1.11h-2.07v7.43Zm-9.18,4.1h5.63v4.81h-5.63v-4.81Zm5.68-9.45v4.25h-5.58v-4.25h5.58Zm-4.67,13.38h3.58v-3.01h-3.58v3.01Zm3.65-12.44h-3.58v2.39h3.58v-2.39Zm14.91,16.69c-2.27-2.27-3.79-5.05-4.57-8.34-.35,1.68-.91,3.21-1.7,4.58s-1.83,2.7-3.14,3.99l-.76-.94c1.76-1.69,3.03-3.49,3.8-5.39,.77-1.9,1.18-4.21,1.21-6.92l.03-2.69h1.06l-.03,2.62c0,.38,0,.66-.02,.84,.12,2.39,.58,4.5,1.38,6.34,.81,1.84,1.97,3.49,3.5,4.94l-.76,.99Zm-9.18-13.31c1.48-2.53,2.68-5.55,3.6-9.04l1.11,.25c-.33,1.3-.72,2.57-1.18,3.8h6.17l-.02,1.14-1.75,4.34-1.06-.37,1.68-4.02h-5.41c-.74,1.84-1.5,3.4-2.27,4.67l-.86-.77Z"/>
        </g>
        <g>
          <path class="cls-16" d="M45.49,139.87l-1.78-3.15h.47l1.5,2.72h.02l1.5-2.72h.47l-1.78,3.15v2.14h-.41v-2.14Z"/>
          <path class="cls-16" d="M49.1,141.77c-.35-.23-.62-.55-.8-.97-.19-.42-.28-.89-.28-1.44s.09-1.02,.28-1.44c.19-.42,.46-.74,.8-.97s.75-.34,1.2-.34,.85,.11,1.2,.34,.62,.55,.81,.97c.19,.42,.29,.89,.29,1.44s-.1,1.02-.29,1.44c-.19,.42-.46,.74-.81,.97-.35,.23-.75,.34-1.2,.34s-.85-.11-1.2-.34Zm2.18-.34c.28-.2,.5-.47,.66-.83,.16-.36,.23-.77,.23-1.24s-.08-.88-.23-1.24-.38-.63-.66-.83c-.29-.2-.61-.29-.98-.29s-.7,.1-.98,.29c-.28,.2-.5,.47-.66,.83s-.23,.77-.23,1.24,.08,.88,.23,1.24c.16,.36,.38,.63,.66,.83,.28,.2,.61,.29,.98,.29s.7-.1,.98-.29Z"/>
          <path class="cls-16" d="M56.63,141.28c.26-.29,.39-.69,.39-1.19v-3.37h.41v3.43c0,.4-.08,.74-.22,1.04s-.36,.52-.64,.68c-.28,.16-.61,.24-.98,.24s-.7-.08-.98-.24c-.28-.16-.5-.39-.64-.68s-.22-.64-.22-1.04v-3.43h.41v3.35c0,.51,.13,.91,.39,1.2,.26,.29,.61,.44,1.05,.44s.79-.15,1.05-.44Z"/>
          <path class="cls-16" d="M60.44,142.01h-.41v-4.91h-1.71v-.39h3.83v.39h-1.71v4.91Z"/>
          <path class="cls-16" d="M65.94,141.28c.26-.29,.39-.69,.39-1.19v-3.37h.41v3.43c0,.4-.07,.74-.22,1.04s-.36,.52-.64,.68c-.28,.16-.61,.24-.98,.24s-.7-.08-.98-.24c-.28-.16-.49-.39-.64-.68s-.22-.64-.22-1.04v-3.43h.41v3.35c0,.51,.13,.91,.39,1.2s.61,.44,1.05,.44,.79-.15,1.05-.44Z"/>
          <path class="cls-16" d="M70.32,139.25c.4,.05,.71,.18,.93,.41,.23,.23,.34,.51,.34,.86,0,.48-.18,.85-.55,1.11-.36,.26-.88,.39-1.56,.39h-1.44v-5.29h1.43c.59,0,1.05,.11,1.37,.34s.48,.55,.48,.97c0,.29-.09,.55-.27,.76s-.42,.35-.73,.42v.04Zm-1.87-2.14v1.94h1.07c.43,0,.77-.09,1.01-.27,.24-.18,.37-.42,.37-.73s-.13-.53-.38-.69c-.26-.16-.62-.25-1.09-.25h-.97Zm.97,4.52c.57,0,1-.1,1.3-.29,.3-.2,.45-.48,.45-.84,0-.35-.14-.61-.43-.79-.29-.18-.7-.27-1.22-.27h-1.07v2.2h.97Z"/>
          <path class="cls-16" d="M73.13,139.44v2.18h2.78v.38h-3.19v-5.29h3.09v.39h-2.69v1.96h2.53v.38h-2.53Z"/>
          <path class="cls-16" d="M80.03,141.87c-.32-.16-.57-.39-.76-.69l.34-.22c.17,.25,.38,.44,.64,.57,.26,.13,.54,.2,.83,.2,.26,0,.5-.04,.71-.13,.21-.09,.38-.21,.49-.37,.12-.16,.18-.33,.18-.53s-.05-.38-.15-.51-.25-.25-.46-.36c-.21-.1-.49-.21-.85-.31-.35-.1-.63-.2-.85-.3-.22-.1-.41-.25-.55-.44s-.22-.43-.22-.73c0-.28,.07-.53,.22-.74,.14-.21,.35-.38,.62-.5,.27-.12,.57-.18,.92-.18s.67,.07,.95,.22c.28,.15,.51,.35,.7,.62l-.32,.23c-.17-.22-.37-.39-.6-.51-.23-.12-.48-.18-.75-.18-.24,0-.46,.04-.67,.13-.2,.09-.36,.21-.48,.36-.12,.15-.18,.33-.18,.52,0,.23,.06,.42,.19,.56,.12,.15,.28,.26,.47,.34,.19,.08,.44,.17,.75,.26,.38,.1,.69,.22,.93,.34,.24,.12,.43,.28,.56,.47,.13,.19,.2,.42,.2,.69,0,.44-.16,.79-.48,1.05-.32,.26-.76,.39-1.32,.39-.38,0-.72-.08-1.04-.25Z"/>
          <path class="cls-16" d="M84.87,141.77c-.35-.23-.62-.55-.8-.97-.19-.42-.28-.89-.28-1.44s.09-1.02,.28-1.44c.19-.42,.46-.74,.8-.97s.75-.34,1.2-.34,.85,.11,1.2,.34,.62,.55,.81,.97c.19,.42,.29,.89,.29,1.44s-.1,1.02-.29,1.44c-.19,.42-.46,.74-.81,.97-.35,.23-.75,.34-1.2,.34s-.85-.11-1.2-.34Zm2.18-.34c.29-.2,.5-.47,.66-.83,.16-.36,.23-.77,.23-1.24s-.08-.88-.23-1.24c-.16-.36-.38-.63-.66-.83-.28-.2-.61-.29-.98-.29s-.7,.1-.98,.29c-.28,.2-.5,.47-.66,.83s-.23,.77-.23,1.24,.08,.88,.23,1.24c.16,.36,.38,.63,.66,.83,.28,.2,.61,.29,.98,.29s.7-.1,.98-.29Z"/>
          <path class="cls-16" d="M89.91,142.01h-.41v-5.29h.44l3.01,4.6h.03v-4.6h.4v5.29h-.43l-3.01-4.6h-.03v4.6Z"/>
          <path class="cls-16" d="M95.86,137.3c-.29,.19-.52,.47-.68,.82-.16,.35-.24,.77-.24,1.25s.08,.9,.23,1.25c.16,.35,.38,.63,.67,.82s.62,.29,1,.29c.56,0,1.05-.23,1.47-.7v-1.32h-1.31v-.39h1.71v1.86c-.53,.63-1.15,.94-1.88,.94-.47,0-.88-.11-1.23-.33-.35-.22-.62-.54-.8-.95-.19-.41-.28-.9-.28-1.46s.1-1.05,.29-1.46,.46-.73,.82-.95,.77-.33,1.25-.33c.35,0,.67,.07,.96,.22,.3,.15,.54,.36,.73,.62l-.32,.25c-.16-.22-.37-.39-.61-.52s-.5-.19-.77-.19c-.39,0-.74,.1-1.03,.29Z"/>
        </g>
        <g class="cls-40">
          <circle class="cls-31" cx="67.44" cy="34.91" r="34.91" transform="translate(22.18 95.89) rotate(-80.78)"/>
          <circle class="cls-29" cx="67.51" cy="34.97" r="34.83" transform="translate(22.24 96.05) rotate(-80.84)"/>
          <circle class="cls-30" cx="67.57" cy="35.03" r="34.76" transform="translate(22.29 96.21) rotate(-80.9)"/>
          <circle class="cls-36" cx="67.63" cy="35.09" r="34.68" transform="translate(22.36 96.38) rotate(-80.97)"/>
          <circle class="cls-32" cx="67.69" cy="35.15" r="34.61" transform="translate(22.43 96.55) rotate(-81.04)"/>
          <circle class="cls-33" cx="67.75" cy="35.22" r="34.53" transform="translate(22.5 96.72) rotate(-81.12)"/>
          <circle class="cls-35" cx="67.82" cy="35.28" r="34.46" transform="translate(22.58 96.9) rotate(-81.2)"/>
          <circle class="cls-34" cx="67.88" cy="35.34" r="34.38" transform="translate(22.67 97.09) rotate(-81.3)"/>
          <circle class="cls-11" cx="67.94" cy="35.4" r="34.31" transform="translate(22.77 97.28) rotate(-81.4)"/>
          <circle class="cls-14" cx="68" cy="35.47" r="34.23" transform="translate(22.88 97.48) rotate(-81.5)"/>
          <circle class="cls-15" cx="68.07" cy="35.53" r="34.16" transform="translate(23 97.69) rotate(-81.62)"/>
          <circle class="cls-12" cx="68.13" cy="35.59" r="34.09" transform="translate(23.14 97.91) rotate(-81.76)"/>
          <circle class="cls-13" cx="68.19" cy="35.65" r="34.01" transform="translate(23.29 98.14) rotate(-81.91)"/>
          <circle class="cls-43" cx="68.25" cy="35.71" r="33.94" transform="translate(23.46 98.39) rotate(-82.07)"/>
          <circle class="cls-42" cx="68.31" cy="35.78" r="33.86" transform="translate(23.66 98.65) rotate(-82.26)"/>
          <circle class="cls-46" cx="68.38" cy="35.84" r="33.79" transform="translate(23.88 98.93) rotate(-82.47)"/>
          <circle class="cls-44" cx="68.44" cy="35.9" r="33.71" transform="translate(24.14 99.23) rotate(-82.71)"/>
          <circle class="cls-45" cx="68.5" cy="35.96" r="33.64" transform="translate(24.44 99.56) rotate(-82.98)"/>
          <circle class="cls-48" cx="68.56" cy="36.03" r="33.56" transform="translate(24.79 99.92) rotate(-83.3)"/>
          <circle class="cls-47" cx="68.63" cy="36.09" r="33.49" transform="translate(25.21 100.33) rotate(-83.68)"/>
          <circle class="cls-50" cx="68.69" cy="36.15" r="33.41"/>
          <circle class="cls-51" cx="68.75" cy="36.21" r="33.34"/>
          <circle class="cls-49" cx="68.81" cy="36.27" r="33.26"/>
          <circle class="cls-19" cx="68.87" cy="36.34" r="33.19"/>
          <circle class="cls-21" cx="68.94" cy="36.4" r="33.12"/>
          <circle class="cls-20" cx="69" cy="36.46" r="33.04"/>
          <circle class="cls-17" cx="69.06" cy="36.52" r="32.97"/>
          <circle class="cls-18" cx="69.12" cy="36.59" r="32.89"/>
          <circle class="cls-22" cx="69.19" cy="36.65" r="32.82"/>
          <circle class="cls-2" cx="69.25" cy="36.71" r="32.74"/>
          <circle class="cls-4" cx="69.31" cy="36.77" r="32.67"/>
          <circle class="cls-1" cx="69.37" cy="36.83" r="32.59"/>
          <circle class="cls-5" cx="69.43" cy="36.9" r="32.52"/>
          <circle class="cls-3" cx="69.5" cy="36.96" r="32.44"/>
          <circle class="cls-23" cx="69.56" cy="37.02" r="32.37"/>
          <circle class="cls-25" cx="69.62" cy="37.08" r="32.29"/>
          <circle class="cls-24" cx="69.68" cy="37.15" r="32.22"/>
          <circle class="cls-26" cx="69.75" cy="37.21" r="32.15"/>
          <circle class="cls-27" cx="69.81" cy="37.27" r="32.07"/>
          <circle class="cls-9" cx="69.87" cy="37.33" r="32"/>
          <circle class="cls-8" cx="69.93" cy="37.39" r="31.92"/>
          <circle class="cls-7" cx="69.99" cy="37.46" r="31.85" transform="translate(15.29 94.99) rotate(-74.6)"/>
          <circle class="cls-6" cx="70.06" cy="37.52" r="31.77" transform="translate(15.65 95.45) rotate(-74.97)"/>
          <circle class="cls-10" cx="70.12" cy="37.58" r="31.7" transform="translate(15.95 95.85) rotate(-75.28)"/>
          <circle class="cls-55" cx="70.18" cy="37.64" r="31.62" transform="translate(16.21 96.21) rotate(-75.55)"/>
          <circle class="cls-54" cx="70.24" cy="37.71" r="31.55" transform="translate(16.44 96.53) rotate(-75.78)"/>
          <circle class="cls-52" cx="70.31" cy="37.77" r="31.47" transform="translate(16.63 96.83) rotate(-75.98)"/>
          <circle class="cls-53" cx="70.37" cy="37.83" r="31.4" transform="translate(16.81 97.11) rotate(-76.16)"/>
          <circle class="cls-56" cx="70.43" cy="37.89" r="31.33" transform="translate(16.96 97.37) rotate(-76.33)"/>
          <circle class="cls-37" cx="70.49" cy="37.95" r="31.25" transform="translate(17.1 97.61) rotate(-76.47)"/>
          <circle class="cls-39" cx="70.55" cy="38.02" r="31.18" transform="translate(17.22 97.84) rotate(-76.6)"/>
          <circle class="cls-38" cx="70.62" cy="38.08" r="31.1" transform="translate(17.33 98.06) rotate(-76.72)"/>
        </g>
        <circle class="cls-28" cx="70.97" cy="38.43" r="31.73"/>
        <path class="cls-57" d="M71.09,24.93c-5.67,0-11,.43-13.84,1.03-1.89,.43-3.53,1.72-3.87,3.7-.34,2.06-.69,5.16-.69,9.02s.34,6.88,.77,9.02c.35,1.89,1.98,3.27,3.87,3.7,3.01,.6,8.17,1.03,13.84,1.03s10.83-.43,13.84-1.03c1.89-.43,3.53-1.72,3.87-3.7,.35-2.15,.78-5.24,.86-9.11,0-3.87-.43-6.96-.86-9.11-.34-1.89-1.97-3.27-3.87-3.7-3.01-.43-8.25-.86-13.92-.86Zm0,1.72c6.19,0,11.17,.51,13.58,.94,1.29,.35,2.32,1.21,2.49,2.32,.52,2.75,.86,5.67,.86,8.68-.08,3.69-.51,6.7-.86,8.85-.26,1.63-1.97,2.15-2.49,2.32-3.1,.6-8.25,1.03-13.41,1.03s-10.4-.34-13.41-1.03c-1.29-.35-2.32-1.21-2.49-2.32-.69-2.41-.95-5.59-.95-8.77,0-3.95,.35-6.88,.69-8.68,.26-1.64,2.06-2.15,2.49-2.32,2.84-.6,8.08-1.03,13.5-1.03Zm-4.64,5.16v13.75l12.03-6.88-12.03-6.88Zm1.72,2.92l6.88,3.95-6.88,3.95v-7.9Z"/>
      </g>
    </g>
  </g>
</svg>