<?xml version="1.0" encoding="UTF-8"?>
<svg xmlns="http://www.w3.org/2000/svg" viewBox="0 0 97.14 142.11">
  <defs>
    <style>
      .cls-1 {
        opacity: .61;
      }

      .cls-1, .cls-2, .cls-3, .cls-4, .cls-5 {
        fill: #2c2c2d;
      }

      .cls-6 {
        opacity: .82;
      }

      .cls-6, .cls-7, .cls-8, .cls-9, .cls-10 {
        fill: #2e2e2f;
      }

      .cls-11 {
        opacity: .16;
      }

      .cls-11, .cls-12, .cls-13, .cls-14, .cls-15 {
        fill: #282829;
      }

      .cls-16 {
        fill: #fff;
      }

      .cls-17 {
        opacity: .51;
      }

      .cls-17, .cls-18, .cls-19, .cls-20, .cls-21, .cls-22 {
        fill: #2b2b2c;
      }

      .cls-23 {
        opacity: .67;
      }

      .cls-23, .cls-24, .cls-25, .cls-26, .cls-27 {
        fill: #2d2d2e;
      }

      .cls-2 {
        opacity: .57;
      }

      .cls-28, .cls-29, .cls-30, .cls-31 {
        fill: #262627;
      }

      .cls-12 {
        opacity: .22;
      }

      .cls-32 {
        opacity: .08;
      }

      .cls-32, .cls-33, .cls-34, .cls-35, .cls-36 {
        fill: #272728;
      }

      .cls-37 {
        opacity: .96;
      }

      .cls-37, .cls-38, .cls-39 {
        fill: #303031;
      }

      .cls-40 {
        mix-blend-mode: lighten;
      }

      .cls-41 {
        isolation: isolate;
      }

      .cls-33 {
        opacity: .1;
      }

      .cls-18 {
        opacity: .53;
      }

      .cls-13 {
        opacity: .24;
      }

      .cls-14 {
        opacity: .18;
      }

      .cls-24 {
        opacity: .71;
      }

      .cls-42 {
        opacity: .27;
      }

      .cls-42, .cls-43, .cls-44, .cls-45, .cls-46 {
        fill: #29292a;
      }

      .cls-47 {
        opacity: .37;
      }

      .cls-47, .cls-48, .cls-49, .cls-50, .cls-51 {
        fill: #2a2a2b;
      }

      .cls-52 {
        opacity: .9;
      }

      .cls-52, .cls-53, .cls-54, .cls-55, .cls-56 {
        fill: #2f2f30;
      }

      .cls-48 {
        opacity: .35;
      }

      .cls-49 {
        opacity: .43;
      }

      .cls-53 {
        opacity: .92;
      }

      .cls-25 {
        opacity: .69;
      }

      .cls-29 {
        opacity: .02;
      }

      .cls-19 {
        opacity: .45;
      }

      .cls-7 {
        opacity: .8;
      }

      .cls-34 {
        opacity: .14;
      }

      .cls-35 {
        opacity: .12;
      }

      .cls-8 {
        opacity: .78;
      }

      .cls-50 {
        opacity: .39;
      }

      .cls-26 {
        opacity: .73;
      }

      .cls-30 {
        opacity: .04;
      }

      .cls-43 {
        opacity: .25;
      }

      .cls-57 {
        fill: none;
        stroke: #f7cd1c;
        stroke-linecap: round;
        stroke-linejoin: round;
        stroke-width: 2.47px;
      }

      .cls-44 {
        opacity: .31;
      }

      .cls-3 {
        opacity: .65;
      }

      .cls-20 {
        opacity: .49;
      }

      .cls-15 {
        opacity: .2;
      }

      .cls-27 {
        opacity: .75;
      }

      .cls-51 {
        opacity: .41;
      }

      .cls-9 {
        opacity: .76;
      }

      .cls-39 {
        opacity: .98;
      }

      .cls-21 {
        opacity: .47;
      }

      .cls-54 {
        opacity: .88;
      }

      .cls-22 {
        opacity: .55;
      }

      .cls-55 {
        opacity: .86;
      }

      .cls-36 {
        opacity: .06;
      }

      .cls-4 {
        opacity: .59;
      }

      .cls-31 {
        opacity: 0;
      }

      .cls-45 {
        opacity: .33;
      }

      .cls-5 {
        opacity: .63;
      }

      .cls-56 {
        opacity: .94;
      }

      .cls-46 {
        opacity: .29;
      }

      .cls-10 {
        opacity: .84;
      }
    </style>
  </defs>
  <g class="cls-41">
    <g id="_圖層_2" data-name="圖層 2">
      <g id="_圖層_2-2" data-name="圖層 2">
        <g>
          <path class="cls-16" d="M2.1,108.34c-.49,.92-1.06,1.85-1.7,2.79l-.4-1.28c.61-.82,1.23-1.9,1.86-3.22,.63-1.32,1.18-2.69,1.64-4.09l1.01,.25c-.33,.94-.69,1.88-1.09,2.81h3.41c-.35-1.19-.67-2.19-.99-3.01l.99-.22c.35,.86,.71,1.93,1.09,3.23h2.47v.96h-2.99v2.02h2.52v.49c.53-.81,1.04-1.8,1.56-2.99,.51-1.19,.93-2.36,1.26-3.53l1.01,.22c-.3,1.02-.62,1.96-.96,2.81h3.58c-.44-1.51-.76-2.53-.94-3.04l1.01-.17c.35,.99,.67,2.06,.96,3.21h3.26v.96h-3.73v2.02h3.36v.89h-3.36v1.95h3.36v.94h-3.36v2.02h4.27v.94H11.55v-7.08c-.36,.66-.78,1.33-1.26,2.02l-.47-.79h-2.42v1.95h2.69v.94h-2.69v2.02h3.36v.94H2.1v-6.99Zm18.98,16.39c-2.34-.35-4.32-.69-5.94-1.04-1.62-.35-3.07-.75-4.33-1.21-2.62,.94-6.05,1.72-10.29,2.35l-.27-1.06c3.79-.58,6.79-1.21,9.01-1.9-1.02-.44-2-.97-2.94-1.57-.94-.6-1.93-1.32-2.96-2.16v-1.01h14.94v1.01c-1.79,1.56-3.78,2.81-5.95,3.75,2.12,.64,5.14,1.23,9.06,1.75l-.32,1.09ZM3.16,108.58h3.18v-2.02H3.16v2.02Zm0,2.84h3.18v-1.95H3.16v1.95Zm0,2.96h3.18v-2.02H3.16v2.02Zm2,3.75c1.78,1.42,3.65,2.49,5.63,3.21,2.19-.81,4.09-1.88,5.7-3.21H5.16Zm7.43-9.55h3.31v-2.02h-3.31v2.02Zm0,2.84h3.31v-1.95h-3.31v1.95Zm0,2.96h3.31v-2.02h-3.31v2.02Z"/>
          <path class="cls-16" d="M45.15,105.74v15.95c0,.64-.09,1.14-.26,1.48s-.47,.59-.88,.73c-.41,.14-1,.21-1.75,.21h-2.86l-.22-1.23h2.76c.59,0,1.02-.04,1.3-.14,.27-.09,.45-.24,.54-.46,.09-.21,.14-.54,.14-.99v-14.34h-15.95v17.26h-1.23v-18.47h6.29c.76-1.76,1.26-3.02,1.51-3.78l1.43,.27c-.38,1.04-.86,2.21-1.43,3.51h10.62Zm-13.58,5.18h8.74v8.74h-8.74v-8.74Zm1.21,7.53h6.32v-6.29h-6.32v6.29Z"/>
          <path class="cls-16" d="M69.54,118.46v4.35h2.47v1.01h-21.28v-1.01h2.49v-4.35h16.32Zm-11.33-11.13h-1.14v-1.73h-6.15v-1.04h6.15v-2.17h1.14v2.17h6.37v-2.17h1.13v2.17h6.25v1.04h-6.25v1.7h-1.13v-1.7h-6.37v1.73Zm4.71,.47v.91h-4.2v1.85h3.31v3.55h-3.31v1.93h4.2v.89h-10.25v-9.13h10.25Zm-9.16,2.76h3.9v-1.85h-3.9v1.85Zm0,2.74h7.23v-1.88h-7.23v1.88Zm0,2.74h3.9v-1.93h-3.9v1.93Zm4.57,3.46h-4.02v3.31h4.02v-3.31Zm1.09,3.31h3.88v-3.31h-3.88v3.31Zm12.44-12.79v1.11h-6.12c-.71,1.74-1.51,3.31-2.39,4.69l-.91-.64c.72-1.14,1.4-2.41,2.01-3.81s1.09-2.75,1.42-4.04l1.09,.25c-.16,.63-.42,1.44-.76,2.44h5.68Zm-7.48,12.79h4.05v-3.31h-4.05v3.31Zm5.28-5.97c-1.43-1.5-2.7-2.78-3.8-3.85l.74-.81c.56,.54,1.84,1.82,3.85,3.83l-.79,.84Z"/>
          <path class="cls-16" d="M97.14,111.77v1.19h-5.88v8.44c0,.74-.1,1.31-.3,1.72-.2,.4-.53,.69-.99,.86-.46,.17-1.11,.26-1.95,.26h-3.18l-.22-1.21h3.06c.64,0,1.12-.06,1.44-.17,.32-.12,.54-.32,.67-.6,.12-.29,.19-.7,.19-1.25v-8.05h-1.31c-1.37,2.11-3.08,4.04-5.15,5.8-2.07,1.76-4.39,3.31-6.97,4.64l-.69-1.16c2.39-1.19,4.54-2.56,6.46-4.14,1.92-1.57,3.53-3.29,4.83-5.15h-8.64v-1.19l1.38-5.16,1.31,.22c-.16,.61-.39,1.44-.67,2.48-.28,1.05-.5,1.86-.67,2.46h10.12v-6.47h-13.6v-1.18h20.74v1.18h-5.85v6.47h5.88Z"/>
        </g>
        <g>
          <path class="cls-16" d="M11.84,142.01h-.41v-4.91h-1.71v-.39h3.83v.39h-1.71v4.91Z"/>
          <path class="cls-16" d="M15.41,142.01l-1.44-5.29h.43l1.22,4.56h.04l1.28-4.56h.44l1.29,4.56h.02l1.23-4.56h.43l-1.44,5.29h-.43l-1.31-4.6h-.04l-1.31,4.6h-.43Z"/>
          <path class="cls-16" d="M22.01,141.77c-.35-.23-.62-.55-.8-.97-.19-.42-.28-.89-.28-1.44s.09-1.02,.28-1.44c.19-.42,.46-.74,.8-.97s.75-.34,1.2-.34,.85,.11,1.2,.34,.62,.55,.81,.97c.19,.42,.29,.89,.29,1.44s-.1,1.02-.29,1.44c-.19,.42-.46,.74-.81,.97-.35,.23-.75,.34-1.2,.34s-.85-.11-1.2-.34Zm2.18-.34c.28-.2,.5-.47,.66-.83,.16-.36,.23-.77,.23-1.24s-.08-.88-.23-1.24c-.16-.36-.38-.63-.66-.83-.28-.2-.61-.29-.98-.29s-.7,.1-.98,.29c-.28,.2-.5,.47-.66,.83s-.23,.77-.23,1.24,.08,.88,.23,1.24c.16,.36,.38,.63,.66,.83,.28,.2,.61,.29,.98,.29s.7-.1,.98-.29Z"/>
          <path class="cls-16" d="M26.37,139.11h2.11v.36h-2.11v-.36Z"/>
          <path class="cls-16" d="M30.49,142.01l-1.44-5.29h.43l1.22,4.56h.04l1.28-4.56h.44l1.29,4.56h.02l1.23-4.56h.43l-1.44,5.29h-.43l-1.31-4.6h-.04l-1.31,4.6h-.43Z"/>
          <path class="cls-16" d="M39.56,142.01h-.43l-.67-1.86h-2.06l-.67,1.86h-.43l1.92-5.29h.43l1.92,5.29Zm-2.14-4.7l-.88,2.45h1.79l-.88-2.45h-.03Z"/>
          <path class="cls-16" d="M40.91,139.87l-1.78-3.15h.47l1.5,2.72h.02l1.5-2.72h.47l-1.78,3.15v2.14h-.41v-2.14Z"/>
          <path class="cls-16" d="M48.84,139.25c.4,.05,.71,.18,.93,.41s.34,.51,.34,.86c0,.48-.18,.85-.55,1.11-.36,.26-.88,.39-1.56,.39h-1.44v-5.29h1.43c.59,0,1.05,.11,1.37,.34,.32,.23,.48,.55,.48,.97,0,.29-.09,.55-.27,.76-.18,.21-.42,.35-.73,.42v.04Zm-1.87-2.14v1.94h1.07c.43,0,.77-.09,1.01-.27,.24-.18,.37-.42,.37-.73s-.13-.53-.38-.69c-.26-.16-.62-.25-1.09-.25h-.97Zm.97,4.52c.56,0,1-.1,1.3-.29,.3-.2,.45-.48,.45-.84,0-.35-.14-.61-.43-.79-.29-.18-.7-.27-1.22-.27h-1.07v2.2h.97Z"/>
          <path class="cls-16" d="M51.66,136.72v4.91h2.73v.38h-3.14v-5.29h.41Z"/>
          <path class="cls-16" d="M58.04,141.28c.26-.29,.39-.69,.39-1.19v-3.37h.41v3.43c0,.4-.07,.74-.22,1.04s-.36,.52-.64,.68c-.28,.16-.61,.24-.98,.24s-.7-.08-.98-.24c-.28-.16-.49-.39-.64-.68s-.22-.64-.22-1.04v-3.43h.41v3.35c0,.51,.13,.91,.39,1.2,.26,.29,.61,.44,1.05,.44s.79-.15,1.05-.44Z"/>
          <path class="cls-16" d="M60.55,139.44v2.18h2.78v.38h-3.19v-5.29h3.09v.39h-2.69v1.96h2.53v.38h-2.53Z"/>
          <path class="cls-16" d="M66.08,142.01h-.41v-4.91h-1.71v-.39h3.83v.39h-1.71v4.91Z"/>
          <path class="cls-16" d="M69.39,141.77c-.35-.23-.62-.55-.8-.97-.19-.42-.28-.89-.28-1.44s.09-1.02,.28-1.44c.19-.42,.46-.74,.8-.97s.75-.34,1.2-.34,.85,.11,1.2,.34,.62,.55,.81,.97c.19,.42,.29,.89,.29,1.44s-.1,1.02-.29,1.44c-.19,.42-.46,.74-.81,.97-.35,.23-.75,.34-1.2,.34s-.85-.11-1.2-.34Zm2.18-.34c.28-.2,.5-.47,.66-.83,.16-.36,.23-.77,.23-1.24s-.08-.88-.23-1.24c-.16-.36-.38-.63-.66-.83-.28-.2-.61-.29-.98-.29s-.7,.1-.98,.29c-.28,.2-.5,.47-.66,.83s-.23,.77-.23,1.24,.08,.88,.23,1.24c.16,.36,.38,.63,.66,.83,.28,.2,.61,.29,.98,.29s.7-.1,.98-.29Z"/>
          <path class="cls-16" d="M74.94,141.77c-.35-.23-.62-.55-.8-.97-.19-.42-.28-.89-.28-1.44s.09-1.02,.28-1.44c.19-.42,.46-.74,.8-.97s.75-.34,1.2-.34,.85,.11,1.2,.34,.62,.55,.81,.97c.19,.42,.29,.89,.29,1.44s-.1,1.02-.29,1.44c-.19,.42-.46,.74-.81,.97-.35,.23-.75,.34-1.2,.34s-.85-.11-1.2-.34Zm2.18-.34c.28-.2,.5-.47,.66-.83,.16-.36,.23-.77,.23-1.24s-.08-.88-.23-1.24c-.16-.36-.38-.63-.66-.83-.28-.2-.61-.29-.98-.29s-.7,.1-.98,.29c-.28,.2-.5,.47-.66,.83s-.23,.77-.23,1.24,.08,.88,.23,1.24c.16,.36,.38,.63,.66,.83,.28,.2,.61,.29,.98,.29s.7-.1,.98-.29Z"/>
          <path class="cls-16" d="M81.06,142.01h-.41v-4.91h-1.71v-.39h3.83v.39h-1.71v4.91Z"/>
          <path class="cls-16" d="M87.01,139.08v-2.36h.41v5.29h-.41v-2.55h-2.95v2.55h-.41v-5.29h.41v2.36h2.95Z"/>
        </g>
        <g class="cls-40">
          <circle class="cls-31" cx="44.79" cy="34.91" r="34.91" transform="translate(3.16 73.53) rotate(-80.78)"/>
          <circle class="cls-29" cx="44.86" cy="34.97" r="34.83" transform="translate(3.19 73.69) rotate(-80.84)"/>
          <circle class="cls-30" cx="44.92" cy="35.03" r="34.76" transform="translate(3.23 73.84) rotate(-80.9)"/>
          <circle class="cls-36" cx="44.98" cy="35.09" r="34.68" transform="translate(3.26 74.01) rotate(-80.97)"/>
          <circle class="cls-32" cx="45.04" cy="35.15" r="34.61" transform="translate(3.3 74.17) rotate(-81.04)"/>
          <circle class="cls-33" cx="45.1" cy="35.22" r="34.53" transform="translate(3.35 74.34) rotate(-81.12)"/>
          <circle class="cls-35" cx="45.17" cy="35.28" r="34.46" transform="translate(3.4 74.52) rotate(-81.2)"/>
          <circle class="cls-34" cx="45.23" cy="35.34" r="34.38" transform="translate(3.45 74.7) rotate(-81.3)"/>
          <circle class="cls-11" cx="45.29" cy="35.4" r="34.31" transform="translate(3.51 74.89) rotate(-81.4)"/>
          <circle class="cls-14" cx="45.35" cy="35.47" r="34.23" transform="translate(3.58 75.08) rotate(-81.5)"/>
          <circle class="cls-15" cx="45.42" cy="35.53" r="34.16" transform="translate(3.65 75.28) rotate(-81.62)"/>
          <circle class="cls-12" cx="45.48" cy="35.59" r="34.09" transform="translate(3.74 75.5) rotate(-81.76)"/>
          <circle class="cls-13" cx="45.54" cy="35.65" r="34.01" transform="translate(3.83 75.72) rotate(-81.91)"/>
          <circle class="cls-43" cx="45.6" cy="35.71" r="33.94" transform="translate(3.94 75.95) rotate(-82.07)"/>
          <circle class="cls-42" cx="45.66" cy="35.78" r="33.86" transform="translate(4.06 76.2) rotate(-82.26)"/>
          <circle class="cls-46" cx="45.73" cy="35.84" r="33.79" transform="translate(4.2 76.47) rotate(-82.47)"/>
          <circle class="cls-44" cx="45.79" cy="35.9" r="33.71" transform="translate(4.36 76.76) rotate(-82.71)"/>
          <circle class="cls-45" cx="45.85" cy="35.96" r="33.64" transform="translate(4.55 77.08) rotate(-82.98)"/>
          <circle class="cls-48" cx="45.91" cy="36.03" r="33.56" transform="translate(4.78 77.43) rotate(-83.3)"/>
          <circle class="cls-47" cx="45.98" cy="36.09" r="33.49" transform="translate(5.05 77.81) rotate(-83.68)"/>
          <circle class="cls-50" cx="46.04" cy="36.15" r="33.41"/>
          <circle class="cls-51" cx="46.1" cy="36.21" r="33.34"/>
          <circle class="cls-49" cx="46.16" cy="36.27" r="33.26"/>
          <circle class="cls-19" cx="46.22" cy="36.34" r="33.19"/>
          <circle class="cls-21" cx="46.29" cy="36.4" r="33.12"/>
          <circle class="cls-20" cx="46.35" cy="36.46" r="33.04"/>
          <circle class="cls-17" cx="46.41" cy="36.52" r="32.97"/>
          <circle class="cls-18" cx="46.47" cy="36.59" r="32.89"/>
          <circle class="cls-22" cx="46.54" cy="36.65" r="32.82"/>
          <circle class="cls-2" cx="46.6" cy="36.71" r="32.74"/>
          <circle class="cls-4" cx="46.66" cy="36.77" r="32.67"/>
          <circle class="cls-1" cx="46.72" cy="36.83" r="32.59"/>
          <circle class="cls-5" cx="46.78" cy="36.9" r="32.52"/>
          <circle class="cls-3" cx="46.85" cy="36.96" r="32.44"/>
          <circle class="cls-23" cx="46.91" cy="37.02" r="32.37"/>
          <circle class="cls-25" cx="46.97" cy="37.08" r="32.29"/>
          <circle class="cls-24" cx="47.03" cy="37.15" r="32.22"/>
          <circle class="cls-26" cx="47.1" cy="37.21" r="32.15"/>
          <circle class="cls-27" cx="47.16" cy="37.27" r="32.07"/>
          <circle class="cls-9" cx="47.22" cy="37.33" r="32"/>
          <circle class="cls-8" cx="47.28" cy="37.39" r="31.92"/>
          <circle class="cls-7" cx="47.34" cy="37.46" r="31.85" transform="translate(-1.34 73.15) rotate(-74.6)"/>
          <circle class="cls-6" cx="47.41" cy="37.52" r="31.77" transform="translate(-1.13 73.57) rotate(-74.97)"/>
          <circle class="cls-10" cx="47.47" cy="37.58" r="31.7" transform="translate(-.94 73.94) rotate(-75.28)"/>
          <circle class="cls-55" cx="47.53" cy="37.64" r="31.62" transform="translate(-.79 74.27) rotate(-75.55)"/>
          <circle class="cls-54" cx="47.59" cy="37.71" r="31.55" transform="translate(-.65 74.58) rotate(-75.78)"/>
          <circle class="cls-52" cx="47.66" cy="37.77" r="31.47" transform="translate(-.53 74.86) rotate(-75.98)"/>
          <circle class="cls-53" cx="47.72" cy="37.83" r="31.4" transform="translate(-.43 75.12) rotate(-76.16)"/>
          <circle class="cls-56" cx="47.78" cy="37.89" r="31.33" transform="translate(-.33 75.36) rotate(-76.33)"/>
          <circle class="cls-37" cx="47.84" cy="37.95" r="31.25" transform="translate(-.25 75.59) rotate(-76.47)"/>
          <circle class="cls-39" cx="47.9" cy="38.02" r="31.18" transform="translate(-.18 75.81) rotate(-76.6)"/>
          <circle class="cls-38" cx="47.97" cy="38.08" r="31.1" transform="translate(-.11 76.01) rotate(-76.72)"/>
        </g>
        <circle class="cls-28" cx="48.32" cy="38.43" r="31.73"/>
        <polyline class="cls-57" points="39.93 46.09 57.21 31.27 48.57 22.63 48.57 54.73 57.21 46.09 39.93 31.27"/>
      </g>
    </g>
  </g>
</svg>