<?xml version="1.0" encoding="UTF-8"?>
<svg xmlns="http://www.w3.org/2000/svg" viewBox="0 0 137.75 142.11">
  <defs>
    <style>
      .cls-1 {
        opacity: .61;
      }

      .cls-1, .cls-2, .cls-3, .cls-4, .cls-5 {
        fill: #2c2c2d;
      }

      .cls-6 {
        opacity: .82;
      }

      .cls-6, .cls-7, .cls-8, .cls-9, .cls-10 {
        fill: #2e2e2f;
      }

      .cls-11 {
        opacity: .16;
      }

      .cls-11, .cls-12, .cls-13, .cls-14, .cls-15 {
        fill: #282829;
      }

      .cls-16 {
        fill: #fff;
      }

      .cls-17 {
        opacity: .51;
      }

      .cls-17, .cls-18, .cls-19, .cls-20, .cls-21, .cls-22 {
        fill: #2b2b2c;
      }

      .cls-23 {
        opacity: .67;
      }

      .cls-23, .cls-24, .cls-25, .cls-26, .cls-27 {
        fill: #2d2d2e;
      }

      .cls-2 {
        opacity: .57;
      }

      .cls-28, .cls-29, .cls-30, .cls-31 {
        fill: #262627;
      }

      .cls-12 {
        opacity: .22;
      }

      .cls-32 {
        opacity: .08;
      }

      .cls-32, .cls-33, .cls-34, .cls-35, .cls-36 {
        fill: #272728;
      }

      .cls-37 {
        opacity: .96;
      }

      .cls-37, .cls-38, .cls-39 {
        fill: #303031;
      }

      .cls-40 {
        mix-blend-mode: lighten;
      }

      .cls-41 {
        isolation: isolate;
      }

      .cls-33 {
        opacity: .1;
      }

      .cls-18 {
        opacity: .53;
      }

      .cls-13 {
        opacity: .24;
      }

      .cls-14 {
        opacity: .18;
      }

      .cls-24 {
        opacity: .71;
      }

      .cls-42 {
        opacity: .27;
      }

      .cls-42, .cls-43, .cls-44, .cls-45, .cls-46 {
        fill: #29292a;
      }

      .cls-47 {
        opacity: .37;
      }

      .cls-47, .cls-48, .cls-49, .cls-50, .cls-51 {
        fill: #2a2a2b;
      }

      .cls-52 {
        opacity: .9;
      }

      .cls-52, .cls-53, .cls-54, .cls-55, .cls-56 {
        fill: #2f2f30;
      }

      .cls-48 {
        opacity: .35;
      }

      .cls-49 {
        opacity: .43;
      }

      .cls-53 {
        opacity: .92;
      }

      .cls-25 {
        opacity: .69;
      }

      .cls-29 {
        opacity: .02;
      }

      .cls-19 {
        opacity: .45;
      }

      .cls-7 {
        opacity: .8;
      }

      .cls-34 {
        opacity: .14;
      }

      .cls-35 {
        opacity: .12;
      }

      .cls-8 {
        opacity: .78;
      }

      .cls-50 {
        opacity: .39;
      }

      .cls-26 {
        opacity: .73;
      }

      .cls-30 {
        opacity: .04;
      }

      .cls-43 {
        opacity: .25;
      }

      .cls-57 {
        fill: none;
        stroke: #f7cd1c;
        stroke-linecap: round;
        stroke-linejoin: round;
        stroke-width: 2.39px;
      }

      .cls-44 {
        opacity: .31;
      }

      .cls-3 {
        opacity: .65;
      }

      .cls-20 {
        opacity: .49;
      }

      .cls-15 {
        opacity: .2;
      }

      .cls-27 {
        opacity: .75;
      }

      .cls-51 {
        opacity: .41;
      }

      .cls-9 {
        opacity: .76;
      }

      .cls-39 {
        opacity: .98;
      }

      .cls-21 {
        opacity: .47;
      }

      .cls-54 {
        opacity: .88;
      }

      .cls-22 {
        opacity: .55;
      }

      .cls-55 {
        opacity: .86;
      }

      .cls-36 {
        opacity: .06;
      }

      .cls-4 {
        opacity: .59;
      }

      .cls-31 {
        opacity: 0;
      }

      .cls-45 {
        opacity: .33;
      }

      .cls-5 {
        opacity: .63;
      }

      .cls-56 {
        opacity: .94;
      }

      .cls-46 {
        opacity: .29;
      }

      .cls-10 {
        opacity: .84;
      }
    </style>
  </defs>
  <g class="cls-41">
    <g id="_圖層_2" data-name="圖層 2">
      <g id="_圖層_2-2" data-name="圖層 2">
        <g>
          <path class="cls-16" d="M.3,110.68l-.3-1.04c1.4-2.35,2.66-4.73,3.78-7.13l1.04,.4c-1.2,2.47-2.4,4.71-3.6,6.71l2.91-.25c.76-1.27,1.44-2.44,2.05-3.53l.91,.49c-1.71,3.08-3.52,6.02-5.43,8.84l4.12-.54c-.53-1.28-.88-2.13-1.06-2.54l.89-.3c.79,1.86,1.42,3.45,1.9,4.76l-.89,.3-.44-1.23-5.48,.67-.3-1.06c1.25-1.86,2.28-3.46,3.09-4.79l-3.18,.25Zm-.3,12.86c.23-.82,.46-1.82,.7-2.99,.24-1.17,.41-2.16,.51-2.96l.91,.1c-.1,.84-.27,1.84-.51,3-.24,1.16-.47,2.18-.7,3.07l-.91-.22Zm4.2-5.88c.23,1.96,.42,3.75,.57,5.38l-.91,.12c-.07-1.4-.23-3.2-.49-5.41l.84-.1Zm2.84,4.62c-.51-1.74-.99-3.24-1.43-4.49l.72-.25c.21,.56,.47,1.28,.77,2.15,.3,.87,.54,1.65,.74,2.35l-.79,.25Zm-.3,1.48c.87-.26,1.86-.6,2.97-1.02,1.11-.42,2.04-.8,2.8-1.15l.44,.91c-.77,.36-1.74,.77-2.9,1.21s-2.14,.8-2.95,1.06l-.37-1.01Zm1.23-16.86h5.6v-1.51H7.23v-.91h6.34v-2.07h1.18v2.07h6.59v.91h-6.59v1.51h5.65v.89H7.97v-.89Zm-.22,2.12h12.91v3.53H7.75v-3.53Zm12.07,4.86v7.23H8.64v-7.23h11.18Zm-7.97-4.07h-3.09v1.98h3.09v-1.98Zm6.86,6.25v-1.38H9.75v1.38h8.96Zm-8.96,.77v1.38h8.96v-1.38H9.75Zm0,2.12v1.41h8.96v-1.41H9.75Zm5.92-7.16v-1.98h-2.94v1.98h2.94Zm.27,9.87c.74,.25,1.7,.59,2.88,1.04s2.09,.8,2.73,1.06l-.35,.96c-1.27-.54-3.14-1.26-5.6-2.15l.35-.91Zm.69-9.87h3.06v-1.98h-3.06v1.98Z"/>
          <path class="cls-16" d="M31.1,102.56c-.13,.61-.37,1.45-.72,2.52h3.33v16.79c0,.87-.19,1.47-.56,1.79-.37,.32-1.06,.48-2.06,.48h-2.05l-.2-1.16h2c.49,0,.86-.04,1.11-.12,.25-.08,.42-.22,.51-.42,.09-.2,.14-.49,.14-.89v-7.33h-4.39c-.02,1.99-.09,3.58-.21,4.76s-.31,2.18-.56,3c-.25,.81-.62,1.74-1.11,2.78l-1.01-.62c.48-1,.83-1.89,1.06-2.65,.23-.77,.4-1.69,.51-2.79,.11-1.09,.17-2.59,.19-4.48h-1.73v-1.19h1.73v-7.95h2.1c.41-1.35,.68-2.27,.81-2.76l1.11,.25Zm-2.89,10.47h4.39v-6.81h-4.39v6.81Zm1.7-5.36l1.93,3.55-.94,.47-1.88-3.53,.89-.49Zm-.02,7.83l1.97,3.53-.94,.52-1.9-3.55,.86-.49Zm16.96,2.69l-.1,3.7c-.03,.87-.18,1.46-.43,1.75-.26,.3-.72,.44-1.4,.44h-.72c-.63,0-1.07-.15-1.35-.46-.27-.3-.41-.87-.41-1.69v-9.75h-4.25v2.69c0,1.89-.07,3.37-.22,4.43-.15,1.06-.42,2-.83,2.81-.4,.81-1.03,1.72-1.89,2.73l-.96-.81c.86-.99,1.47-1.83,1.84-2.54,.37-.71,.62-1.55,.75-2.52,.13-.97,.2-2.41,.2-4.32v-3.63h6.54v10.59c0,.53,.05,.87,.16,1.02,.11,.16,.32,.23,.63,.23h.42c.33,0,.55-.09,.67-.27,.11-.18,.18-.58,.2-1.19l.1-3.46,1.04,.22Zm-5.18-11.92h4.91v1.16h-11.68v-1.16h5.46l-1.36-3.43,1.16-.32,1.51,3.75Z"/>
          <path class="cls-16" d="M70.13,107.82c-.05,1.6-.13,3.69-.25,6.27-.12,2.58-.21,4.72-.3,6.42-.07,.92-.25,1.64-.54,2.16-.3,.52-.75,.89-1.37,1.11-.62,.22-1.46,.33-2.53,.33h-3.68l-.27-1.31h3.58c.92,0,1.62-.08,2.11-.23,.48-.16,.83-.44,1.05-.84,.21-.4,.35-1,.4-1.79,.07-1.42,.15-3.22,.25-5.42,.1-2.2,.17-4,.22-5.39h-8.79c-.15,2.95-.47,5.27-.96,6.99-.49,1.71-1.31,3.22-2.44,4.53-1.14,1.31-2.86,2.76-5.16,4.36l-.91-1.04c2.22-1.5,3.88-2.85,4.96-4.05,1.09-1.2,1.86-2.6,2.33-4.21,.47-1.6,.78-3.8,.93-6.58h-7.33v-1.31h7.38l.2-5.38h1.26c0,.79-.06,2.58-.17,5.38h10.05Z"/>
          <path class="cls-16" d="M78.59,122.77c-.9-.5-1.6-1.2-2.1-2.1-.5-.9-.75-1.92-.75-3.07,0-1.05,.16-2.06,.48-3.02,.32-.96,.88-2.14,1.69-3.54l3.68-6.52h1.65l-4.96,8.69,.05,.05c.39-.49,.92-.87,1.57-1.12,.65-.25,1.35-.38,2.11-.38,1.09,0,2.05,.25,2.9,.75,.85,.5,1.51,1.2,1.99,2.09,.48,.89,.72,1.89,.72,3.01s-.26,2.18-.77,3.07c-.51,.9-1.22,1.6-2.12,2.1-.91,.5-1.93,.75-3.09,.75s-2.15-.25-3.05-.75Zm5.41-1.16c.67-.39,1.19-.93,1.57-1.63,.38-.7,.57-1.49,.57-2.38s-.19-1.65-.56-2.35-.88-1.23-1.53-1.62c-.65-.39-1.39-.58-2.23-.58s-1.66,.19-2.36,.57c-.7,.38-1.25,.91-1.64,1.59-.39,.68-.59,1.48-.59,2.38s.19,1.68,.57,2.38c.38,.7,.91,1.24,1.59,1.63,.68,.39,1.46,.58,2.33,.58s1.62-.19,2.28-.58Z"/>
          <path class="cls-16" d="M90.85,120.06c.99-1.76,1.93-3.82,2.81-6.18,.89-2.36,1.57-4.55,2.05-6.55l1.33,.3c-.54,2.14-1.27,4.4-2.17,6.78-.91,2.38-1.85,4.46-2.84,6.26l-1.18-.59Zm8.22,2.81c.66,0,1.14-.06,1.46-.17,.31-.11,.53-.32,.64-.63,.11-.3,.17-.78,.17-1.42v-17.87h1.38v18.22c0,.86-.1,1.51-.31,1.96-.21,.45-.55,.77-1.02,.95-.48,.18-1.16,.27-2.05,.27h-3.01l-.25-1.31h2.99Zm7.92-15.65c.76,1.5,1.75,3.61,2.97,6.33,1.23,2.72,2.16,4.89,2.8,6.5l-1.31,.57c-.63-1.65-1.52-3.8-2.69-6.46-1.17-2.66-2.16-4.81-2.99-6.46l1.21-.49Z"/>
          <path class="cls-16" d="M118.79,123.84h-1.11v-18.91h6v16.76h-4.89v2.15Zm3.78-11.18v-6.52h-3.78v6.52h3.78Zm-3.78,1.19v6.62h3.78v-6.62h-3.78Zm18.96-1.88h-3.16v3.46h2.91v1.19h-2.91v4.99c0,.72-.09,1.28-.27,1.65s-.49,.65-.94,.8c-.44,.16-1.09,.23-1.95,.23h-2.64l-.27-1.28h2.59c.62,0,1.09-.04,1.41-.14,.31-.09,.53-.26,.64-.52,.12-.25,.17-.64,.17-1.15v-4.59h-8.69v-1.19h8.69v-3.46h-8.91v-1.16h5.78v-3.73h-4.86v-1.14h4.86v-3.41h1.23v3.41h5.28v1.14h-5.28v3.73h6.32v1.16Zm-8.69,9.53c-.71-.84-1.59-1.85-2.64-3.04l-.52-.59,.89-.74c1.68,1.86,2.73,3.04,3.16,3.53l-.89,.84Z"/>
        </g>
        <g>
          <path class="cls-16" d="M23.77,141.9c-.25-.14-.45-.34-.6-.6-.14-.25-.21-.54-.21-.87,0-.3,.05-.58,.14-.86,.09-.27,.25-.61,.48-1l1.04-1.85h.47l-1.41,2.46h.01c.11-.13,.26-.23,.44-.3,.18-.07,.38-.11,.6-.11,.31,0,.58,.07,.82,.21,.24,.14,.43,.34,.56,.59,.14,.25,.2,.54,.2,.85s-.07,.62-.22,.87-.35,.45-.6,.6c-.26,.14-.55,.21-.88,.21s-.61-.07-.86-.21Zm1.53-.33c.19-.11,.34-.26,.44-.46,.11-.2,.16-.42,.16-.68s-.05-.47-.16-.67c-.1-.2-.25-.35-.43-.46-.18-.11-.4-.16-.63-.16s-.47,.05-.67,.16c-.2,.11-.35,.26-.47,.45s-.17,.42-.17,.68,.05,.48,.16,.68c.11,.2,.26,.35,.45,.46,.19,.11,.41,.16,.66,.16s.46-.05,.65-.16Z"/>
          <path class="cls-16" d="M33.42,139.08v-2.36h.41v5.29h-.41v-2.55h-2.95v2.55h-.41v-5.29h.41v2.36h2.95Z"/>
          <path class="cls-16" d="M36.05,141.77c-.35-.23-.62-.55-.8-.97-.19-.42-.28-.89-.28-1.44s.09-1.02,.28-1.44c.19-.42,.46-.74,.8-.97s.75-.34,1.2-.34,.85,.11,1.2,.34,.62,.55,.81,.97c.19,.42,.29,.89,.29,1.44s-.1,1.02-.29,1.44c-.19,.42-.46,.74-.81,.97-.35,.23-.75,.34-1.2,.34s-.85-.11-1.2-.34Zm2.18-.34c.28-.2,.5-.47,.66-.83,.16-.36,.23-.77,.23-1.24s-.08-.88-.23-1.24c-.16-.36-.38-.63-.66-.83-.28-.2-.61-.29-.98-.29s-.7,.1-.98,.29c-.28,.2-.5,.47-.66,.83s-.23,.77-.23,1.24,.08,.88,.23,1.24c.16,.36,.38,.63,.66,.83,.28,.2,.61,.29,.98,.29s.7-.1,.98-.29Z"/>
          <path class="cls-16" d="M43.58,141.28c.26-.29,.39-.69,.39-1.19v-3.37h.41v3.43c0,.4-.07,.74-.22,1.04s-.36,.52-.64,.68c-.28,.16-.61,.24-.98,.24s-.7-.08-.98-.24c-.28-.16-.49-.39-.64-.68s-.22-.64-.22-1.04v-3.43h.41v3.35c0,.51,.13,.91,.39,1.2,.26,.29,.61,.44,1.05,.44s.79-.15,1.05-.44Z"/>
          <path class="cls-16" d="M49.25,142.01h-.47l-1.37-2.34s-.12,0-.22,0h-1.1v2.33h-.41v-5.29h1.47c.62,0,1.1,.13,1.43,.39,.33,.26,.5,.63,.5,1.11,0,.38-.11,.69-.33,.92-.22,.24-.53,.4-.94,.48l1.43,2.39Zm-2.13-2.72c.5,0,.88-.09,1.15-.28,.27-.18,.41-.45,.41-.79s-.14-.64-.41-.83c-.27-.19-.66-.29-1.15-.29h-1.02v2.19h1.02Z"/>
          <path class="cls-16" d="M50.63,141.87c-.31-.16-.57-.39-.76-.69l.34-.22c.17,.25,.38,.44,.64,.57,.26,.13,.53,.2,.83,.2,.26,0,.5-.04,.71-.13,.21-.09,.37-.21,.49-.37,.12-.16,.18-.33,.18-.53s-.05-.38-.15-.51c-.1-.14-.25-.25-.46-.36-.21-.1-.49-.21-.85-.31-.35-.1-.63-.2-.85-.3s-.41-.25-.55-.44-.22-.43-.22-.73c0-.28,.07-.53,.22-.74,.14-.21,.35-.38,.62-.5,.27-.12,.57-.18,.92-.18s.67,.07,.95,.22c.28,.15,.51,.35,.7,.62l-.32,.23c-.17-.22-.37-.39-.6-.51-.23-.12-.48-.18-.75-.18-.24,0-.47,.04-.67,.13-.2,.09-.36,.21-.48,.36-.12,.15-.18,.33-.18,.52,0,.23,.06,.42,.19,.56,.12,.15,.28,.26,.47,.34s.44,.17,.75,.26c.38,.1,.69,.22,.93,.34,.24,.12,.43,.28,.56,.47,.13,.19,.2,.42,.2,.69,0,.44-.16,.79-.48,1.05-.32,.26-.76,.39-1.32,.39-.38,0-.72-.08-1.04-.25Z"/>
          <path class="cls-16" d="M58.09,141.77c-.35-.23-.62-.55-.8-.97-.19-.42-.28-.89-.28-1.44s.09-1.02,.28-1.44c.19-.42,.46-.74,.8-.97s.75-.34,1.2-.34,.85,.11,1.2,.34,.62,.55,.81,.97c.19,.42,.29,.89,.29,1.44s-.1,1.02-.29,1.44c-.19,.42-.46,.74-.81,.97-.35,.23-.75,.34-1.2,.34s-.85-.11-1.2-.34Zm2.18-.34c.28-.2,.5-.47,.66-.83,.16-.36,.23-.77,.23-1.24s-.08-.88-.23-1.24c-.16-.36-.38-.63-.66-.83-.28-.2-.61-.29-.98-.29s-.7,.1-.98,.29c-.28,.2-.5,.47-.66,.83s-.23,.77-.23,1.24,.08,.88,.23,1.24c.16,.36,.38,.63,.66,.83,.28,.2,.61,.29,.98,.29s.7-.1,.98-.29Z"/>
          <path class="cls-16" d="M63.13,139.55v2.46h-.41v-5.29h3.03v.39h-2.62v2.06h2.44v.38h-2.44Z"/>
          <path class="cls-16" d="M71.71,139.25c.4,.05,.71,.18,.93,.41s.34,.51,.34,.86c0,.48-.18,.85-.55,1.11-.36,.26-.88,.39-1.56,.39h-1.44v-5.29h1.43c.59,0,1.05,.11,1.37,.34,.32,.23,.48,.55,.48,.97,0,.29-.09,.55-.27,.76-.18,.21-.42,.35-.73,.42v.04Zm-1.87-2.14v1.94h1.07c.43,0,.77-.09,1.01-.27,.24-.18,.37-.42,.37-.73s-.13-.53-.38-.69c-.26-.16-.62-.25-1.09-.25h-.97Zm.97,4.52c.56,0,1-.1,1.3-.29,.3-.2,.45-.48,.45-.84,0-.35-.14-.61-.43-.79-.29-.18-.7-.27-1.22-.27h-1.07v2.2h.97Z"/>
          <path class="cls-16" d="M77.78,142.01h-.43l-.67-1.86h-2.06l-.67,1.86h-.43l1.92-5.29h.43l1.92,5.29Zm-2.14-4.7l-.88,2.45h1.79l-.88-2.45h-.03Z"/>
          <path class="cls-16" d="M79.39,142.01h-.41v-4.91h-1.71v-.39h3.83v.39h-1.71v4.91Z"/>
          <path class="cls-16" d="M83.68,142.01h-.41v-4.91h-1.71v-.39h3.83v.39h-1.71v4.91Z"/>
          <path class="cls-16" d="M86.69,139.44v2.18h2.78v.38h-3.19v-5.29h3.09v.39h-2.69v1.96h2.53v.38h-2.53Z"/>
          <path class="cls-16" d="M94.08,142.01h-.47l-1.37-2.34s-.12,0-.22,0h-1.1v2.33h-.41v-5.29h1.47c.62,0,1.1,.13,1.43,.39,.33,.26,.5,.63,.5,1.11,0,.38-.11,.69-.33,.92-.22,.24-.53,.4-.94,.48l1.43,2.39Zm-2.13-2.72c.5,0,.88-.09,1.15-.28,.27-.18,.41-.45,.41-.79s-.14-.64-.41-.83c-.27-.19-.66-.29-1.15-.29h-1.02v2.19h1.02Z"/>
          <path class="cls-16" d="M96.11,139.87l-1.78-3.15h.47l1.5,2.72h.02l1.5-2.72h.47l-1.78,3.15v2.14h-.41v-2.14Z"/>
          <path class="cls-16" d="M102.18,136.72v4.91h2.73v.38h-3.14v-5.29h.41Z"/>
          <path class="cls-16" d="M106.2,136.72v5.29h-.41v-5.29h.41Z"/>
          <path class="cls-16" d="M107.92,139.55v2.46h-.41v-5.29h3.03v.39h-2.62v2.06h2.44v.38h-2.44Z"/>
          <path class="cls-16" d="M112.01,139.44v2.18h2.78v.38h-3.19v-5.29h3.09v.39h-2.69v1.96h2.53v.38h-2.53Z"/>
        </g>
        <g class="cls-40">
          <circle class="cls-31" cx="65.1" cy="34.91" r="34.91" transform="translate(20.22 93.57) rotate(-80.78)"/>
          <circle class="cls-29" cx="65.16" cy="34.97" r="34.83" transform="translate(20.27 93.73) rotate(-80.84)"/>
          <circle class="cls-30" cx="65.22" cy="35.03" r="34.76" transform="translate(20.32 93.89) rotate(-80.9)"/>
          <circle class="cls-36" cx="65.28" cy="35.09" r="34.68" transform="translate(20.38 94.06) rotate(-80.97)"/>
          <circle class="cls-32" cx="65.35" cy="35.15" r="34.61" transform="translate(20.45 94.23) rotate(-81.04)"/>
          <circle class="cls-33" cx="65.41" cy="35.22" r="34.53" transform="translate(20.52 94.41) rotate(-81.12)"/>
          <circle class="cls-35" cx="65.47" cy="35.28" r="34.46" transform="translate(20.6 94.59) rotate(-81.2)"/>
          <circle class="cls-34" cx="65.53" cy="35.34" r="34.38" transform="translate(20.68 94.77) rotate(-81.3)"/>
          <circle class="cls-11" cx="65.6" cy="35.4" r="34.31" transform="translate(20.78 94.96) rotate(-81.4)"/>
          <circle class="cls-14" cx="65.66" cy="35.47" r="34.23" transform="translate(20.88 95.16) rotate(-81.5)"/>
          <circle class="cls-15" cx="65.72" cy="35.53" r="34.16" transform="translate(21 95.37) rotate(-81.62)"/>
          <circle class="cls-12" cx="65.78" cy="35.59" r="34.09" transform="translate(21.13 95.59) rotate(-81.76)"/>
          <circle class="cls-13" cx="65.84" cy="35.65" r="34.01" transform="translate(21.28 95.82) rotate(-81.91)"/>
          <circle class="cls-43" cx="65.91" cy="35.71" r="33.94" transform="translate(21.44 96.06) rotate(-82.07)"/>
          <circle class="cls-42" cx="65.97" cy="35.78" r="33.86" transform="translate(21.63 96.32) rotate(-82.26)"/>
          <circle class="cls-46" cx="66.03" cy="35.84" r="33.79" transform="translate(21.84 96.6) rotate(-82.47)"/>
          <circle class="cls-44" cx="66.09" cy="35.9" r="33.71" transform="translate(22.09 96.9) rotate(-82.71)"/>
          <circle class="cls-45" cx="66.16" cy="35.96" r="33.64" transform="translate(22.38 97.23) rotate(-82.98)"/>
          <circle class="cls-48" cx="66.22" cy="36.03" r="33.56" transform="translate(22.72 97.59) rotate(-83.3)"/>
          <circle class="cls-47" cx="66.28" cy="36.09" r="33.49" transform="translate(23.12 98) rotate(-83.68)"/>
          <circle class="cls-50" cx="66.34" cy="36.15" r="33.41"/>
          <circle class="cls-51" cx="66.4" cy="36.21" r="33.34"/>
          <circle class="cls-49" cx="66.47" cy="36.27" r="33.26"/>
          <circle class="cls-19" cx="66.53" cy="36.34" r="33.19"/>
          <circle class="cls-21" cx="66.59" cy="36.4" r="33.12"/>
          <circle class="cls-20" cx="66.65" cy="36.46" r="33.04"/>
          <circle class="cls-17" cx="66.72" cy="36.52" r="32.97"/>
          <circle class="cls-18" cx="66.78" cy="36.59" r="32.89"/>
          <circle class="cls-22" cx="66.84" cy="36.65" r="32.82"/>
          <circle class="cls-2" cx="66.9" cy="36.71" r="32.74"/>
          <circle class="cls-4" cx="66.96" cy="36.77" r="32.67"/>
          <circle class="cls-1" cx="67.03" cy="36.83" r="32.59"/>
          <circle class="cls-5" cx="67.09" cy="36.9" r="32.52"/>
          <circle class="cls-3" cx="67.15" cy="36.96" r="32.44"/>
          <circle class="cls-23" cx="67.21" cy="37.02" r="32.37"/>
          <circle class="cls-25" cx="67.28" cy="37.08" r="32.29"/>
          <circle class="cls-24" cx="67.34" cy="37.15" r="32.22"/>
          <circle class="cls-26" cx="67.4" cy="37.21" r="32.15"/>
          <circle class="cls-27" cx="67.46" cy="37.27" r="32.07"/>
          <circle class="cls-9" cx="67.52" cy="37.33" r="32"/>
          <circle class="cls-8" cx="67.59" cy="37.39" r="31.92"/>
          <circle class="cls-7" cx="67.65" cy="37.46" r="31.85" transform="translate(13.57 92.73) rotate(-74.6)"/>
          <circle class="cls-6" cx="67.71" cy="37.52" r="31.77" transform="translate(13.91 93.18) rotate(-74.97)"/>
          <circle class="cls-10" cx="67.77" cy="37.58" r="31.7" transform="translate(14.2 93.58) rotate(-75.28)"/>
          <circle class="cls-55" cx="67.84" cy="37.64" r="31.62" transform="translate(14.45 93.94) rotate(-75.55)"/>
          <circle class="cls-54" cx="67.9" cy="37.71" r="31.55" transform="translate(14.67 94.26) rotate(-75.78)"/>
          <circle class="cls-52" cx="67.96" cy="37.77" r="31.47" transform="translate(14.86 94.56) rotate(-75.98)"/>
          <circle class="cls-53" cx="68.02" cy="37.83" r="31.4" transform="translate(15.02 94.83) rotate(-76.16)"/>
          <circle class="cls-56" cx="68.08" cy="37.89" r="31.33" transform="translate(15.17 95.09) rotate(-76.33)"/>
          <circle class="cls-37" cx="68.15" cy="37.95" r="31.25" transform="translate(15.3 95.33) rotate(-76.47)"/>
          <circle class="cls-39" cx="68.21" cy="38.02" r="31.18" transform="translate(15.42 95.56) rotate(-76.6)"/>
          <circle class="cls-38" cx="68.27" cy="38.08" r="31.1" transform="translate(15.53 95.78) rotate(-76.72)"/>
        </g>
        <circle class="cls-28" cx="68.62" cy="38.43" r="31.73"/>
        <path class="cls-57" d="M83.76,24.07c-.03-.13-.12-.22-.25-.25-4.07-.99-13.46,2.55-18.55,7.64-.91,.9-1.74,1.88-2.47,2.92-1.57-.14-3.14-.02-4.48,.56-3.77,1.66-4.87,5.99-5.18,7.85-.06,.37,.19,.71,.56,.77,.06,0,.12,.01,.18,0l6.06-.67c0,.46,.03,.91,.08,1.37,.03,.31,.17,.61,.4,.83l2.35,2.35c.22,.22,.52,.36,.83,.4,.45,.05,.91,.08,1.36,.08l-.66,6.06c-.04,.37,.23,.7,.6,.74,.06,0,.12,0,.17,0,1.86-.3,6.2-1.4,7.85-5.17,.58-1.34,.7-2.9,.57-4.46,1.05-.74,2.03-1.57,2.93-2.47,5.11-5.08,8.63-14.27,7.65-18.54Zm-12.2,11.95c-1.25-1.25-1.25-3.27,0-4.51,1.25-1.25,3.27-1.25,4.51,0s1.25,3.27,0,4.51c0,0,0,0,0,0-1.24,1.25-3.26,1.25-4.51,0,0,0,0,0,0,0Z"/>
        <path class="cls-57" d="M57.43,46.36c-.75,.09-1.44,.43-1.97,.96-1.32,1.32-1.44,6.22-1.44,6.22,0,0,4.9-.12,6.22-1.44,.53-.53,.87-1.22,.96-1.97"/>
      </g>
    </g>
  </g>
</svg>