<?xml version="1.0" encoding="UTF-8"?>
<svg xmlns="http://www.w3.org/2000/svg" viewBox="0 0 149.6 142.11">
  <defs>
    <style>
      .cls-1 {
        opacity: .61;
      }

      .cls-1, .cls-2, .cls-3, .cls-4, .cls-5 {
        fill: #2c2c2d;
      }

      .cls-6 {
        opacity: .82;
      }

      .cls-6, .cls-7, .cls-8, .cls-9, .cls-10 {
        fill: #2e2e2f;
      }

      .cls-11 {
        opacity: .16;
      }

      .cls-11, .cls-12, .cls-13, .cls-14, .cls-15 {
        fill: #282829;
      }

      .cls-16 {
        fill: #fff;
      }

      .cls-17 {
        opacity: .51;
      }

      .cls-17, .cls-18, .cls-19, .cls-20, .cls-21, .cls-22 {
        fill: #2b2b2c;
      }

      .cls-23 {
        opacity: .67;
      }

      .cls-23, .cls-24, .cls-25, .cls-26, .cls-27 {
        fill: #2d2d2e;
      }

      .cls-2 {
        opacity: .57;
      }

      .cls-28, .cls-29, .cls-30, .cls-31 {
        fill: #262627;
      }

      .cls-12 {
        opacity: .22;
      }

      .cls-32 {
        opacity: .08;
      }

      .cls-32, .cls-33, .cls-34, .cls-35, .cls-36 {
        fill: #272728;
      }

      .cls-37 {
        opacity: .96;
      }

      .cls-37, .cls-38, .cls-39 {
        fill: #303031;
      }

      .cls-40 {
        mix-blend-mode: lighten;
      }

      .cls-41 {
        fill: none;
        stroke: #f7cd1c;
        stroke-linecap: round;
        stroke-linejoin: round;
        stroke-width: 2.47px;
      }

      .cls-42 {
        isolation: isolate;
      }

      .cls-33 {
        opacity: .1;
      }

      .cls-18 {
        opacity: .53;
      }

      .cls-13 {
        opacity: .24;
      }

      .cls-14 {
        opacity: .18;
      }

      .cls-24 {
        opacity: .71;
      }

      .cls-43 {
        opacity: .27;
      }

      .cls-43, .cls-44, .cls-45, .cls-46, .cls-47 {
        fill: #29292a;
      }

      .cls-48 {
        opacity: .37;
      }

      .cls-48, .cls-49, .cls-50, .cls-51, .cls-52 {
        fill: #2a2a2b;
      }

      .cls-53 {
        opacity: .9;
      }

      .cls-53, .cls-54, .cls-55, .cls-56, .cls-57 {
        fill: #2f2f30;
      }

      .cls-49 {
        opacity: .35;
      }

      .cls-50 {
        opacity: .43;
      }

      .cls-54 {
        opacity: .92;
      }

      .cls-25 {
        opacity: .69;
      }

      .cls-29 {
        opacity: .02;
      }

      .cls-19 {
        opacity: .45;
      }

      .cls-7 {
        opacity: .8;
      }

      .cls-34 {
        opacity: .14;
      }

      .cls-35 {
        opacity: .12;
      }

      .cls-8 {
        opacity: .78;
      }

      .cls-51 {
        opacity: .39;
      }

      .cls-26 {
        opacity: .73;
      }

      .cls-30 {
        opacity: .04;
      }

      .cls-44 {
        opacity: .25;
      }

      .cls-45 {
        opacity: .31;
      }

      .cls-3 {
        opacity: .65;
      }

      .cls-20 {
        opacity: .49;
      }

      .cls-15 {
        opacity: .2;
      }

      .cls-27 {
        opacity: .75;
      }

      .cls-52 {
        opacity: .41;
      }

      .cls-9 {
        opacity: .76;
      }

      .cls-39 {
        opacity: .98;
      }

      .cls-21 {
        opacity: .47;
      }

      .cls-55 {
        opacity: .88;
      }

      .cls-22 {
        opacity: .55;
      }

      .cls-56 {
        opacity: .86;
      }

      .cls-36 {
        opacity: .06;
      }

      .cls-4 {
        opacity: .59;
      }

      .cls-31 {
        opacity: 0;
      }

      .cls-46 {
        opacity: .33;
      }

      .cls-5 {
        opacity: .63;
      }

      .cls-57 {
        opacity: .94;
      }

      .cls-47 {
        opacity: .29;
      }

      .cls-10 {
        opacity: .84;
      }
    </style>
  </defs>
  <g class="cls-42">
    <g id="_圖層_2" data-name="圖層 2">
      <g id="_圖層_2-2" data-name="圖層 2">
        <g>
          <path class="cls-16" d="M1.43,123.2H0v-18.66H1.53l7.01,12.81h.1l6.99-12.81h1.53v18.66h-1.41v-15.92h-.1l-6.59,12.07h-.94l-6.59-12.07h-.1v15.92Z"/>
          <path class="cls-16" d="M23.23,104.51v18.66h-1.43v-18.66h1.43Z"/>
          <path class="cls-16" d="M27.85,123.17v-18.66h5.46c2.96,0,5.25,.82,6.85,2.46,1.6,1.64,2.41,3.93,2.41,6.88,0,1.94-.37,3.61-1.12,5.01-.75,1.4-1.84,2.47-3.27,3.21s-3.16,1.11-5.18,1.11h-5.13Zm5.09-1.36c2.63,0,4.65-.69,6.05-2.06,1.4-1.37,2.1-3.35,2.1-5.91s-.68-4.54-2.05-5.91c-1.37-1.37-3.33-2.06-5.9-2.06h-3.85v15.95h3.65Z"/>
          <path class="cls-16" d="M47.99,104.51v18.66h-1.43v-18.66h1.43Z"/>
          <path class="cls-16" d="M71.17,105.55v19.06h-1.26v-1.65h-13.87v1.75h-1.26v-19.16h5.75c.56-1.35,.97-2.44,1.23-3.28l1.41,.25c-.25,.86-.63,1.87-1.16,3.04h9.16Zm-1.26,5.41v-4.2h-13.87v4.2h13.87Zm0,5.36v-4.17h-13.87v4.17h13.87Zm-13.87,1.19v4.3h13.87v-4.3h-13.87Z"/>
          <path class="cls-16" d="M89.51,122.21l.02,.44c-1.42,.08-3.39,.21-5.91,.38-2.53,.17-4.49,.31-5.89,.41l-.07-1.01,5.73-.37v-2.25h-5.04v-.96h5.04v-2h-4.59v-6.81h4.59v-1.93h-5.78v-1.01h5.78v-2.12c-1.63,.16-3.28,.29-4.96,.37l-.07-1.04c1.68-.08,3.54-.22,5.59-.42,2.05-.2,3.75-.4,5.1-.59l.15,1.04c-1.33,.18-2.92,.36-4.76,.54v2.22h5.38v1.01h-5.38v1.93h4.57v6.81h-4.57v2h4.99v.96h-4.99v2.17l4.05-.27,1.06-.07-.02,.57Zm-6.12-9.21v-2h-3.58v2h3.58Zm-3.58,.91v2h3.58v-2h-3.58Zm8.17-.91v-2h-3.55v2h3.55Zm-3.55,.91v2h3.55v-2h-3.55Zm13.6-6.37l-.35,13.48c-.03,.74-.14,1.31-.32,1.7s-.49,.67-.91,.84c-.43,.16-1.03,.25-1.8,.25h-1.73l-.2-1.14h1.58c.64,0,1.12-.05,1.43-.16,.31-.11,.53-.31,.65-.6,.12-.3,.2-.74,.23-1.33l.32-11.85h-3.6c-.02,.15-.03,.34-.03,.57-.07,2.86-.21,5.15-.42,6.85-.21,1.7-.58,3.22-1.1,4.55s-1.3,2.73-2.33,4.2l-.89-.64c1-1.38,1.75-2.71,2.23-3.97,.49-1.27,.83-2.7,1.02-4.3s.35-3.83,.44-6.69c0-.23,0-.42,.02-.57h-2v-1.19h2.02l.1-5.13h1.06c-.02,.15-.04,1.09-.07,2.81l-.05,2.32h4.67Z"/>
          <path class="cls-16" d="M106.45,105.5c-.92,1.15-1.86,2.21-2.81,3.16l-.74-.89c.86-.86,1.69-1.79,2.49-2.79,.81-1,1.44-1.93,1.9-2.79l1.18,.35c-.31,.54-.74,1.2-1.28,1.97h6.79v.99h-4.71l.47,.62,.86,1.18-.91,.52c-.38-.58-.94-1.35-1.68-2.32h-1.56Zm5.75,2.94v5.73h-6.54v10.25h-1.16v-15.97h7.7Zm-1.09,2.44v-1.56h-5.46v1.56h5.46Zm-5.46,.81v1.58h5.46v-1.58h-5.46Zm3.51,3.97h8.81v6.32h-8.81v-6.32Zm7.65,2.74v-1.83h-6.52v1.83h6.52Zm-6.52,.89v1.78h6.52v-1.78h-6.52Zm13.85-14.79v.99h-5.04c.3,.38,.77,1.01,1.43,1.9l-.89,.52c-.41-.62-1.01-1.43-1.8-2.42h-1.78c-.56,.92-1.16,1.77-1.8,2.54l-1.04-.59c1.25-1.43,2.34-3.17,3.26-5.21l1.11,.27c-.36,.81-.68,1.47-.96,2h7.5Zm-9.28,9.65v-5.73h7.75v13.13c0,.72-.08,1.28-.25,1.67-.17,.39-.46,.66-.89,.81-.43,.16-1.05,.23-1.85,.23h-2.96l-.17-1.06h2.79c.64,0,1.12-.05,1.42-.15,.3-.1,.51-.28,.63-.54,.12-.26,.17-.67,.17-1.21v-7.16h-6.64Zm6.64-3.28v-1.56h-5.53v1.56h5.53Zm-5.53,.84v1.56h5.53v-1.56h-5.53Z"/>
          <path class="cls-16" d="M135.95,105.89v1.09h-7.7v-1.09h3.8c-.28-.91-.65-2.01-1.11-3.31l1.04-.27c.49,1.28,.89,2.48,1.18,3.58h2.79Zm-.91,4.94h-5.9v-1.06h5.9v1.06Zm0,3.41h-5.9v-1.06h5.9v1.06Zm-4.79,10.27h-1.04v-7.95h5.78v6.42h-4.74v1.53Zm3.7-2.59v-4.27h-3.7v4.27h3.7Zm11.06-10.24h4.59v1.06h-13.7v-1.06h4.69v-5.41h-3.88v-1.06h3.6c-.54-.84-1.1-1.66-1.68-2.47l.91-.49c.76,1.07,1.42,2.06,1.97,2.96h2.54c.69-.99,1.36-2.01,2-3.06l.96,.47c-.43,.71-1,1.57-1.7,2.59h3.78v1.06h-4.1v5.41Zm-7.48-4.47l.57,.84c.38,.54,.93,1.36,1.65,2.44l-.81,.54c-1.15-1.73-1.89-2.81-2.22-3.26l.81-.57Zm1.23,17.55h-1.11v-9.73h10.24v9.7h-1.11v-1.38h-8.02v1.41Zm8.02-6.05v-2.62h-8.02v2.62h8.02Zm-8.02,1.01v2.64h8.02v-2.64h-8.02Zm5.18-13.45h-2.3v5.41h2.3v-5.41Zm1.85,4.22c.35-.43,.74-.98,1.18-1.64s.79-1.21,1.04-1.64l.86,.54c-1.12,1.71-1.88,2.82-2.27,3.33l-.81-.59Z"/>
        </g>
        <g>
          <path class="cls-16" d="M39.01,142.02h-.41v-5.29h.43l1.99,3.63h.03l1.98-3.63h.43v5.29h-.4v-4.52h-.03l-1.87,3.42h-.27l-1.87-3.42h-.03v4.52Z"/>
          <path class="cls-16" d="M45.19,136.72v5.29h-.41v-5.29h.41Z"/>
          <path class="cls-16" d="M46.5,142.01v-5.29h1.55c.84,0,1.49,.23,1.94,.7s.68,1.11,.68,1.95c0,.55-.11,1.02-.32,1.42-.21,.4-.52,.7-.93,.91s-.9,.31-1.47,.31h-1.46Zm1.44-.38c.75,0,1.32-.19,1.72-.58,.4-.39,.59-.95,.59-1.68s-.19-1.29-.58-1.68-.95-.58-1.67-.58h-1.09v4.52h1.04Z"/>
          <path class="cls-16" d="M52.21,136.72v5.29h-.41v-5.29h.41Z"/>
          <path class="cls-16" d="M59.95,142.01h-.43l-.67-1.86h-2.06l-.67,1.86h-.43l1.92-5.29h.43l1.92,5.29Zm-2.14-4.7l-.88,2.45h1.79l-.88-2.45h-.03Z"/>
          <path class="cls-16" d="M63.58,141.28c.26-.29,.39-.69,.39-1.19v-3.37h.41v3.43c0,.4-.07,.74-.22,1.04s-.36,.52-.64,.68c-.28,.16-.61,.24-.98,.24s-.7-.08-.98-.24c-.28-.16-.49-.39-.64-.68s-.22-.64-.22-1.04v-3.43h.41v3.35c0,.51,.13,.91,.39,1.2s.61,.44,1.05,.44,.79-.15,1.05-.44Z"/>
          <path class="cls-16" d="M67.38,142.01h-.41v-4.91h-1.71v-.39h3.83v.39h-1.71v4.91Z"/>
          <path class="cls-16" d="M70.69,141.77c-.35-.23-.62-.55-.8-.97-.19-.42-.28-.89-.28-1.44s.09-1.02,.28-1.44c.19-.42,.46-.74,.8-.97s.75-.34,1.2-.34,.85,.11,1.2,.34,.62,.55,.81,.97c.19,.42,.29,.89,.29,1.44s-.1,1.02-.29,1.44c-.19,.42-.46,.74-.81,.97-.35,.23-.75,.34-1.2,.34s-.85-.11-1.2-.34Zm2.18-.34c.29-.2,.5-.47,.66-.83,.16-.36,.23-.77,.23-1.24s-.08-.88-.23-1.24c-.16-.36-.38-.63-.66-.83-.28-.2-.61-.29-.98-.29s-.7,.1-.98,.29c-.28,.2-.5,.47-.66,.83s-.23,.77-.23,1.24,.08,.88,.23,1.24c.16,.36,.38,.63,.66,.83,.28,.2,.61,.29,.98,.29s.7-.1,.98-.29Z"/>
          <path class="cls-16" d="M78.35,142.01h-.41v-5.29h.44l3.01,4.6h.03v-4.6h.4v5.29h-.43l-3.01-4.6h-.03v4.6Z"/>
          <path class="cls-16" d="M84.06,141.77c-.35-.23-.62-.55-.8-.97-.19-.42-.28-.89-.28-1.44s.09-1.02,.28-1.44c.19-.42,.46-.74,.8-.97s.75-.34,1.2-.34,.85,.11,1.2,.34,.62,.55,.81,.97c.19,.42,.29,.89,.29,1.44s-.1,1.02-.29,1.44c-.19,.42-.46,.74-.81,.97-.35,.23-.75,.34-1.2,.34s-.85-.11-1.2-.34Zm2.18-.34c.28-.2,.5-.47,.66-.83,.16-.36,.23-.77,.23-1.24s-.08-.88-.23-1.24c-.16-.36-.38-.63-.66-.83-.29-.2-.61-.29-.98-.29s-.7,.1-.98,.29c-.28,.2-.5,.47-.66,.83s-.23,.77-.23,1.24,.08,.88,.23,1.24c.16,.36,.38,.63,.66,.83,.28,.2,.61,.29,.98,.29s.7-.1,.98-.29Z"/>
          <path class="cls-16" d="M90.18,142.01h-.41v-4.91h-1.71v-.39h3.83v.39h-1.71v4.91Z"/>
          <path class="cls-16" d="M95.64,142.01h-.43l-.67-1.86h-2.06l-.67,1.86h-.43l1.92-5.29h.43l1.92,5.29Zm-2.14-4.7l-.88,2.45h1.79l-.88-2.45h-.03Z"/>
          <path class="cls-16" d="M97.25,142.01h-.41v-4.91h-1.71v-.39h3.83v.39h-1.71v4.91Z"/>
          <path class="cls-16" d="M100.26,136.72v5.29h-.41v-5.29h.41Z"/>
          <path class="cls-16" d="M102.48,141.77c-.35-.23-.62-.55-.8-.97-.19-.42-.28-.89-.28-1.44s.09-1.02,.28-1.44c.19-.42,.46-.74,.8-.97s.75-.34,1.2-.34,.85,.11,1.2,.34,.62,.55,.81,.97c.19,.42,.29,.89,.29,1.44s-.1,1.02-.29,1.44c-.19,.42-.46,.74-.81,.97-.35,.23-.75,.34-1.2,.34s-.85-.11-1.2-.34Zm2.18-.34c.29-.2,.5-.47,.66-.83,.16-.36,.23-.77,.23-1.24s-.08-.88-.23-1.24c-.16-.36-.38-.63-.66-.83-.28-.2-.61-.29-.98-.29s-.7,.1-.98,.29c-.28,.2-.5,.47-.66,.83s-.23,.77-.23,1.24,.08,.88,.23,1.24c.16,.36,.38,.63,.66,.83,.28,.2,.61,.29,.98,.29s.7-.1,.98-.29Z"/>
          <path class="cls-16" d="M107.52,142.01h-.41v-5.29h.44l3.01,4.6h.03v-4.6h.4v5.29h-.43l-3.01-4.6h-.03v4.6Z"/>
        </g>
        <g class="cls-40">
          <circle class="cls-31" cx="71.02" cy="34.91" r="34.91" transform="translate(25.19 99.42) rotate(-80.78)"/>
          <circle class="cls-29" cx="71.09" cy="34.97" r="34.83" transform="translate(25.25 99.58) rotate(-80.84)"/>
          <circle class="cls-30" cx="71.15" cy="35.03" r="34.76" transform="translate(25.31 99.74) rotate(-80.9)"/>
          <circle class="cls-36" cx="71.21" cy="35.09" r="34.68" transform="translate(25.38 99.91) rotate(-80.97)"/>
          <circle class="cls-32" cx="71.27" cy="35.15" r="34.61" transform="translate(25.45 100.08) rotate(-81.04)"/>
          <circle class="cls-33" cx="71.33" cy="35.22" r="34.53" transform="translate(25.53 100.26) rotate(-81.12)"/>
          <circle class="cls-35" cx="71.4" cy="35.28" r="34.46" transform="translate(25.61 100.44) rotate(-81.2)"/>
          <circle class="cls-34" cx="71.46" cy="35.34" r="34.38" transform="translate(25.71 100.63) rotate(-81.3)"/>
          <circle class="cls-11" cx="71.52" cy="35.4" r="34.31" transform="translate(25.81 100.82) rotate(-81.4)"/>
          <circle class="cls-14" cx="71.58" cy="35.47" r="34.23" transform="translate(25.93 101.02) rotate(-81.5)"/>
          <circle class="cls-15" cx="71.65" cy="35.53" r="34.16" transform="translate(26.06 101.23) rotate(-81.62)"/>
          <circle class="cls-12" cx="71.71" cy="35.59" r="34.09" transform="translate(26.2 101.46) rotate(-81.76)"/>
          <circle class="cls-13" cx="71.77" cy="35.65" r="34.01" transform="translate(26.37 101.69) rotate(-81.91)"/>
          <circle class="cls-44" cx="71.83" cy="35.71" r="33.94" transform="translate(26.55 101.93) rotate(-82.07)"/>
          <circle class="cls-43" cx="71.89" cy="35.78" r="33.86" transform="translate(26.76 102.19) rotate(-82.26)"/>
          <circle class="cls-47" cx="71.96" cy="35.84" r="33.79" transform="translate(26.99 102.48) rotate(-82.47)"/>
          <circle class="cls-45" cx="72.02" cy="35.9" r="33.71" transform="translate(27.26 102.78) rotate(-82.71)"/>
          <circle class="cls-46" cx="72.08" cy="35.96" r="33.64" transform="translate(27.58 103.11) rotate(-82.98)"/>
          <circle class="cls-49" cx="72.14" cy="36.03" r="33.56" transform="translate(27.95 103.48) rotate(-83.3)"/>
          <circle class="cls-48" cx="72.21" cy="36.09" r="33.49" transform="translate(28.39 103.88) rotate(-83.68)"/>
          <circle class="cls-51" cx="72.27" cy="36.15" r="33.41"/>
          <circle class="cls-52" cx="72.33" cy="36.21" r="33.34"/>
          <circle class="cls-50" cx="72.39" cy="36.27" r="33.26"/>
          <circle class="cls-19" cx="72.45" cy="36.34" r="33.19"/>
          <circle class="cls-21" cx="72.52" cy="36.4" r="33.12"/>
          <circle class="cls-20" cx="72.58" cy="36.46" r="33.04"/>
          <circle class="cls-17" cx="72.64" cy="36.52" r="32.97"/>
          <circle class="cls-18" cx="72.7" cy="36.59" r="32.89"/>
          <circle class="cls-22" cx="72.77" cy="36.65" r="32.82"/>
          <circle class="cls-2" cx="72.83" cy="36.71" r="32.74"/>
          <circle class="cls-4" cx="72.89" cy="36.77" r="32.67"/>
          <circle class="cls-1" cx="72.95" cy="36.83" r="32.59"/>
          <circle class="cls-5" cx="73.01" cy="36.9" r="32.52"/>
          <circle class="cls-3" cx="73.08" cy="36.96" r="32.44"/>
          <circle class="cls-23" cx="73.14" cy="37.02" r="32.37"/>
          <circle class="cls-25" cx="73.2" cy="37.08" r="32.29"/>
          <circle class="cls-24" cx="73.26" cy="37.15" r="32.22"/>
          <circle class="cls-26" cx="73.33" cy="37.21" r="32.15"/>
          <circle class="cls-27" cx="73.39" cy="37.27" r="32.07"/>
          <circle class="cls-9" cx="73.45" cy="37.33" r="32"/>
          <circle class="cls-8" cx="73.51" cy="37.39" r="31.92"/>
          <circle class="cls-7" cx="73.57" cy="37.46" r="31.85" transform="translate(17.92 98.44) rotate(-74.6)"/>
          <circle class="cls-6" cx="73.64" cy="37.52" r="31.77" transform="translate(18.3 98.9) rotate(-74.97)"/>
          <circle class="cls-10" cx="73.7" cy="37.58" r="31.7" transform="translate(18.62 99.31) rotate(-75.28)"/>
          <circle class="cls-56" cx="73.76" cy="37.64" r="31.62" transform="translate(18.9 99.67) rotate(-75.55)"/>
          <circle class="cls-55" cx="73.82" cy="37.71" r="31.55" transform="translate(19.14 100) rotate(-75.78)"/>
          <circle class="cls-53" cx="73.89" cy="37.77" r="31.47" transform="translate(19.35 100.31) rotate(-75.98)"/>
          <circle class="cls-54" cx="73.95" cy="37.83" r="31.4" transform="translate(19.53 100.59) rotate(-76.16)"/>
          <circle class="cls-57" cx="74.01" cy="37.89" r="31.33" transform="translate(19.69 100.85) rotate(-76.33)"/>
          <circle class="cls-37" cx="74.07" cy="37.95" r="31.25" transform="translate(19.84 101.09) rotate(-76.47)"/>
          <circle class="cls-39" cx="74.13" cy="38.02" r="31.18" transform="translate(19.97 101.32) rotate(-76.6)"/>
          <circle class="cls-38" cx="74.2" cy="38.08" r="31.1" transform="translate(20.09 101.54) rotate(-76.72)"/>
        </g>
        <circle class="cls-28" cx="74.55" cy="38.43" r="31.73"/>
        <path class="cls-41" d="M67.81,35.75v-.46c0-1.15,.77-2.08,1.87-2.36l13.47-3.6c.82-.22,1.67,.27,1.89,1.09,.03,.13,.05,.26,.05,.4v1.7"/>
        <path class="cls-41" d="M85.1,41.76v6.17c0,1.07-.69,1.97-1.7,2.32l-1.7,.62c-2,.67-4.01-.8-4.01-2.93h0c0-1.12,.71-2.12,1.77-2.47l3.94-1.4c1.01-.34,1.7-1.23,1.7-2.3V23.4c0-.43-.35-.77-.78-.77-.07,0-.13,0-.2,.03l-15.39,4.14c-.55,.16-.93,.66-.93,1.23v17.44c0,1.07-.69,1.98-1.7,2.32l-4.01,1.39c-1.07,.36-1.7,1.33-1.7,2.47h0c0,2.13,2.05,3.59,4.01,2.93l1.7-.62c1.01-.34,1.7-1.24,1.7-2.32v-6.17"/>
      </g>
    </g>
  </g>
</svg>