<?xml version="1.0" encoding="UTF-8"?>
<svg xmlns="http://www.w3.org/2000/svg" viewBox="0 0 145.45 142.11">
  <defs>
    <style>
      .cls-1 {
        opacity: .61;
      }

      .cls-1, .cls-2, .cls-3, .cls-4, .cls-5 {
        fill: #2c2c2d;
      }

      .cls-6 {
        opacity: .82;
      }

      .cls-6, .cls-7, .cls-8, .cls-9, .cls-10 {
        fill: #2e2e2f;
      }

      .cls-11 {
        opacity: .16;
      }

      .cls-11, .cls-12, .cls-13, .cls-14, .cls-15 {
        fill: #282829;
      }

      .cls-16 {
        fill: #fff;
      }

      .cls-17 {
        opacity: .51;
      }

      .cls-17, .cls-18, .cls-19, .cls-20, .cls-21, .cls-22 {
        fill: #2b2b2c;
      }

      .cls-23 {
        opacity: .67;
      }

      .cls-23, .cls-24, .cls-25, .cls-26, .cls-27 {
        fill: #2d2d2e;
      }

      .cls-2 {
        opacity: .57;
      }

      .cls-28, .cls-29, .cls-30, .cls-31 {
        fill: #262627;
      }

      .cls-12 {
        opacity: .22;
      }

      .cls-32 {
        opacity: .08;
      }

      .cls-32, .cls-33, .cls-34, .cls-35, .cls-36 {
        fill: #272728;
      }

      .cls-37 {
        opacity: .96;
      }

      .cls-37, .cls-38, .cls-39 {
        fill: #303031;
      }

      .cls-40 {
        mix-blend-mode: lighten;
      }

      .cls-41 {
        isolation: isolate;
      }

      .cls-33 {
        opacity: .1;
      }

      .cls-18 {
        opacity: .53;
      }

      .cls-13 {
        opacity: .24;
      }

      .cls-14 {
        opacity: .18;
      }

      .cls-24 {
        opacity: .71;
      }

      .cls-42 {
        opacity: .27;
      }

      .cls-42, .cls-43, .cls-44, .cls-45, .cls-46 {
        fill: #29292a;
      }

      .cls-47 {
        opacity: .37;
      }

      .cls-47, .cls-48, .cls-49, .cls-50, .cls-51 {
        fill: #2a2a2b;
      }

      .cls-52 {
        opacity: .9;
      }

      .cls-52, .cls-53, .cls-54, .cls-55, .cls-56 {
        fill: #2f2f30;
      }

      .cls-48 {
        opacity: .35;
      }

      .cls-49 {
        opacity: .43;
      }

      .cls-53 {
        opacity: .92;
      }

      .cls-25 {
        opacity: .69;
      }

      .cls-29 {
        opacity: .02;
      }

      .cls-19 {
        opacity: .45;
      }

      .cls-7 {
        opacity: .8;
      }

      .cls-34 {
        opacity: .14;
      }

      .cls-35 {
        opacity: .12;
      }

      .cls-8 {
        opacity: .78;
      }

      .cls-50 {
        opacity: .39;
      }

      .cls-26 {
        opacity: .73;
      }

      .cls-30 {
        opacity: .04;
      }

      .cls-43 {
        opacity: .25;
      }

      .cls-44 {
        opacity: .31;
      }

      .cls-3 {
        opacity: .65;
      }

      .cls-20 {
        opacity: .49;
      }

      .cls-15 {
        opacity: .2;
      }

      .cls-27 {
        opacity: .75;
      }

      .cls-51 {
        opacity: .41;
      }

      .cls-9 {
        opacity: .76;
      }

      .cls-39 {
        opacity: .98;
      }

      .cls-21 {
        opacity: .47;
      }

      .cls-54 {
        opacity: .88;
      }

      .cls-22 {
        opacity: .55;
      }

      .cls-55 {
        opacity: .86;
      }

      .cls-36 {
        opacity: .06;
      }

      .cls-4 {
        opacity: .59;
      }

      .cls-31 {
        opacity: 0;
      }

      .cls-45 {
        opacity: .33;
      }

      .cls-5 {
        opacity: .63;
      }

      .cls-56 {
        opacity: .94;
      }

      .cls-46 {
        opacity: .29;
      }

      .cls-10 {
        opacity: .84;
      }

      .cls-57 {
        fill: none;
        stroke: #f7cd1c;
        stroke-linecap: round;
        stroke-linejoin: round;
        stroke-width: 2.47px;
      }
    </style>
  </defs>
  <g class="cls-41">
    <g id="_圖層_2" data-name="圖層 2">
      <g id="_圖層_2-2" data-name="圖層 2">
        <g>
          <path class="cls-16" d="M16.39,105.55v19.06h-1.26v-1.65H1.26v1.75H0v-19.16H5.75c.56-1.35,.97-2.44,1.23-3.28l1.41,.25c-.25,.86-.63,1.87-1.16,3.04h9.16Zm-1.26,5.41v-4.2H1.26v4.2H15.13Zm0,5.36v-4.17H1.26v4.17H15.13Zm-13.87,1.19v4.3H15.13v-4.3H1.26Z"/>
          <path class="cls-16" d="M34.73,122.21l.02,.44c-1.42,.08-3.39,.21-5.91,.38s-4.49,.31-5.89,.41l-.07-1.01,5.73-.37v-2.25h-5.04v-.96h5.04v-2h-4.59v-6.81h4.59v-1.93h-5.78v-1.01h5.78v-2.12c-1.63,.16-3.28,.29-4.96,.37l-.07-1.04c1.68-.08,3.54-.22,5.59-.42,2.05-.2,3.75-.4,5.1-.59l.15,1.04c-1.33,.18-2.92,.36-4.76,.54v2.22h5.38v1.01h-5.38v1.93h4.57v6.81h-4.57v2h4.99v.96h-4.99v2.17l4.05-.27,1.06-.07-.02,.57Zm-6.12-9.21v-2h-3.58v2h3.58Zm-3.58,.91v2h3.58v-2h-3.58Zm8.17-.91v-2h-3.56v2h3.56Zm-3.56,.91v2h3.56v-2h-3.56Zm13.6-6.37l-.35,13.48c-.03,.74-.14,1.31-.32,1.7s-.49,.67-.91,.84c-.43,.16-1.03,.25-1.8,.25h-1.73l-.2-1.14h1.58c.64,0,1.12-.05,1.43-.16,.31-.11,.53-.31,.65-.6,.12-.3,.2-.74,.23-1.33l.32-11.85h-3.6c-.02,.15-.02,.34-.02,.57-.07,2.86-.21,5.15-.42,6.85-.21,1.7-.58,3.22-1.1,4.55-.52,1.33-1.3,2.73-2.33,4.2l-.89-.64c1-1.38,1.75-2.71,2.23-3.97s.83-2.7,1.02-4.3c.2-1.6,.35-3.83,.44-6.69,0-.23,0-.42,.02-.57h-2v-1.19h2.02l.1-5.13h1.06c-.02,.15-.04,1.09-.07,2.81l-.05,2.32h4.67Z"/>
          <path class="cls-16" d="M56.95,103.28c-.92,2.25-2.08,4.36-3.47,6.32-1.39,1.96-2.97,3.72-4.75,5.28l-.79-1.04c3.55-3.13,6.17-6.79,7.85-10.99l1.16,.42Zm5.21,12.19c1.4,2.22,3.16,5.13,5.28,8.71l-1.11,.72-1.26-2.22-14.61,.84-.35-1.21c3-3.36,5.56-7.15,7.7-11.38l1.23,.49c-.94,1.84-2.02,3.69-3.23,5.54-1.22,1.85-2.5,3.6-3.85,5.25l12.42-.72c-1.02-1.74-2.11-3.54-3.26-5.38l1.04-.64Zm-.49-13.03c.97,2.76,2.04,4.98,3.22,6.65,1.18,1.67,2.74,3.2,4.7,4.58l-.77,1.09c-2.02-1.48-3.67-3.11-4.93-4.9-1.26-1.79-2.38-4.12-3.37-7l1.14-.42Z"/>
          <path class="cls-16" d="M79.81,112.78l-2.59,1.26v7.92c0,.58-.07,1.02-.2,1.32-.13,.3-.36,.51-.68,.63-.32,.11-.8,.17-1.44,.17h-1.28l-.25-1.19h1.23c.43,0,.75-.03,.95-.09,.21-.06,.35-.18,.43-.36,.08-.18,.12-.46,.12-.84v-7.06l-1.8,.86c-.2,.08-.46,.21-.79,.37l-.32-1.23c1.02-.43,1.99-.87,2.91-1.33v-4.89h-2.54v-1.21h2.54v-4.64h1.11v4.64h2.49v1.21h-2.49v4.37l2.34-1.16,.1,.62,.15,.62Zm8.84-2.64c1.48,1.58,3.56,2.93,6.25,4.05l-.49,1.09c-3.18-1.43-5.52-3.09-7.04-4.96v3.97h-1.13v-3.97c-1.51,1.94-3.79,3.67-6.84,5.18l-.57-1.09c2.7-1.25,4.74-2.67,6.12-4.27h-5.18v-1.04h6.47v-4.27c-2.24,.2-4.24,.34-6,.42l-.05-1.09c1.94-.1,4.24-.27,6.9-.52,2.66-.25,4.78-.5,6.36-.77l.17,1.14c-1.42,.21-3.5,.45-6.25,.72v4.37h7.11v1.04h-5.83Zm-6.74,14.69h-1.11v-9.9h12v9.9h-1.14v-1.43h-9.75v1.43Zm-.07-19.53c1.1,1.19,1.93,2.13,2.49,2.84l-.89,.54c-.48-.58-1.31-1.51-2.49-2.79l.89-.59Zm4.42,13.38v-2.74h-4.34v2.74h4.34Zm-4.34,.99v2.74h4.34v-2.74h-4.34Zm5.43-.99h4.32v-2.74h-4.32v2.74Zm0,.99v2.74h4.32v-2.74h-4.32Zm1.95-11.41c1.14-1.33,1.97-2.38,2.52-3.14l.94,.54c-.66,.87-1.51,1.93-2.57,3.16l-.89-.57Z"/>
          <path class="cls-16" d="M119.73,124.16c-2.96-.2-5.39-.47-7.27-.83-1.88-.35-3.56-.89-5.02-1.62-.81,.63-1.88,1.18-3.21,1.67-1.33,.48-3.04,.97-5.11,1.44l-.44-1.16c1.91-.43,3.46-.84,4.67-1.23s2.17-.84,2.91-1.33c-1.28-.77-2.63-1.86-4.05-3.26l.81-.81c1.43,1.43,2.82,2.53,4.17,3.28,.48-.48,.83-1.03,1.07-1.65s.4-1.37,.48-2.25h-7.6v-8.81h7.68v-2.69h-9.68v-1.16h20.59v1.16h-9.68v2.69h7.68v8.81h-7.75c-.08,.97-.25,1.82-.51,2.54-.26,.72-.64,1.37-1.15,1.93,1.33,.59,2.9,1.05,4.7,1.36s4.12,.54,6.95,.69l-.25,1.23Zm-10.91-12.69v-2.81h-6.44v2.81h6.44Zm-6.44,1.06v2.79h6.44v-2.79h-6.44Zm14.15-1.06v-2.81h-6.47v2.81h6.47Zm-6.47,3.85h6.47v-2.79h-6.47v2.79Z"/>
          <path class="cls-16" d="M127.46,117.74c-.92,2.21-1.85,3.97-2.79,5.28l-.89-.59c.53-.71,1-1.47,1.41-2.28,.41-.81,.83-1.75,1.26-2.8l1.01,.4Zm7.36-1.46h-4.59v5.85c0,.59-.07,1.04-.2,1.33-.13,.3-.38,.51-.73,.63-.35,.12-.87,.19-1.54,.19h-1.53l-.22-1.19h1.46c.51,0,.88-.04,1.1-.11,.22-.07,.37-.2,.43-.38,.07-.18,.1-.49,.1-.94v-5.38h-4.76v-1.11h4.76v-3.26h-5.18v-1.11h3.36c-.25-1.17-.44-2.02-.57-2.54l-.44-2h-1.58v-1.09h4.59c-.28-.91-.58-1.83-.91-2.77l1.18-.22c.28,.84,.59,1.84,.94,2.99h4.12v1.09h-1.53c-.2,1.14-.56,2.65-1.09,4.54h3.26v1.11h-5.01v3.26h4.59v1.11Zm-7.5-10.02c.25,1.09,.38,1.67,.39,1.75,.2,.76,.41,1.69,.64,2.79h2.52c.35-1.15,.72-2.67,1.11-4.54h-4.67Zm6.52,15.35c-.79-1.22-1.61-2.41-2.44-3.58l.84-.62c.92,1.27,1.75,2.44,2.47,3.53l-.86,.67Zm11.63-10.32v1.19h-2.84v12.19h-1.16v-12.19h-3.8v.05c0,2.21-.08,3.99-.23,5.34-.16,1.36-.44,2.57-.85,3.64-.41,1.07-1.03,2.18-1.85,3.33l-1.11-.59c.79-1.09,1.39-2.14,1.79-3.17,.4-1.03,.68-2.2,.83-3.52,.15-1.32,.22-3.06,.22-5.23v-7.18c1.43-.16,2.85-.41,4.25-.73,1.4-.32,2.62-.69,3.65-1.1l.4,1.16c-.96,.4-2.05,.74-3.3,1.05-1.24,.3-2.51,.54-3.79,.7v5.06h7.8Z"/>
        </g>
        <g>
          <path class="cls-16" d="M14.56,142.01h-.43l-.67-1.86h-2.06l-.67,1.86h-.43l1.92-5.29h.43l1.92,5.29Zm-2.14-4.7l-.88,2.45h1.79l-.88-2.45h-.03Z"/>
          <path class="cls-16" d="M18.19,141.28c.26-.29,.39-.69,.39-1.19v-3.37h.41v3.43c0,.4-.07,.74-.22,1.04s-.36,.52-.64,.68c-.28,.16-.61,.24-.98,.24s-.7-.08-.98-.24c-.28-.16-.49-.39-.64-.68s-.22-.64-.22-1.04v-3.43h.41v3.35c0,.51,.13,.91,.39,1.2,.26,.29,.61,.44,1.05,.44s.79-.15,1.05-.44Z"/>
          <path class="cls-16" d="M21.99,142.01h-.41v-4.91h-1.71v-.39h3.83v.39h-1.71v4.91Z"/>
          <path class="cls-16" d="M25.3,141.77c-.35-.23-.62-.55-.8-.97-.19-.42-.28-.89-.28-1.44s.09-1.02,.28-1.44c.19-.42,.46-.74,.8-.97s.75-.34,1.2-.34,.85,.11,1.2,.34,.62,.55,.81,.97c.19,.42,.29,.89,.29,1.44s-.1,1.02-.29,1.44c-.19,.42-.46,.74-.81,.97-.35,.23-.75,.34-1.2,.34s-.85-.11-1.2-.34Zm2.18-.34c.28-.2,.5-.47,.66-.83,.16-.36,.23-.77,.23-1.24s-.08-.88-.23-1.24c-.16-.36-.38-.63-.66-.83-.28-.2-.61-.29-.98-.29s-.7,.1-.98,.29c-.28,.2-.5,.47-.66,.83s-.23,.77-.23,1.24,.08,.88,.23,1.24c.16,.36,.38,.63,.66,.83,.28,.2,.61,.29,.98,.29s.7-.1,.98-.29Z"/>
          <path class="cls-16" d="M34.07,136.72c.63,0,1.11,.14,1.45,.41,.34,.28,.51,.67,.51,1.17s-.17,.9-.5,1.17c-.33,.27-.81,.41-1.43,.41h-1.13v2.13h-.41v-5.29h1.51Zm-.04,2.78c.51,0,.91-.1,1.18-.31s.41-.5,.41-.89-.14-.68-.41-.89-.67-.31-1.18-.31h-1.06v2.39h1.06Z"/>
          <path class="cls-16" d="M39.87,141.28c.26-.29,.39-.69,.39-1.19v-3.37h.41v3.43c0,.4-.07,.74-.22,1.04s-.36,.52-.64,.68c-.28,.16-.61,.24-.98,.24s-.7-.08-.98-.24c-.28-.16-.49-.39-.64-.68s-.22-.64-.22-1.04v-3.43h.41v3.35c0,.51,.13,.91,.39,1.2,.26,.29,.61,.44,1.05,.44s.79-.15,1.05-.44Z"/>
          <path class="cls-16" d="M44.25,139.25c.4,.05,.71,.18,.93,.41s.34,.51,.34,.86c0,.48-.18,.85-.55,1.11-.36,.26-.88,.39-1.56,.39h-1.44v-5.29h1.43c.59,0,1.05,.11,1.37,.34,.32,.23,.48,.55,.48,.97,0,.29-.09,.55-.27,.76-.18,.21-.42,.35-.73,.42v.04Zm-1.87-2.14v1.94h1.07c.43,0,.77-.09,1.01-.27,.24-.18,.37-.42,.37-.73s-.13-.53-.38-.69c-.26-.16-.62-.25-1.09-.25h-.97Zm.97,4.52c.56,0,1-.1,1.3-.29,.3-.2,.45-.48,.45-.84,0-.35-.14-.61-.43-.79-.29-.18-.7-.27-1.22-.27h-1.07v2.2h.97Z"/>
          <path class="cls-16" d="M47.06,136.72v4.91h2.73v.38h-3.14v-5.29h.41Z"/>
          <path class="cls-16" d="M51.09,136.72v5.29h-.41v-5.29h.41Z"/>
          <path class="cls-16" d="M56.28,141.28c-.18,.26-.42,.47-.72,.61-.3,.15-.62,.22-.98,.22-.47,0-.89-.11-1.24-.34-.36-.23-.63-.55-.83-.97s-.29-.9-.29-1.46,.1-1.02,.29-1.43c.19-.41,.47-.72,.83-.95,.36-.22,.77-.34,1.24-.34,.34,0,.66,.07,.96,.22,.3,.15,.55,.35,.74,.61l-.32,.24c-.16-.21-.37-.38-.62-.5s-.51-.19-.77-.19c-.39,0-.73,.1-1.02,.29s-.52,.46-.68,.82c-.16,.35-.24,.76-.24,1.23s.08,.9,.24,1.26c.16,.36,.39,.64,.68,.84,.29,.2,.63,.29,1.02,.29,.27,0,.53-.06,.77-.18s.45-.29,.61-.51l.31,.25Z"/>
          <path class="cls-16" d="M62.25,139.25c.4,.05,.71,.18,.93,.41s.34,.51,.34,.86c0,.48-.18,.85-.55,1.11-.36,.26-.88,.39-1.56,.39h-1.44v-5.29h1.43c.59,0,1.05,.11,1.37,.34,.32,.23,.48,.55,.48,.97,0,.29-.09,.55-.27,.76-.18,.21-.42,.35-.73,.42v.04Zm-1.87-2.14v1.94h1.07c.43,0,.77-.09,1.01-.27,.24-.18,.37-.42,.37-.73s-.13-.53-.38-.69c-.26-.16-.62-.25-1.09-.25h-.97Zm.97,4.52c.56,0,1-.1,1.3-.29,.3-.2,.45-.48,.45-.84,0-.35-.14-.61-.43-.79-.29-.18-.7-.27-1.22-.27h-1.07v2.2h.97Z"/>
          <path class="cls-16" d="M68.22,142.01h-.47l-1.37-2.34s-.12,0-.22,0h-1.1v2.33h-.41v-5.29h1.47c.62,0,1.1,.13,1.43,.39,.33,.26,.5,.63,.5,1.11,0,.38-.11,.69-.33,.92-.22,.24-.53,.4-.94,.48l1.43,2.39Zm-2.13-2.72c.5,0,.88-.09,1.15-.28,.27-.18,.41-.45,.41-.79s-.14-.64-.41-.83c-.27-.19-.66-.29-1.15-.29h-1.02v2.19h1.02Z"/>
          <path class="cls-16" d="M70.04,141.77c-.35-.23-.62-.55-.8-.97-.19-.42-.28-.89-.28-1.44s.09-1.02,.28-1.44c.19-.42,.46-.74,.8-.97s.75-.34,1.2-.34,.85,.11,1.2,.34,.62,.55,.81,.97c.19,.42,.29,.89,.29,1.44s-.1,1.02-.29,1.44c-.19,.42-.46,.74-.81,.97-.35,.23-.75,.34-1.2,.34s-.85-.11-1.2-.34Zm2.18-.34c.28-.2,.5-.47,.66-.83,.16-.36,.23-.77,.23-1.24s-.08-.88-.23-1.24c-.16-.36-.38-.63-.66-.83-.28-.2-.61-.29-.98-.29s-.7,.1-.98,.29c-.28,.2-.5,.47-.66,.83s-.23,.77-.23,1.24,.08,.88,.23,1.24c.16,.36,.38,.63,.66,.83,.28,.2,.61,.29,.98,.29s.7-.1,.98-.29Z"/>
          <path class="cls-16" d="M78.25,142.01h-.43l-.67-1.86h-2.06l-.67,1.86h-.43l1.92-5.29h.43l1.92,5.29Zm-2.14-4.7l-.88,2.45h1.79l-.88-2.45h-.03Z"/>
          <path class="cls-16" d="M79.1,142.01v-5.29h1.55c.84,0,1.49,.23,1.94,.7s.68,1.11,.68,1.95c0,.55-.11,1.02-.32,1.42-.21,.4-.52,.7-.93,.91s-.9,.31-1.47,.31h-1.46Zm1.44-.38c.75,0,1.32-.19,1.72-.58,.4-.39,.59-.95,.59-1.68s-.19-1.29-.58-1.68-.95-.58-1.67-.58h-1.09v4.52h1.04Z"/>
          <path class="cls-16" d="M88.29,141.28c-.18,.26-.42,.47-.72,.61-.3,.15-.62,.22-.98,.22-.47,0-.89-.11-1.24-.34-.36-.23-.63-.55-.83-.97-.19-.42-.29-.9-.29-1.46s.1-1.02,.29-1.43c.19-.41,.47-.72,.83-.95,.36-.22,.77-.34,1.24-.34,.34,0,.66,.07,.96,.22,.3,.15,.55,.35,.74,.61l-.32,.24c-.16-.21-.37-.38-.62-.5-.25-.12-.51-.19-.77-.19-.39,0-.73,.1-1.02,.29s-.52,.46-.68,.82c-.16,.35-.24,.76-.24,1.23s.08,.9,.24,1.26c.16,.36,.38,.64,.68,.84,.29,.2,.63,.29,1.02,.29,.27,0,.53-.06,.77-.18s.45-.29,.61-.51l.32,.25Z"/>
          <path class="cls-16" d="M93.16,142.01h-.43l-.67-1.86h-2.06l-.67,1.86h-.43l1.92-5.29h.43l1.92,5.29Zm-2.14-4.7l-.88,2.45h1.79l-.88-2.45h-.03Z"/>
          <path class="cls-16" d="M94.44,141.87c-.32-.16-.57-.39-.76-.69l.34-.22c.17,.25,.38,.44,.64,.57,.26,.13,.54,.2,.83,.2,.26,0,.5-.04,.71-.13,.21-.09,.38-.21,.49-.37,.12-.16,.18-.33,.18-.53s-.05-.38-.15-.51-.25-.25-.46-.36c-.21-.1-.49-.21-.85-.31-.35-.1-.63-.2-.85-.3-.22-.1-.41-.25-.55-.44s-.22-.43-.22-.73c0-.28,.07-.53,.22-.74,.14-.21,.35-.38,.62-.5,.27-.12,.57-.18,.92-.18s.67,.07,.95,.22c.28,.15,.51,.35,.7,.62l-.32,.23c-.17-.22-.37-.39-.6-.51-.23-.12-.48-.18-.75-.18-.24,0-.46,.04-.67,.13-.2,.09-.36,.21-.48,.36-.12,.15-.18,.33-.18,.52,0,.23,.06,.42,.19,.56,.12,.15,.28,.26,.47,.34,.19,.08,.44,.17,.75,.26,.38,.1,.69,.22,.93,.34,.24,.12,.43,.28,.56,.47,.13,.19,.2,.42,.2,.69,0,.44-.16,.79-.48,1.05-.32,.26-.76,.39-1.32,.39-.38,0-.72-.08-1.04-.25Z"/>
          <path class="cls-16" d="M99.91,142.01h-.41v-4.91h-1.71v-.39h3.83v.39h-1.71v4.91Z"/>
          <path class="cls-16" d="M108.03,141.28c.26-.29,.39-.69,.39-1.19v-3.37h.41v3.43c0,.4-.07,.74-.22,1.04s-.36,.52-.64,.68c-.28,.16-.61,.24-.98,.24s-.7-.08-.98-.24c-.28-.16-.49-.39-.64-.68s-.22-.64-.22-1.04v-3.43h.41v3.35c0,.51,.13,.91,.39,1.2s.61,.44,1.05,.44,.79-.15,1.05-.44Z"/>
          <path class="cls-16" d="M111.65,136.72c.63,0,1.11,.14,1.45,.41,.34,.28,.51,.67,.51,1.17s-.17,.9-.5,1.17c-.33,.27-.81,.41-1.43,.41h-1.13v2.13h-.41v-5.29h1.51Zm-.04,2.78c.51,0,.91-.1,1.18-.31,.27-.21,.41-.5,.41-.89s-.14-.68-.41-.89c-.27-.21-.67-.31-1.18-.31h-1.06v2.39h1.06Z"/>
          <path class="cls-16" d="M114.55,142.01v-5.29h1.55c.84,0,1.49,.23,1.94,.7s.68,1.11,.68,1.95c0,.55-.11,1.02-.32,1.42-.21,.4-.52,.7-.93,.91-.41,.21-.9,.31-1.47,.31h-1.46Zm1.44-.38c.75,0,1.32-.19,1.71-.58s.59-.95,.59-1.68-.19-1.29-.58-1.68c-.39-.39-.94-.58-1.67-.58h-1.09v4.52h1.04Z"/>
          <path class="cls-16" d="M123.43,142.01h-.43l-.67-1.86h-2.06l-.67,1.86h-.43l1.92-5.29h.43l1.92,5.29Zm-2.14-4.7l-.88,2.45h1.79l-.88-2.45h-.03Z"/>
          <path class="cls-16" d="M125.04,142.01h-.41v-4.91h-1.71v-.39h3.83v.39h-1.71v4.91Z"/>
          <path class="cls-16" d="M128.05,139.44v2.18h2.78v.38h-3.19v-5.29h3.09v.39h-2.69v1.96h2.53v.38h-2.53Z"/>
          <path class="cls-16" d="M132.32,141.87c-.32-.16-.57-.39-.76-.69l.34-.22c.17,.25,.38,.44,.64,.57,.26,.13,.54,.2,.83,.2,.26,0,.5-.04,.71-.13,.21-.09,.38-.21,.49-.37,.12-.16,.18-.33,.18-.53s-.05-.38-.15-.51-.25-.25-.46-.36c-.21-.1-.49-.21-.85-.31-.35-.1-.63-.2-.85-.3-.22-.1-.41-.25-.55-.44s-.22-.43-.22-.73c0-.28,.07-.53,.22-.74,.14-.21,.35-.38,.62-.5,.27-.12,.57-.18,.92-.18s.67,.07,.95,.22c.28,.15,.51,.35,.7,.62l-.32,.23c-.17-.22-.37-.39-.6-.51-.23-.12-.48-.18-.75-.18-.24,0-.46,.04-.67,.13-.2,.09-.36,.21-.48,.36-.12,.15-.18,.33-.18,.52,0,.23,.06,.42,.19,.56,.12,.15,.28,.26,.47,.34,.19,.08,.44,.17,.75,.26,.38,.1,.69,.22,.93,.34,.24,.12,.43,.28,.56,.47,.13,.19,.2,.42,.2,.69,0,.44-.16,.79-.48,1.05-.32,.26-.76,.39-1.32,.39-.38,0-.72-.08-1.04-.25Z"/>
        </g>
        <g class="cls-40">
          <circle class="cls-31" cx="68.95" cy="34.91" r="34.91" transform="translate(23.45 97.37) rotate(-80.78)"/>
          <circle class="cls-29" cx="69.01" cy="34.97" r="34.83" transform="translate(23.5 97.53) rotate(-80.84)"/>
          <circle class="cls-30" cx="69.07" cy="35.03" r="34.76" transform="translate(23.56 97.7) rotate(-80.9)"/>
          <circle class="cls-36" cx="69.14" cy="35.09" r="34.68" transform="translate(23.63 97.86) rotate(-80.97)"/>
          <circle class="cls-32" cx="69.2" cy="35.15" r="34.61" transform="translate(23.7 98.04) rotate(-81.04)"/>
          <circle class="cls-33" cx="69.26" cy="35.22" r="34.53" transform="translate(23.77 98.21) rotate(-81.12)"/>
          <circle class="cls-35" cx="69.32" cy="35.28" r="34.46" transform="translate(23.86 98.39) rotate(-81.2)"/>
          <circle class="cls-34" cx="69.38" cy="35.34" r="34.38" transform="translate(23.95 98.58) rotate(-81.3)"/>
          <circle class="cls-11" cx="69.45" cy="35.4" r="34.31" transform="translate(24.05 98.77) rotate(-81.4)"/>
          <circle class="cls-14" cx="69.51" cy="35.47" r="34.23" transform="translate(24.16 98.97) rotate(-81.5)"/>
          <circle class="cls-15" cx="69.57" cy="35.53" r="34.16" transform="translate(24.29 99.18) rotate(-81.62)"/>
          <circle class="cls-12" cx="69.63" cy="35.59" r="34.09" transform="translate(24.43 99.4) rotate(-81.76)"/>
          <circle class="cls-13" cx="69.7" cy="35.65" r="34.01" transform="translate(24.58 99.63) rotate(-81.91)"/>
          <circle class="cls-43" cx="69.76" cy="35.71" r="33.94" transform="translate(24.76 99.88) rotate(-82.07)"/>
          <circle class="cls-42" cx="69.82" cy="35.78" r="33.86" transform="translate(24.96 100.14) rotate(-82.26)"/>
          <circle class="cls-46" cx="69.88" cy="35.84" r="33.79" transform="translate(25.19 100.42) rotate(-82.47)"/>
          <circle class="cls-44" cx="69.94" cy="35.9" r="33.71" transform="translate(25.45 100.72) rotate(-82.71)"/>
          <circle class="cls-45" cx="70.01" cy="35.96" r="33.64" transform="translate(25.76 101.05) rotate(-82.98)"/>
          <circle class="cls-48" cx="70.07" cy="36.03" r="33.56" transform="translate(26.12 101.42) rotate(-83.3)"/>
          <circle class="cls-47" cx="70.13" cy="36.09" r="33.49" transform="translate(26.55 101.82) rotate(-83.68)"/>
          <circle class="cls-50" cx="70.19" cy="36.15" r="33.41"/>
          <circle class="cls-51" cx="70.26" cy="36.21" r="33.34"/>
          <circle class="cls-49" cx="70.32" cy="36.27" r="33.26"/>
          <circle class="cls-19" cx="70.38" cy="36.34" r="33.19"/>
          <circle class="cls-21" cx="70.44" cy="36.4" r="33.12"/>
          <circle class="cls-20" cx="70.5" cy="36.46" r="33.04"/>
          <circle class="cls-17" cx="70.57" cy="36.52" r="32.97"/>
          <circle class="cls-18" cx="70.63" cy="36.59" r="32.89"/>
          <circle class="cls-22" cx="70.69" cy="36.65" r="32.82"/>
          <circle class="cls-2" cx="70.75" cy="36.71" r="32.74"/>
          <circle class="cls-4" cx="70.82" cy="36.77" r="32.67"/>
          <circle class="cls-1" cx="70.88" cy="36.83" r="32.59"/>
          <circle class="cls-5" cx="70.94" cy="36.9" r="32.52"/>
          <circle class="cls-3" cx="71" cy="36.96" r="32.44"/>
          <circle class="cls-23" cx="71.06" cy="37.02" r="32.37"/>
          <circle class="cls-25" cx="71.13" cy="37.08" r="32.29"/>
          <circle class="cls-24" cx="71.19" cy="37.15" r="32.22"/>
          <circle class="cls-26" cx="71.25" cy="37.21" r="32.15"/>
          <circle class="cls-27" cx="71.31" cy="37.27" r="32.07"/>
          <circle class="cls-9" cx="71.38" cy="37.33" r="32"/>
          <circle class="cls-8" cx="71.44" cy="37.39" r="31.92"/>
          <circle class="cls-7" cx="71.5" cy="37.46" r="31.85" transform="translate(16.4 96.44) rotate(-74.6)"/>
          <circle class="cls-6" cx="71.56" cy="37.52" r="31.77" transform="translate(16.76 96.9) rotate(-74.97)"/>
          <circle class="cls-10" cx="71.62" cy="37.58" r="31.7" transform="translate(17.07 97.3) rotate(-75.28)"/>
          <circle class="cls-55" cx="71.69" cy="37.64" r="31.62" transform="translate(17.34 97.67) rotate(-75.55)"/>
          <circle class="cls-54" cx="71.75" cy="37.71" r="31.55" transform="translate(17.57 97.99) rotate(-75.78)"/>
          <circle class="cls-52" cx="71.81" cy="37.77" r="31.47" transform="translate(17.77 98.29) rotate(-75.98)"/>
          <circle class="cls-53" cx="71.87" cy="37.83" r="31.4" transform="translate(17.95 98.57) rotate(-76.16)"/>
          <circle class="cls-56" cx="71.94" cy="37.89" r="31.33" transform="translate(18.11 98.83) rotate(-76.33)"/>
          <circle class="cls-37" cx="72" cy="37.95" r="31.25" transform="translate(18.25 99.07) rotate(-76.47)"/>
          <circle class="cls-39" cx="72.06" cy="38.02" r="31.18" transform="translate(18.38 99.31) rotate(-76.6)"/>
          <circle class="cls-38" cx="72.12" cy="38.08" r="31.1" transform="translate(18.49 99.52) rotate(-76.72)"/>
        </g>
        <circle class="cls-28" cx="72.47" cy="38.43" r="31.73"/>
        <path class="cls-57" d="M77.66,47.87h5.86c4.24,0,7.72-2.25,7.72-6.45s-4.09-6.29-7.41-6.45c-.69-6.56-5.48-10.56-11.11-10.56-5.32,0-8.75,3.53-9.88,7.04-4.63,.44-8.64,3.39-8.64,8.21s4.17,8.21,9.26,8.21h4.32"/>
        <polyline class="cls-57" points="77.66 39.23 72.73 34.29 67.79 39.23"/>
        <line class="cls-57" x1="72.73" y1="54.08" x2="72.73" y2="35.53"/>
      </g>
    </g>
  </g>
</svg>