<?xml version="1.0" encoding="UTF-8"?>
<svg xmlns="http://www.w3.org/2000/svg" viewBox="0 0 139.97 142.55">
  <defs>
    <style>
      .cls-1 {
        opacity: .61;
      }

      .cls-1, .cls-2, .cls-3, .cls-4, .cls-5 {
        fill: #2c2c2d;
      }

      .cls-6 {
        opacity: .82;
      }

      .cls-6, .cls-7, .cls-8, .cls-9, .cls-10 {
        fill: #2e2e2f;
      }

      .cls-11 {
        opacity: .16;
      }

      .cls-11, .cls-12, .cls-13, .cls-14, .cls-15 {
        fill: #282829;
      }

      .cls-16 {
        fill: #fff;
      }

      .cls-17 {
        opacity: .51;
      }

      .cls-17, .cls-18, .cls-19, .cls-20, .cls-21, .cls-22 {
        fill: #2b2b2c;
      }

      .cls-23 {
        opacity: .67;
      }

      .cls-23, .cls-24, .cls-25, .cls-26, .cls-27 {
        fill: #2d2d2e;
      }

      .cls-2 {
        opacity: .57;
      }

      .cls-28, .cls-29, .cls-30, .cls-31 {
        fill: #262627;
      }

      .cls-12 {
        opacity: .22;
      }

      .cls-32 {
        opacity: .08;
      }

      .cls-32, .cls-33, .cls-34, .cls-35, .cls-36 {
        fill: #272728;
      }

      .cls-37 {
        opacity: .96;
      }

      .cls-37, .cls-38, .cls-39 {
        fill: #303031;
      }

      .cls-40 {
        mix-blend-mode: lighten;
      }

      .cls-41 {
        isolation: isolate;
      }

      .cls-33 {
        opacity: .1;
      }

      .cls-18 {
        opacity: .53;
      }

      .cls-13 {
        opacity: .24;
      }

      .cls-14 {
        opacity: .18;
      }

      .cls-24 {
        opacity: .71;
      }

      .cls-42 {
        opacity: .27;
      }

      .cls-42, .cls-43, .cls-44, .cls-45, .cls-46 {
        fill: #29292a;
      }

      .cls-47 {
        opacity: .37;
      }

      .cls-47, .cls-48, .cls-49, .cls-50, .cls-51 {
        fill: #2a2a2b;
      }

      .cls-52 {
        opacity: .9;
      }

      .cls-52, .cls-53, .cls-54, .cls-55, .cls-56 {
        fill: #2f2f30;
      }

      .cls-48 {
        opacity: .35;
      }

      .cls-49 {
        opacity: .43;
      }

      .cls-53 {
        opacity: .92;
      }

      .cls-57 {
        fill: none;
        stroke: #f7cd1c;
        stroke-linecap: round;
        stroke-linejoin: round;
        stroke-width: 2.38px;
      }

      .cls-25 {
        opacity: .69;
      }

      .cls-29 {
        opacity: .02;
      }

      .cls-19 {
        opacity: .45;
      }

      .cls-7 {
        opacity: .8;
      }

      .cls-34 {
        opacity: .14;
      }

      .cls-35 {
        opacity: .12;
      }

      .cls-8 {
        opacity: .78;
      }

      .cls-50 {
        opacity: .39;
      }

      .cls-26 {
        opacity: .73;
      }

      .cls-30 {
        opacity: .04;
      }

      .cls-43 {
        opacity: .25;
      }

      .cls-44 {
        opacity: .31;
      }

      .cls-3 {
        opacity: .65;
      }

      .cls-20 {
        opacity: .49;
      }

      .cls-15 {
        opacity: .2;
      }

      .cls-27 {
        opacity: .75;
      }

      .cls-51 {
        opacity: .41;
      }

      .cls-9 {
        opacity: .76;
      }

      .cls-39 {
        opacity: .98;
      }

      .cls-21 {
        opacity: .47;
      }

      .cls-54 {
        opacity: .88;
      }

      .cls-22 {
        opacity: .55;
      }

      .cls-55 {
        opacity: .86;
      }

      .cls-36 {
        opacity: .06;
      }

      .cls-58 {
        fill: #f7cd1c;
      }

      .cls-4 {
        opacity: .59;
      }

      .cls-31 {
        opacity: 0;
      }

      .cls-45 {
        opacity: .33;
      }

      .cls-5 {
        opacity: .63;
      }

      .cls-56 {
        opacity: .94;
      }

      .cls-46 {
        opacity: .29;
      }

      .cls-10 {
        opacity: .84;
      }
    </style>
  </defs>
  <g class="cls-41">
    <g id="_圖層_2" data-name="圖層 2">
      <g id="_圖層_2-2" data-name="圖層 2">
        <g>
          <path class="cls-16" d="M15.47,118.17c-.47,1.29-1.13,2.37-1.99,3.22l2.32,2.74-1.09,.94-2.34-2.77c-1.23,.82-2.67,1.23-4.3,1.23s-3.03-.4-4.25-1.21c-1.22-.81-2.16-1.94-2.83-3.39-.67-1.46-1-3.15-1-5.07s.33-3.59,1-5.05c.67-1.46,1.61-2.59,2.83-3.39,1.22-.81,2.63-1.21,4.25-1.21s3.03,.4,4.26,1.21c1.23,.81,2.17,1.94,2.84,3.39,.67,1.46,1,3.14,1,5.05,0,1.58-.23,3.02-.7,4.31Zm-4.01,3.02l-2-2.37,1.06-.94,2.02,2.39c.69-.76,1.22-1.68,1.59-2.78,.37-1.09,.56-2.31,.56-3.64,0-1.65-.28-3.1-.83-4.36-.55-1.26-1.33-2.23-2.33-2.93-1-.69-2.16-1.04-3.46-1.04s-2.47,.35-3.47,1.04c-1,.69-1.77,1.67-2.32,2.93-.55,1.26-.83,2.71-.83,4.36s.28,3.1,.83,4.36c.55,1.26,1.33,2.23,2.32,2.93,1,.69,2.15,1.04,3.47,1.04s2.39-.33,3.38-.99Z"/>
          <path class="cls-16" d="M32.73,123.17h-1.65l-4.84-8.25c-.16,.02-.42,.02-.76,.02h-3.88v8.22h-1.43v-18.66h5.18c2.19,0,3.87,.46,5.05,1.38s1.76,2.23,1.76,3.92c0,1.33-.38,2.42-1.15,3.26-.77,.84-1.87,1.4-3.32,1.68l5.04,8.42Zm-7.53-9.58c1.76,0,3.12-.33,4.07-.98,.95-.65,1.43-1.58,1.43-2.8s-.48-2.24-1.43-2.93c-.96-.68-2.31-1.02-4.07-1.02h-3.6v7.73h3.6Z"/>
          <path class="cls-16" d="M37.58,122.68c-.9-.58-1.59-1.38-2.07-2.42-.49-1.04-.73-2.23-.73-3.58s.24-2.51,.73-3.54c.49-1.03,1.18-1.82,2.07-2.38,.9-.56,1.95-.84,3.15-.84,.95,0,1.86,.25,2.72,.74,.86,.49,1.52,1.15,2,1.98l-1.06,.74c-.39-.67-.93-1.21-1.59-1.59-.67-.39-1.38-.58-2.14-.58-.89,0-1.67,.23-2.34,.69-.68,.46-1.2,1.11-1.58,1.94-.38,.83-.57,1.78-.57,2.85s.19,2.05,.56,2.9,.89,1.51,1.57,1.97c.67,.47,1.46,.7,2.35,.7,.77,0,1.49-.19,2.16-.58,.67-.39,1.2-.92,1.59-1.59l1.06,.74c-.48,.84-1.14,1.5-2,1.99-.86,.49-1.76,.73-2.72,.73-1.2,0-2.25-.29-3.15-.86Z"/>
          <path class="cls-16" d="M51.17,122.67c-.87-.57-1.55-1.37-2.04-2.41-.49-1.04-.73-2.23-.73-3.58s.24-2.54,.73-3.58c.49-1.04,1.16-1.84,2.04-2.41s1.88-.85,3.01-.85,2.16,.28,3.04,.85c.87,.57,1.55,1.37,2.04,2.41,.49,1.04,.73,2.23,.73,3.58s-.24,2.54-.73,3.58c-.49,1.04-1.16,1.84-2.04,2.41-.87,.57-1.88,.85-3.04,.85s-2.14-.28-3.01-.85Zm5.32-1.12c.67-.46,1.18-1.11,1.56-1.95,.37-.84,.55-1.81,.55-2.91s-.18-2.07-.55-2.91c-.37-.84-.89-1.49-1.56-1.95-.67-.46-1.44-.69-2.31-.69s-1.64,.23-2.3,.69c-.66,.46-1.17,1.11-1.54,1.95-.37,.84-.56,1.81-.56,2.91s.18,2.07,.56,2.91c.37,.84,.88,1.49,1.54,1.95,.66,.46,1.42,.69,2.3,.69s1.64-.23,2.31-.69Z"/>
          <path class="cls-16" d="M74.6,123.17h-1.36v-2.52h-.1c-.43,.91-1.03,1.61-1.81,2.11-.78,.5-1.67,.75-2.68,.75-1.07,0-2.03-.3-2.88-.89-.85-.59-1.51-1.42-1.99-2.47s-.72-2.24-.72-3.55,.24-2.46,.72-3.49c.48-1.03,1.14-1.83,1.99-2.41,.85-.58,1.81-.86,2.88-.86,.95,0,1.82,.26,2.6,.78,.78,.52,1.41,1.23,1.89,2.14h.1v-8.25h1.36v18.66Zm-1.89-9.32c-.37-.83-.89-1.48-1.55-1.95-.67-.47-1.42-.7-2.26-.7s-1.62,.23-2.3,.69c-.67,.46-1.2,1.11-1.58,1.94s-.57,1.78-.57,2.85,.19,2.02,.58,2.85,.92,1.48,1.6,1.94c.68,.46,1.45,.69,2.31,.69s1.59-.23,2.25-.69c.66-.46,1.17-1.11,1.53-1.94,.36-.83,.54-1.77,.54-2.83s-.19-2.02-.56-2.85Z"/>
          <path class="cls-16" d="M89.49,117.1h-9.8c.08,1.55,.54,2.79,1.37,3.72,.83,.93,1.91,1.39,3.25,1.39,.79,0,1.54-.19,2.25-.58,.71-.39,1.26-.92,1.65-1.59l1.06,.72c-.48,.84-1.15,1.5-2.02,1.99-.87,.49-1.85,.73-2.94,.73-1.2,0-2.25-.28-3.16-.84s-1.6-1.35-2.1-2.37c-.49-1.02-.74-2.21-.74-3.55s.24-2.57,.72-3.6c.48-1.04,1.15-1.84,2.02-2.41,.87-.57,1.89-.85,3.06-.85,1.1,0,2.07,.25,2.9,.75,.83,.5,1.47,1.21,1.92,2.12,.45,.91,.68,1.96,.68,3.15,0,.38-.04,.79-.12,1.23Zm-1.28-1.26c0-1.42-.38-2.56-1.14-3.43-.76-.87-1.75-1.31-2.96-1.31s-2.2,.43-2.99,1.28c-.79,.86-1.25,2.01-1.38,3.46h8.47Z"/>
          <path class="cls-16" d="M93.17,118.65l-.03-1.09,5.13-.25v-2.39h-4.57v-1.06h4.57v-2.22h-4.22v-8.05h9.53v8.05h-4.25v2.22h4.54v1.06h-4.54v2.35l4.89-.22v.52l-.02,.57-11.03,.52Zm-.03,5.6c.23-.69,.47-1.49,.73-2.39,.25-.9,.44-1.66,.56-2.27l.99,.17c-.1,.61-.27,1.38-.52,2.31-.25,.93-.49,1.74-.72,2.43l-1.04-.25Zm5.18-19.63h-3.23v5.97h3.23v-5.97Zm-2.02,1.01c.72,1.38,1.28,2.52,1.68,3.41l-.84,.44c-.44-1.02-1-2.16-1.68-3.43l.84-.42Zm1.41,13.97c.3,1.71,.52,3.07,.67,4.07l-1.01,.15c-.23-1.65-.45-3-.67-4.07l1.01-.15Zm1.58-9.01h3.26v-5.97h-3.26v5.97Zm.96,8.71c.38,1.14,.79,2.44,1.23,3.93l-1.01,.25c-.39-1.48-.77-2.79-1.14-3.92l.91-.25Zm-.72-10.17c.49-.89,1.09-2.04,1.8-3.46l.81,.37c-.25,.53-.85,1.69-1.8,3.51l-.82-.42Zm3.36,9.8c.48,.99,1.04,2.27,1.7,3.85l-.99,.35c-.41-1.05-.95-2.33-1.63-3.83l.91-.37Zm11.48-11.36v1.19h-4.89v5.04h3.78v10.79h-1.13v-2.15h-5.8v2.15h-1.14v-10.79h3.16v-11.23h1.14v5.01h4.89Zm-8.05,13.68h5.8v-6.27h-5.8v6.27Z"/>
          <path class="cls-16" d="M131.23,114.21h-2.42v7.58c0,.67-.08,1.19-.23,1.54-.16,.35-.43,.6-.81,.75-.39,.15-.96,.22-1.72,.22h-2.2l-.2-1.14h2.2c.54,0,.94-.04,1.2-.12,.25-.08,.43-.24,.52-.48,.09-.24,.14-.6,.14-1.1v-7.26h-9.43v-1.06h12.96v1.06Zm-2.42-1.9h-1.14v-7.43h-9.06v-1.11h12.27v1.11h-2.07v7.43Zm-9.18,4.1h5.63v4.81h-5.63v-4.81Zm5.68-9.45v4.25h-5.58v-4.25h5.58Zm-4.67,13.38h3.58v-3.01h-3.58v3.01Zm3.65-12.44h-3.58v2.39h3.58v-2.39Zm14.91,16.69c-2.27-2.27-3.79-5.05-4.57-8.34-.35,1.68-.91,3.21-1.7,4.58s-1.83,2.7-3.14,3.99l-.76-.94c1.76-1.69,3.03-3.49,3.8-5.39,.77-1.9,1.18-4.21,1.21-6.92l.03-2.69h1.06l-.03,2.62c0,.38,0,.66-.02,.84,.12,2.39,.58,4.5,1.38,6.34,.81,1.84,1.97,3.49,3.5,4.94l-.76,.99Zm-9.18-13.31c1.48-2.53,2.68-5.55,3.6-9.04l1.11,.25c-.33,1.3-.72,2.57-1.18,3.8h6.17l-.02,1.14-1.75,4.34-1.06-.37,1.68-4.02h-5.41c-.74,1.84-1.5,3.4-2.27,4.67l-.86-.77Z"/>
        </g>
        <g>
          <path class="cls-16" d="M48.45,140.59c-.13,.37-.32,.67-.56,.91l.66,.78-.31,.27-.67-.78c-.35,.23-.76,.35-1.22,.35s-.86-.11-1.2-.34c-.34-.23-.61-.55-.8-.96-.19-.41-.28-.89-.28-1.44s.09-1.02,.28-1.43c.19-.41,.46-.73,.8-.96,.35-.23,.75-.34,1.2-.34s.86,.11,1.21,.34,.62,.55,.8,.96c.19,.41,.28,.89,.28,1.43,0,.45-.07,.85-.2,1.22Zm-1.14,.86l-.57-.67,.3-.27,.57,.68c.2-.21,.35-.48,.45-.79,.11-.31,.16-.65,.16-1.03,0-.47-.08-.88-.23-1.24s-.38-.63-.66-.83c-.29-.2-.61-.29-.98-.29s-.7,.1-.98,.29c-.28,.2-.5,.47-.66,.83s-.23,.77-.23,1.24,.08,.88,.23,1.24,.38,.63,.66,.83c.28,.2,.61,.29,.98,.29s.68-.09,.96-.28Z"/>
          <path class="cls-16" d="M53.34,142.01h-.47l-1.37-2.34s-.12,0-.22,0h-1.1v2.33h-.41v-5.29h1.47c.62,0,1.1,.13,1.43,.39,.33,.26,.5,.63,.5,1.11,0,.38-.11,.69-.33,.92-.22,.24-.53,.4-.94,.48l1.43,2.39Zm-2.13-2.72c.5,0,.88-.09,1.15-.28,.27-.18,.41-.45,.41-.79s-.14-.64-.41-.83c-.27-.19-.66-.29-1.15-.29h-1.02v2.19h1.02Z"/>
          <path class="cls-16" d="M58.12,141.28c-.18,.26-.42,.47-.72,.61-.3,.15-.62,.22-.98,.22-.47,0-.88-.11-1.24-.34-.36-.23-.63-.55-.83-.97-.19-.42-.29-.9-.29-1.46s.1-1.02,.29-1.43c.19-.41,.47-.72,.83-.95,.36-.22,.77-.34,1.24-.34,.34,0,.66,.07,.96,.22s.55,.35,.74,.61l-.32,.24c-.16-.21-.37-.38-.62-.5-.25-.12-.51-.19-.77-.19-.39,0-.73,.1-1.02,.29s-.52,.46-.68,.82c-.16,.35-.24,.76-.24,1.23s.08,.9,.24,1.26c.16,.36,.39,.64,.68,.84,.29,.2,.63,.29,1.02,.29,.27,0,.53-.06,.77-.18s.45-.29,.61-.51l.31,.25Z"/>
          <path class="cls-16" d="M59.97,141.77c-.35-.23-.62-.55-.8-.97-.19-.42-.28-.89-.28-1.44s.09-1.02,.28-1.44c.19-.42,.46-.74,.8-.97s.75-.34,1.2-.34,.85,.11,1.2,.34,.62,.55,.81,.97c.19,.42,.29,.89,.29,1.44s-.1,1.02-.29,1.44c-.19,.42-.46,.74-.81,.97-.35,.23-.75,.34-1.2,.34s-.85-.11-1.2-.34Zm2.18-.34c.29-.2,.5-.47,.66-.83,.16-.36,.23-.77,.23-1.24s-.08-.88-.23-1.24c-.16-.36-.38-.63-.66-.83-.28-.2-.61-.29-.98-.29s-.7,.1-.98,.29c-.28,.2-.5,.47-.66,.83s-.23,.77-.23,1.24,.08,.88,.23,1.24c.16,.36,.38,.63,.66,.83,.28,.2,.61,.29,.98,.29s.7-.1,.98-.29Z"/>
          <path class="cls-16" d="M64.61,142.01v-5.29h1.55c.84,0,1.49,.23,1.94,.7s.68,1.11,.68,1.95c0,.55-.11,1.02-.32,1.42-.21,.4-.52,.7-.93,.91-.41,.21-.9,.31-1.47,.31h-1.46Zm1.44-.38c.75,0,1.32-.19,1.71-.58s.59-.95,.59-1.68-.19-1.29-.58-1.68c-.39-.39-.94-.58-1.67-.58h-1.09v4.52h1.04Z"/>
          <path class="cls-16" d="M70.32,139.44v2.18h2.78v.38h-3.19v-5.29h3.09v.39h-2.69v1.96h2.53v.38h-2.53Z"/>
          <path class="cls-16" d="M77.22,141.86c-.32-.16-.57-.39-.76-.69l.34-.22c.17,.25,.38,.44,.64,.57,.26,.13,.54,.2,.83,.2,.26,0,.5-.04,.71-.13,.21-.09,.38-.21,.49-.37,.12-.16,.18-.33,.18-.53s-.05-.38-.15-.51-.25-.25-.46-.36c-.21-.1-.49-.21-.85-.31-.35-.1-.63-.2-.85-.3-.22-.1-.41-.25-.55-.44s-.22-.43-.22-.73c0-.28,.07-.53,.22-.74,.14-.21,.35-.38,.62-.5,.27-.12,.57-.18,.92-.18s.67,.07,.95,.22c.28,.15,.51,.35,.7,.62l-.32,.23c-.17-.22-.37-.39-.6-.51-.23-.12-.48-.18-.75-.18-.24,0-.46,.04-.67,.13-.2,.09-.36,.21-.48,.36-.12,.15-.18,.33-.18,.52,0,.23,.06,.42,.19,.56,.12,.15,.28,.26,.47,.34,.19,.08,.44,.17,.75,.26,.38,.1,.69,.22,.93,.34,.24,.12,.43,.28,.56,.47,.13,.19,.2,.42,.2,.69,0,.44-.16,.79-.48,1.05-.32,.26-.76,.39-1.32,.39-.38,0-.72-.08-1.04-.25Z"/>
          <path class="cls-16" d="M82.06,141.77c-.35-.23-.62-.55-.8-.97-.19-.42-.28-.89-.28-1.44s.09-1.02,.28-1.44c.19-.42,.46-.74,.8-.97s.75-.34,1.2-.34,.85,.11,1.2,.34,.62,.55,.81,.97c.19,.42,.29,.89,.29,1.44s-.1,1.02-.29,1.44c-.19,.42-.46,.74-.81,.97-.35,.23-.75,.34-1.2,.34s-.85-.11-1.2-.34Zm2.18-.34c.28-.2,.5-.47,.66-.83,.16-.36,.23-.77,.23-1.24s-.08-.88-.23-1.24-.38-.63-.66-.83c-.29-.2-.61-.29-.98-.29s-.7,.1-.98,.29c-.28,.2-.5,.47-.66,.83s-.23,.77-.23,1.24,.08,.88,.23,1.24c.16,.36,.38,.63,.66,.83,.28,.2,.61,.29,.98,.29s.7-.1,.98-.29Z"/>
          <path class="cls-16" d="M87.1,142.01h-.41v-5.29h.44l3.01,4.6h.03v-4.6h.4v5.29h-.43l-3.01-4.6h-.03v4.6Z"/>
          <path class="cls-16" d="M93.05,137.3c-.29,.19-.52,.47-.68,.82-.16,.35-.24,.77-.24,1.25s.08,.9,.23,1.25c.16,.35,.38,.63,.67,.82s.62,.29,1,.29c.56,0,1.05-.23,1.47-.7v-1.32h-1.31v-.39h1.71v1.86c-.53,.63-1.15,.94-1.88,.94-.47,0-.88-.11-1.23-.33-.35-.22-.62-.54-.8-.95-.19-.41-.28-.9-.28-1.46s.1-1.05,.29-1.46,.46-.73,.82-.95,.77-.33,1.25-.33c.35,0,.67,.07,.96,.22,.3,.15,.54,.36,.73,.62l-.32,.25c-.16-.22-.37-.39-.61-.52s-.5-.19-.77-.19c-.39,0-.74,.1-1.03,.29Z"/>
        </g>
        <g class="cls-40">
          <circle class="cls-31" cx="66.21" cy="34.91" r="34.91" transform="translate(21.15 94.67) rotate(-80.78)"/>
          <circle class="cls-29" cx="66.27" cy="34.97" r="34.83" transform="translate(21.2 94.83) rotate(-80.84)"/>
          <circle class="cls-30" cx="66.33" cy="35.03" r="34.76" transform="translate(21.26 94.99) rotate(-80.9)"/>
          <circle class="cls-36" cx="66.4" cy="35.09" r="34.68" transform="translate(21.32 95.16) rotate(-80.97)"/>
          <circle class="cls-32" cx="66.46" cy="35.15" r="34.61" transform="translate(21.38 95.33) rotate(-81.04)"/>
          <circle class="cls-33" cx="66.52" cy="35.22" r="34.53" transform="translate(21.46 95.5) rotate(-81.12)"/>
          <circle class="cls-35" cx="66.58" cy="35.28" r="34.46" transform="translate(21.54 95.68) rotate(-81.2)"/>
          <circle class="cls-34" cx="66.64" cy="35.34" r="34.38" transform="translate(21.62 95.87) rotate(-81.3)"/>
          <circle class="cls-11" cx="66.71" cy="35.4" r="34.31" transform="translate(21.72 96.06) rotate(-81.4)"/>
          <circle class="cls-14" cx="66.77" cy="35.47" r="34.23" transform="translate(21.83 96.26) rotate(-81.5)"/>
          <circle class="cls-15" cx="66.83" cy="35.53" r="34.16" transform="translate(21.95 96.47) rotate(-81.62)"/>
          <circle class="cls-12" cx="66.89" cy="35.59" r="34.09" transform="translate(22.08 96.69) rotate(-81.76)"/>
          <circle class="cls-13" cx="66.96" cy="35.65" r="34.01" transform="translate(22.23 96.92) rotate(-81.91)"/>
          <circle class="cls-43" cx="67.02" cy="35.71" r="33.94" transform="translate(22.4 97.16) rotate(-82.07)"/>
          <circle class="cls-42" cx="67.08" cy="35.78" r="33.86" transform="translate(22.59 97.42) rotate(-82.26)"/>
          <circle class="cls-46" cx="67.14" cy="35.84" r="33.79" transform="translate(22.81 97.7) rotate(-82.47)"/>
          <circle class="cls-44" cx="67.2" cy="35.9" r="33.71" transform="translate(23.06 98) rotate(-82.71)"/>
          <circle class="cls-45" cx="67.27" cy="35.96" r="33.64" transform="translate(23.35 98.33) rotate(-82.98)"/>
          <circle class="cls-48" cx="67.33" cy="36.03" r="33.56" transform="translate(23.7 98.69) rotate(-83.3)"/>
          <circle class="cls-47" cx="67.39" cy="36.09" r="33.49" transform="translate(24.11 99.1) rotate(-83.68)"/>
          <circle class="cls-50" cx="67.45" cy="36.15" r="33.41"/>
          <circle class="cls-51" cx="67.52" cy="36.21" r="33.34"/>
          <circle class="cls-49" cx="67.58" cy="36.27" r="33.26"/>
          <circle class="cls-19" cx="67.64" cy="36.34" r="33.19"/>
          <circle class="cls-21" cx="67.7" cy="36.4" r="33.12"/>
          <circle class="cls-20" cx="67.76" cy="36.46" r="33.04"/>
          <circle class="cls-17" cx="67.83" cy="36.52" r="32.97"/>
          <circle class="cls-18" cx="67.89" cy="36.59" r="32.89"/>
          <circle class="cls-22" cx="67.95" cy="36.65" r="32.82"/>
          <circle class="cls-2" cx="68.01" cy="36.71" r="32.74"/>
          <circle class="cls-4" cx="68.08" cy="36.77" r="32.67"/>
          <circle class="cls-1" cx="68.14" cy="36.83" r="32.59"/>
          <circle class="cls-5" cx="68.2" cy="36.9" r="32.52"/>
          <circle class="cls-3" cx="68.26" cy="36.96" r="32.44"/>
          <circle class="cls-23" cx="68.32" cy="37.02" r="32.37"/>
          <circle class="cls-25" cx="68.39" cy="37.08" r="32.29"/>
          <circle class="cls-24" cx="68.45" cy="37.15" r="32.22"/>
          <circle class="cls-26" cx="68.51" cy="37.21" r="32.15"/>
          <circle class="cls-27" cx="68.57" cy="37.27" r="32.07"/>
          <circle class="cls-9" cx="68.64" cy="37.33" r="32"/>
          <circle class="cls-8" cx="68.7" cy="37.39" r="31.92"/>
          <circle class="cls-7" cx="68.76" cy="37.46" r="31.85" transform="translate(14.39 93.8) rotate(-74.6)"/>
          <circle class="cls-6" cx="68.82" cy="37.52" r="31.77" transform="translate(14.73 94.25) rotate(-74.97)"/>
          <circle class="cls-10" cx="68.88" cy="37.58" r="31.7" transform="translate(15.03 94.65) rotate(-75.28)"/>
          <circle class="cls-55" cx="68.95" cy="37.64" r="31.62" transform="translate(15.28 95.01) rotate(-75.55)"/>
          <circle class="cls-54" cx="69.01" cy="37.71" r="31.55" transform="translate(15.5 95.34) rotate(-75.78)"/>
          <circle class="cls-52" cx="69.07" cy="37.77" r="31.47" transform="translate(15.7 95.63) rotate(-75.98)"/>
          <circle class="cls-53" cx="69.13" cy="37.83" r="31.4" transform="translate(15.87 95.91) rotate(-76.16)"/>
          <circle class="cls-56" cx="69.2" cy="37.89" r="31.33" transform="translate(16.02 96.17) rotate(-76.33)"/>
          <circle class="cls-37" cx="69.26" cy="37.95" r="31.25" transform="translate(16.15 96.41) rotate(-76.47)"/>
          <circle class="cls-39" cx="69.32" cy="38.02" r="31.18" transform="translate(16.27 96.64) rotate(-76.6)"/>
          <circle class="cls-38" cx="69.38" cy="38.08" r="31.1" transform="translate(16.38 96.86) rotate(-76.72)"/>
        </g>
        <circle class="cls-28" cx="69.73" cy="38.43" r="31.73"/>
        <rect class="cls-58" x="75.35" y="44.8" width="5.96" height="5.96" rx=".6" ry=".6"/>
        <rect class="cls-58" x="70.58" y="40.03" width="4.77" height="4.77" rx=".6" ry=".6"/>
        <rect class="cls-58" x="81.31" y="50.76" width="4.77" height="4.77" rx=".6" ry=".6"/>
        <rect class="cls-58" x="82.5" y="40.03" width="3.58" height="3.58" rx=".6" ry=".6"/>
        <rect class="cls-58" x="70.58" y="51.95" width="3.58" height="3.58" rx=".6" ry=".6"/>
        <rect class="cls-58" x="75.35" y="26.92" width="5.96" height="5.96" rx=".6" ry=".6"/>
        <rect class="cls-57" x="71.77" y="23.34" width="13.11" height="13.11" rx="1.19" ry="1.19"/>
        <rect class="cls-58" x="57.47" y="26.92" width="5.96" height="5.96" rx=".6" ry=".6"/>
        <rect class="cls-57" x="53.89" y="23.34" width="13.11" height="13.11" rx="1.19" ry="1.19"/>
        <rect class="cls-58" x="57.47" y="44.8" width="5.96" height="5.96" rx=".6" ry=".6"/>
        <rect class="cls-57" x="53.89" y="41.22" width="13.11" height="13.11" rx="1.19" ry="1.19"/>
      </g>
    </g>
  </g>
</svg>