<?xml version="1.0" encoding="UTF-8"?>
<svg xmlns="http://www.w3.org/2000/svg" xmlns:xlink="http://www.w3.org/1999/xlink" viewBox="0 0 115.55 131.42">
  <defs>
    <style>
      .cls-1 {
        opacity: .61;
      }

      .cls-1, .cls-2, .cls-3, .cls-4, .cls-5 {
        fill: #2c2c2d;
      }

      .cls-6 {
        fill: #323233;
        opacity: .03;
      }

      .cls-7 {
        fill: #5f5f62;
        opacity: .65;
      }

      .cls-8 {
        fill: #59595b;
        opacity: .56;
      }

      .cls-9 {
        opacity: .82;
      }

      .cls-9, .cls-10, .cls-11, .cls-12, .cls-13 {
        fill: #2e2e2f;
      }

      .cls-14 {
        opacity: .16;
      }

      .cls-14, .cls-15, .cls-16, .cls-17, .cls-18 {
        fill: #282829;
      }

      .cls-19 {
        fill: #646466;
        opacity: .71;
      }

      .cls-20 {
        opacity: .51;
      }

      .cls-20, .cls-21, .cls-22, .cls-23, .cls-24, .cls-25 {
        fill: #2b2b2c;
      }

      .cls-26 {
        opacity: .67;
      }

      .cls-26, .cls-27, .cls-28, .cls-29, .cls-30 {
        fill: #2d2d2e;
      }

      .cls-31 {
        fill: #757578;
        opacity: .94;
      }

      .cls-2 {
        opacity: .57;
      }

      .cls-32, .cls-33, .cls-34, .cls-35 {
        fill: #262627;
      }

      .cls-36 {
        fill: #616164;
        opacity: .68;
      }

      .cls-15 {
        opacity: .22;
      }

      .cls-37 {
        opacity: .08;
      }

      .cls-37, .cls-38, .cls-39, .cls-40, .cls-41 {
        fill: #272728;
      }

      .cls-42 {
        opacity: .96;
      }

      .cls-42, .cls-43, .cls-44, .cls-45 {
        fill: #303031;
      }

      .cls-46 {
        fill: #434345;
        opacity: .26;
      }

      .cls-47 {
        fill: #4a4a4b;
        opacity: .35;
      }

      .cls-48 {
        fill: #343435;
        opacity: .06;
      }

      .cls-49 {
        fill: #414143;
        opacity: .24;
      }

      .cls-50 {
        isolation: isolate;
      }

      .cls-38 {
        opacity: .1;
      }

      .cls-21 {
        opacity: .53;
      }

      .cls-51 {
        fill: #4e4e50;
        opacity: .41;
      }

      .cls-52 {
        fill: #3d3d3e;
        opacity: .18;
      }

      .cls-53 {
        fill: #3b3b3c;
        opacity: .15;
      }

      .cls-54 {
        fill: #484849;
        opacity: .32;
      }

      .cls-16 {
        opacity: .24;
      }

      .cls-17 {
        opacity: .18;
      }

      .cls-55 {
        fill: #3f3f40;
        opacity: .21;
      }

      .cls-27 {
        opacity: .71;
      }

      .cls-56 {
        opacity: .27;
      }

      .cls-56, .cls-57, .cls-58, .cls-59, .cls-60 {
        fill: #29292a;
      }

      .cls-61 {
        opacity: .37;
      }

      .cls-61, .cls-62, .cls-63, .cls-64, .cls-65 {
        fill: #2a2a2b;
      }

      .cls-66 {
        opacity: .9;
      }

      .cls-66, .cls-67, .cls-68, .cls-69, .cls-70 {
        fill: #2f2f30;
      }

      .cls-71 {
        fill: #575759;
        opacity: .53;
      }

      .cls-62 {
        opacity: .35;
      }

      .cls-63 {
        opacity: .43;
      }

      .cls-72 {
        fill: #5b5b5d;
        opacity: .59;
      }

      .cls-73 {
        filter: url(#drop-shadow-1);
      }

      .cls-74 {
        fill: #c20d23;
      }

      .cls-67 {
        opacity: .92;
      }

      .cls-28 {
        opacity: .69;
      }

      .cls-75 {
        fill: #737375;
        opacity: .91;
      }

      .cls-76 {
        fill: #525254;
        opacity: .47;
      }

      .cls-33 {
        opacity: .02;
      }

      .cls-22 {
        opacity: .45;
      }

      .cls-77 {
        fill: #6e6e71;
        opacity: .85;
      }

      .cls-78 {
        fill: #363638;
        opacity: .09;
      }

      .cls-10 {
        opacity: .8;
      }

      .cls-39 {
        opacity: .14;
      }

      .cls-79 {
        fill: #6a6a6d;
        opacity: .79;
      }

      .cls-40 {
        opacity: .12;
      }

      .cls-11 {
        opacity: .78;
      }

      .cls-80 {
        fill: #79797c;
      }

      .cls-64 {
        opacity: .39;
      }

      .cls-29 {
        opacity: .73;
      }

      .cls-81 {
        fill: #707073;
        opacity: .88;
      }

      .cls-82 {
        fill: #fff000;
      }

      .cls-34 {
        opacity: .04;
      }

      .cls-83 {
        fill: #555557;
        opacity: .5;
      }

      .cls-84 {
        fill: #6c6c6f;
        opacity: .82;
      }

      .cls-85 {
        fill: #666668;
        opacity: .74;
      }

      .cls-57 {
        opacity: .25;
      }

      .cls-58 {
        opacity: .31;
      }

      .cls-86 {
        fill: #4c4c4e;
        opacity: .38;
      }

      .cls-3 {
        opacity: .65;
      }

      .cls-23 {
        opacity: .49;
      }

      .cls-18 {
        opacity: .2;
      }

      .cls-87 {
        fill: #39393a;
        opacity: .12;
      }

      .cls-30 {
        opacity: .75;
      }

      .cls-88 {
        fill: #77777a;
        opacity: .97;
      }

      .cls-65 {
        opacity: .41;
      }

      .cls-12 {
        opacity: .76;
      }

      .cls-44 {
        opacity: .98;
      }

      .cls-89 {
        opacity: .65;
      }

      .cls-89, .cls-90 {
        mix-blend-mode: multiply;
      }

      .cls-24 {
        opacity: .47;
      }

      .cls-68 {
        opacity: .88;
      }

      .cls-25 {
        opacity: .55;
      }

      .cls-91 {
        fill: #68686a;
        opacity: .76;
      }

      .cls-69 {
        opacity: .86;
      }

      .cls-92 {
        fill: #5d5d5f;
        opacity: .62;
      }

      .cls-41 {
        opacity: .06;
      }

      .cls-93 {
        fill: #454547;
        opacity: .29;
      }

      .cls-94 {
        fill: #f7cd1c;
      }

      .cls-4 {
        opacity: .59;
      }

      .cls-35, .cls-45 {
        opacity: 0;
      }

      .cls-59 {
        opacity: .33;
      }

      .cls-5 {
        opacity: .63;
      }

      .cls-70 {
        opacity: .94;
      }

      .cls-60 {
        opacity: .29;
      }

      .cls-95 {
        fill: #505052;
        opacity: .44;
      }

      .cls-13 {
        opacity: .84;
      }
    </style>
    <filter id="drop-shadow-1" filterUnits="userSpaceOnUse">
      <feOffset dx="0" dy="0"/>
      <feGaussianBlur result="blur" stdDeviation="5"/>
      <feFlood flood-color="#000" flood-opacity=".75"/>
      <feComposite in2="blur" operator="in"/>
      <feComposite in="SourceGraphic"/>
    </filter>
  </defs>
  <g class="cls-50">
    <g id="_圖層_2" data-name="圖層 2">
      <g id="_圖層_2-2" data-name="圖層 2">
        <g>
          <g class="cls-90">
            <circle class="cls-35" cx="52.14" cy="68" r="52.14"/>
            <circle class="cls-33" cx="52.23" cy="68.09" r="52.02"/>
            <circle class="cls-34" cx="52.32" cy="68.19" r="51.91"/>
            <circle class="cls-41" cx="52.41" cy="68.28" r="51.8"/>
            <circle class="cls-37" cx="52.51" cy="68.37" r="51.69"/>
            <circle class="cls-38" cx="52.6" cy="68.47" r="51.58"/>
            <circle class="cls-40" cx="52.69" cy="68.56" r="51.47"/>
            <circle class="cls-39" cx="52.79" cy="68.65" r="51.36"/>
            <circle class="cls-14" cx="52.88" cy="68.75" r="51.24"/>
            <circle class="cls-17" cx="52.97" cy="68.84" r="51.13"/>
            <circle class="cls-18" cx="53.06" cy="68.93" r="51.02"/>
            <circle class="cls-15" cx="53.16" cy="69.02" r="50.91"/>
            <circle class="cls-16" cx="53.25" cy="69.12" r="50.8"/>
            <circle class="cls-57" cx="53.34" cy="69.21" r="50.69"/>
            <circle class="cls-56" cx="53.44" cy="69.3" r="50.58"/>
            <circle class="cls-60" cx="53.53" cy="69.4" r="50.46"/>
            <circle class="cls-58" cx="53.62" cy="69.49" r="50.35"/>
            <circle class="cls-59" cx="53.72" cy="69.58" r="50.24"/>
            <circle class="cls-62" cx="53.81" cy="69.67" r="50.13"/>
            <circle class="cls-61" cx="53.9" cy="69.77" r="50.02"/>
            <circle class="cls-64" cx="53.99" cy="69.86" r="49.91"/>
            <circle class="cls-65" cx="54.09" cy="69.95" r="49.8"/>
            <circle class="cls-63" cx="54.18" cy="70.05" r="49.68"/>
            <circle class="cls-22" cx="54.27" cy="70.14" r="49.57"/>
            <circle class="cls-24" cx="54.37" cy="70.23" r="49.46" transform="translate(-23.67 112.65) rotate(-80.78)"/>
            <circle class="cls-23" cx="54.46" cy="70.32" r="49.35" transform="translate(-23.68 112.82) rotate(-80.78)"/>
            <circle class="cls-20" cx="54.55" cy="70.42" r="49.24" transform="translate(-23.7 112.99) rotate(-80.78)"/>
            <circle class="cls-21" cx="54.64" cy="70.51" r="49.13" transform="translate(-23.71 113.16) rotate(-80.78)"/>
            <circle class="cls-25" cx="54.74" cy="70.6" r="49.02" transform="translate(-23.72 113.32) rotate(-80.78)"/>
            <circle class="cls-2" cx="54.83" cy="70.7" r="48.9" transform="translate(-23.74 113.49) rotate(-80.78)"/>
            <circle class="cls-4" cx="54.92" cy="70.79" r="48.79" transform="translate(-23.75 113.66) rotate(-80.78)"/>
            <circle class="cls-1" cx="55.02" cy="70.88" r="48.68" transform="translate(-23.76 113.83) rotate(-80.78)"/>
            <circle class="cls-5" cx="55.11" cy="70.98" r="48.57" transform="translate(-23.78 114) rotate(-80.78)"/>
            <circle class="cls-3" cx="55.2" cy="71.07" r="48.46" transform="translate(-23.79 114.17) rotate(-80.78)"/>
            <circle class="cls-26" cx="55.3" cy="71.16" r="48.35" transform="translate(-23.8 114.34) rotate(-80.78)"/>
            <circle class="cls-28" cx="55.39" cy="71.25" r="48.24" transform="translate(-23.82 114.51) rotate(-80.78)"/>
            <circle class="cls-27" cx="55.48" cy="71.35" r="48.12" transform="translate(-23.83 114.68) rotate(-80.78)"/>
            <circle class="cls-29" cx="55.57" cy="71.44" r="48.01" transform="translate(-23.85 114.85) rotate(-80.78)"/>
            <circle class="cls-30" cx="55.67" cy="71.53" r="47.9" transform="translate(-23.86 115.02) rotate(-80.78)"/>
            <circle class="cls-12" cx="55.76" cy="71.63" r="47.79" transform="translate(-23.87 115.19) rotate(-80.78)"/>
            <circle class="cls-11" cx="55.85" cy="71.72" r="47.68" transform="translate(-23.89 115.36) rotate(-80.78)"/>
            <circle class="cls-10" cx="55.95" cy="71.81" r="47.57" transform="translate(-23.9 115.53) rotate(-80.78)"/>
            <circle class="cls-9" cx="56.04" cy="71.9" r="47.46" transform="translate(-23.91 115.7) rotate(-80.78)"/>
            <circle class="cls-13" cx="56.13" cy="72" r="47.34" transform="translate(-23.93 115.87) rotate(-80.78)"/>
            <circle class="cls-69" cx="56.22" cy="72.09" r="47.23" transform="translate(-23.94 116.04) rotate(-80.78)"/>
            <circle class="cls-68" cx="56.32" cy="72.18" r="47.12" transform="translate(-23.96 116.21) rotate(-80.78)"/>
            <circle class="cls-66" cx="56.41" cy="72.28" r="47.01" transform="translate(-23.97 116.38) rotate(-80.78)"/>
            <circle class="cls-67" cx="56.5" cy="72.37" r="46.9" transform="translate(-23.98 116.55) rotate(-80.78)"/>
            <circle class="cls-70" cx="56.6" cy="72.46" r="46.79" transform="translate(-24 116.72) rotate(-80.78)"/>
            <circle class="cls-42" cx="56.69" cy="72.56" r="46.68" transform="translate(-24.01 116.89) rotate(-80.78)"/>
            <circle class="cls-44" cx="56.78" cy="72.65" r="46.56" transform="translate(-24.02 117.06) rotate(-80.78)"/>
            <circle class="cls-43" cx="56.87" cy="72.74" r="46.45" transform="translate(-24.04 117.23) rotate(-80.78)"/>
          </g>
          <g class="cls-89">
            <circle class="cls-45" cx="63.42" cy="79.28" r="52.14"/>
            <circle class="cls-6" cx="63.27" cy="79.14" r="51.94"/>
            <circle class="cls-48" cx="63.12" cy="78.99" r="51.75"/>
            <circle class="cls-78" cx="62.98" cy="78.84" r="51.55"/>
            <circle class="cls-87" cx="62.83" cy="78.7" r="51.36"/>
            <circle class="cls-53" cx="62.68" cy="78.55" r="51.16"/>
            <circle class="cls-52" cx="62.54" cy="78.4" r="50.97"/>
            <circle class="cls-55" cx="62.39" cy="78.26" r="50.78"/>
            <circle class="cls-49" cx="62.24" cy="78.11" r="50.58"/>
            <circle class="cls-46" cx="62.1" cy="77.96" r="50.39"/>
            <circle class="cls-93" cx="61.95" cy="77.82" r="50.19"/>
            <circle class="cls-54" cx="61.81" cy="77.67" r="50"/>
            <circle class="cls-47" cx="61.66" cy="77.53" r="49.8"/>
            <circle class="cls-86" cx="61.51" cy="77.38" r="49.61"/>
            <circle class="cls-51" cx="61.37" cy="77.23" r="49.41"/>
            <circle class="cls-95" cx="61.22" cy="77.09" r="49.22"/>
            <circle class="cls-76" cx="61.07" cy="76.94" r="49.03"/>
            <circle class="cls-83" cx="60.93" cy="76.79" r="48.83"/>
            <circle class="cls-71" cx="60.78" cy="76.65" r="48.64"/>
            <circle class="cls-8" cx="60.63" cy="76.5" r="48.44"/>
            <circle class="cls-72" cx="60.49" cy="76.35" r="48.25"/>
            <circle class="cls-92" cx="60.34" cy="76.21" r="48.05"/>
            <circle class="cls-7" cx="60.2" cy="76.06" r="47.86"/>
            <circle class="cls-36" cx="60.05" cy="75.92" r="47.67"/>
            <circle class="cls-19" cx="59.9" cy="75.77" r="47.47"/>
            <circle class="cls-85" cx="59.76" cy="75.62" r="47.28"/>
            <circle class="cls-91" cx="59.61" cy="75.48" r="47.08"/>
            <circle class="cls-79" cx="59.46" cy="75.33" r="46.89"/>
            <circle class="cls-84" cx="59.32" cy="75.18" r="46.69"/>
            <circle class="cls-77" cx="59.17" cy="75.04" r="46.5"/>
            <circle class="cls-81" cx="59.02" cy="74.89" r="46.31"/>
            <circle class="cls-75" cx="58.88" cy="74.74" r="46.11"/>
            <circle class="cls-31" cx="58.73" cy="74.6" r="45.92"/>
            <circle class="cls-88" cx="58.59" cy="74.45" r="45.72"/>
            <circle class="cls-80" cx="58.44" cy="74.31" r="45.53"/>
          </g>
          <circle class="cls-32" cx="57.4" cy="73.26" r="47.4"/>
        </g>
        <g>
          <path class="cls-82" d="M56.54,68.19v2.83h-17.94v-2.83h9.33c.54-1.29,1.13-2.83,1.76-4.62s1.14-3.29,1.52-4.5l3.07,1.19c-.47,1.29-1.37,3.61-2.69,6.96l-.38,.97h5.34Zm-.49-12.26v2.83h-16.83v-2.83h7.1l-.44-1.46c-.11-.3-.23-.68-.36-1.15l3.16-.5c.43,1.33,.74,2.37,.93,3.11h6.45Zm-12.32,11.79c-.49-1.62-1.38-4.07-2.69-7.36l2.65-1.01c.53,1.39,1.47,3.79,2.83,7.2l-2.79,1.17Z"/>
          <path class="cls-82" d="M66.29,64.28c.86,1.59,1.81,3.41,2.85,5.46l-2.29,1.23c-.47-1.01-.81-1.72-1.01-2.12l-5.12,2.25-1.38-2.29c.27-.2,.44-.4,.52-.61,.07-.2,.11-.47,.11-.79v-13.9h8.27v10.5h-5.77v3.4l2.18-.95-.61-1.17,2.22-1.01Zm-.59-6.68v-1.62h-3.22v1.62h3.22Zm-3.22,2.37v1.6h3.22v-1.6h-3.22Zm6.84-5.97h7.34v12.28c0,.97-.21,1.66-.64,2.05-.42,.4-1.1,.6-2.03,.6h-1.46l-.53-2.77h1.27c.32,0,.53-.06,.61-.19s.12-.37,.12-.72v-8.46h-2.08v14.95h-2.61v-17.74Z"/>
          <path class="cls-82" d="M55.07,89.19h-3.16v2.61c0,.66-.05,1.15-.15,1.47-.1,.32-.31,.55-.62,.69s-.8,.21-1.46,.21h-1.66l-.42-2.31c-.54,.55-1.23,1.19-2.08,1.9l-.87-1.15v.08h-3.3v.95h-2.31v-17.31h5.6v6.86c.61-.35,1.13-.71,1.58-1.09-.2-.23-.5-.54-.89-.93l-.47-.49,1.29-1.33c.55,.55,1,1.02,1.36,1.4,.34-.46,.63-1,.89-1.64h-3.26v-2.23h3.86c.11-.57,.18-1.04,.22-1.42l2.51,.02-.24,1.4h4.55v2.23h-3.52c.36,.59,.74,1.11,1.13,1.54l1.36-1.33,1.29,1.44c-.35,.35-.75,.74-1.21,1.15,.53,.38,1.11,.72,1.76,1.03l-.77,2.47c-.42-.21-.76-.4-1.03-.57v4.37Zm-12.54-8.23v-2.06h-1.17v2.06h1.17Zm0,4.61v-2.12h-1.17v2.12h1.17Zm-1.17,2.45v2.21h1.17v-2.21h-1.17Zm8.09,1.17h-3.34v-3.98l-.77,.57-.69-1.29v7.24c.8-.65,1.64-1.48,2.53-2.51l1.56,1.36c-.2,.26-.51,.61-.91,1.07h1.09c.2,0,.34-.05,.41-.14,.07-.09,.11-.3,.11-.61v-1.7Zm3.36-5.26h-4.41v.83h4.41v-.83Zm-4.41,2.55v.83h4.41v-.83h-4.41Zm3.54-4.47c-.47-.58-.93-1.28-1.38-2.1-.35,.78-.75,1.48-1.19,2.1h2.57Zm1.72,7.18c.49,.42,.94,.81,1.38,1.18s.81,.7,1.13,.98c.2,.2,.4,.38,.61,.55l-1.62,1.94-1.38-1.27-1.62-1.5,1.5-1.88Z"/>
          <path class="cls-82" d="M77.4,88.6v2.43h-2.77v3.18h-2.49v-3.18h-3.62v-2.43h3.62v-1.7h-1.5c-.11,.32-.3,.8-.57,1.42l-1.92-.73v4.63c0,.73-.14,1.23-.42,1.52-.28,.28-.77,.43-1.46,.43h-1.54l-.2-1.09h-1.54v-3.26h-.97c-.07,.92-.19,1.72-.36,2.42-.17,.69-.42,1.39-.75,2.09l-1.98-1.48c.27-.73,.47-1.37,.6-1.93s.22-1.23,.27-2c.05-.78,.08-1.85,.08-3.23v-3.76l-.95-1.46c.54-.62,1.05-1.33,1.53-2.14,.48-.81,.97-1.75,1.49-2.83l2.51,.42c-.05,.15-.11,.29-.17,.42-.06,.13-.11,.24-.15,.33h3.7v2.12l-1.33,1.56h1.66v1.01c.47-.34,.83-.65,1.07-.94,.24-.29,.42-.58,.55-.87s.24-.67,.34-1.14h-1.36v-2.37h8.33l-.3,4.27c-.05,.61-.17,1.07-.33,1.4-.17,.32-.43,.55-.79,.69-.36,.13-.85,.2-1.49,.2h-1.9l-.38-1.88c-.45,.85-1.18,1.68-2.21,2.49l1.82,.46-.14,.77h.77v-1.09h2.49v1.09h2.51v2.47h-2.51v1.7h2.77Zm-12.6-9.67h-1.82c-.24,.46-.53,.93-.87,1.42h1.52l1.17-1.42Zm-2.67,5.1h.87v-1.52h-.87v1.52Zm0,3.64h.87v-1.52h-.87v1.52Zm3.9-5.16h-.97v1.52h.97v-1.52Zm0,5.16v-1.52h-.97v1.52h.97Zm-.51,4.23c.23,0,.37-.02,.42-.07,.05-.05,.08-.16,.08-.33v-1.68h-.97v2.08h.46Zm2.63-10.19v5.52c.55-1.21,.98-2.53,1.27-3.94l-1.27-1.58Zm4.47-3.3c-.01,.14-.05,.34-.1,.61-.07,.4-.2,.82-.38,1.25h1.17c.39,0,.64-.05,.76-.14,.11-.09,.19-.3,.21-.61l.06-.4,.08-.71h-1.8Z"/>
        </g>
        <path class="cls-74" d="M57.39,30.82c23.44,0,42.44,19,42.44,42.44s-19,42.44-42.44,42.44S14.95,96.7,14.95,73.26,33.95,30.82,57.39,30.82m0-4.92c-26.11,0-47.36,21.25-47.36,47.36s21.25,47.36,47.36,47.36,47.36-21.25,47.36-47.36S83.5,25.9,57.39,25.9h0Z"/>
        <path class="cls-94" d="M57.39,33.12c22.14,0,40.14,18.01,40.14,40.14s-18.01,40.14-40.14,40.14-40.14-18.01-40.14-40.14,18.01-40.14,40.14-40.14m0-3c-23.83,0-43.14,19.32-43.14,43.14s19.32,43.14,43.14,43.14,43.14-19.32,43.14-43.14S81.21,30.12,57.39,30.12h0Z"/>
        <g class="cls-73">
          <path class="cls-82" d="M55.53,11.67l.89-.12,.29,2.16-9.39,1.24-.29-2.16,1.33-.18-.43-3.3-.84,1.72c-.25-.18-.67-.45-1.25-.8l.69,5.22-2.12,.28-.62-4.71c-.32,.89-.7,1.73-1.12,2.5l-.95-2.46c.26-.46,.51-1.02,.75-1.67,.24-.64,.44-1.32,.6-2.03l-1.59,.21-.28-2.08,1.83-.24-.15-1.09-1.53,.48-.48-2.02c.82-.23,1.71-.5,2.67-.84,.96-.33,1.79-.65,2.48-.96l.61,1.94c-.48,.22-1.04,.45-1.68,.69l.2,1.52,1.73-.23,.28,2.08-1.73,.23,.1,.73c.79,.4,1.58,.86,2.39,1.38l-1.07-8.09,7.17-.95,1.52,11.53Zm-3.25-7.35l-.24-1.83-2.74,.36,.24,1.82,2.74-.36Zm-2.24,4.2l2.74-.36-.24-1.81-2.74,.36,.24,1.81Zm3.01,1.67l-2.74,.36,.23,1.78,2.75-.36-.23-1.78Z"/>
          <path class="cls-82" d="M68.36,12.91c2.3,.77,3.86,1.34,4.68,1.72l-.93,1.71c-.71-.31-1.58-.66-2.62-1.06-1.04-.4-1.91-.72-2.62-.97l.74-1.51-2.91-.43,.48,1.69c-.69,.1-1.62,.19-2.79,.27-1.16,.08-2.16,.11-2.99,.11l-.36-1.86c1.41,.02,3.14-.07,5.2-.27l-3.85-.56,1.05-7.17,11.65,1.71-1.05,7.17-3.69-.54ZM61.5,0l12.84,1.88-.57,3.91-12.84-1.88,.57-3.91Zm8.67,11.01l-7.25-1.06-.09,.62,7.25,1.06,.09-.62Zm-7.08-2.22l7.25,1.06,.09-.62-7.25-1.06-.09,.62Zm1.81-6.75l-1.5-.22-.14,.96,1.5,.22,.14-.96Zm5.7,6.04l.09-.62-7.25-1.06-.09,.62,7.25,1.06Zm-2.29-4.56l.14-.96-1.47-.22-.14,.97,1.47,.21Zm2.07,.3l1.49,.22,.14-.97-1.49-.22-.14,.97Z"/>
          <path class="cls-82" d="M84.7,9.42l-.79,1.5c-.03,.07-.06,.12-.09,.15l6.22,2.78c-.34,.67-.87,1.66-1.58,2.99-.71,1.33-1.12,2.1-1.25,2.31-.34,.6-.68,1.02-1.04,1.27-.36,.25-.77,.35-1.24,.32-.47-.04-1.05-.22-1.75-.53l-2.34-1.04,.54-2.3,2,.89c.44,.2,.78,.31,1.02,.34s.44,0,.6-.13,.32-.33,.5-.64c.16-.3,.38-.71,.67-1.23,.29-.51,.52-.92,.68-1.22l-4.16-1.86c-.77,1.14-1.64,2.06-2.6,2.77-.97,.71-2.22,1.31-3.76,1.82l-.85-2.38c1.11-.34,2.02-.73,2.72-1.17,.7-.43,1.33-.99,1.88-1.66s1.14-1.59,1.76-2.74c.26-.49,.48-.91,.65-1.25l-3.02-1.35,.91-2.03,5.24,2.34c.2-.88,.3-1.4,.32-1.54l2.59,.83s-.07,.49-.23,1.33l-.1,.53,4.81,2.15-.91,2.03-7.41-3.31Z"/>
          <path class="cls-82" d="M100.28,32.41c-.69-1.09-1.25-2.04-1.68-2.86-.43-.82-.77-1.62-1.04-2.41l-1.62,1.94-1.68-1.41,1.62-1.94c-.82-.12-1.69-.31-2.6-.57-.91-.27-1.94-.62-3.1-1.07l.65-2.1c1.6,.82,3,1.38,4.21,1.7l-3.12-2.6,1.12-1.34,4.62,3.86,.57-.69,1.68,1.4-.57,.69,4.62,3.86-1.12,1.34-3.02-2.52c.5,1.13,1.27,2.39,2.31,3.78l-1.86,.95Zm-2.29-14.02l-2.11-1.76,1.1-1.31,3.17,2.65c.3-.07,.59-.15,.89-.24l1.82,1.62c-.17,.05-.43,.13-.79,.22l5.55,4.63-1.1,1.31-1.73-1.45c-.72,.12-1.47,.13-2.26,.01,1.14,1.51,1.86,2.5,2.15,2.96l-1.62,.82c-.93-1.46-1.94-2.95-3.01-4.45-1.67-.63-3.75-1.75-6.24-3.36l.62-1.65c1.54,1.06,2.79,1.87,3.76,2.41-.46-.62-1.02-1.36-1.68-2.23,.53-.05,1.02-.11,1.48-.18Zm1.62-2.19l-.46,.55-1.68-1.41,1.57-1.88,4.09,3.42,.21-.7,2.05,1.17c-.08,.26-.19,.63-.35,1.12l4.04,3.37-1.53,1.83-1.66-1.38,.42-.5-6.69-5.59Zm.32,3.81c-.12,.03-.22,.04-.31,.06-.08,.01-.16,.02-.22,.03,.12,.12,.65,.79,1.6,1.98,.61,.19,1.17,.27,1.69,.25l-2.76-2.31Z"/>
        </g>
      </g>
    </g>
  </g>
</svg>