<?xml version="1.0" encoding="UTF-8"?>
<svg xmlns="http://www.w3.org/2000/svg" xmlns:xlink="http://www.w3.org/1999/xlink" viewBox="0 0 115.55 131.69">
  <defs>
    <style>
      .cls-1 {
        opacity: .61;
      }

      .cls-1, .cls-2, .cls-3, .cls-4, .cls-5 {
        fill: #2c2c2d;
      }

      .cls-6 {
        fill: #323233;
        opacity: .03;
      }

      .cls-7 {
        fill: #5f5f62;
        opacity: .65;
      }

      .cls-8 {
        fill: #59595b;
        opacity: .56;
      }

      .cls-9 {
        opacity: .82;
      }

      .cls-9, .cls-10, .cls-11, .cls-12, .cls-13 {
        fill: #2e2e2f;
      }

      .cls-14 {
        opacity: .16;
      }

      .cls-14, .cls-15, .cls-16, .cls-17, .cls-18 {
        fill: #282829;
      }

      .cls-19 {
        fill: #646466;
        opacity: .71;
      }

      .cls-20 {
        opacity: .51;
      }

      .cls-20, .cls-21, .cls-22, .cls-23, .cls-24, .cls-25 {
        fill: #2b2b2c;
      }

      .cls-26 {
        opacity: .67;
      }

      .cls-26, .cls-27, .cls-28, .cls-29, .cls-30 {
        fill: #2d2d2e;
      }

      .cls-31 {
        fill: #757578;
        opacity: .94;
      }

      .cls-2 {
        opacity: .57;
      }

      .cls-32, .cls-33, .cls-34, .cls-35 {
        fill: #262627;
      }

      .cls-36 {
        fill: #616164;
        opacity: .68;
      }

      .cls-15 {
        opacity: .22;
      }

      .cls-37 {
        opacity: .08;
      }

      .cls-37, .cls-38, .cls-39, .cls-40, .cls-41 {
        fill: #272728;
      }

      .cls-42 {
        opacity: .96;
      }

      .cls-42, .cls-43, .cls-44, .cls-45 {
        fill: #303031;
      }

      .cls-46 {
        fill: #434345;
        opacity: .26;
      }

      .cls-47 {
        fill: #4a4a4b;
        opacity: .35;
      }

      .cls-48 {
        fill: #343435;
        opacity: .06;
      }

      .cls-49 {
        fill: #414143;
        opacity: .24;
      }

      .cls-50 {
        isolation: isolate;
      }

      .cls-38 {
        opacity: .1;
      }

      .cls-21 {
        opacity: .53;
      }

      .cls-51 {
        fill: #4e4e50;
        opacity: .41;
      }

      .cls-52 {
        fill: #3d3d3e;
        opacity: .18;
      }

      .cls-53 {
        fill: #3b3b3c;
        opacity: .15;
      }

      .cls-54 {
        fill: #484849;
        opacity: .32;
      }

      .cls-16 {
        opacity: .24;
      }

      .cls-17 {
        opacity: .18;
      }

      .cls-55 {
        fill: #3f3f40;
        opacity: .21;
      }

      .cls-27 {
        opacity: .71;
      }

      .cls-56 {
        opacity: .27;
      }

      .cls-56, .cls-57, .cls-58, .cls-59, .cls-60 {
        fill: #29292a;
      }

      .cls-61 {
        opacity: .37;
      }

      .cls-61, .cls-62, .cls-63, .cls-64, .cls-65 {
        fill: #2a2a2b;
      }

      .cls-66 {
        opacity: .9;
      }

      .cls-66, .cls-67, .cls-68, .cls-69, .cls-70 {
        fill: #2f2f30;
      }

      .cls-71 {
        fill: #575759;
        opacity: .53;
      }

      .cls-62 {
        opacity: .35;
      }

      .cls-63 {
        opacity: .43;
      }

      .cls-72 {
        fill: #5b5b5d;
        opacity: .59;
      }

      .cls-73 {
        filter: url(#drop-shadow-1);
      }

      .cls-74 {
        fill: #c20d23;
      }

      .cls-67 {
        opacity: .92;
      }

      .cls-28 {
        opacity: .69;
      }

      .cls-75 {
        fill: #737375;
        opacity: .91;
      }

      .cls-76 {
        fill: #525254;
        opacity: .47;
      }

      .cls-33 {
        opacity: .02;
      }

      .cls-22 {
        opacity: .45;
      }

      .cls-77 {
        fill: #6e6e71;
        opacity: .85;
      }

      .cls-78 {
        fill: #363638;
        opacity: .09;
      }

      .cls-10 {
        opacity: .8;
      }

      .cls-39 {
        opacity: .14;
      }

      .cls-79 {
        fill: #6a6a6d;
        opacity: .79;
      }

      .cls-40 {
        opacity: .12;
      }

      .cls-11 {
        opacity: .78;
      }

      .cls-80 {
        fill: #79797c;
      }

      .cls-64 {
        opacity: .39;
      }

      .cls-29 {
        opacity: .73;
      }

      .cls-81 {
        fill: #707073;
        opacity: .88;
      }

      .cls-82 {
        fill: #fff000;
      }

      .cls-34 {
        opacity: .04;
      }

      .cls-83 {
        fill: #555557;
        opacity: .5;
      }

      .cls-84 {
        fill: #6c6c6f;
        opacity: .82;
      }

      .cls-85 {
        fill: #666668;
        opacity: .74;
      }

      .cls-57 {
        opacity: .25;
      }

      .cls-58 {
        opacity: .31;
      }

      .cls-86 {
        fill: #4c4c4e;
        opacity: .38;
      }

      .cls-3 {
        opacity: .65;
      }

      .cls-23 {
        opacity: .49;
      }

      .cls-18 {
        opacity: .2;
      }

      .cls-87 {
        fill: #39393a;
        opacity: .12;
      }

      .cls-30 {
        opacity: .75;
      }

      .cls-88 {
        fill: #77777a;
        opacity: .97;
      }

      .cls-65 {
        opacity: .41;
      }

      .cls-12 {
        opacity: .76;
      }

      .cls-44 {
        opacity: .98;
      }

      .cls-89 {
        opacity: .65;
      }

      .cls-89, .cls-90 {
        mix-blend-mode: multiply;
      }

      .cls-24 {
        opacity: .47;
      }

      .cls-68 {
        opacity: .88;
      }

      .cls-25 {
        opacity: .55;
      }

      .cls-91 {
        fill: #68686a;
        opacity: .76;
      }

      .cls-69 {
        opacity: .86;
      }

      .cls-92 {
        fill: #5d5d5f;
        opacity: .62;
      }

      .cls-41 {
        opacity: .06;
      }

      .cls-93 {
        fill: #454547;
        opacity: .29;
      }

      .cls-94 {
        fill: #f7cd1c;
      }

      .cls-4 {
        opacity: .59;
      }

      .cls-35, .cls-45 {
        opacity: 0;
      }

      .cls-59 {
        opacity: .33;
      }

      .cls-5 {
        opacity: .63;
      }

      .cls-70 {
        opacity: .94;
      }

      .cls-60 {
        opacity: .29;
      }

      .cls-95 {
        fill: #505052;
        opacity: .44;
      }

      .cls-13 {
        opacity: .84;
      }
    </style>
    <filter id="drop-shadow-1" filterUnits="userSpaceOnUse">
      <feOffset dx="0" dy="0"/>
      <feGaussianBlur result="blur" stdDeviation="5"/>
      <feFlood flood-color="#000" flood-opacity=".75"/>
      <feComposite in2="blur" operator="in"/>
      <feComposite in="SourceGraphic"/>
    </filter>
  </defs>
  <g class="cls-50">
    <g id="_圖層_2" data-name="圖層 2">
      <g id="_圖層_2-2" data-name="圖層 2">
        <g>
          <g class="cls-90">
            <circle class="cls-35" cx="52.14" cy="68.27" r="52.14"/>
            <circle class="cls-33" cx="52.23" cy="68.36" r="52.02"/>
            <circle class="cls-34" cx="52.32" cy="68.46" r="51.91"/>
            <circle class="cls-41" cx="52.41" cy="68.55" r="51.8"/>
            <circle class="cls-37" cx="52.51" cy="68.64" r="51.69"/>
            <circle class="cls-38" cx="52.6" cy="68.74" r="51.58"/>
            <circle class="cls-40" cx="52.69" cy="68.83" r="51.47"/>
            <circle class="cls-39" cx="52.79" cy="68.92" r="51.36"/>
            <circle class="cls-14" cx="52.88" cy="69.01" r="51.24"/>
            <circle class="cls-17" cx="52.97" cy="69.11" r="51.13"/>
            <circle class="cls-18" cx="53.06" cy="69.2" r="51.02"/>
            <circle class="cls-15" cx="53.16" cy="69.29" r="50.91"/>
            <circle class="cls-16" cx="53.25" cy="69.39" r="50.8"/>
            <circle class="cls-57" cx="53.34" cy="69.48" r="50.69"/>
            <circle class="cls-56" cx="53.44" cy="69.57" r="50.58"/>
            <circle class="cls-60" cx="53.53" cy="69.66" r="50.46"/>
            <circle class="cls-58" cx="53.62" cy="69.76" r="50.35"/>
            <circle class="cls-59" cx="53.72" cy="69.85" r="50.24"/>
            <circle class="cls-62" cx="53.81" cy="69.94" r="50.13"/>
            <circle class="cls-61" cx="53.9" cy="70.04" r="50.02"/>
            <circle class="cls-64" cx="53.99" cy="70.13" r="49.91"/>
            <circle class="cls-65" cx="54.09" cy="70.22" r="49.8"/>
            <circle class="cls-63" cx="54.18" cy="70.32" r="49.68"/>
            <circle class="cls-22" cx="54.27" cy="70.41" r="49.57"/>
            <circle class="cls-24" cx="54.37" cy="70.5" r="49.46" transform="translate(-23.93 112.87) rotate(-80.78)"/>
            <circle class="cls-23" cx="54.46" cy="70.59" r="49.35" transform="translate(-23.95 113.04) rotate(-80.78)"/>
            <circle class="cls-20" cx="54.55" cy="70.69" r="49.24" transform="translate(-23.96 113.21) rotate(-80.78)"/>
            <circle class="cls-21" cx="54.64" cy="70.78" r="49.13" transform="translate(-23.97 113.38) rotate(-80.78)"/>
            <circle class="cls-25" cx="54.74" cy="70.87" r="49.02" transform="translate(-23.99 113.55) rotate(-80.78)"/>
            <circle class="cls-2" cx="54.83" cy="70.97" r="48.9" transform="translate(-24 113.72) rotate(-80.78)"/>
            <circle class="cls-4" cx="54.92" cy="71.06" r="48.79" transform="translate(-24.02 113.89) rotate(-80.78)"/>
            <circle class="cls-1" cx="55.02" cy="71.15" r="48.68" transform="translate(-24.03 114.06) rotate(-80.78)"/>
            <circle class="cls-5" cx="55.11" cy="71.24" r="48.57" transform="translate(-24.04 114.23) rotate(-80.78)"/>
            <circle class="cls-3" cx="55.2" cy="71.34" r="48.46" transform="translate(-24.06 114.4) rotate(-80.78)"/>
            <circle class="cls-26" cx="55.3" cy="71.43" r="48.35" transform="translate(-24.07 114.57) rotate(-80.78)"/>
            <circle class="cls-28" cx="55.39" cy="71.52" r="48.24" transform="translate(-24.08 114.74) rotate(-80.78)"/>
            <circle class="cls-27" cx="55.48" cy="71.62" r="48.12" transform="translate(-24.1 114.91) rotate(-80.78)"/>
            <circle class="cls-29" cx="55.57" cy="71.71" r="48.01" transform="translate(-24.11 115.08) rotate(-80.78)"/>
            <circle class="cls-30" cx="55.67" cy="71.8" r="47.9" transform="translate(-24.12 115.25) rotate(-80.78)"/>
            <circle class="cls-12" cx="55.76" cy="71.89" r="47.79" transform="translate(-24.14 115.42) rotate(-80.78)"/>
            <circle class="cls-11" cx="55.85" cy="71.99" r="47.68" transform="translate(-24.15 115.59) rotate(-80.78)"/>
            <circle class="cls-10" cx="55.95" cy="72.08" r="47.57" transform="translate(-24.17 115.76) rotate(-80.78)"/>
            <circle class="cls-9" cx="56.04" cy="72.17" r="47.46" transform="translate(-24.18 115.93) rotate(-80.78)"/>
            <circle class="cls-13" cx="56.13" cy="72.27" r="47.34" transform="translate(-24.19 116.1) rotate(-80.78)"/>
            <circle class="cls-69" cx="56.22" cy="72.36" r="47.23" transform="translate(-24.21 116.27) rotate(-80.78)"/>
            <circle class="cls-68" cx="56.32" cy="72.45" r="47.12" transform="translate(-24.22 116.44) rotate(-80.78)"/>
            <circle class="cls-66" cx="56.41" cy="72.55" r="47.01" transform="translate(-24.23 116.61) rotate(-80.78)"/>
            <circle class="cls-67" cx="56.5" cy="72.64" r="46.9" transform="translate(-24.25 116.78) rotate(-80.78)"/>
            <circle class="cls-70" cx="56.6" cy="72.73" r="46.79" transform="translate(-24.26 116.95) rotate(-80.78)"/>
            <circle class="cls-42" cx="56.69" cy="72.82" r="46.68" transform="translate(-24.28 117.12) rotate(-80.78)"/>
            <circle class="cls-44" cx="56.78" cy="72.92" r="46.56" transform="translate(-24.29 117.29) rotate(-80.78)"/>
            <circle class="cls-43" cx="56.87" cy="73.01" r="46.45" transform="translate(-24.3 117.46) rotate(-80.78)"/>
          </g>
          <g class="cls-89">
            <circle class="cls-45" cx="63.42" cy="79.55" r="52.14"/>
            <circle class="cls-6" cx="63.27" cy="79.4" r="51.94"/>
            <circle class="cls-48" cx="63.12" cy="79.26" r="51.75"/>
            <circle class="cls-78" cx="62.98" cy="79.11" r="51.55"/>
            <circle class="cls-87" cx="62.83" cy="78.97" r="51.36"/>
            <circle class="cls-53" cx="62.68" cy="78.82" r="51.16"/>
            <circle class="cls-52" cx="62.54" cy="78.67" r="50.97"/>
            <circle class="cls-55" cx="62.39" cy="78.53" r="50.78"/>
            <circle class="cls-49" cx="62.24" cy="78.38" r="50.58"/>
            <circle class="cls-46" cx="62.1" cy="78.23" r="50.39"/>
            <circle class="cls-93" cx="61.95" cy="78.09" r="50.19"/>
            <circle class="cls-54" cx="61.81" cy="77.94" r="50"/>
            <circle class="cls-47" cx="61.66" cy="77.79" r="49.8"/>
            <circle class="cls-86" cx="61.51" cy="77.65" r="49.61"/>
            <circle class="cls-51" cx="61.37" cy="77.5" r="49.41"/>
            <circle class="cls-95" cx="61.22" cy="77.36" r="49.22"/>
            <circle class="cls-76" cx="61.07" cy="77.21" r="49.03"/>
            <circle class="cls-83" cx="60.93" cy="77.06" r="48.83"/>
            <circle class="cls-71" cx="60.78" cy="76.92" r="48.64"/>
            <circle class="cls-8" cx="60.63" cy="76.77" r="48.44"/>
            <circle class="cls-72" cx="60.49" cy="76.62" r="48.25"/>
            <circle class="cls-92" cx="60.34" cy="76.48" r="48.05"/>
            <circle class="cls-7" cx="60.2" cy="76.33" r="47.86"/>
            <circle class="cls-36" cx="60.05" cy="76.18" r="47.67"/>
            <circle class="cls-19" cx="59.9" cy="76.04" r="47.47"/>
            <circle class="cls-85" cx="59.76" cy="75.89" r="47.28"/>
            <circle class="cls-91" cx="59.61" cy="75.75" r="47.08"/>
            <circle class="cls-79" cx="59.46" cy="75.6" r="46.89"/>
            <circle class="cls-84" cx="59.32" cy="75.45" r="46.69"/>
            <circle class="cls-77" cx="59.17" cy="75.31" r="46.5"/>
            <circle class="cls-81" cx="59.02" cy="75.16" r="46.31"/>
            <circle class="cls-75" cx="58.88" cy="75.01" r="46.11"/>
            <circle class="cls-31" cx="58.73" cy="74.87" r="45.92"/>
            <circle class="cls-88" cx="58.59" cy="74.72" r="45.72"/>
            <circle class="cls-80" cx="58.44" cy="74.57" r="45.53"/>
          </g>
          <circle class="cls-32" cx="57.4" cy="73.53" r="47.4"/>
        </g>
        <g>
          <path class="cls-82" d="M56.54,68.45v2.83h-17.94v-2.83h9.33c.54-1.29,1.13-2.83,1.76-4.62,.63-1.79,1.14-3.29,1.52-4.5l3.07,1.19c-.47,1.29-1.37,3.61-2.69,6.96l-.38,.97h5.34Zm-.49-12.26v2.83h-16.83v-2.83h7.1l-.44-1.46c-.11-.3-.23-.68-.36-1.15l3.16-.51c.43,1.33,.74,2.37,.93,3.12h6.45Zm-12.32,11.79c-.49-1.62-1.38-4.07-2.69-7.36l2.65-1.01c.53,1.39,1.47,3.79,2.83,7.2l-2.79,1.17Z"/>
          <path class="cls-82" d="M66.29,64.55c.86,1.59,1.81,3.41,2.85,5.46l-2.29,1.23c-.47-1.01-.81-1.72-1.01-2.12l-5.12,2.25-1.38-2.29c.27-.2,.44-.4,.52-.61s.11-.46,.11-.79v-13.9h8.27v10.5h-5.77v3.4l2.18-.95-.61-1.17,2.22-1.01Zm-.59-6.67v-1.62h-3.22v1.62h3.22Zm-3.22,2.37v1.6h3.22v-1.6h-3.22Zm6.84-5.97h7.34v12.28c0,.97-.21,1.66-.64,2.05-.42,.4-1.1,.6-2.03,.6h-1.46l-.53-2.77h1.27c.32,0,.53-.06,.61-.19s.12-.37,.12-.72v-8.46h-2.08v14.95h-2.61v-17.74Z"/>
          <path class="cls-82" d="M55.07,89.46h-3.16v2.61c0,.66-.05,1.15-.15,1.47-.1,.32-.31,.55-.62,.69s-.8,.21-1.46,.21h-1.66l-.42-2.31c-.54,.55-1.23,1.19-2.08,1.9l-.87-1.15v.08h-3.3v.95h-2.31v-17.31h5.6v6.86c.61-.35,1.13-.71,1.58-1.09-.2-.23-.5-.54-.89-.93l-.47-.49,1.29-1.33c.55,.55,1,1.02,1.36,1.4,.34-.46,.63-1,.89-1.64h-3.26v-2.22h3.86c.11-.57,.18-1.04,.22-1.42l2.51,.02-.24,1.4h4.55v2.22h-3.52c.36,.59,.74,1.11,1.13,1.54l1.36-1.33,1.29,1.44c-.35,.35-.75,.74-1.21,1.15,.53,.38,1.11,.72,1.76,1.03l-.77,2.47c-.42-.22-.76-.4-1.03-.57v4.37Zm-12.54-8.23v-2.06h-1.17v2.06h1.17Zm0,4.61v-2.12h-1.17v2.12h1.17Zm-1.17,2.45v2.2h1.17v-2.2h-1.17Zm8.09,1.17h-3.34v-3.98l-.77,.57-.69-1.29v7.24c.8-.65,1.64-1.48,2.53-2.51l1.56,1.35c-.2,.26-.51,.61-.91,1.07h1.09c.2,0,.34-.05,.41-.14,.07-.09,.11-.3,.11-.61v-1.7Zm3.36-5.26h-4.41v.83h4.41v-.83Zm-4.41,2.55v.83h4.41v-.83h-4.41Zm3.54-4.47c-.47-.58-.93-1.28-1.38-2.1-.35,.78-.75,1.48-1.19,2.1h2.57Zm1.72,7.18c.49,.42,.94,.81,1.38,1.18,.43,.37,.81,.7,1.13,.98,.2,.2,.4,.38,.61,.55l-1.62,1.94-1.38-1.27-1.62-1.5,1.5-1.88Z"/>
          <path class="cls-82" d="M77.4,88.87v2.43h-2.77v3.18h-2.49v-3.18h-3.62v-2.43h3.62v-1.7h-1.5c-.11,.32-.3,.8-.57,1.42l-1.92-.73v4.63c0,.73-.14,1.23-.42,1.52s-.77,.42-1.46,.42h-1.54l-.2-1.09h-1.54v-3.26h-.97c-.07,.92-.19,1.72-.36,2.42-.17,.69-.42,1.39-.75,2.09l-1.98-1.48c.27-.73,.47-1.37,.6-1.93s.22-1.23,.27-2c.05-.78,.08-1.85,.08-3.23v-3.76l-.95-1.46c.54-.62,1.05-1.33,1.53-2.14,.48-.81,.97-1.75,1.49-2.83l2.51,.42c-.05,.15-.11,.29-.17,.41-.06,.13-.11,.24-.15,.33h3.7v2.12l-1.33,1.56h1.66v1.01c.47-.34,.83-.65,1.07-.94,.24-.29,.42-.58,.55-.87,.12-.29,.24-.67,.34-1.14h-1.36v-2.37h8.33l-.3,4.27c-.05,.61-.17,1.07-.33,1.4-.17,.32-.43,.55-.79,.69-.36,.14-.85,.2-1.49,.2h-1.9l-.38-1.88c-.45,.85-1.18,1.68-2.21,2.49l1.82,.46-.14,.77h.77v-1.09h2.49v1.09h2.51v2.47h-2.51v1.7h2.77Zm-12.6-9.67h-1.82c-.24,.46-.53,.93-.87,1.42h1.52l1.17-1.42Zm-2.67,5.1h.87v-1.52h-.87v1.52Zm0,3.64h.87v-1.52h-.87v1.52Zm3.9-5.16h-.97v1.52h.97v-1.52Zm0,5.16v-1.52h-.97v1.52h.97Zm-.51,4.23c.23,0,.37-.02,.42-.07,.05-.05,.08-.16,.08-.33v-1.68h-.97v2.08h.46Zm2.63-10.19v5.52c.55-1.21,.98-2.53,1.27-3.94l-1.27-1.58Zm4.47-3.3c-.01,.13-.05,.34-.1,.61-.07,.4-.2,.82-.38,1.25h1.17c.39,0,.64-.05,.76-.14,.11-.09,.19-.3,.21-.61l.06-.4,.08-.71h-1.8Z"/>
        </g>
        <path class="cls-74" d="M57.39,31.09c23.44,0,42.44,19,42.44,42.44s-19,42.44-42.44,42.44S14.95,96.97,14.95,73.53,33.95,31.09,57.39,31.09m0-4.92c-26.11,0-47.36,21.25-47.36,47.36s21.25,47.36,47.36,47.36,47.36-21.25,47.36-47.36S83.5,26.17,57.39,26.17h0Z"/>
        <path class="cls-94" d="M57.39,33.38c22.14,0,40.14,18.01,40.14,40.14s-18.01,40.14-40.14,40.14-40.14-18.01-40.14-40.14,18.01-40.14,40.14-40.14m0-3c-23.83,0-43.14,19.32-43.14,43.14s19.32,43.14,43.14,43.14,43.14-19.32,43.14-43.14S81.21,30.38,57.39,30.38h0Z"/>
        <g class="cls-73">
          <path class="cls-74" d="M28.95,18.78l.75-.49,1.19,1.82-7.93,5.18-1.19-1.82,1.12-.73-1.82-2.79v1.92c-.31-.06-.8-.12-1.49-.18l2.88,4.41-1.79,1.17-2.6-3.98c.09,.94,.12,1.86,.07,2.74l-1.92-1.8c.04-.53,.02-1.14-.04-1.82-.06-.68-.18-1.38-.34-2.09l-1.34,.88-1.15-1.75,1.54-1.01-.6-.92-1.18,1.09-1.3-1.61c.64-.56,1.33-1.2,2.05-1.91,.72-.71,1.33-1.36,1.82-1.94l1.39,1.48c-.33,.41-.74,.86-1.22,1.35l.84,1.29,1.46-.95,1.15,1.75-1.46,.95,.4,.62c.88,.02,1.8,.09,2.75,.21l-4.46-6.83,6.06-3.96,6.36,9.74Zm-6.11-5.22l-1.01-1.54-2.32,1.51,1.01,1.54,2.32-1.51Zm-.2,4.75l2.32-1.51-1-1.53-2.32,1.51,1,1.53Zm3.44,.2l-2.32,1.51,.98,1.5,2.32-1.51-.98-1.5Z"/>
          <path class="cls-74" d="M29.29,5.67l12.39-3.86,1.17,3.77-12.39,3.86-1.17-3.77Zm11.77,8.67c2.41-.3,4.06-.46,4.96-.47l-.1,1.94c-.77,.03-1.71,.09-2.82,.17-1.11,.09-2.03,.17-2.78,.26v-1.68s-2.8,.88-2.8,.88l1.16,1.31c-.58,.39-1.38,.88-2.4,1.45-1.02,.57-1.9,1.04-2.65,1.39l-1.13-1.53c1.28-.59,2.8-1.42,4.57-2.5l-3.71,1.16-2.15-6.92,11.24-3.5,2.15,6.92-3.56,1.11Zm-7.82-8.31l-1.45,.45,.29,.93,1.45-.45-.29-.93Zm7.75,2.98l-.19-.6-7,2.18,.19,.6,7-2.18Zm-6.46,3.89l7-2.18-.19-.6-7,2.18,.19,.6Zm7.34-1.06l-7,2.18,.18,.6,7-2.18-.19-.6Zm-4.92-5.94l-.29-.93-1.42,.44,.29,.93,1.42-.44Zm2-.62l1.44-.45-.29-.93-1.44,.45,.29,.93Z"/>
          <path class="cls-74" d="M54.25,4.13l-.07,1.7c0,.07,0,.13-.01,.18l6.81-.19c-.02,.75-.06,1.87-.12,3.38-.06,1.51-.1,2.38-.13,2.63-.05,.68-.17,1.22-.39,1.6-.21,.38-.54,.65-.98,.82-.44,.17-1.04,.26-1.81,.28l-2.56,.07-.51-2.31,2.19-.06c.48-.01,.84-.06,1.07-.13,.23-.08,.4-.2,.49-.37,.09-.17,.15-.44,.17-.79,.01-.34,.04-.81,.07-1.39,.04-.59,.07-1.05,.09-1.4l-4.56,.13c-.2,1.36-.58,2.57-1.15,3.62-.57,1.06-1.44,2.14-2.6,3.27l-1.79-1.78c.85-.79,1.5-1.54,1.95-2.23,.44-.69,.77-1.46,.98-2.31,.21-.84,.34-1.92,.4-3.24,.03-.56,.04-1.02,.04-1.41l-3.31,.09-.06-2.22,5.74-.16c-.21-.88-.33-1.39-.38-1.53l2.69-.38s.15,.48,.37,1.3l.14,.52,5.26-.14,.06,2.22-8.11,.22Z"/>
          <path class="cls-74" d="M78.27,18.11c-1.09-.68-2.01-1.3-2.75-1.85-.74-.55-1.4-1.12-1.97-1.72l-.62,2.45-2.12-.54,.62-2.45c-.79,.25-1.65,.45-2.59,.61-.94,.15-2.02,.28-3.25,.37l-.32-2.18c1.79,.05,3.3-.05,4.53-.29l-3.94-1,.43-1.69,5.83,1.48,.22-.87,2.12,.54-.22,.87,5.83,1.48-.43,1.69-3.82-.97c.94,.8,2.18,1.6,3.71,2.41l-1.26,1.66Zm-8.12-11.65l-2.67-.68,.42-1.66,4,1.01c.24-.19,.47-.39,.7-.6l2.34,.68c-.13,.12-.33,.3-.62,.54l7.01,1.78-.42,1.66-2.19-.55c-.59,.42-1.27,.75-2.03,.99,1.68,.87,2.76,1.45,3.22,1.74l-1.11,1.44c-1.47-.91-3.02-1.82-4.64-2.71-1.78,.15-4.14,.05-7.08-.33l-.15-1.75c1.85,.29,3.33,.48,4.43,.55-.68-.36-1.51-.79-2.48-1.29,.45-.27,.87-.54,1.26-.8Zm.51-2.68l-.18,.7-2.12-.54,.6-2.37,5.17,1.31-.11-.72,2.35,.17c.04,.26,.1,.65,.17,1.16l5.1,1.29-.58,2.31-2.09-.53,.16-.64-8.45-2.14Zm1.94,3.3c-.1,.07-.18,.14-.25,.18-.07,.05-.14,.09-.19,.12,.16,.06,.93,.43,2.3,1.09,.63-.09,1.17-.26,1.63-.51l-3.49-.88Z"/>
        </g>
      </g>
    </g>
  </g>
</svg>